<?xml version="1.0" standalone="no"?>
<!DOCTYPE svg PUBLIC "-//W3C//DTD SVG 1.1//EN" "http://www.w3.org/Graphics/SVG/1.1/DTD/svg11.dtd" >
<svg xmlns="http://www.w3.org/2000/svg" xmlns:xlink="http://www.w3.org/1999/xlink" version="1.1">
<metadata>
Created by FontForge 20170731 at Fri Apr  9 11:14:25 2021
 By Aleksey,,,
Copyright (c) 2017 by Deni Anggara. All rights reserved.
</metadata>
<defs>
<font id="AllianceNo.2-RegularItalic" horiz-adv-x="0" >
  <font-face 
    font-family="Alliance No.2"
    font-weight="400"
    font-style="italic"
    font-stretch="normal"
    units-per-em="2048"
    panose-1="0 0 5 0 0 0 0 0 0 0"
    ascent="1642"
    descent="-406"
    x-height="1069"
    cap-height="1493"
    bbox="-858 -477 4463 2005"
    underline-thickness="102"
    underline-position="-307"
    slope="-8"
    unicode-range="U+000D-FB02"
  />
<missing-glyph horiz-adv-x="1318" 
d="M1454 0h-1319v1493h1319v-1493zM264 1364v-1237h1061v1237h-1061zM1196 256h-803v979h803v-979zM522 1106v-719h545v719h-545zM651 516v461h287v-461h-287z" />
    <glyph glyph-name="fi" unicode="fi" horiz-adv-x="1232" 
d="M489 1069h644l-152 -1069h-176l131 922h-469l-129 -922h-176l129 922h-207l22 147h207l9 64l28 208q21 160 180 160h295l-18 -145h-279l-30 -223zM983 1268l33 233h174l-31 -233h-176z" />
    <glyph glyph-name="fl" unicode="fl" horiz-adv-x="1245" 
d="M530 1501h672l-209 -1501h-176l191 1356h-480l-30 -223l-9 -64h232l-23 -147h-231l-129 -922h-176l129 922h-207l20 147h209l9 64l28 208q21 160 180 160z" />
    <glyph glyph-name="f_f" unicode="ff" horiz-adv-x="1370" 
d="M1458 1356h-278l-31 -223l-8 -64h231l-22 -147h-232l-129 -922h-176l129 922h-475l-129 -922h-176l129 922h-207l22 147h207l9 64l28 208q21 160 180 160h291l-20 -145h-273l-30 -223l-9 -64h476l8 64l28 210q10 78 56.5 118t124.5 40h295z" />
    <glyph glyph-name="f_f_i" unicode="ffi" horiz-adv-x="1884" 
d="M1141 1069h643l-152 -1069h-176l131 922h-469l-129 -922h-176l129 922h-475l-129 -922h-176l129 922h-207l22 147h207l9 64l28 208q21 160 180 160h291l-20 -145h-273l-30 -223l-9 -64h476l8 64l28 208q21 160 181 160h295l-19 -145h-278l-31 -223zM1632 1249l33 234h176
l-33 -234h-176z" />
    <glyph glyph-name="f_t" unicode="ft" horiz-adv-x="1406" 
d="M1376 922h-225l-74 -525l-35 -250h228l-21 -147h-245q-157 0 -136 150l109 772h-508l-129 -922h-176l129 922h-209l22 147h209l7 55l32 230q21 147 189 147h282l-18 -145h-277l-32 -232l-6 -55h505l50 354h176l-49 -354h225z" />
    <glyph glyph-name="t_i" unicode="ti" horiz-adv-x="1226" 
d="M975 1249l31 234h176l-33 -234h-174zM475 1069h649l-151 -1069h-176l131 922h-475l-74 -525l-35 -250h221l-20 -147h-236q-158 0 -137 158l33 239l74 525h-197l20 147h197l49 354h176z" />
    <glyph glyph-name="t_t" unicode="tt" horiz-adv-x="1355" 
d="M1325 922h-221l-74 -525l-35 -250h224l-21 -147h-240q-158 0 -137 158l33 239l74 525h-473l-74 -525l-35 -250h223l-20 -147h-240q-158 0 -137 158l33 239l74 525h-197l20 147h197l49 354h178l-49 -354h471l49 354h179l-50 -354h222z" />
    <glyph glyph-name="t_t_i" unicode="tti" horiz-adv-x="1875" 
d="M1624 1249l31 234h176l-33 -234h-174zM1126 1069h648l-152 -1069h-174l129 922h-473l-74 -525l-35 -250h224l-21 -147h-240q-158 0 -137 158l33 239l74 525h-473l-74 -525l-35 -250h223l-20 -147h-240q-158 0 -137 158l33 239l74 525h-197l20 147h197l49 354h178
l-49 -354h471l49 354h179z" />
    <glyph glyph-name=".notdef" horiz-adv-x="1318" 
d="M1454 0h-1319v1493h1319v-1493zM264 1364v-1237h1061v1237h-1061zM1196 256h-803v979h803v-979zM522 1106v-719h545v719h-545zM651 516v461h287v-461h-287z" />
    <glyph glyph-name=".null" 
 />
    <glyph glyph-name="nonmarkingreturn" horiz-adv-x="682" 
 />
    <glyph glyph-name="CR.001" unicode="&#xd;" horiz-adv-x="489" 
 />
    <glyph glyph-name="space" unicode=" " horiz-adv-x="477" 
 />
    <glyph glyph-name="exclam" unicode="!" horiz-adv-x="573" 
d="M319 449h-86l41 620l60 424h178l-59 -424zM313 0h-202l26 186h203z" />
    <glyph glyph-name="quotedbl" unicode="&#x22;" horiz-adv-x="724" 
d="M379 1225l-92 -330h-74l-2 330l39 268h168zM709 1225l-91 -330h-75v330l37 268h168z" />
    <glyph glyph-name="numbersign" unicode="#" horiz-adv-x="1474" 
d="M1427 1104l-16 -117h-240l-59 -428h238l-17 -117h-237l-62 -442h-125l62 442l-490 -2l-61 -440h-125l61 440h-239l14 117h242l59 428h-239l16 117h240l61 434h125l-62 -434l490 2l61 432h125l-61 -432h239zM498 557l489 2l60 428l-490 -2z" />
    <glyph glyph-name="dollar" unicode="$" horiz-adv-x="1130" 
d="M1075 1026h-176q12 105 -48.5 168t-178.5 63t-191 -63t-73 -166q0 -66 45.5 -104t142.5 -64l174 -45q268 -71 268 -287q0 -172 -125 -288q-128 -119 -325 -134l-27 -184h-137l27 187q-182 19 -270.5 125.5t-63.5 271.5h176q-17 -127 48.5 -193.5t203.5 -66.5
q136 0 220.5 67t84.5 176q0 123 -176 170l-174 46q-279 73 -279 286q0 163 113 273q114 114 297 129l26 186h138l-27 -186q161 -19 244 -116t63 -251z" />
    <glyph glyph-name="percent" unicode="%" horiz-adv-x="1839" 
d="M211 1141q0 165 98 266q102 102 262 102q161 0 261 -102t100 -268q0 -167 -101 -271q-99 -102 -260 -102t-260.5 104t-99.5 271zM625 0h-150l946 1493h150zM356 1141q0 -111 59.5 -179.5t155.5 -68.5t155.5 68.5t59.5 179.5q0 109 -59 176t-156 67q-94 0 -154.5 -67.5
t-60.5 -175.5zM1083 354q0 166 101 267q101 104 262 104q159 0 257.5 -103.5t98.5 -269.5t-98.5 -269t-257.5 -103q-162 0 -262.5 103.5t-100.5 270.5zM1229 354q0 -110 60 -179t157 -69q94 0 153.5 69t59.5 179q0 109 -59.5 177.5t-153.5 68.5q-96 0 -156.5 -69.5
t-60.5 -176.5z" />
    <glyph glyph-name="ampersand" unicode="&#x26;" horiz-adv-x="1329" 
d="M1210 0h-702q-438 0 -438 324q0 154 84 282q80 122 217 164l2 16q-174 70 -174 271q0 199 141 325q145 127 373 127q86 0 168 -16l-21 -152q-56 21 -149 21q-140 0 -222 -59.5t-100 -165.5l-12 -70q-15 -109 57 -160q71 -51 189 -51h313l35 238h172l-33 -238h221
l-22 -151h-222l-77 -549h223zM522 156h316l75 549h-335q-135 0 -215 -63.5t-97 -180.5l-10 -80q-18 -114 51.5 -169.5t214.5 -55.5z" />
    <glyph glyph-name="quotesingle" unicode="'" horiz-adv-x="395" 
d="M379 1225l-92 -330h-74l-2 330l39 268h168z" />
    <glyph glyph-name="parenleft" unicode="(" horiz-adv-x="825" 
d="M172 492q0 313 170 618q174 307 436 465h131q-264 -156 -436 -463q-170 -305 -170 -618q0 -236 92 -443q90 -202 252 -321h-129q-167 122 -256 323q-90 209 -90 439z" />
    <glyph glyph-name="parenright" unicode=")" horiz-adv-x="819" 
d="M690 811q0 -317 -172 -621q-169 -303 -434 -460h-129q263 155 434 463q170 308 170 622q0 236 -92 440q-92 207 -254 320h129q161 -115 254 -324q94 -204 94 -440z" />
    <glyph glyph-name="asterisk" unicode="*" horiz-adv-x="710" 
d="M199 1006l-39 86l233 102l-205 106l64 89l176 -144l12 248h99l-58 -250l219 146l39 -89l-237 -106l209 -102l-64 -86l-178 143l-14 -250h-99l60 250z" />
    <glyph glyph-name="plus" unicode="+" horiz-adv-x="1318" 
d="M1151 588h-408l-61 -441h-156l62 441h-406l21 149h405l60 420h155l-57 -420h405z" />
    <glyph glyph-name="comma" unicode="," horiz-adv-x="415" 
d="M-31 -291l11 88q144 0 165 144l9 59h-125l34 252h230l-43 -309q-17 -110 -92.5 -172t-188.5 -62z" />
    <glyph glyph-name="hyphen" unicode="-" horiz-adv-x="944" 
d="M821 555h-694l18 121h693z" />
    <glyph glyph-name="period" unicode="." horiz-adv-x="503" 
d="M293 0h-232l37 258h232z" />
    <glyph glyph-name="slash" unicode="/" horiz-adv-x="841" 
d="M115 0h-131l804 1493h130z" />
    <glyph glyph-name="zero" unicode="0" horiz-adv-x="1282" 
d="M145 492q0 462 172 731q175 272 465 272q420 0 420 -510q0 -461 -172 -733q-169 -272 -461 -272q-424 0 -424 512zM395 958l-61 -442q-26 -182 42.5 -279.5t213.5 -97.5q141 0 238.5 96t125.5 281l62 442q24 182 -44.5 279.5t-213.5 97.5t-241 -97.5t-122 -279.5z" />
    <glyph glyph-name="one" unicode="1" horiz-adv-x="937" 
d="M563 1085h-370l20 140h57q143 0 242.5 70t116.5 182h166l-207 -1477h-176z" />
    <glyph glyph-name="two" unicode="2" horiz-adv-x="1183" 
d="M811 608l-487 -454l229 8h453l-23 -162h-924l19 131l610 571q216 201 234 324l8 74q14 106 -51.5 169.5t-188.5 63.5q-126 0 -216 -71t-103 -187l-6 -47h-179l4 39q20 188 175 309q149 119 362 119q183 0 289 -95t106 -257q0 -177 -106 -314q-51 -68 -90 -110
q-29 -31 -115 -111z" />
    <glyph glyph-name="three" unicode="3" horiz-adv-x="1212" 
d="M563 -20q-223 0 -334 126t-73 340h188q-28 -150 37.5 -229.5t200.5 -79.5q133 0 224 65t105 169l11 80q17 113 -56.5 173t-218.5 60h-108l20 156h105q134 0 219.5 59t97.5 158l10 73q8 66 -22.5 113.5t-86.5 69.5t-130 22q-134 0 -217 -78.5t-103 -224.5h-186
q24 210 174 336q151 127 364 127q180 0 289 -90.5t109 -239.5q0 -130 -71.5 -232t-203.5 -157v-12q100 -37 151.5 -115.5t51.5 -181.5q0 -212 -156 -350q-152 -137 -391 -137z" />
    <glyph glyph-name="four" unicode="4" horiz-adv-x="1251" 
d="M1110 1477l-141 -1004h184l-20 -154h-187l-45 -319h-178l45 319h-725l23 156l763 1002h281zM254 473h537l122 875z" />
    <glyph glyph-name="five" unicode="5" horiz-adv-x="1236" 
d="M147 451h183q-23 -135 49 -223.5t207 -88.5q127 0 227 68q100 69 115 180l26 180q15 115 -65 183q-78 69 -209 69q-94 0 -180 -42.5t-123 -108.5h-168l143 809h846l-22 -160h-687l-86 -453l9 -2q51 49 140 81t177 32q189 0 298.5 -108t109.5 -294q0 -258 -164 -428
q-162 -165 -416 -165q-214 0 -328 129q-116 134 -82 342z" />
    <glyph glyph-name="six" unicode="6" horiz-adv-x="1249" 
d="M154 496q0 459 174 727q175 272 473 272q192 0 299 -100t100 -273h-186q0 105 -65 160t-173 55q-358 0 -411 -587h8q126 208 379 208q181 0 284 -101.5t103 -283.5q0 -261 -156 -428q-155 -165 -399 -165q-430 0 -430 516zM377 555l-23 -158q-18 -120 58 -190
q77 -68 194 -68t211 70q95 71 113 188l22 158q15 120 -61 184q-78 66 -191 66q-118 0 -213 -68q-95 -65 -110 -182z" />
    <glyph glyph-name="seven" unicode="7" horiz-adv-x="1120" 
d="M301 1047h-151l59 430h971l-19 -127q-249 -292 -459 -656q-205 -360 -315 -694h-194q99 313 299 668q200 350 446 649h-598z" />
    <glyph glyph-name="eight" unicode="8" horiz-adv-x="1214" 
d="M530 -20q-211 0 -324.5 91t-113.5 251q0 138 71 247.5t197 159.5l2 16q-174 76 -174 273q0 209 154 342t399 133q208 0 323.5 -93t115.5 -253q0 -137 -71 -244t-198 -158l-2 -16q172 -82 172 -278q0 -210 -153 -342q-150 -129 -398 -129zM645 811q138 0 230.5 58.5
t105.5 160.5l10 82q13 109 -58 165t-214 56q-142 0 -228.5 -56.5t-103.5 -164.5l-12 -82q-13 -102 60 -160.5t210 -58.5zM553 139q139 0 231 61.5t105 174.5l10 84q13 97 -60 151t-214 54t-230 -54t-102 -151l-10 -84q-13 -115 59 -175.5t211 -60.5z" />
    <glyph glyph-name="nine" unicode="9" horiz-adv-x="1247" 
d="M1171 979q0 -453 -176 -727q-175 -272 -469 -272q-195 0 -302 99.5t-99 272.5h186q0 -105 65 -160t173 -55q356 0 412 588h-11q-126 -209 -377 -209q-181 0 -283 102t-102 285q0 261 154 426q156 166 399 166q430 0 430 -516zM948 922l21 155q18 118 -54.5 188t-195.5 70
q-121 0 -213 -69q-96 -72 -111 -189l-22 -155q-15 -122 59 -185q77 -65 195 -65q114 0 209 65q97 66 112 185z" />
    <glyph glyph-name="colon" unicode=":" horiz-adv-x="559" 
d="M446 838h-231l33 231h231zM328 0h-230l31 229h231z" />
    <glyph glyph-name="semicolon" unicode=";" horiz-adv-x="495" 
d="M379 838h-229l32 231h230zM-25 -266l13 78q80 0 114 32t45 99l9 57h-125l32 229h230l-39 -286q-13 -99 -87.5 -154t-191.5 -55z" />
    <glyph glyph-name="less" unicode="&#x3c;" horiz-adv-x="1134" 
d="M918 266l-29 -194l-719 456l18 140l846 428l-28 -197l-652 -297l-2 -14l299 -166z" />
    <glyph glyph-name="equal" unicode="=" horiz-adv-x="1124" 
d="M973 735h-764l22 166h766zM915 315h-765l24 164h764z" />
    <glyph glyph-name="greater" unicode="&#x3e;" horiz-adv-x="1134" 
d="M967 528l-850 -456l26 194l310 156l350 166l2 14l-572 297l27 197l725 -428z" />
    <glyph glyph-name="question" unicode="?" horiz-adv-x="1187" 
d="M561 403h-170l58 406q71 -12 135 -12q172 0 276.5 89.5t104.5 237.5q0 108 -73.5 168t-199.5 60q-135 0 -225 -67.5t-113 -186.5h-176q34 193 182 301q146 110 361 110q197 0 310.5 -97.5t113.5 -262.5q0 -222 -156 -363q-158 -140 -393 -137zM535 0h-234l31 225h233z
" />
    <glyph glyph-name="at" unicode="@" horiz-adv-x="1884" 
d="M1520 -98h-1334l191 1358h1333l-139 -1004h-361q-67 0 -101.5 30.5t-29.5 84.5l2 16h-12q-31 -55 -95 -87t-145 -32q-110 0 -168.5 64t-58.5 182q0 180 90 286.5t242 106.5q75 0 130.5 -33t74.5 -88h6l14 109h117l-72 -508h238l102 729h-1036l-152 -1071h1184zM1065 547
l10 82q11 69 -25 110t-108 41q-148 0 -172 -149l-12 -84q-11 -69 25 -110.5t108 -41.5q71 0 117 41t57 111z" />
    <glyph glyph-name="A" unicode="A" horiz-adv-x="1361" 
d="M1278 0h-197l-80 352h-688l-180 -352h-199l773 1493h213zM524 762l-131 -256h574l-60 256l-110 543h-9z" />
    <glyph glyph-name="B" unicode="B" horiz-adv-x="1454" 
d="M815 0h-682l209 1493h696q175 0 267 -80.5t92 -224.5t-71.5 -255t-197.5 -155l-2 -16q207 -59 207 -287q0 -214 -141 -346q-141 -129 -377 -129zM504 1335l-72 -497h504q103 0 171.5 53t80.5 145l16 105q12 91 -40 142.5t-160 51.5h-500zM412 682l-74 -524h487
q124 0 207 55.5t96 148.5l15 109q13 99 -44.5 155t-168.5 56h-518z" />
    <glyph glyph-name="C" unicode="C" horiz-adv-x="1538" 
d="M696 -20q-281 0 -432 155t-151 440q0 424 223 680q225 258 592 258q273 0 426 -141q152 -140 149 -379h-192q-8 162 -115.5 256t-296.5 94q-227 0 -379 -131q-150 -129 -184 -352l-33 -242q-27 -208 86 -339q117 -132 334 -132q179 0 318.5 95.5t199.5 257.5h193
q-70 -239 -271 -381q-198 -139 -467 -139z" />
    <glyph glyph-name="D" unicode="D" horiz-adv-x="1529" 
d="M737 0h-604l209 1493h604q271 0 405 -129.5t134 -402.5q0 -457 -195 -711q-194 -250 -553 -250zM504 1323l-162 -1153h418q220 0 340 106.5t155 346.5l33 245q35 238 -55.5 346.5t-310.5 108.5h-418z" />
    <glyph glyph-name="E" unicode="E" horiz-adv-x="1320" 
d="M1124 0h-991l209 1493h991l-22 -170h-807l-66 -473h709l-25 -162h-708l-72 -518h807z" />
    <glyph glyph-name="F" unicode="F" horiz-adv-x="1251" 
d="M317 0h-184l209 1493h975l-23 -170h-790l-80 -571h706l-20 -162h-709z" />
    <glyph glyph-name="G" unicode="G" horiz-adv-x="1662" 
d="M111 573q0 415 229 674q231 264 592 264q249 0 401 -125q157 -127 166 -331h-194q-11 131 -118 209.5t-274 78.5q-223 0 -387 -135q-157 -133 -192 -356l-33 -234q-28 -216 88 -346q118 -133 344 -133q225 0 387 137q164 139 199 355h-580l23 160h770l-113 -791h-151
l18 260h-14q-209 -280 -588 -280q-276 0 -424.5 156.5t-148.5 436.5z" />
    <glyph glyph-name="H" unicode="H" horiz-adv-x="1642" 
d="M317 0h-184l209 1493h184l-90 -649h858l90 649h185l-209 -1493h-184l94 684h-856z" />
    <glyph glyph-name="I" unicode="I" horiz-adv-x="600" 
d="M526 1493l-209 -1493h-184l209 1493h184z" />
    <glyph glyph-name="J" unicode="J" horiz-adv-x="804" 
d="M434 596l127 897h180l-125 -897l-61 -438q-21 -158 -182 -158h-416l25 168h393z" />
    <glyph glyph-name="K" unicode="K" horiz-adv-x="1374" 
d="M1262 1493h219l-635 -651l446 -842h-219l-368 696l-338 -348l-50 -348h-184l209 1493h184l-125 -891z" />
    <glyph glyph-name="L" unicode="L" horiz-adv-x="1169" 
d="M1024 0h-891l209 1493h184l-184 -1323h707z" />
    <glyph glyph-name="M" unicode="M" horiz-adv-x="1863" 
d="M315 0h-182l209 1493h248l319 -1079h13l622 1079h248l-209 -1493h-182l112 809l80 438h-12l-719 -1220l-375 1220h-12l-45 -440z" />
    <glyph glyph-name="N" unicode="N" horiz-adv-x="1619" 
d="M317 0h-184l209 1493h229l619 -1260h8l51 453l113 807h184l-209 -1493h-231l-614 1260h-9l-49 -435z" />
    <glyph glyph-name="O" unicode="O" horiz-adv-x="1581" 
d="M113 578q0 420 225 675q225 258 594 258q288 0 445 -156.5t157 -441.5q0 -419 -225 -677q-226 -256 -592 -256q-290 0 -447 155.5t-157 442.5zM336 852l-31 -209q-35 -231 83 -363.5t349 -132.5q237 0 389 134q151 136 185 362l30 209q32 227 -84.5 359t-349.5 132
q-236 0 -387 -131.5t-184 -359.5z" />
    <glyph glyph-name="P" unicode="P" horiz-adv-x="1382" 
d="M317 0h-184l209 1493h647q202 0 307 -96t105 -275q0 -265 -148 -422q-146 -155 -395 -155h-463zM504 1321l-86 -612h454q133 0 216.5 64.5t97.5 174.5l20 150q17 102 -43.5 162.5t-179.5 60.5h-479z" />
    <glyph glyph-name="Q" unicode="Q" horiz-adv-x="1581" 
d="M1534 913q0 -398 -207 -655q-206 -252 -545 -276l-32 -236h280l-18 -139h-301q-162 0 -138 157l31 222q-238 29 -364.5 182t-126.5 410q0 420 225 675q225 258 594 258q288 0 445 -156.5t157 -441.5zM336 852l-31 -209q-35 -231 83 -363.5t349 -132.5q237 0 389 134
q151 136 185 362l30 209q32 227 -84.5 359t-349.5 132q-236 0 -387 -131.5t-184 -359.5z" />
    <glyph glyph-name="R" unicode="R" horiz-adv-x="1480" 
d="M317 0h-184l209 1493h692q188 0 283.5 -89t95.5 -257q0 -165 -73 -288.5t-197 -166.5l-2 -12h80q139 0 118 -150l-75 -530h-187l80 575h-758zM504 1327l-82 -590h473q127 0 208 62.5t95 167.5l19 133q17 111 -46.5 169t-193.5 58h-473z" />
    <glyph glyph-name="S" unicode="S" horiz-adv-x="1372" 
d="M117 461h190q-18 -159 77 -244.5t278 -85.5q180 0 292 86q113 88 113 232q0 153 -207 200l-254 60l-88 20q-24 7 -92 37q-61 28 -94 57q-37 37 -63.5 94t-26.5 121q0 210 164 342q165 133 421 133q243 0 374 -115.5t106 -316.5h-191q10 134 -71.5 207.5t-237.5 73.5
q-161 0 -263 -77t-102 -200q0 -99 86 -147q65 -31 150 -51l272 -62q316 -70 316 -331q0 -229 -176 -373q-176 -141 -459 -141q-282 0 -414 135q-127 136 -100 346z" />
    <glyph glyph-name="T" unicode="T" horiz-adv-x="1136" 
d="M147 1493h1115l-25 -168h-463l-186 -1325h-185l185 1325h-465z" />
    <glyph glyph-name="U" unicode="U" horiz-adv-x="1587" 
d="M236 553l131 940h184l-131 -924q-26 -196 69.5 -306.5t286.5 -110.5q192 0 319.5 111t153.5 306l131 924h183l-131 -940q-38 -262 -222 -418q-180 -155 -458 -155q-286 0 -420 155q-133 158 -96 418z" />
    <glyph glyph-name="V" unicode="V" horiz-adv-x="1341" 
d="M717 0h-242l-328 1493h203l152 -713l108 -610h15l284 608l353 715h200z" />
    <glyph glyph-name="W" unicode="W" horiz-adv-x="1898" 
d="M254 0l-96 1493h192l51 -889l13 -399h12l528 1288h250l168 -1288h12l123 397l299 891h203l-514 -1493h-260l-174 1290h-10l-537 -1290h-260z" />
    <glyph glyph-name="X" unicode="X" horiz-adv-x="1261" 
d="M174 0h-221l584 756l-359 737h209l148 -313l139 -312h12l465 625h221l-575 -745l364 -748h-207l-137 281l-155 337h-13l-268 -354z" />
    <glyph glyph-name="Y" unicode="Y" horiz-adv-x="1325" 
d="M582 604l-437 889h217l179 -387l141 -326h16l236 328l283 385h231l-682 -889l-84 -604h-186z" />
    <glyph glyph-name="Z" unicode="Z" horiz-adv-x="1177" 
d="M172 1493h1102l-21 -150l-1026 -1173h852l-24 -170h-1092l21 150l1028 1173h-862z" />
    <glyph glyph-name="bracketleft" unicode="[" horiz-adv-x="647" 
d="M457 -440h-361l287 2039h362l-16 -112h-235l-256 -1817h235z" />
    <glyph glyph-name="backslash" unicode="\" horiz-adv-x="847" 
d="M322 1493l387 -1493h-131l-385 1493h129z" />
    <glyph glyph-name="bracketright" unicode="]" horiz-adv-x="647" 
d="M274 -440h-360l14 110h238l256 1817h-238l17 112h362z" />
    <glyph glyph-name="asciicircum" unicode="^" horiz-adv-x="749" 
d="M780 971h-155l-140 362l-237 -362h-158l354 522h131z" />
    <glyph glyph-name="underscore" unicode="_" horiz-adv-x="694" 
d="M604 -143h-702l20 143h703z" />
    <glyph glyph-name="grave" unicode="`" horiz-adv-x="890" 
d="M819 1569l-71 -88l-340 229l92 117z" />
    <glyph glyph-name="a" unicode="a" horiz-adv-x="1157" 
d="M53 246q0 175 119 282q121 109 320 109h317l12 84q34 227 -219 227q-110 0 -179.5 -50.5t-90.5 -137.5h-176q32 154 159.5 242t313.5 88q206 0 298.5 -100t67.5 -281l-80 -578h156l-18 -131h-158q-147 0 -135 139l4 41h-14q-47 -92 -153.5 -146t-240.5 -54
q-142 0 -222.5 71t-80.5 195zM246 352l-10 -65q-10 -79 37.5 -121.5t140.5 -42.5q148 0 249.5 90t120.5 238l9 55h-304q-103 0 -167.5 -42t-75.5 -112z" />
    <glyph glyph-name="b" unicode="b" horiz-adv-x="1286" 
d="M266 0h-162l209 1501h179l-91 -637h15q60 103 169.5 164.5t233.5 61.5q190 0 287.5 -109.5t97.5 -312.5q0 -314 -149 -500q-150 -188 -400 -188q-120 0 -210.5 55t-122.5 151h-15zM365 600l-19 -139q-18 -144 66 -240q82 -94 233 -94q145 0 239 79t113 214l31 221
q19 139 -54 219t-216 80q-149 0 -262 -96q-110 -94 -131 -244z" />
    <glyph glyph-name="c" unicode="c" horiz-adv-x="1155" 
d="M872 365h177q-51 -178 -193.5 -281.5t-337.5 -103.5q-206 0 -321 117.5t-115 322.5q0 295 168 481q171 189 432 189q184 0 296.5 -100.5t117.5 -268.5h-176q-13 107 -84 163t-183 56q-139 0 -245 -92q-102 -91 -123 -242l-25 -162q-20 -143 56.5 -230t222.5 -87
q118 0 208 64.5t125 173.5z" />
    <glyph glyph-name="d" unicode="d" horiz-adv-x="1286" 
d="M459 -20q-180 0 -278.5 107.5t-98.5 305.5q0 305 147 492q147 190 383 190q133 0 225.5 -55t127.5 -154h14l88 635h176l-209 -1501h-160l9 186h-13q-66 -98 -174 -152t-237 -54zM528 127q155 0 264.5 93t129.5 241l18 133q20 149 -62.5 240.5t-236.5 91.5
q-143 0 -238 -79t-114 -212l-31 -215q-19 -134 54.5 -213.5t215.5 -79.5z" />
    <glyph glyph-name="e" unicode="e" horiz-adv-x="1163" 
d="M84 422q0 296 164 481q163 187 424 187q195 0 304 -103.5t109 -288.5q0 -102 -28 -200h-787l-8 -62q-20 -141 56.5 -227t224.5 -86q111 0 199.5 55t125.5 144h176q-52 -154 -198 -250q-145 -92 -330 -92q-204 0 -318 117.5t-114 324.5zM293 657l-4 -28h618l4 41
q17 124 -54.5 200t-205.5 76q-142 0 -243 -82q-100 -78 -115 -207z" />
    <glyph glyph-name="f" unicode="f" horiz-adv-x="718" 
d="M807 1356h-277l-32 -232l-6 -55h229l-23 -147h-229l-129 -922h-176l129 922h-209l22 147h209l7 55l32 230q21 147 189 147h282z" />
    <glyph glyph-name="g" unicode="g" horiz-adv-x="1087" 
d="M1128 1219l-20 -146h-203l-12 -94q65 -77 65 -195q0 -173 -127 -288t-317 -115q-84 0 -143 18q-50 -11 -79.5 -41.5t-29.5 -72.5q0 -76 131 -76h281q139 0 216 -59t77 -164q0 -168 -148 -262.5t-413 -94.5q-210 0 -318 59t-108 167q0 87 53 153t145 92l2 15
q-40 13 -63 47t-23 76q0 66 47.5 122t120.5 76l2 13q-121 80 -121 233q0 174 129 291q132 117 326 117q106 0 184 -35l4 35q18 129 168 129h174zM776 696l10 74q12 85 -44 138t-158 53q-103 0 -173.5 -52.5t-82.5 -138.5l-11 -74q-13 -84 43.5 -136t159.5 -52t173.5 51.5
t82.5 136.5zM641 59h-291q-92 0 -145 -43t-53 -118q0 -136 282 -136q352 0 352 193q0 104 -145 104z" />
    <glyph glyph-name="h" unicode="h" horiz-adv-x="1263" 
d="M281 0h-177l209 1501h179l-89 -627h15q63 100 168 158t223 58q172 0 255 -116.5t54 -314.5l-92 -659h-178l90 641q44 299 -211 299q-141 0 -242.5 -104t-124.5 -271z" />
    <glyph glyph-name="i" unicode="i" horiz-adv-x="532" 
d="M457 1268h-174l30 233h176zM279 0h-175l150 1069h176z" />
    <glyph glyph-name="j" unicode="j" horiz-adv-x="552" 
d="M305 1268l33 233h174l-33 -233h-174zM98 -199l33 232l145 1036h175l-146 -1036l-31 -217q0 -2 -1 -7q-7 -43 -26 -75q-2 -4 -5 -8q-36 -68 -150 -68h-250l21 143h235z" />
    <glyph glyph-name="k" unicode="k" horiz-adv-x="1138" 
d="M926 1069h227l-471 -418l342 -651h-197l-278 532l-219 -192l-47 -340h-179l209 1501h179l-130 -930z" />
    <glyph glyph-name="l" unicode="l" horiz-adv-x="532" 
d="M279 0h-175l209 1501h176z" />
    <glyph glyph-name="m" unicode="m" horiz-adv-x="1898" 
d="M281 0h-177l150 1069h154l-5 -199h15q127 220 362 220q116 0 190.5 -64t88.5 -170h16q129 234 385 234q167 0 245.5 -111t49.5 -311l-92 -668h-178l90 645q43 295 -195 295q-129 0 -216.5 -100.5t-110.5 -272.5l-80 -567h-178l90 641q44 299 -189 299q-127 0 -219 -102.5
t-117 -268.5z" />
    <glyph glyph-name="n" unicode="n" horiz-adv-x="1265" 
d="M281 0h-177l150 1069h156l-4 -199h12q63 103 167.5 161.5t223.5 58.5q173 0 256.5 -117.5t54.5 -315.5l-92 -657h-178l90 639q41 293 -211 293q-141 0 -243.5 -103t-125.5 -270z" />
    <glyph glyph-name="o" unicode="o" horiz-adv-x="1208" 
d="M84 422q0 293 168 479q171 189 430 189q206 0 325 -118t119 -327q0 -293 -168 -479t-432 -186q-210 0 -326 117t-116 325zM285 612l-25 -166q-18 -149 62 -234t225 -85q146 0 251.5 86.5t125.5 232.5l22 166q20 146 -58 237t-226 91q-143 0 -252 -92q-106 -87 -125 -236z
" />
    <glyph glyph-name="p" unicode="p" horiz-adv-x="1286" 
d="M231 -342h-176l197 1411h160l-9 -188h13q66 99 174.5 154t238.5 55q180 0 278.5 -108.5t98.5 -305.5q0 -303 -147 -494q-147 -188 -385 -188q-133 0 -224.5 55.5t-127.5 153.5h-15zM647 143q141 0 236 79t114 212l31 215q19 134 -53.5 213.5t-214.5 79.5q-157 0 -266 -92
q-108 -91 -129 -242l-19 -133q-20 -149 63 -240.5t238 -91.5z" />
    <glyph glyph-name="q" unicode="q" horiz-adv-x="1286" 
d="M1022 1069h162l-199 -1411h-176l78 547h-15q-60 -103 -169.5 -164t-233.5 -61q-190 0 -288.5 109t-98.5 312q0 314 149 500q151 189 402 189q119 0 210.5 -56.5t123.5 -152.5h14zM924 469l18 139q18 143 -65 238q-84 96 -234 96q-145 0 -239 -79t-113 -214l-31 -221
q-20 -139 52.5 -219t215.5 -80q150 0 263 96q111 92 133 244z" />
    <glyph glyph-name="r" unicode="r" horiz-adv-x="737" 
d="M416 1069h370l-20 -147h-356l-43 -312l-86 -610h-177l84 610l45 301q21 158 183 158z" />
    <glyph glyph-name="s" unicode="s" horiz-adv-x="1032" 
d="M78 324h176q-12 -94 50.5 -149.5t180.5 -55.5q119 0 193 55.5t74 147.5q0 95 -123 122l-221 43q-250 50 -250 240q0 159 125 260q127 103 325 103q189 0 286.5 -88.5t78.5 -237.5h-176q10 92 -44.5 140t-160.5 48q-116 0 -184 -51t-68 -137q0 -74 57 -100q54 -21 97 -29
l204 -39q242 -40 242 -242q0 -168 -131 -272q-132 -102 -342 -102q-203 0 -307.5 94t-81.5 250z" />
    <glyph glyph-name="t" unicode="t" horiz-adv-x="706" 
d="M676 922h-225l-74 -525l-33 -250h225l-20 -147h-246q-156 0 -135 150l108 772h-194l20 147h195l49 354h176l-49 -354h225z" />
    <glyph glyph-name="u" unicode="u" horiz-adv-x="1251" 
d="M999 1069h177l-150 -1069h-152l3 199h-17q-58 -101 -162.5 -160t-230.5 -59q-165 0 -244 106.5t-53 300.5l96 682h176l-92 -657q-41 -283 199 -283q145 0 246 104q104 111 125 277z" />
    <glyph glyph-name="v" unicode="v" horiz-adv-x="980" 
d="M313 0l-239 1069h188l109 -569l59 -318h12l144 318l268 569h203l-535 -1069h-209z" />
    <glyph glyph-name="w" unicode="w" horiz-adv-x="1523" 
d="M1155 496l227 573h189l-443 -1069h-231l-61 549l-27 303h-12l-107 -303l-209 -549h-235l-152 1069h185l69 -567l25 -326h12l338 893h215l92 -889h10z" />
    <glyph glyph-name="x" unicode="x" horiz-adv-x="948" 
d="M123 0h-191l426 539l-274 530h197l204 -412h13l313 412h197l-416 -526l278 -543h-196l-209 424h-14z" />
    <glyph glyph-name="y" unicode="y" horiz-adv-x="1060" 
d="M385 127l-313 942h188l107 -350l116 -410h13l440 760h201l-578 -944l-43 -309q-21 -158 -176 -158h-272l20 145h254z" />
    <glyph glyph-name="z" unicode="z" horiz-adv-x="899" 
d="M123 1069h799l-21 -137l-694 -785h592l-21 -147h-805l19 133l696 789h-586z" />
    <glyph glyph-name="braceleft" unicode="{" horiz-adv-x="602" 
d="M63 526l17 127q135 0 156 152l92 655q21 139 157 139h220l-17 -112h-229l-94 -678q-12 -92 -62.5 -149.5t-118.5 -63.5v-6q65 -12 98 -70.5t21 -148.5l-98 -701h229l-16 -110h-219q-138 0 -117 139l94 678q11 74 -20.5 111.5t-92.5 37.5z" />
    <glyph glyph-name="bar" unicode="|" horiz-adv-x="626" 
d="M309 -68h-162l228 1610h162z" />
    <glyph glyph-name="braceright" unicode="}" horiz-adv-x="602" 
d="M559 653l-18 -127q-137 0 -158 -149l-94 -678q-21 -139 -158 -139h-217l14 110h228l100 701q13 91 63 149.5t117 69.5v6q-63 8 -97 65t-22 148l95 678h-228l17 112h217q66 0 96.5 -36t20.5 -103l-93 -655q-11 -69 19.5 -110.5t97.5 -41.5z" />
    <glyph glyph-name="asciitilde" unicode="~" horiz-adv-x="755" 
d="M145 578h-104q10 131 68.5 193.5t140.5 62.5q64 0 158 -52q94 -49 141 -49q92 0 110 127h103q-7 -134 -72 -200t-158 -66q-69 0 -167 49q-94 49 -132 49q-82 0 -88 -114z" />
    <glyph glyph-name="uni00A0" unicode="&#xa0;" horiz-adv-x="477" 
 />
    <glyph glyph-name="exclamdown" unicode="&#xa1;" horiz-adv-x="573" 
d="M293 1305l26 188h203l-26 -188h-203zM184 424l133 620h86l-41 -620l-59 -424h-178z" />
    <glyph glyph-name="cent" unicode="&#xa2;" horiz-adv-x="1132" 
d="M561 369q115 0 199 57.5t119 157.5h176q-44 -152 -165 -249t-286 -114l-22 -160h-138l23 160q-164 20 -252 126.5t-88 283.5q0 259 135 434q135 176 352 203l23 164h137l-22 -160q159 -13 249.5 -107t92.5 -243h-174q-10 98 -77.5 150t-174.5 52q-135 0 -226.5 -81.5
t-111.5 -221.5l-23 -157q-20 -136 47.5 -215.5t206.5 -79.5z" />
    <glyph glyph-name="sterling" unicode="&#xa3;" horiz-adv-x="1312" 
d="M805 1352q-119 0 -199.5 -74.5t-97.5 -202.5l-37 -260h475l-22 -149h-475l-72 -502h598l47 328h162l-47 -328h2l-25 -164h-1083l24 164h146l71 502h-147l20 149h150l37 260q26 198 160 317t337 119q178 0 282 -94t99 -250h-176q-1 83 -67 134t-162 51z" />
    <glyph glyph-name="currency" unicode="&#xa4;" horiz-adv-x="1366" 
d="M250 182l-100 107l169 133q-74 121 -53 268q21 148 129 268l-131 129l125 111l107 -149q128 84 272 81q150 -3 246 -83l149 153l92 -113l-159 -126q74 -118 53 -269q-21 -150 -129 -270l127 -133l-125 -107l-104 150q-129 -88 -273 -88t-248 88zM424 682
q-17 -124 52 -205.5t188 -81.5q136 3 229 103q94 101 94 241q0 106 -68 173t-176 67q-124 0 -212.5 -80t-106.5 -217z" />
    <glyph glyph-name="yen" unicode="&#xa5;" horiz-adv-x="1241" 
d="M1157 1493h207l-539 -766h224l-23 -152h-307l-19 -131h308l-21 -153h-307l-41 -291h-184l41 291h-310l21 153h309l19 131h-308l21 152h223l-326 766h209l170 -430l119 -322h14l209 322z" />
    <glyph glyph-name="brokenbar" unicode="&#xa6;" horiz-adv-x="626" 
d="M446 920h-161l88 622h162zM309 -70h-162l86 619h162z" />
    <glyph glyph-name="section" unicode="&#xa7;" horiz-adv-x="1036" 
d="M133 717q0 84 48.5 153.5t127.5 102.5l2 18q-80 65 -80 168q0 145 123 240q128 96 314 96q177 0 275.5 -84.5t86.5 -222.5h-180q1 74 -57 114.5t-162 40.5q-96 0 -151.5 -44t-55.5 -119q0 -43 29 -80q12 -14 21.5 -23t21 -16.5t19 -11t26.5 -12.5t32 -15l211 -88
q193 -76 193 -229q0 -173 -160 -256l-4 -21q78 -60 78 -162q0 -153 -123 -248q-119 -94 -317 -94q-180 0 -281 82t-94 223h184q-1 -73 57.5 -115t161.5 -42q102 0 157.5 46t55.5 128q0 53 -31 82.5t-108 62.5l-217 90q-203 83 -203 236zM322 778q0 -92 120 -145l207 -94
q61 -25 82 -37q60 57 60 139q0 39 -27 82q-5 10 -29 27q-41 24 -59 32l-197 92q-33 14 -88 41q-69 -51 -69 -137z" />
    <glyph glyph-name="dieresis" unicode="&#xa8;" horiz-adv-x="794" 
d="M416 1516h-156l31 231h158zM807 1516h-158l33 231h158z" />
    <glyph glyph-name="copyright" unicode="&#xa9;" horiz-adv-x="1918" 
d="M995 -115q-351 0 -596 236t-245 604q0 241 114 434q116 194 307.5 299t421.5 105q352 0 594 -236q246 -234 246 -598q0 -369 -246 -606q-244 -238 -596 -238zM993 -53q322 0 549 219q227 217 227 563q0 339 -225 557q-224 217 -547 217t-553 -219q-225 -218 -225 -559
q0 -343 225 -561q227 -217 549 -217zM1006 276q-198 0 -324 123q-127 127 -127 326t127 326q125 125 326 125q165 0 288 -97q122 -96 140 -250h-152q-13 98 -90.5 159t-187.5 61q-138 0 -217.5 -88.5t-79.5 -233.5q0 -151 79.5 -236t215.5 -85q112 0 189 60t91 157h152
q-15 -146 -138 -248q-120 -99 -292 -99z" />
    <glyph glyph-name="ordfeminine" unicode="&#xaa;" horiz-adv-x="880" 
d="M815 1204v-360h76v-115h-80q-125 0 -125 115v26h-10q-26 -71 -91 -110t-153 -39q-113 0 -181.5 63.5t-68.5 167.5q0 110 78.5 172t212.5 62h203v35q0 153 -172 153q-144 0 -170 -106h-137q13 104 99.5 164.5t217.5 60.5q148 0 224.5 -75.5t76.5 -213.5zM676 1044v39h-184
q-166 0 -166 -127q0 -56 38 -87t105 -31q91 0 149 58.5t58 147.5z" />
    <glyph glyph-name="guillemotleft" unicode="&#xab;" horiz-adv-x="1073" 
d="M360 133l-188 428l309 424h158l-285 -424l164 -428h-158zM745 133l-188 428l307 424h162l-287 -424l166 -428h-160z" />
    <glyph glyph-name="logicalnot" unicode="&#xac;" horiz-adv-x="1310" 
d="M1116 313h-166l49 353h-806l22 161h973z" />
    <glyph glyph-name="registered" unicode="&#xae;" horiz-adv-x="1261" 
d="M616 434q-209 0 -340 125q-129 126 -129 328q0 261 181 442q182 182 440 182q209 0 342 -127q131 -125 131 -325q0 -262 -184 -443q-182 -182 -441 -182zM629 496q228 0 385 161q162 162 162 392q0 178 -117 292q-115 115 -297 115q-224 0 -387 -166q-162 -165 -162 -395
q0 -177 115 -289q116 -110 301 -110zM545 711h-86l76 532h256q135 0 135 -121q0 -126 -99 -161l-2 -7h25q29 0 42.5 -16t8.5 -43l-29 -184h-86l29 198h-242zM608 1169l-24 -188h149q37 0 65 22t29 54l7 41q4 32 -15 51.5t-55 19.5h-156z" />
    <glyph glyph-name="overscore" unicode="&#xaf;" horiz-adv-x="722" 
d="M815 1513h-635l19 129h632z" />
    <glyph glyph-name="degree" unicode="&#xb0;" horiz-adv-x="851" 
d="M825 1204q0 -129 -88 -211t-219 -82q-127 0 -209 82q-84 84 -84 211q0 130 84 214.5t209 84.5q129 0 219 -84q88 -82 88 -215zM692 1204q0 77 -48.5 127.5t-121.5 50.5q-70 0 -118 -50.5t-48 -127.5q0 -72 49 -122t117 -50q70 0 120 50t50 122z" />
    <glyph glyph-name="plusminus" unicode="&#xb1;" horiz-adv-x="1370" 
d="M1219 694h-422l-49 -356h-181l49 356h-419l24 166h418l51 357h180l-49 -357h422zM1120 0h-1020l23 174h1022z" />
    <glyph glyph-name="uni00B2" unicode="&#xb2;" horiz-adv-x="921" 
d="M313 748l199 8h348l-20 -142h-721l6 39q15 105 74 195q14 22 30.5 43.5t29.5 37t35.5 36t32.5 30t38 30.5t35 26.5t40.5 29t38.5 27.5l146 106q70 49 111.5 119.5t41.5 149.5q0 73 -46 114t-126 41q-100 0 -164.5 -57.5t-74.5 -159.5h-160q21 163 139 260q120 99 285 99
q146 0 231.5 -75.5t85.5 -201.5q0 -112 -53.5 -207.5t-144.5 -165.5q-38 -29 -99 -70.5t-108.5 -74t-97 -71t-84 -81t-48.5 -85.5z" />
    <glyph glyph-name="uni00B3" unicode="&#xb3;" horiz-adv-x="948" 
d="M506 598q-174 0 -262.5 100t-59.5 265h166q-20 -107 28.5 -165.5t147.5 -58.5q108 0 179 68t71 168q0 78 -55 122t-152 44h-86l19 133h80q109 0 178 61t69 158q0 68 -48.5 106.5t-127.5 38.5q-98 0 -161.5 -58t-75.5 -161h-162q15 157 133 260q119 101 289 101
q143 0 233 -70.5t90 -187.5q0 -102 -56 -180.5t-155 -120.5l-2 -11q158 -59 158 -229q0 -160 -127 -272q-126 -111 -311 -111z" />
    <glyph glyph-name="acute" unicode="&#xb4;" horiz-adv-x="894" 
d="M838 1710l-406 -229l-45 88l391 258z" />
    <glyph glyph-name="paragraph" unicode="&#xb6;" horiz-adv-x="1384" 
d="M666 1493h634l-18 -135h-149l-191 -1360q-40 -285 -319 -285h-525l19 123h311l129 916q-168 0 -262 82t-94 223q0 195 129 315q130 121 336 121zM795 -4l190 1362h-192l-213 -1522h55q73 0 111 39t49 121z" />
    <glyph glyph-name="middot" unicode="&#xb7;" horiz-adv-x="579" 
d="M139 555q0 72 53 126t125 54q60 0 98 -36.5t38 -96.5q0 -72 -53 -124t-126 -52q-60 0 -97.5 36.5t-37.5 92.5z" />
    <glyph glyph-name="cedilla" unicode="&#xb8;" horiz-adv-x="1083" 
d="M547 6l-72 -92q59 -2 98 -32.5t39 -84.5q0 -84 -67 -133q-43 -31 -96.5 -41.5t-100.5 -4t-92 25.5l14 104q44 -53 133 -41q91 9 91 84q0 38 -37 50.5t-109 -5.5l8 49l131 178h68z" />
    <glyph glyph-name="uni00B9" unicode="&#xb9;" horiz-adv-x="727" 
d="M494 1444h-291l16 123h47q110 0 189 55t92 143h147l-162 -1151h-155z" />
    <glyph glyph-name="ordmasculine" unicode="&#xba;" horiz-adv-x="907" 
d="M174 1106q0 172 100 278q103 109 265 109q157 0 260 -109q102 -108 102 -280q0 -171 -100 -277t-262 -106q-165 0 -265 106t-100 279zM317 1106q0 -120 59.5 -192t162.5 -72q99 0 159 72.5t60 193.5q0 119 -59 191.5t-160 72.5q-99 0 -160.5 -72.5t-61.5 -193.5z" />
    <glyph glyph-name="guillemotright" unicode="&#xbb;" horiz-adv-x="1073" 
d="M340 985l184 -424l-305 -428h-160l287 428l-166 424h160zM725 985l186 -424l-307 -428h-160l287 428l-166 424h160z" />
    <glyph glyph-name="onequarter" unicode="&#xbc;" horiz-adv-x="1818" 
d="M266 -94l1067 1667h150l-1069 -1667h-148zM463 524h-150l97 680h-254l16 121h92q88 0 137.5 44.5t49.5 115.5v8h149zM1708 983l-92 -655h110l-18 -138h-111l-26 -190h-152l27 190h-440l18 129l440 664h244zM1536 844l-346 -516h274z" />
    <glyph glyph-name="onehalf" unicode="&#xbd;" horiz-adv-x="1835" 
d="M266 -94l1067 1667h150l-1069 -1667h-148zM463 524h-150l97 680h-254l16 121h92q88 0 137.5 44.5t49.5 115.5v8h149zM1268 133l155 6h277l-21 -139h-604l4 33q13 103 72 190.5t143 147.5q21 15 76 52.5t80 55.5t66 53t60 62t34.5 64.5t15.5 76.5q0 60 -36 93.5t-99 33.5
q-77 0 -128.5 -50.5t-59.5 -129.5l-150 12q21 135 123 217q104 84 242 84q124 0 196 -65t72 -174q0 -184 -156 -312q-34 -26 -101 -72t-110.5 -77.5t-88 -76t-62.5 -85.5z" />
    <glyph glyph-name="threequarters" unicode="&#xbe;" horiz-adv-x="1966" 
d="M436 -94l1067 1667h150l-1069 -1667h-148zM406 508q-147 0 -221.5 85t-51.5 220h154q-13 -80 25 -126t112 -46q78 0 133 52.5t55 127.5q0 60 -43.5 94.5t-113.5 34.5h-74l20 140h62q84 0 137 48.5t53 123.5q0 52 -36 81t-93 29q-74 0 -123.5 -47t-56.5 -125h-154
q12 135 108.5 220t244.5 85q124 0 198 -59.5t74 -161.5q0 -177 -172 -250v-10q127 -53 127 -188q0 -141 -106 -234q-104 -94 -258 -94zM1878 983l-92 -655h110l-18 -138h-111l-26 -190h-152l27 190h-440l18 129l440 664h244zM1706 844l-346 -516h274z" />
    <glyph glyph-name="questiondown" unicode="&#xbf;" horiz-adv-x="1187" 
d="M713 1493h233l-31 -225h-233zM686 1090h170l-57 -406q-71 12 -135 12q-172 0 -276.5 -89.5t-104.5 -237.5q0 -108 73 -168t199 -60q135 0 225 67.5t113 186.5h176q-34 -191 -182 -303q-147 -108 -361 -108q-197 0 -310.5 97.5t-113.5 262.5q0 223 156 361
q157 142 393 139z" />
    <glyph glyph-name="Agrave" unicode="&#xc0;" horiz-adv-x="1361" 
d="M588 1997l319 -258l-71 -88l-340 229zM1278 0h-197l-80 352h-688l-180 -352h-199l773 1493h213zM524 762l-131 -256h574l-60 256l-110 543h-9z" />
    <glyph glyph-name="Aacute" unicode="&#xc1;" horiz-adv-x="1361" 
d="M1178 1997l59 -117l-406 -229l-45 88zM1278 0h-197l-80 352h-688l-180 -352h-199l773 1493h213zM524 762l-131 -256h574l-60 256l-110 543h-9z" />
    <glyph glyph-name="Acircumflex" unicode="&#xc2;" horiz-adv-x="1361" 
d="M1044 1628l-182 225l-244 -225l-75 84l278 254h119l205 -252zM1278 0h-197l-80 352h-688l-180 -352h-199l773 1493h213zM524 762l-131 -256h574l-60 256l-110 543h-9z" />
    <glyph glyph-name="Atilde" unicode="&#xc3;" horiz-adv-x="1361" 
d="M705 1710q-60 0 -115 -70l-70 56q88 143 209 143q50 0 131 -37q84 -35 123 -35q66 0 121 70l70 -57q-84 -140 -218 -140q-57 0 -135 35t-116 35zM1278 0h-197l-80 352h-688l-180 -352h-199l773 1493h213zM524 762l-131 -256h574l-60 256l-110 543h-9z" />
    <glyph glyph-name="Adieresis" unicode="&#xc4;" horiz-adv-x="1361" 
d="M594 1909h158l-33 -232h-156zM985 1909h158l-33 -232h-158zM1278 0h-197l-80 352h-688l-180 -352h-199l773 1493h213zM524 762l-131 -256h574l-60 256l-110 543h-9z" />
    <glyph glyph-name="Aring" unicode="&#xc5;" horiz-adv-x="1361" 
d="M1278 0h-197l-80 352h-688l-180 -352h-199l744 1436q-80 47 -80 153q0 111 74 184.5t186 73.5q90 0 143.5 -50t53.5 -132q0 -147 -123 -223zM846 1751q-57 0 -97 -42.5t-40 -102.5q0 -47 28.5 -76t73.5 -29q55 0 93 43t38 105q0 47 -26 74.5t-70 27.5zM524 762l-131 -256
h574l-60 256l-110 543h-9z" />
    <glyph glyph-name="AE" unicode="&#xc6;" horiz-adv-x="1955" 
d="M1968 1493l-22 -170h-824l-67 -496h704l-24 -159h-703l-69 -498h821l-25 -170h-1005l57 414h-489l-193 -414h-195l719 1493h1315zM393 567h441l104 756h-195z" />
    <glyph glyph-name="Ccedilla" unicode="&#xc7;" horiz-adv-x="1538" 
d="M336 860l-33 -242q-27 -208 86 -339q117 -132 334 -132q179 0 318.5 95.5t199.5 257.5h193q-71 -233 -256 -369q-186 -139 -441 -151l-43 -56q59 -2 98 -32.5t39 -84.5q0 -84 -67 -133q-43 -31 -96.5 -41.5t-100.5 -4t-92 25.5l14 104q44 -53 134 -41q90 9 90 84
q0 38 -37 50.5t-109 -5.5l8 50l64 86q-253 13 -389.5 167.5t-136.5 425.5q0 424 223 680q225 258 592 258q273 0 426 -141q152 -140 149 -379h-192q-8 162 -115.5 256t-296.5 94q-227 0 -379 -131q-150 -129 -184 -352z" />
    <glyph glyph-name="Egrave" unicode="&#xc8;" horiz-adv-x="1320" 
d="M907 1739l-71 -88l-340 229l92 117zM1124 0h-991l209 1493h991l-22 -170h-807l-66 -473h709l-25 -162h-708l-72 -518h807z" />
    <glyph glyph-name="Eacute" unicode="&#xc9;" horiz-adv-x="1320" 
d="M1237 1880l-406 -229l-45 88l392 258zM1124 0h-991l209 1493h991l-22 -170h-807l-66 -473h709l-25 -162h-708l-72 -518h807z" />
    <glyph glyph-name="Ecircumflex" unicode="&#xca;" horiz-adv-x="1320" 
d="M618 1628l-75 84l278 254h119l205 -252l-101 -86l-182 225zM1124 0h-991l209 1493h991l-22 -170h-807l-66 -473h709l-25 -162h-708l-72 -518h807z" />
    <glyph glyph-name="Edieresis" unicode="&#xcb;" horiz-adv-x="1320" 
d="M719 1677h-156l31 232h158zM1110 1677h-158l33 232h158zM1124 0h-991l209 1493h991l-22 -170h-807l-66 -473h709l-25 -162h-708l-72 -518h807z" />
    <glyph glyph-name="Igrave" unicode="&#xcc;" horiz-adv-x="600" 
d="M530 1739l-71 -88l-340 229l92 117zM526 1493l-209 -1493h-184l209 1493h184z" />
    <glyph glyph-name="Iacute" unicode="&#xcd;" horiz-adv-x="600" 
d="M860 1880l-405 -229l-45 88l391 258zM526 1493l-209 -1493h-184l209 1493h184z" />
    <glyph glyph-name="Icircumflex" unicode="&#xce;" horiz-adv-x="600" 
d="M242 1628l-76 84l278 254h119l205 -252l-100 -86l-183 225zM526 1493l-209 -1493h-184l209 1493h184z" />
    <glyph glyph-name="Idieresis" unicode="&#xcf;" horiz-adv-x="600" 
d="M344 1677h-156l31 232h158zM735 1677h-157l32 232h158zM526 1493l-209 -1493h-184l209 1493h184z" />
    <glyph glyph-name="Eth" unicode="&#xd0;" horiz-adv-x="1529" 
d="M342 1493h604q271 0 405 -129.5t134 -402.5q0 -457 -195 -711q-194 -250 -553 -250h-604l96 692h-174l17 158h180zM1255 623l33 245q35 238 -55.5 346.5t-310.5 108.5h-418l-66 -473h273l-19 -158h-276l-74 -522h418q220 0 340 106.5t155 346.5z" />
    <glyph glyph-name="Ntilde" unicode="&#xd1;" horiz-adv-x="1619" 
d="M1143 1640q-57 0 -135 35t-117 35q-60 0 -115 -70l-69 56q88 143 208 143q51 0 132 -37q84 -35 122 -35q66 0 121 70l70 -57q-84 -140 -217 -140zM317 0h-184l209 1493h229l619 -1260h8l51 453l113 807h184l-209 -1493h-231l-614 1260h-9l-49 -435z" />
    <glyph glyph-name="Ograve" unicode="&#xd2;" horiz-adv-x="1581" 
d="M1022 1739l-72 -88l-340 229l92 117zM113 578q0 420 225 675q225 258 594 258q288 0 445 -156.5t157 -441.5q0 -419 -225 -677q-226 -256 -592 -256q-290 0 -447 155.5t-157 442.5zM336 852l-31 -209q-35 -231 83 -363.5t349 -132.5q237 0 389 134q151 136 185 362
l30 209q32 227 -84.5 359t-349.5 132q-236 0 -387 -131.5t-184 -359.5z" />
    <glyph glyph-name="Oacute" unicode="&#xd3;" horiz-adv-x="1581" 
d="M1352 1880l-406 -229l-45 88l391 258zM113 578q0 420 225 675q225 258 594 258q288 0 445 -156.5t157 -441.5q0 -419 -225 -677q-226 -256 -592 -256q-290 0 -447 155.5t-157 442.5zM336 852l-31 -209q-35 -231 83 -363.5t349 -132.5q237 0 389 134q151 136 185 362
l30 209q32 227 -84.5 359t-349.5 132q-236 0 -387 -131.5t-184 -359.5z" />
    <glyph glyph-name="Ocircumflex" unicode="&#xd4;" horiz-adv-x="1581" 
d="M733 1628l-76 84l279 254h119l205 -252l-101 -86l-182 225zM113 578q0 420 225 675q225 258 594 258q288 0 445 -156.5t157 -441.5q0 -419 -225 -677q-226 -256 -592 -256q-290 0 -447 155.5t-157 442.5zM336 852l-31 -209q-35 -231 83 -363.5t349 -132.5q237 0 389 134
q151 136 185 362l30 209q32 227 -84.5 359t-349.5 132q-236 0 -387 -131.5t-184 -359.5z" />
    <glyph glyph-name="Otilde" unicode="&#xd5;" horiz-adv-x="1581" 
d="M1071 1640q-57 0 -135 35t-117 35q-59 0 -114 -70l-70 56q88 143 209 143q50 0 131 -37q84 -35 123 -35q66 0 121 70l69 -57q-84 -140 -217 -140zM113 578q0 420 225 675q225 258 594 258q288 0 445 -156.5t157 -441.5q0 -419 -225 -677q-226 -256 -592 -256
q-290 0 -447 155.5t-157 442.5zM336 852l-31 -209q-35 -231 83 -363.5t349 -132.5q237 0 389 134q151 136 185 362l30 209q32 227 -84.5 359t-349.5 132q-236 0 -387 -131.5t-184 -359.5z" />
    <glyph glyph-name="Odieresis" unicode="&#xd6;" horiz-adv-x="1581" 
d="M836 1677h-156l31 232h157zM1227 1677h-158l33 232h158zM113 578q0 420 225 675q225 258 594 258q288 0 445 -156.5t157 -441.5q0 -419 -225 -677q-226 -256 -592 -256q-290 0 -447 155.5t-157 442.5zM336 852l-31 -209q-35 -231 83 -363.5t349 -132.5q237 0 389 134
q151 136 185 362l30 209q32 227 -84.5 359t-349.5 132q-236 0 -387 -131.5t-184 -359.5z" />
    <glyph glyph-name="multiply" unicode="&#xd7;" horiz-adv-x="1495" 
d="M244 43l-99 121l500 450l-373 453l131 117l367 -445h16l490 445l98 -117l-500 -453l373 -450l-131 -121l-364 446h-19z" />
    <glyph glyph-name="Oslash" unicode="&#xd8;" horiz-adv-x="1581" 
d="M1591 1346l72 -123l-154 -103q25 -95 25 -207q0 -419 -225 -677q-226 -256 -592 -256q-385 0 -529 264l-145 -97l-63 123l157 105q-24 91 -24 203q0 420 225 675q225 258 594 258q375 0 522 -258zM336 852l-31 -209q-13 -93 -4 -158l999 666q-107 192 -393 192
q-236 0 -387 -131.5t-184 -359.5zM1311 643l30 209q13 97 5 160l-1004 -666q105 -199 395 -199q237 0 389 134q151 136 185 362z" />
    <glyph glyph-name="Ugrave" unicode="&#xd9;" horiz-adv-x="1587" 
d="M1061 1739l-72 -88l-340 229l92 117zM236 553l131 940h184l-131 -924q-26 -196 69.5 -306.5t286.5 -110.5q192 0 319.5 111t153.5 306l131 924h183l-131 -940q-38 -262 -222 -418q-180 -155 -458 -155q-286 0 -420 155q-133 158 -96 418z" />
    <glyph glyph-name="Uacute" unicode="&#xda;" horiz-adv-x="1587" 
d="M1391 1880l-406 -229l-45 88l391 258zM236 553l131 940h184l-131 -924q-26 -196 69.5 -306.5t286.5 -110.5q192 0 319.5 111t153.5 306l131 924h183l-131 -940q-38 -262 -222 -418q-180 -155 -458 -155q-286 0 -420 155q-133 158 -96 418z" />
    <glyph glyph-name="Ucircumflex" unicode="&#xdb;" horiz-adv-x="1587" 
d="M770 1628l-76 84l279 254h119l204 -252l-100 -86l-182 225zM236 553l131 940h184l-131 -924q-26 -196 69.5 -306.5t286.5 -110.5q192 0 319.5 111t153.5 306l131 924h183l-131 -940q-38 -262 -222 -418q-180 -155 -458 -155q-286 0 -420 155q-133 158 -96 418z" />
    <glyph glyph-name="Udieresis" unicode="&#xdc;" horiz-adv-x="1587" 
d="M872 1677h-155l31 232h157zM1264 1677h-158l33 232h157zM236 553l131 940h184l-131 -924q-26 -196 69.5 -306.5t286.5 -110.5q192 0 319.5 111t153.5 306l131 924h183l-131 -940q-38 -262 -222 -418q-180 -155 -458 -155q-286 0 -420 155q-133 158 -96 418z" />
    <glyph glyph-name="Yacute" unicode="&#xdd;" horiz-adv-x="1325" 
d="M1225 1880l-406 -229l-45 88l391 258zM582 604l-437 889h217l179 -387l141 -326h16l236 328l283 385h231l-682 -889l-84 -604h-186z" />
    <glyph glyph-name="Thorn" unicode="&#xde;" horiz-adv-x="1382" 
d="M489 1221h463q202 0 306 -96t104 -275q0 -263 -148 -420q-147 -156 -395 -156h-463l-39 -274h-184l172 1221l39 274h184zM1147 676l20 151q13 104 -48 163t-175 59h-479l-16 -119l-70 -494h457q131 0 212 64.5t99 175.5z" />
    <glyph glyph-name="germandbls" unicode="&#xdf;" horiz-adv-x="1200" 
d="M227 877h-151l20 151h154l10 74q24 193 156 301q131 110 319 110q170 0 270.5 -85t100.5 -226q0 -128 -69.5 -230t-186.5 -143l-2 -14q128 -19 193 -106.5t65 -212.5q0 -222 -148 -361q-147 -135 -389 -135h-145l22 152h146q124 0 208 62t101 165l17 121
q13 108 -54 169.5t-198 61.5h-64l23 154h34q87 0 155.5 44t78.5 109l22 154q10 70 -51 112t-157 42q-114 0 -185 -68t-88 -188l-151 -1090h-179z" />
    <glyph glyph-name="agrave" unicode="&#xe0;" horiz-adv-x="1157" 
d="M723 1319l-72 -88l-340 229l92 117zM53 246q0 175 119 282q121 109 320 109h317l12 84q34 227 -219 227q-110 0 -179.5 -50.5t-90.5 -137.5h-176q32 154 159.5 242t313.5 88q206 0 298.5 -100t67.5 -281l-80 -578h156l-18 -131h-158q-147 0 -135 139l4 41h-14
q-47 -92 -153.5 -146t-240.5 -54q-142 0 -222.5 71t-80.5 195zM246 352l-10 -65q-10 -79 37.5 -121.5t140.5 -42.5q148 0 249.5 90t120.5 238l9 55h-304q-103 0 -167.5 -42t-75.5 -112z" />
    <glyph glyph-name="aacute" unicode="&#xe1;" horiz-adv-x="1157" 
d="M1053 1460l-406 -229l-45 88l391 258zM53 246q0 175 119 282q121 109 320 109h317l12 84q34 227 -219 227q-110 0 -179.5 -50.5t-90.5 -137.5h-176q32 154 159.5 242t313.5 88q206 0 298.5 -100t67.5 -281l-80 -578h156l-18 -131h-158q-147 0 -135 139l4 41h-14
q-47 -92 -153.5 -146t-240.5 -54q-142 0 -222.5 71t-80.5 195zM246 352l-10 -65q-10 -79 37.5 -121.5t140.5 -42.5q148 0 249.5 90t120.5 238l9 55h-304q-103 0 -167.5 -42t-75.5 -112z" />
    <glyph glyph-name="acircumflex" unicode="&#xe2;" horiz-adv-x="1157" 
d="M434 1208l-76 84l279 254h119l205 -252l-101 -86l-182 226zM53 246q0 175 119 282q121 109 320 109h317l12 84q34 227 -219 227q-110 0 -179.5 -50.5t-90.5 -137.5h-176q32 154 159.5 242t313.5 88q206 0 298.5 -100t67.5 -281l-80 -578h156l-18 -131h-158
q-147 0 -135 139l4 41h-14q-47 -92 -153.5 -146t-240.5 -54q-142 0 -222.5 71t-80.5 195zM246 352l-10 -65q-10 -79 37.5 -121.5t140.5 -42.5q148 0 249.5 90t120.5 238l9 55h-304q-103 0 -167.5 -42t-75.5 -112z" />
    <glyph glyph-name="atilde" unicode="&#xe3;" horiz-adv-x="1157" 
d="M772 1221q-60 0 -135 34q-78 35 -117 35q-60 0 -114 -69l-70 55q88 143 209 143q50 0 131 -37q81 -34 123 -34q67 0 121 69l69 -57q-83 -139 -217 -139zM53 246q0 175 119 282q121 109 320 109h317l12 84q34 227 -219 227q-110 0 -179.5 -50.5t-90.5 -137.5h-176
q32 154 159.5 242t313.5 88q206 0 298.5 -100t67.5 -281l-80 -578h156l-18 -131h-158q-147 0 -135 139l4 41h-14q-47 -92 -153.5 -146t-240.5 -54q-142 0 -222.5 71t-80.5 195zM246 352l-10 -65q-10 -79 37.5 -121.5t140.5 -42.5q148 0 249.5 90t120.5 238l9 55h-304
q-103 0 -167.5 -42t-75.5 -112z" />
    <glyph glyph-name="adieresis" unicode="&#xe4;" horiz-adv-x="1157" 
d="M537 1257h-156l31 232h157zM928 1257h-158l33 232h158zM53 246q0 175 119 282q121 109 320 109h317l12 84q34 227 -219 227q-110 0 -179.5 -50.5t-90.5 -137.5h-176q32 154 159.5 242t313.5 88q206 0 298.5 -100t67.5 -281l-80 -578h156l-18 -131h-158q-147 0 -135 139
l4 41h-14q-47 -92 -153.5 -146t-240.5 -54q-142 0 -222.5 71t-80.5 195zM246 352l-10 -65q-10 -79 37.5 -121.5t140.5 -42.5q148 0 249.5 90t120.5 238l9 55h-304q-103 0 -167.5 -42t-75.5 -112z" />
    <glyph glyph-name="aring" unicode="&#xe5;" horiz-adv-x="1157" 
d="M995 709l-80 -578h156l-18 -131h-158q-147 0 -135 139l4 41h-14q-47 -92 -153.5 -146t-240.5 -54q-142 0 -222.5 71t-80.5 195q0 175 119 282q121 109 320 109h317l12 84q34 227 -219 227q-110 0 -179.5 -50.5t-90.5 -137.5h-176q26 121 112 202.5t217 112.5
q-61 49 -61 139q0 110 75 184.5t185 74.5q90 0 144.5 -50.5t54.5 -132.5q0 -140 -111 -217q266 -64 223 -364zM672 1376q-57 0 -96 -42.5t-39 -102.5q0 -47 28 -76t72 -29q55 0 94 43t39 105q0 45 -27 73.5t-71 28.5zM784 451l9 55h-304q-103 0 -167.5 -42t-75.5 -112
l-10 -65q-10 -79 37.5 -121.5t140.5 -42.5q148 0 249.5 90t120.5 238z" />
    <glyph glyph-name="ae" unicode="&#xe6;" horiz-adv-x="1902" 
d="M53 248q0 177 123 283t330 106h323l11 61q13 116 -48.5 183t-179.5 67q-110 0 -185 -50.5t-95 -137.5h-176q35 153 163 239q136 91 318 91q133 0 226 -53t122 -144q72 91 187 144t239 53q188 0 298 -108.5t110 -289.5q0 -56 -29 -198h-789q-25 -164 49.5 -262.5
t235.5 -98.5q114 0 201.5 49t124.5 131h170q-55 -155 -194.5 -244t-323.5 -89q-159 0 -265.5 71t-138.5 199q-68 -125 -197.5 -197.5t-287.5 -72.5q-156 0 -239 71t-83 197zM1022 637h618q19 135 -53 218t-207 83q-137 0 -235 -82.5t-123 -218.5zM422 123q152 0 259.5 94.5
t127.5 255.5l4 33h-324q-103 0 -167.5 -42t-75.5 -112l-10 -65q-10 -77 40.5 -120.5t145.5 -43.5z" />
    <glyph glyph-name="ccedilla" unicode="&#xe7;" horiz-adv-x="1155" 
d="M539 127q118 0 208 64.5t125 173.5h177q-47 -167 -177.5 -270t-308.5 -113l-65 -84q59 -2 98 -32.5t39 -84.5q0 -83 -68 -133q-43 -31 -96 -42t-100 -4.5t-92 25.5l14 105q44 -53 133 -41q90 9 90 84q0 38 -36.5 50.5t-108.5 -5.5l8 49l84 113q-182 17 -281.5 132
t-99.5 306q0 295 168 481q171 189 432 189q184 0 296.5 -100.5t117.5 -268.5h-176q-13 107 -84 163t-183 56q-139 0 -245 -92q-102 -91 -123 -242l-25 -162q-20 -143 56.5 -230t222.5 -87z" />
    <glyph glyph-name="egrave" unicode="&#xe8;" horiz-adv-x="1163" 
d="M766 1319l-72 -88l-340 229l92 117zM84 422q0 296 164 481q163 187 424 187q195 0 304 -103.5t109 -288.5q0 -102 -28 -200h-787l-8 -62q-20 -141 56.5 -227t224.5 -86q111 0 199.5 55t125.5 144h176q-52 -154 -198 -250q-145 -92 -330 -92q-204 0 -318 117.5t-114 324.5
zM293 657l-4 -28h618l4 41q17 124 -54.5 200t-205.5 76q-142 0 -243 -82q-100 -78 -115 -207z" />
    <glyph glyph-name="eacute" unicode="&#xe9;" horiz-adv-x="1163" 
d="M1094 1460l-406 -229l-45 88l391 258zM84 422q0 296 164 481q163 187 424 187q195 0 304 -103.5t109 -288.5q0 -102 -28 -200h-787l-8 -62q-20 -141 56.5 -227t224.5 -86q111 0 199.5 55t125.5 144h176q-52 -154 -198 -250q-145 -92 -330 -92q-204 0 -318 117.5
t-114 324.5zM293 657l-4 -28h618l4 41q17 124 -54.5 200t-205.5 76q-142 0 -243 -82q-100 -78 -115 -207z" />
    <glyph glyph-name="ecircumflex" unicode="&#xea;" horiz-adv-x="1163" 
d="M475 1208l-76 84l279 254h119l204 -252l-100 -86l-182 226zM84 422q0 296 164 481q163 187 424 187q195 0 304 -103.5t109 -288.5q0 -102 -28 -200h-787l-8 -62q-20 -141 56.5 -227t224.5 -86q111 0 199.5 55t125.5 144h176q-52 -154 -198 -250q-145 -92 -330 -92
q-204 0 -318 117.5t-114 324.5zM293 657l-4 -28h618l4 41q17 124 -54.5 200t-205.5 76q-142 0 -243 -82q-100 -78 -115 -207z" />
    <glyph glyph-name="edieresis" unicode="&#xeb;" horiz-adv-x="1163" 
d="M578 1257h-156l31 232h157zM969 1257h-158l33 232h157zM84 422q0 296 164 481q163 187 424 187q195 0 304 -103.5t109 -288.5q0 -102 -28 -200h-787l-8 -62q-20 -141 56.5 -227t224.5 -86q111 0 199.5 55t125.5 144h176q-52 -154 -198 -250q-145 -92 -330 -92
q-204 0 -318 117.5t-114 324.5zM293 657l-4 -28h618l4 41q17 124 -54.5 200t-205.5 76q-142 0 -243 -82q-100 -78 -115 -207z" />
    <glyph glyph-name="igrave" unicode="&#xec;" horiz-adv-x="532" 
d="M440 1331l-71 -88l-340 230l92 116zM279 0h-175l150 1069h176z" />
    <glyph glyph-name="iacute" unicode="&#xed;" horiz-adv-x="532" 
d="M770 1473l-405 -230l-46 88l392 258zM279 0h-175l150 1069h176z" />
    <glyph glyph-name="icircumflex" unicode="&#xee;" horiz-adv-x="532" 
d="M150 1221l-76 84l278 254h119l205 -252l-101 -86l-182 225zM279 0h-175l150 1069h176z" />
    <glyph glyph-name="idieresis" unicode="&#xef;" horiz-adv-x="532" 
d="M252 1270h-156l31 231h158zM643 1270h-158l33 231h158zM279 0h-175l150 1069h176z" />
    <glyph glyph-name="eth" unicode="&#xf0;" horiz-adv-x="1222" 
d="M78 401q0 256 162 424q163 172 405 172q93 0 137 -20l6 4l-75 92l-82 125l-262 -92l18 133l176 64l-149 241h225l113 -176l276 96l-18 -131l-199 -67l168 -269l70 -120q27 -51 51 -134q30 -91 30 -180q0 -249 -172 -418q-168 -165 -428 -165q-209 0 -330.5 113
t-121.5 308zM291 571l-23 -149q-19 -130 60.5 -207.5t228.5 -77.5t248 76t119 209l20 149q20 130 -59.5 206.5t-229.5 76.5q-149 0 -247 -77t-117 -206z" />
    <glyph glyph-name="ntilde" unicode="&#xf1;" horiz-adv-x="1265" 
d="M952 1221q-60 0 -135 34q-78 35 -117 35q-60 0 -114 -69l-70 55q88 143 209 143q50 0 131 -37q81 -34 123 -34q67 0 121 69l69 -57q-83 -139 -217 -139zM281 0h-177l150 1069h156l-4 -199h12q63 103 167.5 161.5t223.5 58.5q173 0 256.5 -117.5t54.5 -315.5l-92 -657
h-178l90 639q41 293 -211 293q-141 0 -243.5 -103t-125.5 -270z" />
    <glyph glyph-name="ograve" unicode="&#xf2;" horiz-adv-x="1208" 
d="M774 1319l-72 -88l-340 229l93 117zM84 422q0 293 168 479q171 189 430 189q206 0 325 -118t119 -327q0 -293 -168 -479t-432 -186q-210 0 -326 117t-116 325zM285 612l-25 -166q-18 -149 62 -234t225 -85q146 0 251.5 86.5t125.5 232.5l22 166q20 146 -58 237t-226 91
q-143 0 -252 -92q-106 -87 -125 -236z" />
    <glyph glyph-name="oacute" unicode="&#xf3;" horiz-adv-x="1208" 
d="M1104 1460l-406 -229l-45 88l391 258zM84 422q0 293 168 479q171 189 430 189q206 0 325 -118t119 -327q0 -293 -168 -479t-432 -186q-210 0 -326 117t-116 325zM285 612l-25 -166q-18 -149 62 -234t225 -85q146 0 251.5 86.5t125.5 232.5l22 166q20 146 -58 237t-226 91
q-143 0 -252 -92q-106 -87 -125 -236z" />
    <glyph glyph-name="ocircumflex" unicode="&#xf4;" horiz-adv-x="1208" 
d="M485 1208l-75 84l278 254h119l205 -252l-101 -86l-182 226zM84 422q0 293 168 479q171 189 430 189q206 0 325 -118t119 -327q0 -293 -168 -479t-432 -186q-210 0 -326 117t-116 325zM285 612l-25 -166q-18 -149 62 -234t225 -85q146 0 251.5 86.5t125.5 232.5l22 166
q20 146 -58 237t-226 91q-143 0 -252 -92q-106 -87 -125 -236z" />
    <glyph glyph-name="otilde" unicode="&#xf5;" horiz-adv-x="1208" 
d="M823 1221q-60 0 -135 34q-78 35 -117 35q-60 0 -114 -69l-70 55q88 143 209 143q50 0 131 -37q81 -34 123 -34q67 0 121 69l69 -57q-83 -139 -217 -139zM84 422q0 293 168 479q171 189 430 189q206 0 325 -118t119 -327q0 -293 -168 -479t-432 -186q-210 0 -326 117
t-116 325zM285 612l-25 -166q-18 -149 62 -234t225 -85q146 0 251.5 86.5t125.5 232.5l22 166q20 146 -58 237t-226 91q-143 0 -252 -92q-106 -87 -125 -236z" />
    <glyph glyph-name="odieresis" unicode="&#xf6;" horiz-adv-x="1208" 
d="M588 1257h-156l31 232h158zM979 1257h-158l33 232h158zM84 422q0 293 168 479q171 189 430 189q206 0 325 -118t119 -327q0 -293 -168 -479t-432 -186q-210 0 -326 117t-116 325zM285 612l-25 -166q-18 -149 62 -234t225 -85q146 0 251.5 86.5t125.5 232.5l22 166
q20 146 -58 237t-226 91q-143 0 -252 -92q-106 -87 -125 -236z" />
    <glyph glyph-name="divide" unicode="&#xf7;" horiz-adv-x="1372" 
d="M850 893h-238l35 250h238zM1186 520h-1008l25 164h1007zM735 76h-237l34 250h238z" />
    <glyph glyph-name="oslash" unicode="&#xf8;" horiz-adv-x="1208" 
d="M1174 989l59 -108l-193 -129q9 -44 9 -107q0 -293 -168 -479t-430 -186q-232 0 -353 145l-67 -45l-58 106l66 43q-33 79 -33 193q0 293 168 479q171 189 432 189q287 0 395 -218zM207 612l-23 -166q-8 -52 2 -116l668 446q-30 76 -100.5 120t-167.5 44q-143 0 -252 -92
q-105 -86 -127 -236zM848 446l22 166q2 6 2 29l-632 -422q80 -92 231 -92q138 0 248 84q108 86 129 235z" />
    <glyph glyph-name="ugrave" unicode="&#xf9;" horiz-adv-x="1251" 
d="M819 1331l-71 -88l-340 230l92 116zM999 1069h177l-150 -1069h-152l3 199h-17q-58 -101 -162.5 -160t-230.5 -59q-165 0 -244 106.5t-53 300.5l96 682h176l-92 -657q-41 -283 199 -283q145 0 246 104q104 111 125 277z" />
    <glyph glyph-name="uacute" unicode="&#xfa;" horiz-adv-x="1251" 
d="M1149 1473l-406 -230l-45 88l392 258zM999 1069h177l-150 -1069h-152l3 199h-17q-58 -101 -162.5 -160t-230.5 -59q-165 0 -244 106.5t-53 300.5l96 682h176l-92 -657q-41 -283 199 -283q145 0 246 104q104 111 125 277z" />
    <glyph glyph-name="ucircumflex" unicode="&#xfb;" horiz-adv-x="1251" 
d="M530 1221l-75 84l278 254h119l205 -252l-101 -86l-182 225zM999 1069h177l-150 -1069h-152l3 199h-17q-58 -101 -162.5 -160t-230.5 -59q-165 0 -244 106.5t-53 300.5l96 682h176l-92 -657q-41 -283 199 -283q145 0 246 104q104 111 125 277z" />
    <glyph glyph-name="udieresis" unicode="&#xfc;" horiz-adv-x="1251" 
d="M631 1270h-156l31 231h158zM1022 1270h-158l33 231h158zM999 1069h177l-150 -1069h-152l3 199h-17q-58 -101 -162.5 -160t-230.5 -59q-165 0 -244 106.5t-53 300.5l96 682h176l-92 -657q-41 -283 199 -283q145 0 246 104q104 111 125 277z" />
    <glyph glyph-name="yacute" unicode="&#xfd;" horiz-adv-x="1060" 
d="M1034 1473l-405 -230l-45 88l391 258zM385 127l-313 942h188l107 -350l116 -410h13l440 760h201l-578 -944l-43 -309q-21 -158 -176 -158h-272l20 145h254z" />
    <glyph glyph-name="thorn" unicode="&#xfe;" horiz-adv-x="1286" 
d="M231 -342h-176l258 1843h179l-89 -620h13q66 99 174.5 154t238.5 55q180 0 278.5 -108.5t98.5 -305.5q0 -303 -147 -494q-147 -188 -385 -188q-133 0 -224.5 55.5t-127.5 153.5h-15zM647 143q141 0 236 79t114 212l31 215q19 134 -53.5 213.5t-214.5 79.5
q-157 0 -266 -92q-108 -91 -129 -242l-19 -133q-20 -149 63 -240.5t238 -91.5z" />
    <glyph glyph-name="ydieresis" unicode="&#xff;" horiz-adv-x="1060" 
d="M518 1270h-156l31 231h158zM909 1270h-157l32 231h158zM385 127l-313 942h188l107 -350l116 -410h13l440 760h201l-578 -944l-43 -309q-21 -158 -176 -158h-272l20 145h254z" />
    <glyph glyph-name="Amacron" unicode="&#x100;" horiz-adv-x="1361" 
d="M537 1796h632l-16 -129h-635zM1278 0h-197l-80 352h-688l-180 -352h-199l773 1493h213zM524 762l-131 -256h574l-60 256l-110 543h-9z" />
    <glyph glyph-name="amacron" unicode="&#x101;" horiz-adv-x="1157" 
d="M969 1247h-635l18 129h633zM53 246q0 175 119 282q121 109 320 109h317l12 84q34 227 -219 227q-110 0 -179.5 -50.5t-90.5 -137.5h-176q32 154 159.5 242t313.5 88q206 0 298.5 -100t67.5 -281l-80 -578h156l-18 -131h-158q-147 0 -135 139l4 41h-14
q-47 -92 -153.5 -146t-240.5 -54q-142 0 -222.5 71t-80.5 195zM246 352l-10 -65q-10 -79 37.5 -121.5t140.5 -42.5q148 0 249.5 90t120.5 238l9 55h-304q-103 0 -167.5 -42t-75.5 -112z" />
    <glyph glyph-name="Abreve" unicode="&#x102;" horiz-adv-x="1361" 
d="M831 1649q-133 0 -201.5 79.5t-49.5 210.5h120q-12 -81 29 -131.5t117 -50.5q78 0 132 50t66 132h123q-19 -129 -112 -209.5t-224 -80.5zM1278 0h-197l-80 352h-688l-180 -352h-199l773 1493h213zM524 762l-131 -256h574l-60 256l-110 543h-9z" />
    <glyph glyph-name="abreve" unicode="&#x103;" horiz-adv-x="1157" 
d="M862 1520h123q-19 -129 -112.5 -210t-223.5 -81q-133 0 -202 80t-50 211h121q-12 -81 29 -132t117 -51q78 0 132 50.5t66 132.5zM53 246q0 175 119 282q121 109 320 109h317l12 84q34 227 -219 227q-110 0 -179.5 -50.5t-90.5 -137.5h-176q32 154 159.5 242t313.5 88
q206 0 298.5 -100t67.5 -281l-80 -578h156l-18 -131h-158q-147 0 -135 139l4 41h-14q-47 -92 -153.5 -146t-240.5 -54q-142 0 -222.5 71t-80.5 195zM246 352l-10 -65q-10 -79 37.5 -121.5t140.5 -42.5q148 0 249.5 90t120.5 238l9 55h-304q-103 0 -167.5 -42t-75.5 -112z
" />
    <glyph glyph-name="Aogonek" unicode="&#x104;" horiz-adv-x="1361" 
d="M1196 -272q50 0 109 24l-13 -100q-64 -27 -143 -27q-80 5 -127 45.5t-47 108.5q0 132 133 221h-27l-80 352h-688l-180 -352h-199l773 1493h213l358 -1493q-88 -26 -137 -76.5t-49 -113.5q0 -82 104 -82zM524 762l-131 -256h574l-60 256l-110 543h-9z" />
    <glyph glyph-name="aogonek" unicode="&#x105;" horiz-adv-x="1157" 
d="M971 -272q49 0 108 24l-12 -100q-64 -27 -143 -27q-80 5 -127 45.5t-47 108.5q0 132 133 221q-135 6 -123 139l4 41h-14q-47 -92 -153.5 -146t-240.5 -54q-142 0 -222.5 71t-80.5 195q0 175 119 282q121 109 320 109h317l12 84q34 227 -219 227q-110 0 -179.5 -50.5
t-90.5 -137.5h-176q32 154 159.5 242t313.5 88q206 0 298.5 -100t67.5 -281l-80 -578h156l-18 -131q-88 -26 -137.5 -76.5t-49.5 -113.5q0 -82 105 -82zM784 451l9 55h-304q-103 0 -167.5 -42t-75.5 -112l-10 -65q-10 -79 37.5 -121.5t140.5 -42.5q148 0 249.5 90t120.5 238
z" />
    <glyph glyph-name="Cacute" unicode="&#x106;" horiz-adv-x="1538" 
d="M1337 1880l-405 -229l-45 88l391 258zM696 -20q-281 0 -432 155t-151 440q0 424 223 680q225 258 592 258q273 0 426 -141q152 -140 149 -379h-192q-8 162 -115.5 256t-296.5 94q-227 0 -379 -131q-150 -129 -184 -352l-33 -242q-27 -208 86 -339q117 -132 334 -132
q179 0 318.5 95.5t199.5 257.5h193q-70 -239 -271 -381q-198 -139 -467 -139z" />
    <glyph glyph-name="cacute" unicode="&#x107;" horiz-adv-x="1155" 
d="M1104 1460l-406 -229l-45 88l391 258zM872 365h177q-51 -178 -193.5 -281.5t-337.5 -103.5q-206 0 -321 117.5t-115 322.5q0 295 168 481q171 189 432 189q184 0 296.5 -100.5t117.5 -268.5h-176q-13 107 -84 163t-183 56q-139 0 -245 -92q-102 -91 -123 -242l-25 -162
q-20 -143 56.5 -230t222.5 -87q118 0 208 64.5t125 173.5z" />
    <glyph glyph-name="Cdotaccent" unicode="&#x10a;" horiz-adv-x="1538" 
d="M1018 1677h-158l33 232h158zM696 -20q-281 0 -432 155t-151 440q0 424 223 680q225 258 592 258q273 0 426 -141q152 -140 149 -379h-192q-8 162 -115.5 256t-296.5 94q-227 0 -379 -131q-150 -129 -184 -352l-33 -242q-27 -208 86 -339q117 -132 334 -132
q179 0 318.5 95.5t199.5 257.5h193q-70 -239 -271 -381q-198 -139 -467 -139z" />
    <glyph glyph-name="cdotaccent" unicode="&#x10b;" horiz-adv-x="1155" 
d="M782 1257h-157l32 232h158zM872 365h177q-51 -178 -193.5 -281.5t-337.5 -103.5q-206 0 -321 117.5t-115 322.5q0 295 168 481q171 189 432 189q184 0 296.5 -100.5t117.5 -268.5h-176q-13 107 -84 163t-183 56q-139 0 -245 -92q-102 -91 -123 -242l-25 -162
q-20 -143 56.5 -230t222.5 -87q118 0 208 64.5t125 173.5z" />
    <glyph glyph-name="Ccaron" unicode="&#x10c;" horiz-adv-x="1538" 
d="M866 1597l-204 256l102 82l178 -225l244 225l80 -82l-279 -256h-121zM696 -20q-281 0 -432 155t-151 440q0 424 223 680q225 258 592 258q273 0 426 -141q152 -140 149 -379h-192q-8 162 -115.5 256t-296.5 94q-227 0 -379 -131q-150 -129 -184 -352l-33 -242
q-27 -208 86 -339q117 -132 334 -132q179 0 318.5 95.5t199.5 257.5h193q-70 -239 -271 -381q-198 -139 -467 -139z" />
    <glyph glyph-name="ccaron" unicode="&#x10d;" horiz-adv-x="1155" 
d="M631 1176l-205 256l102 81l179 -225l243 225l80 -81l-278 -256h-121zM872 365h177q-51 -178 -193.5 -281.5t-337.5 -103.5q-206 0 -321 117.5t-115 322.5q0 295 168 481q171 189 432 189q184 0 296.5 -100.5t117.5 -268.5h-176q-13 107 -84 163t-183 56q-139 0 -245 -92
q-102 -91 -123 -242l-25 -162q-20 -143 56.5 -230t222.5 -87q118 0 208 64.5t125 173.5z" />
    <glyph glyph-name="Dcaron" unicode="&#x10e;" horiz-adv-x="1529" 
d="M848 1597l-205 256l102 82l179 -225l243 225l80 -82l-278 -256h-121zM737 0h-604l209 1493h604q271 0 405 -129.5t134 -402.5q0 -457 -195 -711q-194 -250 -553 -250zM504 1323l-162 -1153h418q220 0 340 106.5t155 346.5l33 245q35 238 -55.5 346.5t-310.5 108.5h-418z
" />
    <glyph glyph-name="dcaron" unicode="&#x10f;" horiz-adv-x="1286" 
d="M459 -20q-180 0 -278.5 107.5t-98.5 305.5q0 305 147 492q147 190 383 190q133 0 225.5 -55t127.5 -154h14l88 635h176l-209 -1501h-160l9 186h-13q-66 -98 -174 -152t-237 -54zM1419 1073l11 78q135 0 153 123l2 12h-119l31 215h219l-30 -227q-13 -95 -86 -148t-181 -53
zM528 127q155 0 264.5 93t129.5 241l18 133q20 149 -62.5 240.5t-236.5 91.5q-143 0 -238 -79t-114 -212l-31 -215q-19 -134 54.5 -213.5t215.5 -79.5z" />
    <glyph glyph-name="Dcroat" unicode="&#x110;" horiz-adv-x="1529" 
d="M342 1493h604q271 0 405 -129.5t134 -402.5q0 -457 -195 -711q-194 -250 -553 -250h-604l96 692h-174l17 158h180zM1255 623l33 245q35 238 -55.5 346.5t-310.5 108.5h-418l-66 -473h273l-19 -158h-276l-74 -522h418q220 0 340 106.5t155 346.5z" />
    <glyph glyph-name="dslash" unicode="&#x111;" horiz-adv-x="1286" 
d="M1219 1327h141l-19 -133h-141l-166 -1194h-160l9 186h-13q-66 -98 -174 -152t-237 -54q-180 0 -278.5 107.5t-98.5 305.5q0 305 147 492q147 190 383 190q133 0 225.5 -55t127.5 -154h14l45 328h-377l19 133h376l25 174h176zM922 461l18 133q20 149 -62.5 240.5
t-236.5 91.5q-143 0 -238 -79t-114 -212l-31 -215q-19 -134 54.5 -213.5t215.5 -79.5q155 0 264.5 93t129.5 241z" />
    <glyph glyph-name="Emacron" unicode="&#x112;" horiz-adv-x="1320" 
d="M1153 1667h-635l19 129h632zM1124 0h-991l209 1493h991l-22 -170h-807l-66 -473h709l-25 -162h-708l-72 -518h807z" />
    <glyph glyph-name="emacron" unicode="&#x113;" horiz-adv-x="1163" 
d="M1012 1247h-635l18 129h633zM84 422q0 296 164 481q163 187 424 187q195 0 304 -103.5t109 -288.5q0 -102 -28 -200h-787l-8 -62q-20 -141 56.5 -227t224.5 -86q111 0 199.5 55t125.5 144h176q-52 -154 -198 -250q-145 -92 -330 -92q-204 0 -318 117.5t-114 324.5z
M293 657l-4 -28h618l4 41q17 124 -54.5 200t-205.5 76q-142 0 -243 -82q-100 -78 -115 -207z" />
    <glyph glyph-name="Edotaccent" unicode="&#x116;" horiz-adv-x="1320" 
d="M915 1677h-157l33 232h157zM1124 0h-991l209 1493h991l-22 -170h-807l-66 -473h709l-25 -162h-708l-72 -518h807z" />
    <glyph glyph-name="edotaccent" unicode="&#x117;" horiz-adv-x="1163" 
d="M774 1257h-158l33 232h158zM84 422q0 296 164 481q163 187 424 187q195 0 304 -103.5t109 -288.5q0 -102 -28 -200h-787l-8 -62q-20 -141 56.5 -227t224.5 -86q111 0 199.5 55t125.5 144h176q-52 -154 -198 -250q-145 -92 -330 -92q-204 0 -318 117.5t-114 324.5z
M293 657l-4 -28h618l4 41q17 124 -54.5 200t-205.5 76q-142 0 -243 -82q-100 -78 -115 -207z" />
    <glyph glyph-name="Eogonek" unicode="&#x118;" horiz-adv-x="1320" 
d="M1333 1493l-22 -170h-807l-66 -473h709l-25 -162h-708l-72 -518h807l-25 -170q-88 -26 -137 -76.5t-49 -113.5q0 -82 104 -82q50 0 109 24l-12 -100q-65 -27 -144 -27q-80 5 -127 45.5t-47 108.5q0 132 133 221h-821l209 1493h991z" />
    <glyph glyph-name="eogonek" unicode="&#x119;" horiz-adv-x="1163" 
d="M1057 498h-787l-8 -62q-20 -141 56.5 -227t224.5 -86q111 0 199.5 55t125.5 144h176q-47 -139 -169.5 -229t-284.5 -109l2 -4q-87 -26 -136.5 -77t-49.5 -114q0 -82 104 -82q47 0 108 25l-12 -101q-62 -26 -143 -26q-81 5 -127.5 45t-46.5 108q0 140 143 228
q-166 23 -257 137.5t-91 298.5q0 296 164 481q163 187 424 187q195 0 304 -103.5t109 -288.5q0 -102 -28 -200zM293 657l-4 -28h618l4 41q17 124 -54.5 200t-205.5 76q-142 0 -243 -82q-100 -78 -115 -207z" />
    <glyph glyph-name="Ecaron" unicode="&#x11a;" horiz-adv-x="1320" 
d="M764 1597l-205 256l103 82l178 -225l243 225l80 -82l-278 -256h-121zM1124 0h-991l209 1493h991l-22 -170h-807l-66 -473h709l-25 -162h-708l-72 -518h807z" />
    <glyph glyph-name="ecaron" unicode="&#x11b;" horiz-adv-x="1163" 
d="M623 1176l-205 256l102 81l178 -225l244 225l80 -81l-279 -256h-120zM84 422q0 296 164 481q163 187 424 187q195 0 304 -103.5t109 -288.5q0 -102 -28 -200h-787l-8 -62q-20 -141 56.5 -227t224.5 -86q111 0 199.5 55t125.5 144h176q-52 -154 -198 -250
q-145 -92 -330 -92q-204 0 -318 117.5t-114 324.5zM293 657l-4 -28h618l4 41q17 124 -54.5 200t-205.5 76q-142 0 -243 -82q-100 -78 -115 -207z" />
    <glyph glyph-name="Gbreve" unicode="&#x11e;" horiz-adv-x="1662" 
d="M1169 1939h123q-19 -129 -112 -209.5t-224 -80.5q-133 0 -201.5 79.5t-49.5 210.5h120q-12 -81 29 -131.5t117 -50.5q78 0 132 50t66 132zM111 573q0 415 229 674q231 264 592 264q249 0 401 -125q157 -127 166 -331h-194q-11 131 -118 209.5t-274 78.5q-223 0 -387 -135
q-157 -133 -192 -356l-33 -234q-28 -216 88 -346q118 -133 344 -133q225 0 387 137q164 139 199 355h-580l23 160h770l-113 -791h-151l18 260h-14q-209 -280 -588 -280q-276 0 -424.5 156.5t-148.5 436.5z" />
    <glyph glyph-name="gbreve" unicode="&#x11f;" horiz-adv-x="1087" 
d="M348 1520h121q-12 -81 29 -132t116 -51q78 0 132.5 50.5t66.5 132.5h123q-19 -130 -111 -210.5t-225 -80.5t-202 80t-50 211zM1128 1219l-20 -146h-203l-12 -94q65 -77 65 -195q0 -173 -127 -288t-317 -115q-84 0 -143 18q-50 -11 -79.5 -41.5t-29.5 -72.5q0 -76 131 -76
h281q139 0 216 -59t77 -164q0 -168 -148 -262.5t-413 -94.5q-210 0 -318 59t-108 167q0 87 53 153t145 92l2 15q-40 13 -63 47t-23 76q0 66 47.5 122t120.5 76l2 13q-121 80 -121 233q0 174 129 291q132 117 326 117q106 0 184 -35l4 35q18 129 168 129h174zM776 696l10 74
q12 85 -44 138t-158 53q-103 0 -173.5 -52.5t-82.5 -138.5l-11 -74q-13 -84 43.5 -136t159.5 -52t173.5 51.5t82.5 136.5zM641 59h-291q-92 0 -145 -43t-53 -118q0 -136 282 -136q352 0 352 193q0 104 -145 104z" />
    <glyph glyph-name="Gdotaccent" unicode="&#x120;" horiz-adv-x="1662" 
d="M1040 1677h-157l32 232h158zM111 573q0 415 229 674q231 264 592 264q249 0 401 -125q157 -127 166 -331h-194q-11 131 -118 209.5t-274 78.5q-223 0 -387 -135q-157 -133 -192 -356l-33 -234q-28 -216 88 -346q118 -133 344 -133q225 0 387 137q164 139 199 355h-580
l23 160h770l-113 -791h-151l18 260h-14q-209 -280 -588 -280q-276 0 -424.5 156.5t-148.5 436.5z" />
    <glyph glyph-name="gdotaccent" unicode="&#x121;" horiz-adv-x="1087" 
d="M573 1489h158l-33 -232h-157zM1128 1219l-20 -146h-203l-12 -94q65 -77 65 -195q0 -173 -127 -288t-317 -115q-84 0 -143 18q-50 -11 -79.5 -41.5t-29.5 -72.5q0 -76 131 -76h281q139 0 216 -59t77 -164q0 -168 -148 -262.5t-413 -94.5q-210 0 -318 59t-108 167
q0 87 53 153t145 92l2 15q-40 13 -63 47t-23 76q0 66 47.5 122t120.5 76l2 13q-121 80 -121 233q0 174 129 291q132 117 326 117q106 0 184 -35l4 35q18 129 168 129h174zM776 696l10 74q12 85 -44 138t-158 53q-103 0 -173.5 -52.5t-82.5 -138.5l-11 -74q-13 -84 43.5 -136
t159.5 -52t173.5 51.5t82.5 136.5zM641 59h-291q-92 0 -145 -43t-53 -118q0 -136 282 -136q352 0 352 193q0 104 -145 104z" />
    <glyph glyph-name="uni0122" unicode="&#x122;" horiz-adv-x="1662" 
d="M111 573q0 415 229 674q231 264 592 264q249 0 401 -125q157 -127 166 -331h-194q-11 131 -118 209.5t-274 78.5q-223 0 -387 -135q-157 -133 -192 -356l-33 -234q-28 -216 88 -346q118 -133 344 -133q225 0 387 137q164 139 199 355h-580l23 160h770l-113 -791h-151
l18 260h-14q-209 -280 -588 -280q-276 0 -424.5 156.5t-148.5 436.5zM641 -457v56q38 0 61 26t23 70v8h-84v182h166v-164q0 -86 -44.5 -132t-121.5 -46z" />
    <glyph glyph-name="uni0123" unicode="&#x123;" horiz-adv-x="1087" 
d="M594 1436h82v-181h-164v152q0 90 44 140t120 50v-55q-37 0 -59.5 -26.5t-22.5 -69.5v-10zM1128 1219l-20 -146h-203l-12 -94q65 -77 65 -195q0 -173 -127 -288t-317 -115q-84 0 -143 18q-50 -11 -79.5 -41.5t-29.5 -72.5q0 -76 131 -76h281q139 0 216 -59t77 -164
q0 -168 -148 -262.5t-413 -94.5q-210 0 -318 59t-108 167q0 87 53 153t145 92l2 15q-40 13 -63 47t-23 76q0 66 47.5 122t120.5 76l2 13q-121 80 -121 233q0 174 129 291q132 117 326 117q106 0 184 -35l4 35q18 129 168 129h174zM776 696l10 74q12 85 -44 138t-158 53
q-103 0 -173.5 -52.5t-82.5 -138.5l-11 -74q-13 -84 43.5 -136t159.5 -52t173.5 51.5t82.5 136.5zM641 59h-291q-92 0 -145 -43t-53 -118q0 -136 282 -136q352 0 352 193q0 104 -145 104z" />
    <glyph glyph-name="Hbar" unicode="&#x126;" horiz-adv-x="1642" 
d="M1542 1296h170l-18 -149h-174l-160 -1147h-184l94 684h-856l-97 -684h-184l160 1147h-166l16 149h172l27 197h184l-26 -197h858l26 197h185zM436 844h858l43 303h-858z" />
    <glyph glyph-name="hbar" unicode="&#x127;" horiz-adv-x="1263" 
d="M809 1090q172 0 255 -116.5t54 -314.5l-92 -659h-178l90 641q44 299 -211 299q-141 0 -242.5 -104t-124.5 -271l-79 -565h-177l166 1190h-241l18 135h242l24 176h179l-25 -176h276l-18 -135h-276l-46 -316h15q63 100 168 158t223 58z" />
    <glyph glyph-name="Imacron" unicode="&#x12a;" horiz-adv-x="600" 
d="M776 1667h-635l19 129h633zM526 1493l-209 -1493h-184l209 1493h184z" />
    <glyph glyph-name="imacron" unicode="&#x12b;" horiz-adv-x="532" 
d="M686 1260h-635l19 129h632zM279 0h-175l150 1069h176z" />
    <glyph glyph-name="Iogonek" unicode="&#x12e;" horiz-adv-x="600" 
d="M129 -190q0 -82 104 -82q51 0 109 24l-12 -100q-64 -27 -144 -27q-80 5 -127 45.5t-47 108.5q0 132 133 221h-12l209 1493h184l-209 -1493h-2q-88 -26 -137 -76.5t-49 -113.5z" />
    <glyph glyph-name="iogonek" unicode="&#x12f;" horiz-adv-x="532" 
d="M291 1270l33 231h157l-32 -231h-158zM279 0h-13q-88 -26 -137 -76.5t-49 -113.5q0 -82 104 -82q50 0 109 24l-12 -100q-65 -27 -144 -27q-80 5 -127 45.5t-47 108.5q0 135 141 227l150 1063h176z" />
    <glyph glyph-name="Idot" unicode="&#x130;" horiz-adv-x="600" 
d="M541 1677h-170l32 232h170zM526 1493l-209 -1493h-184l209 1493h184z" />
    <glyph glyph-name="dotlessi" unicode="&#x131;" horiz-adv-x="532" 
d="M279 0h-175l150 1069h176z" />
    <glyph glyph-name="Jcircumflex" unicode="&#x134;" horiz-adv-x="804" 
d="M655 1966h119l205 -252l-100 -86l-183 225l-243 -225l-76 84zM375 168l59 428l127 897h180l-125 -897l-61 -438q-21 -158 -182 -158h-416l25 168h393z" />
    <glyph glyph-name="jcircumflex" unicode="&#x135;" horiz-adv-x="552" 
d="M373 1542h119l204 -252l-100 -86l-182 226l-244 -226l-76 84zM98 -199l33 240l145 1028h175l-144 -1028l-33 -225q-9 -55 -32 -92q-37 -66 -150 -66h-250l21 143h235z" />
    <glyph glyph-name="uni0136" unicode="&#x136;" horiz-adv-x="1374" 
d="M1262 1493h219l-635 -651l446 -842h-219l-368 696l-338 -348l-50 -348h-184l209 1493h184l-125 -891zM647 -297h-84v182h166v-164q0 -86 -44.5 -132t-121.5 -46v56q38 0 61 26t23 70v8z" />
    <glyph glyph-name="uni0137" unicode="&#x137;" horiz-adv-x="1138" 
d="M926 1069h227l-471 -418l342 -651h-197l-278 532l-219 -192l-47 -340h-179l209 1501h179l-130 -930zM522 -297h-84v182h166v-164q0 -86 -44.5 -132t-121.5 -46v56q38 0 61 26t23 70v8z" />
    <glyph glyph-name="Lacute" unicode="&#x139;" horiz-adv-x="1169" 
d="M860 1880l-405 -229l-45 88l391 258zM1024 0h-891l209 1493h184l-184 -1323h707z" />
    <glyph glyph-name="lacute" unicode="&#x13a;" horiz-adv-x="532" 
d="M829 1888l-405 -229l-45 88l391 258zM279 0h-175l209 1501h176z" />
    <glyph glyph-name="uni013B" unicode="&#x13b;" horiz-adv-x="1169" 
d="M1024 0h-891l209 1493h184l-184 -1323h707zM494 -457v56q38 0 61 26t23 70v8h-84v182h165v-164q0 -86 -44 -132t-121 -46z" />
    <glyph glyph-name="uni013C" unicode="&#x13c;" horiz-adv-x="532" 
d="M279 0h-175l209 1501h176zM109 -457v56q38 0 61 26t23 70v8h-84v182h165v-164q0 -86 -44 -132t-121 -46z" />
    <glyph glyph-name="Lcaron" unicode="&#x13d;" horiz-adv-x="1169" 
d="M682 975l10 84q139 0 160 139l8 57h-121l33 242h223l-43 -299q-13 -105 -86 -164t-184 -59zM1024 0h-891l209 1493h184l-184 -1323h707z" />
    <glyph glyph-name="lcaron" unicode="&#x13e;" horiz-adv-x="532" 
d="M356 1604l-204 256l102 82l178 -226l244 226l80 -82l-279 -256h-121zM279 0h-175l209 1501h176z" />
    <glyph glyph-name="Ldot" unicode="&#x13f;" horiz-adv-x="1169" 
d="M1024 0h-891l209 1493h184l-184 -1323h707zM649 776q0 69 49.5 120.5t118.5 51.5q60 0 95.5 -35t35.5 -92q0 -69 -50 -118.5t-122 -49.5q-56 0 -91.5 34.5t-35.5 88.5z" />
    <glyph glyph-name="ldot" unicode="&#x140;" horiz-adv-x="860" 
d="M279 0h-175l209 1501h176zM537 752q0 69 49.5 120.5t118.5 51.5q60 0 95.5 -35t35.5 -92q0 -69 -50 -118.5t-122 -49.5q-56 0 -91.5 34.5t-35.5 88.5z" />
    <glyph glyph-name="Lslash" unicode="&#x141;" horiz-adv-x="1220" 
d="M477 784l-86 -614h707l-25 -170h-891l101 719l-209 -70l24 164l207 70l86 610h187l-76 -545l358 121l-24 -164z" />
    <glyph glyph-name="lslash" unicode="&#x142;" horiz-adv-x="532" 
d="M475 1034l98 35l-22 -162l-98 -35l-121 -872h-176l112 807l-205 -74l25 164l205 72l74 532h174z" />
    <glyph glyph-name="Nacute" unicode="&#x143;" horiz-adv-x="1619" 
d="M1423 1880l-405 -229l-45 88l391 258zM317 0h-184l209 1493h229l619 -1260h8l51 453l113 807h184l-209 -1493h-231l-614 1260h-9l-49 -435z" />
    <glyph glyph-name="nacute" unicode="&#x144;" horiz-adv-x="1265" 
d="M1233 1460l-406 -229l-45 88l392 258zM281 0h-177l150 1069h156l-4 -199h12q63 103 167.5 161.5t223.5 58.5q173 0 256.5 -117.5t54.5 -315.5l-92 -657h-178l90 639q41 293 -211 293q-141 0 -243.5 -103t-125.5 -270z" />
    <glyph glyph-name="uni0145" unicode="&#x145;" horiz-adv-x="1619" 
d="M317 0h-184l209 1493h229l619 -1260h8l51 453l113 807h184l-209 -1493h-231l-614 1260h-9l-49 -435zM635 -391v55q38 0 61 26t23 70v9h-84v182h166v-164q0 -86 -44.5 -132t-121.5 -46z" />
    <glyph glyph-name="uni0146" unicode="&#x146;" horiz-adv-x="1265" 
d="M281 0h-177l150 1069h156l-4 -199h12q63 103 167.5 161.5t223.5 58.5q173 0 256.5 -117.5t54.5 -315.5l-92 -657h-178l90 639q41 293 -211 293q-141 0 -243.5 -103t-125.5 -270zM481 -457v56q38 0 61 26t23 70v8h-84v182h166v-164q0 -86 -44.5 -132t-121.5 -46z" />
    <glyph glyph-name="Ncaron" unicode="&#x147;" horiz-adv-x="1619" 
d="M950 1597l-205 256l103 82l178 -225l244 225l80 -82l-279 -256h-121zM317 0h-184l209 1493h229l619 -1260h8l51 453l113 807h184l-209 -1493h-231l-614 1260h-9l-49 -435z" />
    <glyph glyph-name="ncaron" unicode="&#x148;" horiz-adv-x="1265" 
d="M762 1176l-205 256l102 81l179 -225l243 225l80 -81l-278 -256h-121zM281 0h-177l150 1069h156l-4 -199h12q63 103 167.5 161.5t223.5 58.5q173 0 256.5 -117.5t54.5 -315.5l-92 -657h-178l90 639q41 293 -211 293q-141 0 -243.5 -103t-125.5 -270z" />
    <glyph glyph-name="Eng" unicode="&#x14a;" horiz-adv-x="1619" 
d="M1362 1493h184l-209 -1493l-26 -184q-9 -53 -33 -92q-37 -66 -150 -66h-249l18 131h231l31 211h-53l-614 1260h-9l-49 -435l-117 -825h-184l209 1493h229l619 -1260h8l51 453z" />
    <glyph glyph-name="eng" unicode="&#x14b;" horiz-adv-x="1341" 
d="M1120 657l-71 -507h75l-47 -334q-9 -51 -33 -90q-36 -68 -149 -68h-250l19 131h231l31 211h-76l90 639q41 293 -211 293q-141 0 -243.5 -103t-125.5 -270l-79 -559h-177l150 1069h156l-4 -199h12q63 103 167.5 161.5t223.5 58.5q173 0 256.5 -117.5t54.5 -315.5z" />
    <glyph glyph-name="Omacron" unicode="&#x14c;" horiz-adv-x="1581" 
d="M1268 1667h-635l18 129h633zM113 578q0 420 225 675q225 258 594 258q288 0 445 -156.5t157 -441.5q0 -419 -225 -677q-226 -256 -592 -256q-290 0 -447 155.5t-157 442.5zM336 852l-31 -209q-35 -231 83 -363.5t349 -132.5q237 0 389 134q151 136 185 362l30 209
q32 227 -84.5 359t-349.5 132q-236 0 -387 -131.5t-184 -359.5z" />
    <glyph glyph-name="omacron" unicode="&#x14d;" horiz-adv-x="1208" 
d="M1020 1247h-635l18 129h633zM84 422q0 293 168 479q171 189 430 189q206 0 325 -118t119 -327q0 -293 -168 -479t-432 -186q-210 0 -326 117t-116 325zM285 612l-25 -166q-18 -149 62 -234t225 -85q146 0 251.5 86.5t125.5 232.5l22 166q20 146 -58 237t-226 91
q-143 0 -252 -92q-106 -87 -125 -236z" />
    <glyph glyph-name="Ohungarumlaut" unicode="&#x150;" horiz-adv-x="1581" 
d="M1143 1835l-387 -252l-54 84l375 279zM1530 1810l-404 -227l-45 86l387 258zM113 578q0 420 225 675q225 258 594 258q288 0 445 -156.5t157 -441.5q0 -419 -225 -677q-226 -256 -592 -256q-290 0 -447 155.5t-157 442.5zM336 852l-31 -209q-35 -231 83 -363.5
t349 -132.5q237 0 389 134q151 136 185 362l30 209q32 227 -84.5 359t-349.5 132q-236 0 -387 -131.5t-184 -359.5z" />
    <glyph glyph-name="ohungarumlaut" unicode="&#x151;" horiz-adv-x="1208" 
d="M895 1415l-387 -252l-53 84l374 279zM1282 1391l-403 -228l-45 86l387 258zM84 422q0 293 168 479q171 189 430 189q206 0 325 -118t119 -327q0 -293 -168 -479t-432 -186q-210 0 -326 117t-116 325zM285 612l-25 -166q-18 -149 62 -234t225 -85q146 0 251.5 86.5
t125.5 232.5l22 166q20 146 -58 237t-226 91q-143 0 -252 -92q-106 -87 -125 -236z" />
    <glyph glyph-name="OE" unicode="&#x152;" horiz-adv-x="1968" 
d="M113 578q0 427 221 671t614 244h1039l-25 -170h-807l-68 -473h709l-22 -162h-707l-74 -518h807l-24 -170h-1039q-309 0 -466.5 148.5t-157.5 429.5zM336 852l-31 -211q-30 -220 88 -344q121 -127 342 -127h72l164 1153h-74q-231 0 -380 -121.5t-181 -349.5z" />
    <glyph glyph-name="oe" unicode="&#x153;" horiz-adv-x="2019" 
d="M1913 498h-789l-8 -62q-19 -141 58 -227t223 -86q112 0 200.5 54t126.5 145h177q-52 -153 -199 -250q-145 -92 -330 -92q-284 0 -387 219q-171 -219 -459 -219q-210 0 -326 117t-116 325q0 293 168 479q171 189 430 189q286 0 397 -218q164 218 449 218q193 0 303.5 -104
t110.5 -288q0 -98 -29 -200zM1147 657l-2 -28h616l6 41q17 124 -54.5 200t-205.5 76q-144 0 -245.5 -80.5t-114.5 -208.5zM924 446l22 166q20 146 -58 237t-226 91q-143 0 -252 -92q-106 -87 -125 -236l-25 -166q-18 -149 62 -234t225 -85q146 0 251.5 86.5t125.5 232.5z
" />
    <glyph glyph-name="Racute" unicode="&#x154;" horiz-adv-x="1480" 
d="M1309 1880l-406 -229l-45 88l391 258zM317 0h-184l209 1493h692q188 0 283.5 -89t95.5 -257q0 -165 -73 -288.5t-197 -166.5l-2 -12h80q139 0 118 -150l-75 -530h-187l80 575h-758zM504 1327l-82 -590h473q127 0 208 62.5t95 167.5l19 133q17 111 -46.5 169t-193.5 58
h-473z" />
    <glyph glyph-name="racute" unicode="&#x155;" horiz-adv-x="737" 
d="M891 1589l59 -116l-405 -230l-45 88zM188 610l45 301q21 158 183 158h370l-20 -147h-356l-43 -312l-86 -610h-177z" />
    <glyph glyph-name="uni0156" unicode="&#x156;" horiz-adv-x="1480" 
d="M317 0h-184l209 1493h692q188 0 283.5 -89t95.5 -257q0 -165 -73 -288.5t-197 -166.5l-2 -12h80q139 0 118 -150l-75 -530h-187l80 575h-758zM504 1327l-82 -590h473q127 0 208 62.5t95 167.5l19 133q17 111 -46.5 169t-193.5 58h-473zM629 -457v56q38 0 61 26t23 70v8
h-84v182h166v-164q0 -86 -44.5 -132t-121.5 -46z" />
    <glyph glyph-name="uni0157" unicode="&#x157;" horiz-adv-x="737" 
d="M416 1069h370l-20 -147h-356l-43 -312l-86 -610h-177l84 610l45 301q21 158 183 158zM193 -297h-84v182h165v-164q0 -86 -44 -132t-121 -46v56q38 0 61 26t23 70v8z" />
    <glyph glyph-name="Rcaron" unicode="&#x158;" horiz-adv-x="1480" 
d="M838 1597l-205 256l102 82l178 -225l244 225l80 -82l-279 -256h-120zM317 0h-184l209 1493h692q188 0 283.5 -89t95.5 -257q0 -165 -73 -288.5t-197 -166.5l-2 -12h80q139 0 118 -150l-75 -530h-187l80 575h-758zM504 1327l-82 -590h473q127 0 208 62.5t95 167.5l19 133
q17 111 -46.5 169t-193.5 58h-473z" />
    <glyph glyph-name="rcaron" unicode="&#x159;" horiz-adv-x="737" 
d="M879 1446l-279 -256h-121l-205 256l103 82l178 -225l244 225zM188 610l45 301q21 158 183 158h370l-20 -147h-356l-43 -312l-86 -610h-177z" />
    <glyph glyph-name="Sacute" unicode="&#x15a;" horiz-adv-x="1372" 
d="M1270 1880l-406 -229l-45 88l391 258zM117 461h190q-18 -159 77 -244.5t278 -85.5q180 0 292 86q113 88 113 232q0 153 -207 200l-254 60l-88 20q-24 7 -92 37q-61 28 -94 57q-37 37 -63.5 94t-26.5 121q0 210 164 342q165 133 421 133q243 0 374 -115.5t106 -316.5h-191
q10 134 -71.5 207.5t-237.5 73.5q-161 0 -263 -77t-102 -200q0 -99 86 -147q65 -31 150 -51l272 -62q316 -70 316 -331q0 -229 -176 -373q-176 -141 -459 -141q-282 0 -414 135q-127 136 -100 346z" />
    <glyph glyph-name="sacute" unicode="&#x15b;" horiz-adv-x="1032" 
d="M1032 1460l-405 -229l-45 88l391 258zM78 324h176q-12 -94 50.5 -149.5t180.5 -55.5q119 0 193 55.5t74 147.5q0 95 -123 122l-221 43q-250 50 -250 240q0 159 125 260q127 103 325 103q189 0 286.5 -88.5t78.5 -237.5h-176q10 92 -44.5 140t-160.5 48q-116 0 -184 -51
t-68 -137q0 -74 57 -100q54 -21 97 -29l204 -39q242 -40 242 -242q0 -168 -131 -272q-132 -102 -342 -102q-203 0 -307.5 94t-81.5 250z" />
    <glyph glyph-name="Scedilla" unicode="&#x15e;" horiz-adv-x="1372" 
d="M1305 1081h-191q10 134 -71.5 207.5t-237.5 73.5q-161 0 -263 -77t-102 -200q0 -99 86 -147q65 -31 150 -51l272 -62q316 -70 316 -331q0 -220 -160 -359q-159 -138 -422 -153l-53 -68q59 -2 98 -32.5t39 -84.5q0 -83 -68 -133q-43 -31 -96 -41.5t-100 -4t-92 25.5
l14 104q44 -53 133 -41q90 9 90 84q0 38 -36.5 50.5t-108.5 -5.5l8 49l70 97q-254 12 -375 145q-117 135 -90 334h190q-18 -159 76.5 -244.5t277.5 -85.5q181 0 293 86q113 88 113 232q0 153 -207 200l-254 60l-88 20q-24 7 -92 37q-61 28 -94 57q-37 37 -63.5 94t-26.5 121
q0 210 163 342q165 133 422 133q243 0 374 -115.5t106 -316.5z" />
    <glyph glyph-name="scedilla" unicode="&#x15f;" horiz-adv-x="1032" 
d="M971 764h-176q10 92 -44.5 140t-160.5 48q-116 0 -184 -51t-68 -137q0 -74 57 -100q54 -21 97 -29l204 -39q242 -40 242 -242q0 -158 -117 -260q-115 -100 -309 -112l-68 -88q60 -2 99 -32.5t39 -84.5q0 -83 -68 -133q-43 -31 -96.5 -42t-100.5 -4.5t-92 25.5l15 105
q44 -53 133 -41q90 9 90 84q0 38 -37 50.5t-109 -5.5l9 49l86 117q-178 12 -267 103.5t-69 238.5h176q-12 -94 50.5 -149.5t180.5 -55.5q119 0 193 55.5t74 147.5q0 95 -123 122l-221 43q-250 50 -250 240q0 159 125 260q127 103 325 103q189 0 286.5 -88.5t78.5 -237.5z
" />
    <glyph glyph-name="Scaron" unicode="&#x160;" horiz-adv-x="1372" 
d="M797 1597l-205 256l102 82l178 -225l244 225l80 -82l-278 -256h-121zM117 461h190q-18 -159 77 -244.5t278 -85.5q180 0 292 86q113 88 113 232q0 153 -207 200l-254 60l-88 20q-24 7 -92 37q-61 28 -94 57q-37 37 -63.5 94t-26.5 121q0 210 164 342q165 133 421 133
q243 0 374 -115.5t106 -316.5h-191q10 134 -71.5 207.5t-237.5 73.5q-161 0 -263 -77t-102 -200q0 -99 86 -147q65 -31 150 -51l272 -62q316 -70 316 -331q0 -229 -176 -373q-176 -141 -459 -141q-282 0 -414 135q-127 136 -100 346z" />
    <glyph glyph-name="scaron" unicode="&#x161;" horiz-adv-x="1032" 
d="M559 1176l-205 256l103 81l178 -225l244 225l79 -81l-278 -256h-121zM78 324h176q-12 -94 50.5 -149.5t180.5 -55.5q119 0 193 55.5t74 147.5q0 95 -123 122l-221 43q-250 50 -250 240q0 159 125 260q127 103 325 103q189 0 286.5 -88.5t78.5 -237.5h-176
q10 92 -44.5 140t-160.5 48q-116 0 -184 -51t-68 -137q0 -74 57 -100q54 -21 97 -29l204 -39q242 -40 242 -242q0 -168 -131 -272q-132 -102 -342 -102q-203 0 -307.5 94t-81.5 250z" />
    <glyph glyph-name="uni0162" unicode="&#x162;" horiz-adv-x="1136" 
d="M774 1325l-186 -1325h-45l-68 -86q59 -2 98 -32.5t39 -84.5q0 -84 -67 -133q-43 -31 -96.5 -41.5t-100.5 -4t-92 25.5l14 104q44 -53 133 -41q91 9 91 84q0 38 -37 50.5t-109 -5.5l8 49l84 115h-37l185 1325h-465l24 168h1115l-25 -168h-463z" />
    <glyph glyph-name="uni0163" unicode="&#x163;" horiz-adv-x="706" 
d="M676 922h-225l-74 -525l-33 -250h225l-20 -147h-146l-67 -86q59 -2 98 -32.5t39 -84.5q0 -84 -67 -133q-43 -31 -96.5 -41.5t-100.5 -4t-92 25.5l14 104q44 -53 133 -41q90 9 90 84q0 38 -36.5 50.5t-108.5 -5.5l8 49l84 115q-154 0 -133 150l108 772h-194l20 147h195
l49 354h176l-49 -354h225z" />
    <glyph glyph-name="Tcaron" unicode="&#x164;" horiz-adv-x="1136" 
d="M1059 1853l-279 -256h-121l-204 256l102 82l178 -225l244 225zM147 1493h1115l-25 -168h-463l-186 -1325h-185l185 1325h-465z" />
    <glyph glyph-name="tcaron" unicode="&#x165;" horiz-adv-x="706" 
d="M786 1786l-278 -256h-121l-205 256l103 82l178 -226l244 226zM346 1423h176l-49 -354h225l-22 -147h-225l-74 -525l-33 -250h225l-20 -147h-246q-156 0 -135 150l108 772h-194l20 147h195z" />
    <glyph glyph-name="Tbar" unicode="&#x166;" horiz-adv-x="1136" 
d="M1262 1493l-25 -168h-463l-63 -448h352l-25 -158h-350l-100 -719h-185l101 719h-344l22 158h344l62 448h-465l24 168h1115z" />
    <glyph glyph-name="tbar" unicode="&#x167;" horiz-adv-x="706" 
d="M698 1069l-22 -147h-225l-37 -263h235l-16 -141h-240l-16 -121l-33 -250h225l-20 -147h-246q-156 0 -135 150l35 247l16 121h-180l16 141h185l36 263h-194l20 147h195l49 354h176l-49 -354h225z" />
    <glyph glyph-name="Umacron" unicode="&#x16a;" horiz-adv-x="1587" 
d="M1307 1667h-635l18 129h633zM236 553l131 940h184l-131 -924q-26 -196 69.5 -306.5t286.5 -110.5q192 0 319.5 111t153.5 306l131 924h183l-131 -940q-38 -262 -222 -418q-180 -155 -458 -155q-286 0 -420 155q-133 158 -96 418z" />
    <glyph glyph-name="umacron" unicode="&#x16b;" horiz-adv-x="1251" 
d="M1065 1260h-635l19 129h632zM999 1069h177l-150 -1069h-152l3 199h-17q-58 -101 -162.5 -160t-230.5 -59q-165 0 -244 106.5t-53 300.5l96 682h176l-92 -657q-41 -283 199 -283q145 0 246 104q104 111 125 277z" />
    <glyph glyph-name="Uring" unicode="&#x16e;" horiz-adv-x="1587" 
d="M1219 1710q0 -112 -75 -186t-186 -74q-91 0 -144.5 49.5t-53.5 134.5q0 110 75 184t185 74q90 0 144.5 -50t54.5 -132zM1106 1694q0 45 -27 73.5t-71 28.5q-57 0 -96.5 -42.5t-39.5 -102.5q0 -47 28 -76t73 -29q55 0 94 43t39 105zM236 553l131 940h184l-131 -924
q-26 -196 69.5 -306.5t286.5 -110.5q192 0 319.5 111t153.5 306l131 924h183l-131 -940q-38 -262 -222 -418q-180 -155 -458 -155q-286 0 -420 155q-133 158 -96 418z" />
    <glyph glyph-name="uring" unicode="&#x16f;" horiz-adv-x="1251" 
d="M979 1303q0 -112 -74.5 -186.5t-185.5 -74.5q-91 0 -145 50t-54 135q0 110 75 184t185 74q90 0 144.5 -50t54.5 -132zM866 1286q0 45 -27 74t-71 29q-57 0 -96 -43t-39 -103q0 -47 27.5 -75.5t72.5 -28.5q56 0 94.5 43t38.5 104zM999 1069h177l-150 -1069h-152l3 199h-17
q-58 -101 -162.5 -160t-230.5 -59q-165 0 -244 106.5t-53 300.5l96 682h176l-92 -657q-41 -283 199 -283q145 0 246 104q104 111 125 277z" />
    <glyph glyph-name="Uhungarumlaut" unicode="&#x170;" horiz-adv-x="1587" 
d="M1180 1835l-387 -252l-54 84l375 279zM1567 1810l-404 -227l-45 86l387 258zM236 553l131 940h184l-131 -924q-26 -196 69.5 -306.5t286.5 -110.5q192 0 319.5 111t153.5 306l131 924h183l-131 -940q-38 -262 -222 -418q-180 -155 -458 -155q-286 0 -420 155
q-133 158 -96 418z" />
    <glyph glyph-name="uhungarumlaut" unicode="&#x171;" horiz-adv-x="1251" 
d="M938 1427l-387 -251l-53 84l374 278zM1325 1403l-403 -227l-45 86l387 258zM999 1069h177l-150 -1069h-152l3 199h-17q-58 -101 -162.5 -160t-230.5 -59q-165 0 -244 106.5t-53 300.5l96 682h176l-92 -657q-41 -283 199 -283q145 0 246 104q104 111 125 277z" />
    <glyph glyph-name="Uogonek" unicode="&#x172;" horiz-adv-x="1587" 
d="M1249 569l131 924h183l-131 -940q-34 -228 -179 -379q-143 -149 -370 -184q-73 -26 -114.5 -74.5t-41.5 -105.5q0 -82 104 -82q51 0 109 24l-12 -100q-64 -27 -144 -27q-80 5 -127 45.5t-47 108.5q0 119 107 201q-264 10 -391 164t-90 409l131 940h184l-131 -924
q-26 -196 69.5 -306.5t286.5 -110.5q192 0 319.5 111t153.5 306z" />
    <glyph glyph-name="uogonek" unicode="&#x173;" horiz-adv-x="1251" 
d="M838 -190q0 -82 104 -82q50 0 109 24l-13 -100q-65 -27 -143 -27q-80 5 -127 45.5t-47 108.5q0 145 153 233l3 187h-17q-58 -101 -162.5 -160t-230.5 -59q-165 0 -244 106.5t-53 300.5l96 682h176l-92 -657q-41 -283 199 -283q145 0 246 104q104 111 125 277l79 559h177
l-150 -1069h-2q-88 -26 -137 -76.5t-49 -113.5z" />
    <glyph glyph-name="Wcircumflex" unicode="&#x174;" horiz-adv-x="1898" 
d="M883 1628l-76 84l278 254h119l205 -252l-100 -86l-183 225zM254 0l-96 1493h192l51 -889l13 -399h12l528 1288h250l168 -1288h12l123 397l299 891h203l-514 -1493h-260l-174 1290h-10l-537 -1290h-260z" />
    <glyph glyph-name="wcircumflex" unicode="&#x175;" horiz-adv-x="1523" 
d="M1071 1221l-182 225l-244 -225l-76 84l279 254h119l204 -252zM1155 496l227 573h189l-443 -1069h-231l-61 549l-27 303h-12l-107 -303l-209 -549h-235l-152 1069h185l69 -567l25 -326h12l338 893h215l92 -889h10z" />
    <glyph glyph-name="Ycircumflex" unicode="&#x176;" horiz-adv-x="1325" 
d="M604 1628l-76 84l279 254h119l204 -252l-100 -86l-182 225zM582 604l-437 889h217l179 -387l141 -326h16l236 328l283 385h231l-682 -889l-84 -604h-186z" />
    <glyph glyph-name="ycircumflex" unicode="&#x177;" horiz-adv-x="1060" 
d="M416 1223l-76 84l278 254h119l205 -252l-100 -86l-183 225zM385 127l-313 942h188l107 -350l116 -410h13l440 760h201l-578 -944l-43 -309q-21 -158 -176 -158h-272l20 145h254z" />
    <glyph glyph-name="Ydieresis" unicode="&#x178;" horiz-adv-x="1325" 
d="M707 1677h-156l31 232h157zM1098 1677h-158l33 232h157zM582 604l-437 889h217l179 -387l141 -326h16l236 328l283 385h231l-682 -889l-84 -604h-186z" />
    <glyph glyph-name="Zacute" unicode="&#x179;" horiz-adv-x="1177" 
d="M1059 1997l59 -117l-405 -229l-45 88zM172 1493h1102l-21 -150l-1026 -1173h852l-24 -170h-1092l21 150l1028 1173h-862z" />
    <glyph glyph-name="zacute" unicode="&#x17a;" horiz-adv-x="899" 
d="M891 1589l59 -116l-405 -230l-45 88zM688 922h-586l21 147h799l-21 -137l-694 -785h592l-21 -147h-805l19 133z" />
    <glyph glyph-name="Zdotaccent" unicode="&#x17b;" horiz-adv-x="1177" 
d="M672 1909h157l-32 -232h-158zM172 1493h1102l-21 -150l-1026 -1173h852l-24 -170h-1092l21 150l1028 1173h-862z" />
    <glyph glyph-name="zdotaccent" unicode="&#x17c;" horiz-adv-x="899" 
d="M504 1501h158l-33 -231h-158zM123 1069h799l-21 -137l-694 -785h592l-21 -147h-805l19 133l696 789h-586z" />
    <glyph glyph-name="Zcaron" unicode="&#x17d;" horiz-adv-x="1177" 
d="M1044 1853l-278 -256h-121l-205 256l103 82l178 -225l244 225zM172 1493h1102l-21 -150l-1026 -1173h852l-24 -170h-1092l21 150l1028 1173h-862z" />
    <glyph glyph-name="zcaron" unicode="&#x17e;" horiz-adv-x="899" 
d="M877 1446l-279 -256h-121l-205 256l103 82l178 -225l244 225zM123 1069h799l-21 -137l-694 -785h592l-21 -147h-805l19 133l696 789h-586z" />
    <glyph glyph-name="uni018F" unicode="&#x18f;" horiz-adv-x="1439" 
d="M854 1513q259 0 399 -153t140 -432q0 -423 -211 -686q-212 -262 -549 -262q-254 0 -390.5 144.5t-136.5 399.5q0 68 15 154q16 94 20 104h1051q38 277 -59.5 420.5t-311.5 143.5q-161 0 -289 -76q-129 -77 -178 -201h-184q69 203 258 322q189 122 426 122zM655 147
q201 0 337 127.5t177 356.5h-860q-31 -243 61.5 -363.5t284.5 -120.5z" />
    <glyph glyph-name="florin" unicode="&#x192;" horiz-adv-x="1077" 
d="M227 -260h-293l21 151h297l237 854h-206l20 152h227l125 442q41 154 199 154h295l-23 -152h-295l-124 -444h231l-18 -152h-252l-236 -845q-47 -160 -205 -160z" />
    <glyph glyph-name="AEacute" unicode="&#x1fc;" horiz-adv-x="1955" 
d="M1677 1997l60 -117l-406 -229l-45 88zM1968 1493l-22 -170h-824l-67 -496h704l-24 -159h-703l-69 -498h821l-25 -170h-1005l57 414h-489l-193 -414h-195l719 1493h1315zM393 567h441l104 756h-195z" />
    <glyph glyph-name="Oslashacute" unicode="&#x1fe;" horiz-adv-x="1581" 
d="M1591 1346l72 -123l-154 -103q25 -95 25 -207q0 -419 -225 -677q-226 -256 -592 -256q-385 0 -529 264l-145 -97l-63 123l157 105q-24 91 -24 203q0 420 225 675q225 258 594 258q375 0 522 -258zM336 852l-31 -209q-13 -93 -4 -158l999 666q-27 53 -86 102l-376 -213
l-45 88l290 191q-79 24 -176 24q-236 0 -387 -131.5t-184 -359.5zM1311 643l30 209q13 97 5 160l-1004 -666q105 -199 395 -199q237 0 389 134q151 136 185 362z" />
    <glyph glyph-name="oslashacute" unicode="&#x1ff;" horiz-adv-x="1208" 
d="M969 1577l59 -117l-405 -229l-45 88zM1174 989l59 -108l-193 -129q9 -44 9 -107q0 -293 -168 -479t-430 -186q-232 0 -353 145l-67 -45l-58 106l66 43q-33 79 -33 193q0 293 168 479q171 189 432 189q287 0 395 -218zM207 612l-23 -166q-8 -52 2 -116l668 446
q-30 76 -100.5 120t-167.5 44q-143 0 -252 -92q-105 -86 -127 -236zM848 446l22 166q2 6 2 29l-632 -422q80 -92 231 -92q138 0 248 84q108 86 129 235z" />
    <glyph glyph-name="uni0218" unicode="&#x218;" horiz-adv-x="1372" 
d="M117 461h190q-18 -159 77 -244.5t278 -85.5q180 0 292 86q113 88 113 232q0 153 -207 200l-254 60l-88 20q-24 7 -92 37q-61 28 -94 57q-37 37 -63.5 94t-26.5 121q0 210 164 342q165 133 421 133q243 0 374 -115.5t106 -316.5h-191q10 134 -71.5 207.5t-237.5 73.5
q-161 0 -263 -77t-102 -200q0 -99 86 -147q65 -31 150 -51l272 -62q316 -70 316 -331q0 -229 -176 -373q-176 -141 -459 -141q-282 0 -414 135q-127 136 -100 346zM565 -457v56q38 0 61 26t23 70v8h-84v182h166v-164q0 -86 -44.5 -132t-121.5 -46z" />
    <glyph glyph-name="uni0219" unicode="&#x219;" horiz-adv-x="1032" 
d="M78 324h176q-12 -94 50.5 -149.5t180.5 -55.5q119 0 193 55.5t74 147.5q0 95 -123 122l-221 43q-250 50 -250 240q0 159 125 260q127 103 325 103q189 0 286.5 -88.5t78.5 -237.5h-176q10 92 -44.5 140t-160.5 48q-116 0 -184 -51t-68 -137q0 -74 57 -100q54 -21 97 -29
l204 -39q242 -40 242 -242q0 -168 -131 -272q-132 -102 -342 -102q-203 0 -307.5 94t-81.5 250zM383 -477v55q38 0 61 26t23 70v9h-84v182h166v-164q0 -86 -44.5 -132t-121.5 -46z" />
    <glyph glyph-name="uni021A" unicode="&#x21a;" horiz-adv-x="1136" 
d="M147 1493h1115l-25 -168h-463l-186 -1325h-185l185 1325h-465zM494 -297h-84v182h165v-164q0 -86 -44 -132t-121 -46v56q38 0 61 26t23 70v8z" />
    <glyph glyph-name="uni021B" unicode="&#x21b;" horiz-adv-x="706" 
d="M676 922h-225l-74 -525l-33 -250h225l-20 -147h-246q-156 0 -135 150l108 772h-194l20 147h195l49 354h176l-49 -354h225zM354 -297h-84v182h166v-164q0 -86 -44.5 -132t-121.5 -46v56q38 0 61 26t23 70v8z" />
    <glyph glyph-name="uni0237" unicode="&#x237;" horiz-adv-x="552" 
d="M131 41l145 1028h175l-144 -1028l-33 -225q-9 -55 -32 -92q-37 -66 -150 -66h-250l21 143h235z" />
    <glyph glyph-name="circumflex" unicode="&#x2c6;" horiz-adv-x="729" 
d="M287 1481l-76 84l278 254h119l205 -252l-100 -86l-183 225z" />
    <glyph glyph-name="caron" unicode="&#x2c7;" horiz-adv-x="729" 
d="M442 1503l-204 256l102 82l178 -225l244 225l80 -82l-279 -256h-121z" />
    <glyph glyph-name="breve" unicode="&#x2d8;" horiz-adv-x="739" 
d="M735 1776h123q-19 -129 -112.5 -210t-223.5 -81q-133 0 -202 80t-50 211h121q-12 -81 29 -132t117 -51q78 0 132 50.5t66 132.5z" />
    <glyph glyph-name="dotaccent" unicode="&#x2d9;" horiz-adv-x="380" 
d="M406 1516h-158l33 231h157z" />
    <glyph glyph-name="ring" unicode="&#x2da;" horiz-adv-x="765" 
d="M770 1630q0 -112 -74.5 -186t-185.5 -74q-91 0 -145 49.5t-54 134.5q0 110 75 184t185 74q90 0 144.5 -50t54.5 -132zM657 1614q0 45 -27 73.5t-71 28.5q-57 0 -96 -42.5t-39 -102.5q0 -47 28 -76t72 -29q55 0 94 43t39 105z" />
    <glyph glyph-name="ogonek" unicode="&#x2db;" horiz-adv-x="847" 
d="M172 -221q0 94 75 171.5t197 108.5l31 -59q-88 -26 -137 -76.5t-49 -113.5q0 -82 104 -82q50 0 109 24l-13 -100q-64 -27 -143 -27q-80 5 -127 45.5t-47 108.5z" />
    <glyph glyph-name="tilde" unicode="&#x2dc;" horiz-adv-x="679" 
d="M598 1505q-57 0 -135 35t-117 35q-60 0 -115 -70l-69 56q88 143 209 143q50 0 131 -37q84 -35 123 -35q65 0 120 70l70 -57q-84 -140 -217 -140z" />
    <glyph glyph-name="hungarumlaut" unicode="&#x2dd;" horiz-adv-x="991" 
d="M809 1741l-387 -252l-53 84l374 278zM1196 1716l-403 -227l-45 86l387 258z" />
    <glyph glyph-name="gravecomb" unicode="&#x300;" 
d="M-72 1569l-71 -88l-340 229l92 117z" />
    <glyph glyph-name="acutecomb" unicode="&#x301;" 
d="M-57 1710l-406 -229l-45 88l391 258z" />
    <glyph glyph-name="uni0302" unicode="&#x302;" 
d="M-442 1481l-76 84l278 254h119l205 -252l-100 -86l-183 225z" />
    <glyph glyph-name="tildecomb" unicode="&#x303;" 
d="M-82 1505q-57 0 -135 35t-117 35q-60 0 -115 -70l-69 56q88 143 209 143q52 0 133 -37q84 -35 121 -35q66 0 121 70l69 -57q-84 -140 -217 -140z" />
    <glyph glyph-name="uni0304" unicode="&#x304;" 
d="M92 1513h-635l19 129h633z" />
    <glyph glyph-name="uni0306" unicode="&#x306;" 
d="M-4 1776h123q-19 -129 -112.5 -210t-223.5 -81q-133 0 -202 80t-50 211h121q-12 -81 29 -132t116 -51q78 0 132.5 50.5t66.5 132.5z" />
    <glyph glyph-name="uni0307" unicode="&#x307;" 
d="M25 1516h-158l33 231h157z" />
    <glyph glyph-name="uni0308" unicode="&#x308;" 
d="M-379 1516h-156l31 231h158zM12 1516h-157l32 231h158z" />
    <glyph glyph-name="uni030A" unicode="&#x30a;" 
d="M4 1630q0 -112 -74.5 -186t-185.5 -74q-91 0 -145 49.5t-54 134.5q0 110 75 184t185 74q90 0 144.5 -50t54.5 -132zM-109 1614q0 45 -27 73.5t-71 28.5q-57 0 -96 -42.5t-39 -102.5q0 -47 28 -76t72 -29q55 0 94 43t39 105z" />
    <glyph glyph-name="uni030B" unicode="&#x30b;" 
d="M-182 1741l-387 -252l-54 84l375 278zM205 1716l-404 -227l-45 86l387 258z" />
    <glyph glyph-name="uni030C" unicode="&#x30c;" 
d="M-287 1503l-205 256l103 82l178 -225l244 225l80 -82l-279 -256h-121z" />
    <glyph glyph-name="uni0312" unicode="&#x312;" 
d="M66 1858v-56q-37 0 -59.5 -26.5t-22.5 -69.5v-10h82v-180h-164v151q0 90 44 140.5t120 50.5z" />
    <glyph glyph-name="uni0326" unicode="&#x326;" 
d="M-336 -461v55q38 0 61 26.5t23 70.5v8h-84v182h166v-164q0 -86 -44.5 -132t-121.5 -46z" />
    <glyph glyph-name="uni0327" unicode="&#x327;" 
d="M-537 6l-71 -92q59 -2 98 -32.5t39 -84.5q0 -83 -68 -133q-43 -31 -96 -41.5t-100 -4t-92 25.5l14 104q44 -53 133 -41q90 9 90 84q0 38 -36.5 50.5t-108.5 -5.5l8 49l131 178h68z" />
    <glyph glyph-name="uni0328" unicode="&#x328;" 
d="M-676 -221q0 94 75.5 171.5t197.5 108.5l30 -59q-88 -26 -137 -76.5t-49 -113.5q0 -82 104 -82q50 0 109 24l-12 -100q-64 -27 -144 -27q-80 5 -127 45.5t-47 108.5z" />
    <glyph glyph-name="uni0335" unicode="&#x335;" 
d="M-121 623h-655l18 125h656z" />
    <glyph glyph-name="uni0336" unicode="&#x336;" 
 />
    <glyph glyph-name="uni0337" unicode="&#x337;" 
d="M-727 0h-131l805 1493h129z" />
    <glyph glyph-name="uni0338" unicode="&#x338;" 
d="M-727 0h-131l805 1493h129z" />
    <glyph glyph-name="uni03BC" unicode="&#x3bc;" horiz-adv-x="1189" 
d="M236 -354h-158l164 1423h176l-78 -680q-13 -126 42.5 -195t162.5 -69q124 0 205 88t100 238l68 618h178l-123 -1069h-166l31 178h-13q-104 -198 -323 -198q-66 0 -122 27.5t-79 70.5h-14z" />
    <glyph glyph-name="pi" unicode="&#x3c0;" horiz-adv-x="1191" 
d="M293 932h-184l14 137h1089l-14 -137h-178l-96 -785h180l-12 -147h-195q-81 0 -116.5 36.5t-28.5 117.5l94 778h-377l-109 -932h-178z" />
    <glyph glyph-name="omega" unicode="&#x3c9;" horiz-adv-x="1634" 
d="M205 883q0 283 182 456q183 174 487 174q303 0 484 -172q184 -172 184 -458q0 -215 -121 -383q-123 -167 -317 -224v-133h326v-143h-484v375q182 34 297 155q115 124 115 293v117q0 192 -141 303q-137 113 -343 113q-204 0 -344 -113q-141 -114 -141 -305v-117
q0 -169 113 -291q114 -120 299 -155v-375h-482v143h326v133q-200 59 -321 224q-119 162 -119 383z" />
    <glyph glyph-name="Wgrave" unicode="&#x1e80;" horiz-adv-x="1898" 
d="M1171 1739l-71 -88l-340 229l92 117zM254 0l-96 1493h192l51 -889l13 -399h12l528 1288h250l168 -1288h12l123 397l299 891h203l-514 -1493h-260l-174 1290h-10l-537 -1290h-260z" />
    <glyph glyph-name="wgrave" unicode="&#x1e81;" horiz-adv-x="1523" 
d="M614 1589l320 -258l-72 -88l-340 230zM1155 496l227 573h189l-443 -1069h-231l-61 549l-27 303h-12l-107 -303l-209 -549h-235l-152 1069h185l69 -567l25 -326h12l338 893h215l92 -889h10z" />
    <glyph glyph-name="Wacute" unicode="&#x1e82;" horiz-adv-x="1898" 
d="M1501 1880l-405 -229l-45 88l391 258zM254 0l-96 1493h192l51 -889l13 -399h12l528 1288h250l168 -1288h12l123 397l299 891h203l-514 -1493h-260l-174 1290h-10l-537 -1290h-260z" />
    <glyph glyph-name="wacute" unicode="&#x1e83;" horiz-adv-x="1523" 
d="M1204 1589l60 -116l-406 -230l-45 88zM1155 496l227 573h189l-443 -1069h-231l-61 549l-27 303h-12l-107 -303l-209 -549h-235l-152 1069h185l69 -567l25 -326h12l338 893h215l92 -889h10z" />
    <glyph glyph-name="Wdieresis" unicode="&#x1e84;" horiz-adv-x="1898" 
d="M985 1677h-156l31 232h158zM1376 1677h-157l32 232h158zM254 0l-96 1493h192l51 -889l13 -399h12l528 1288h250l168 -1288h12l123 397l299 891h203l-514 -1493h-260l-174 1290h-10l-537 -1290h-260z" />
    <glyph glyph-name="wdieresis" unicode="&#x1e85;" horiz-adv-x="1523" 
d="M621 1501h157l-33 -231h-155zM1012 1501h157l-32 -231h-158zM1155 496l227 573h189l-443 -1069h-231l-61 549l-27 303h-12l-107 -303l-209 -549h-235l-152 1069h185l69 -567l25 -326h12l338 893h215l92 -889h10z" />
    <glyph glyph-name="Ygrave" unicode="&#x1ef2;" horiz-adv-x="1325" 
d="M895 1739l-72 -88l-340 229l92 117zM582 604l-437 889h217l179 -387l141 -326h16l236 328l283 385h231l-682 -889l-84 -604h-186z" />
    <glyph glyph-name="ygrave" unicode="&#x1ef3;" horiz-adv-x="1060" 
d="M705 1331l-72 -88l-340 230l92 116zM385 127l-313 942h188l107 -350l116 -410h13l440 760h201l-578 -944l-43 -309q-21 -158 -176 -158h-272l20 145h254z" />
    <glyph glyph-name="endash" unicode="&#x2013;" horiz-adv-x="1304" 
d="M1182 555h-1055l18 121h1053z" />
    <glyph glyph-name="emdash" unicode="&#x2014;" horiz-adv-x="1705" 
d="M1583 555h-1456l18 121h1454z" />
    <glyph glyph-name="quoteleft" unicode="&#x2018;" horiz-adv-x="415" 
d="M469 1522l-12 -88q-143 0 -164 -144l-8 -59h125l-35 -252h-230l43 309q17 112 91 173t190 61z" />
    <glyph glyph-name="quoteright" unicode="&#x2019;" horiz-adv-x="409" 
d="M150 958l12 89q149 0 164 143l8 59h-123l35 252h229l-43 -309q-17 -112 -91.5 -173t-190.5 -61z" />
    <glyph glyph-name="quotesinglbase" unicode="&#x201a;" horiz-adv-x="415" 
d="M-31 -291l11 88q144 0 165 144l9 59h-125l34 252h230l-43 -309q-17 -110 -92.5 -172t-188.5 -62z" />
    <glyph glyph-name="quotedblleft" unicode="&#x201c;" horiz-adv-x="831" 
d="M500 1729l-13 -89q-142 0 -163 -143l-9 -59h125l-37 -252h-227l43 309q13 111 88.5 172.5t192.5 61.5zM915 1729l-12 -89q-143 0 -164 -143l-8 -59h123l-35 -252h-227l43 309q13 111 88 172.5t192 61.5z" />
    <glyph glyph-name="quotedblright" unicode="&#x201d;" horiz-adv-x="831" 
d="M-2 -78l12 88q143 0 164 144l8 59h-123l35 252h228l-43 -309q-13 -111 -88.5 -172.5t-192.5 -61.5zM414 -78l12 88q143 0 164 144l8 59h-125l35 252h229l-43 -309q-13 -111 -88 -172.5t-192 -61.5z" />
    <glyph glyph-name="quotedblbase" unicode="&#x201e;" horiz-adv-x="831" 
d="M-31 -291l11 88q144 0 165 144l9 59h-125l34 252h230l-43 -309q-17 -110 -92.5 -172t-188.5 -62zM385 -291l10 88q145 0 166 144l8 59h-125l35 252h230l-43 -309q-17 -110 -92.5 -172t-188.5 -62z" />
    <glyph glyph-name="dagger" unicode="&#x2020;" horiz-adv-x="843" 
d="M629 1499l-103 -731h277l-19 -135h-276l-45 -311h-144l43 311h-278l20 135h277l102 731h146z" />
    <glyph glyph-name="daggerdbl" unicode="&#x2021;" horiz-adv-x="843" 
d="M866 1194l-18 -131h-281l-41 -295h277l-19 -135h-276l-45 -311h-144l43 311h-278l20 135h277l41 295h-275l19 131h274l43 305h146l-43 -305h280z" />
    <glyph glyph-name="bullet" unicode="&#x2022;" horiz-adv-x="802" 
d="M139 528q0 122 92 217q94 97 209 97q98 0 164 -68t66 -168q0 -122 -95 -217q-92 -92 -210 -92q-96 0 -161 67t-65 164z" />
    <glyph glyph-name="ellipsis" unicode="&#x2026;" horiz-adv-x="1355" 
d="M293 0h-232l37 258h232zM719 0h-232l37 258h232zM1145 0h-232l37 258h232z" />
    <glyph glyph-name="perthousand" unicode="&#x2030;" horiz-adv-x="2664" 
d="M211 1141q0 165 98 266q102 102 262 102q161 0 261 -102t100 -268q0 -167 -101 -271q-99 -102 -260 -102t-260.5 104t-99.5 271zM625 0h-150l946 1493h150zM356 1141q0 -111 59.5 -179.5t155.5 -68.5t155.5 68.5t59.5 179.5q0 109 -59 176t-156 67q-94 0 -154.5 -67.5
t-60.5 -175.5zM1083 354q0 166 101 267q101 104 262 104q159 0 257.5 -103.5t98.5 -269.5t-98.5 -269t-257.5 -103q-162 0 -262.5 103.5t-100.5 270.5zM1905 354q0 167 100 267q101 104 262 104q159 0 260 -104q101 -101 101 -269q0 -166 -101 -270q-99 -102 -260 -102
t-261.5 103.5t-100.5 270.5zM1229 354q0 -110 60 -179t157 -69q94 0 153.5 69t59.5 179q0 109 -59.5 177.5t-153.5 68.5q-96 0 -156.5 -69.5t-60.5 -176.5zM2482 354q0 108 -60.5 177t-154.5 69q-97 0 -158 -70q-59 -68 -59 -176q0 -107 59 -178q61 -70 158 -70
q96 0 155.5 68.5t59.5 179.5z" />
    <glyph glyph-name="guilsinglleft" unicode="&#x2039;" horiz-adv-x="673" 
d="M305 133l-188 428l307 424h166l-287 -424l168 -428h-166z" />
    <glyph glyph-name="guilsinglright" unicode="&#x203a;" horiz-adv-x="675" 
d="M379 985l184 -424l-303 -428h-170l287 428l-166 424h168z" />
    <glyph glyph-name="fraction" unicode="&#x2044;" horiz-adv-x="421" 
d="M-223 -94h-148l1067 1667h150z" />
    <glyph glyph-name="uni2070" unicode="&#x2070;" horiz-adv-x="1003" 
d="M516 604q-160 0 -248 109.5t-88 316.5q0 326 139 539q141 211 361 211q157 0 244.5 -110t87.5 -312q0 -328 -142 -541q-139 -213 -354 -213zM532 745q138 0 224 173q88 172 88 440q0 282 -185 282q-137 0 -225 -172t-88 -440q0 -283 186 -283z" />
    <glyph glyph-name="uni2074" unicode="&#x2074;" horiz-adv-x="980" 
d="M944 1765l-108 -772h143l-18 -133h-144l-35 -246h-155l32 246h-559l21 133l579 772h244zM772 1645l-487 -652h395z" />
    <glyph glyph-name="uni2075" unicode="&#x2075;" horiz-adv-x="968" 
d="M1010 1765l-21 -139h-528l-62 -330l7 -2q96 84 241 84t232.5 -88t87.5 -231q0 -195 -133 -328t-326 -133q-168 0 -262 102q-93 104 -66 267h162q-17 -99 36 -163.5t152 -64.5q113 0 191 84t78 211q0 93 -54 150t-147 57q-68 0 -131 -32t-92 -83h-150l115 639h670z" />
    <glyph glyph-name="uni2076" unicode="&#x2076;" horiz-adv-x="978" 
d="M518 598q-334 0 -334 414q0 347 140 559q138 209 370 209q154 0 239 -78.5t79 -214.5h-164q0 77 -49 117.5t-127 40.5q-265 0 -305 -433h8q100 154 289 154q135 0 218 -84t83 -223q0 -197 -127 -330q-125 -131 -320 -131zM545 739q109 0 180 86q74 86 74 213
q0 90 -50 142.5t-135 52.5q-105 0 -182 -86q-76 -85 -76 -209q0 -91 51 -145t138 -54z" />
    <glyph glyph-name="uni2077" unicode="&#x2077;" horiz-adv-x="876" 
d="M311 1419h-133l49 346h770l-16 -112q-189 -219 -356 -508q-166 -283 -242 -531h-172q74 237 233 514q159 279 342 498h-446z" />
    <glyph glyph-name="uni2078" unicode="&#x2078;" horiz-adv-x="946" 
d="M137 868q0 103 56 187.5t153 128.5l2 12q-61 29 -97 89t-36 134q0 156 123 258q124 103 311 103q159 0 252.5 -73.5t93.5 -195.5q0 -100 -57.5 -187t-151.5 -128l-2 -12q134 -69 134 -223q0 -159 -123 -261t-314 -102q-159 0 -251.5 74t-92.5 196zM379 1417
q0 -75 52.5 -118.5t143.5 -43.5q110 0 180 63t70 161q0 75 -52.5 117t-143.5 42q-109 0 -179.5 -62t-70.5 -159zM305 901q0 -74 54 -118t143 -44q109 0 180.5 63t71.5 161q0 75 -53 118t-144 43q-109 0 -180.5 -62.5t-71.5 -160.5z" />
    <glyph glyph-name="uni2079" unicode="&#x2079;" horiz-adv-x="976" 
d="M477 598q-146 0 -231.5 80t-81.5 213h162q-1 -71 47.5 -113.5t128.5 -42.5q266 0 303 432h-8q-103 -151 -291 -151q-135 0 -217 84t-82 221q0 200 125 328q125 131 319 131q334 0 334 -416q0 -357 -137 -561q-135 -205 -371 -205zM555 1147q107 0 184 86q76 85 76 209
q0 91 -51 144.5t-139 53.5q-109 0 -183 -86q-71 -86 -71 -213q0 -90 49.5 -142t134.5 -52z" />
    <glyph glyph-name="uni2080" unicode="&#x2080;" horiz-adv-x="1003" 
d="M401 -215q-160 0 -247.5 109.5t-87.5 316.5q0 326 139 539q141 211 360 211q157 0 244.5 -110t87.5 -312q0 -329 -141 -541q-139 -213 -355 -213zM418 -74q138 0 223 172q88 172 88 441q0 282 -184 282q-138 0 -226 -172t-88 -440q0 -283 187 -283z" />
    <glyph glyph-name="uni2081" unicode="&#x2081;" horiz-adv-x="727" 
d="M379 625h-291l16 123h48q110 0 188.5 55t91.5 143h148l-162 -1151h-156z" />
    <glyph glyph-name="uni2082" unicode="&#x2082;" horiz-adv-x="921" 
d="M199 -72l198 9h348l-20 -142h-721l6 39q14 103 72 195q14 22 30.5 43.5t29.5 37t35.5 36t32.5 30t38 30.5t35 26.5t40.5 29t38.5 27.5l148 106q69 50 111.5 120t42.5 149q0 73 -46 114t-126 41q-101 0 -165.5 -57.5t-74.5 -159.5h-160q21 162 137 260q120 99 287 99
q147 0 232.5 -75.5t85.5 -201.5q0 -112 -54 -207.5t-145 -165.5q-42 -32 -124.5 -88t-135.5 -93.5t-105.5 -93t-70.5 -108.5z" />
    <glyph glyph-name="uni2083" unicode="&#x2083;" horiz-adv-x="948" 
d="M391 -221q-174 0 -262 99.5t-59 264.5h166q-20 -106 28.5 -164.5t147.5 -58.5q108 0 179 68t71 168q0 78 -55 122t-152 44h-86l18 133h80q109 0 178.5 61t69.5 158q0 68 -48.5 106.5t-127.5 38.5q-99 0 -162.5 -58.5t-75.5 -160.5h-162q15 157 133 260q119 101 289 101
q143 0 233.5 -71t90.5 -188q0 -102 -56 -180.5t-155 -120.5l-2 -10q157 -59 157 -229q0 -161 -127 -273q-125 -110 -311 -110z" />
    <glyph glyph-name="uni2084" unicode="&#x2084;" horiz-adv-x="980" 
d="M829 946l-108 -772h143l-18 -133h-144l-34 -246h-156l33 246h-559l18 133l582 772h243zM657 825l-487 -651h395z" />
    <glyph glyph-name="uni2085" unicode="&#x2085;" horiz-adv-x="968" 
d="M895 946l-21 -139h-528l-61 -330l6 -2q96 84 241 84t232.5 -88t87.5 -231q0 -195 -133 -328t-326 -133q-167 0 -262 102q-92 103 -65 266h161q-17 -99 35 -163t154 -64q112 0 190 84t78 211q0 93 -54 150t-147 57q-68 0 -131 -32t-92 -83h-149l114 639h670z" />
    <glyph glyph-name="uni2086" unicode="&#x2086;" horiz-adv-x="978" 
d="M403 -221q-333 0 -333 414q0 349 139 559q138 209 371 209q154 0 238.5 -78t78.5 -215h-164q0 77 -48.5 117t-127.5 40q-265 0 -305 -432h8q100 154 289 154q135 0 218 -84t83 -223q0 -197 -127 -330q-125 -131 -320 -131zM430 -80q109 0 180 86q74 86 74 213
q0 91 -49.5 143t-134.5 52q-106 0 -183 -86q-75 -84 -75 -209q0 -91 50.5 -145t137.5 -54z" />
    <glyph glyph-name="uni2087" unicode="&#x2087;" horiz-adv-x="876" 
d="M197 600h-134l50 346h770l-17 -112q-192 -227 -354 -506q-164 -280 -244 -533h-172q73 233 234 514q159 279 342 498h-447z" />
    <glyph glyph-name="uni2088" unicode="&#x2088;" horiz-adv-x="946" 
d="M23 49q0 103 55.5 187.5t152.5 128.5l2 12q-61 29 -97 89t-36 134q0 156 123 258q124 103 312 103q159 0 252.5 -73.5t93.5 -195.5q0 -100 -57.5 -187t-151.5 -128l-2 -12q133 -68 133 -224q0 -158 -123 -260t-313 -102q-159 0 -251.5 74t-92.5 196zM264 598
q0 -75 53 -118.5t144 -43.5q110 0 180 62.5t70 160.5q0 75 -53 117.5t-144 42.5q-109 0 -179.5 -62t-70.5 -159zM190 82q0 -74 54 -118t143 -44q109 0 180.5 62.5t71.5 160.5q0 75 -53 118.5t-144 43.5q-109 0 -180.5 -62.5t-71.5 -160.5z" />
    <glyph glyph-name="uni2089" unicode="&#x2089;" horiz-adv-x="976" 
d="M362 -221q-146 0 -231.5 80t-81.5 213h162q-1 -71 47.5 -113.5t128.5 -42.5q266 0 303 432h-8q-103 -151 -291 -151q-135 0 -217 84t-82 221q0 199 125 327q126 132 320 132q333 0 333 -416q0 -355 -137 -559q-136 -207 -371 -207zM440 328q108 0 185 86q75 84 75 209
q0 91 -51 144.5t-139 53.5q-108 0 -182 -86q-72 -87 -72 -213q0 -90 49.5 -142t134.5 -52z" />
    <glyph glyph-name="uni20A6" unicode="&#x20a6;" horiz-adv-x="1443" 
d="M1298 815h175l-21 -139h-174l-94 -676h-205l-285 676h-311l-96 -676h-181l95 676h-170l20 139h170l94 678h209l287 -678h307l96 678h179zM406 829l-3 -14h232l-174 414h-10zM1042 264h11l47 412h-232z" />
    <glyph glyph-name="uni20A9" unicode="&#x20a9;" horiz-adv-x="1619" 
d="M1505 1493h181l-218 -678h168l-20 -139h-193l-215 -676h-200l-50 676h-245l-236 -676h-201l-32 676h-201l20 139h173l-33 678h180l18 -678h215l242 678h182l54 -678h211zM768 834l-6 -19h188l-2 16l-24 437h-9zM420 236l123 370l24 70h-161l2 -68l4 -372h8zM1137 233
l104 371l21 72h-158l6 -72l16 -371h11z" />
    <glyph glyph-name="uni20AA" unicode="&#x20aa;" horiz-adv-x="1429" 
d="M874 1065l37 272h-499l-187 -1337h-162l209 1493h635q95 0 136 -42t24 -144l-35 -242l-102 -733h-160zM1075 158l187 1335h161l-209 -1493h-632q-94 0 -136 42.5t-26 143.5l35 244l100 733h162l-103 -733l-39 -272h500z" />
    <glyph glyph-name="Euro" unicode="&#x20ac;" horiz-adv-x="1525" 
d="M768 147q154 0 267.5 80.5t168.5 223.5h197q-71 -216 -252 -342q-180 -127 -412 -127q-243 0 -379.5 141t-148.5 397h-154l19 142h135q8 99 31 206h-136l19 140h160q88 236 267 369.5t411 133.5q231 0 372 -129t150 -338h-195q-13 146 -107 225t-245 79q-153 0 -272 -89
t-187 -251h563l-36 -140h-572q-25 -100 -31 -206h560l-37 -142h-523q13 -184 108.5 -278.5t258.5 -94.5z" />
    <glyph glyph-name="uni20B2" unicode="&#x20b2;" horiz-adv-x="1406" 
d="M727 631l23 155h524l-12 -90q-35 -261 -190.5 -414.5t-395.5 -172.5l-25 -183h-137l25 185q-204 20 -314 148.5t-110 348.5q0 329 168 545q169 217 438 244l24 182h138l-25 -182q190 -19 300 -131.5t110 -288.5h-185q-7 126 -91.5 196t-225.5 70q-178 0 -299.5 -110
t-147.5 -293l-24 -174q-26 -190 66 -300t276 -110q176 0 292 101.5t142 273.5h-344z" />
    <glyph glyph-name="uni20B8" unicode="&#x20b8;" horiz-adv-x="1134" 
d="M125 1337l20 156h1115l-23 -156h-1112zM543 971h-469l20 159h1114l-22 -159h-465l-137 -971h-178z" />
    <glyph glyph-name="uni20B9" unicode="&#x20b9;" horiz-adv-x="1511" 
d="M373 1493h1057l-21 -141h-270q80 -95 80 -248v-21h153l-20 -139h-154q-76 -276 -358 -358l-2 -13q35 -9 59 -36q24 -24 35 -50l35 -86l10 -24l143 -377h-202l-138 381q-35 98 -79.5 132t-137.5 34h-323l22 153h395q133 0 223.5 64t125.5 180h-711l20 139h709
q-1 120 -73.5 182t-202.5 62h-398l4 25h-2z" />
    <glyph glyph-name="uni20BA" unicode="&#x20ba;" horiz-adv-x="1216" 
d="M975 668h178q-89 -315 -319 -490t-529 -178h-149l84 592l-215 -80l20 154l215 82l27 188l-215 -82l22 152l217 86l56 401h178l-47 -334l403 156l-22 -154l-404 -157l-24 -189l403 158l-23 -154l-403 -155l-70 -494q210 0 377 135q169 135 240 363z" />
    <glyph glyph-name="uni20BC" unicode="&#x20bc;" horiz-adv-x="1349" 
d="M201 0h-176l102 729q35 248 183.5 384.5t381.5 150.5l33 229h172l-33 -229q237 -13 342 -152t72 -383l-102 -729h-172l102 729q24 171 -45 263.5t-219 103.5l-154 -1096h-172l154 1096q-158 -10 -251.5 -106t-117.5 -261z" />
    <glyph glyph-name="uni20BD" unicode="&#x20bd;" horiz-adv-x="1357" 
d="M831 545h-421l-23 -160h524l-20 -141h-522l-35 -244h-187l35 244h-155l20 141h156l22 168h-153l20 156h156l110 784h609q199 0 303 -97.5t104 -273.5q0 -266 -147 -422q-146 -155 -396 -155zM956 1321h-438l-84 -612h414q132 0 214.5 64.5t96.5 174.5l21 150
q17 107 -44.5 165t-179.5 58z" />
    <glyph glyph-name="uni20BF" unicode="&#x20bf;" horiz-adv-x="1476" 
d="M1067 784l-2 -16q182 -47 182 -248q0 -188 -125 -301q-127 -115 -329 -115l-25 -178h-137l24 178h-168l-24 -178h-135l24 178h-164l185 1301h162l24 174h135l-24 -174h168l24 174h137l-24 -174h12q152 0 232.5 -70t80.5 -196q0 -127 -62 -222t-171 -133zM946 1260h-418
l-59 -418h422q90 0 146 45t67 121l10 88q11 76 -33.5 120t-134.5 44zM1051 426l12 90q12 85 -36.5 131.5t-143.5 46.5h-434l-62 -440h406q106 0 176 46.5t82 125.5z" />
    <glyph glyph-name="uni2105" unicode="&#x2105;" horiz-adv-x="2054" 
d="M731 1022h152q-13 -128 -109.5 -205.5t-234.5 -77.5q-160 0 -259.5 104.5t-99.5 280.5q0 178 101 283.5t264 105.5q134 0 225.5 -73t108.5 -191h-152q-13 61 -65.5 98t-120.5 37q-98 0 -153.5 -68.5t-55.5 -191.5q0 -121 55 -188.5t152 -67.5q75 0 128.5 42.5t63.5 111.5
zM659 0h-157l946 1493h156zM1208 371q0 173 101 280q103 109 266 109q162 0 262 -109q100 -106 100 -280q0 -173 -100 -279q-97 -106 -262 -106q-166 0 -266 106q-101 107 -101 279zM1360 373q0 -118 58 -188t157 -70q97 0 155 71t58 189q0 117 -57 186.5t-156 69.5
q-98 0 -156.5 -70t-58.5 -188z" />
    <glyph glyph-name="uni2116" unicode="&#x2116;" horiz-adv-x="2820" 
d="M1686 952q0 228 163 391q163 166 389 166q194 0 306 -118t112 -293q0 -223 -164 -387q-162 -162 -389 -162q-188 0 -303 115q-114 114 -114 288zM317 0h-184l209 1493h229l619 -1260h8l51 453l113 807h184l-209 -1493h-231l-614 1260h-9l-49 -435zM1903 1108l-23 -158
q-15 -104 57 -176q72 -69 187 -69q117 0 211 67q93 66 108 178l23 158q13 105 -58 175.5t-190 70.5q-117 0 -209 -68q-91 -70 -106 -178zM1673 0l21 158h708l-20 -158h-709z" />
    <glyph glyph-name="uni2117" unicode="&#x2117;" horiz-adv-x="1916" 
d="M125 700q0 375 250 619q253 244 612 244q362 0 610 -242q252 -240 252 -614q0 -378 -252 -621q-248 -242 -610 -242q-360 0 -612 240q-250 244 -250 616zM1780 707q0 345 -232 571q-231 225 -561 225q-333 0 -563 -227q-231 -225 -231 -576q0 -346 231 -571t563 -225
q330 0 561 225q232 229 232 578zM838 276h-148v850h422q139 0 222 -79t83 -209t-83.5 -210.5t-221.5 -80.5h-274v-271zM834 989v-311h276q74 0 118 44t44 116q0 67 -44.5 109t-117.5 42h-276z" />
    <glyph glyph-name="trademark" unicode="&#x2122;" horiz-adv-x="1409" 
d="M356 1401h-184l12 94h482l-15 -94h-192l-76 -541h-102zM1018 1075l244 420h131l-90 -635h-101l45 309l33 183h-6l-287 -480l-151 480h-7l-18 -183l-43 -309h-98l90 635h129l125 -420h4z" />
    <glyph glyph-name="estimated" unicode="&#x212e;" horiz-adv-x="1660" 
d="M1481 471h94q-56 -221 -246 -356q-192 -133 -455 -133q-333 0 -532 208t-199 545q0 339 205 547q205 211 545 211q310 0 496 -180q187 -178 202 -504q2 -29 2 -117h-1228v-379q71 -120 208.5 -187t305.5 -67q221 0 383 113q166 114 219 299zM365 1149v-383h1009v420
q-184 227 -510 221q-324 -6 -499 -258z" />
    <glyph glyph-name="oneeighth" unicode="&#x215b;" horiz-adv-x="1865" 
d="M414 -94h-148l1067 1667h150zM410 1204h-254l16 121h92q88 0 137.5 44.5t49.5 115.5v8h149l-137 -969h-150zM1090 219q0 85 48.5 158t127.5 108l2 11q-115 59 -115 190q0 136 107 221q107 88 268 88q136 0 215.5 -63t79.5 -168q0 -85 -48 -159t-126 -109l-2 -11
q110 -58 110 -188q0 -135 -104 -223t-267 -88q-136 0 -216 63.5t-80 169.5zM1311 684q0 -61 41.5 -95t111.5 -34q86 0 141.5 51t55.5 129q0 59 -41.5 93t-110.5 34q-88 0 -143 -50t-55 -128zM1249 248q0 -61 41.5 -94t114.5 -33q85 0 139.5 50t54.5 128q0 60 -41 94.5
t-110 34.5q-86 0 -142.5 -51t-56.5 -129z" />
    <glyph glyph-name="threeeighths" unicode="&#x215c;" horiz-adv-x="2013" 
d="M584 -94h-148l1067 1667h150zM406 508q-147 0 -221.5 85t-51.5 220h154q-13 -80 25 -126t112 -46q78 0 133 52.5t55 127.5q0 60 -43.5 94.5t-113.5 34.5h-74l20 140h62q84 0 137 48.5t53 123.5q0 52 -36 81t-93 29q-74 0 -123.5 -47t-56.5 -125h-154q12 135 108.5 220
t244.5 85q124 0 198 -59.5t74 -161.5q0 -177 -172 -250v-10q127 -53 127 -188q0 -141 -106 -234q-104 -94 -258 -94zM1260 219q0 85 48.5 158t127.5 108l2 11q-115 59 -115 190q0 136 107 221q107 88 268 88q136 0 215.5 -63t79.5 -168q0 -85 -48 -159t-126 -109l-2 -11
q110 -58 110 -188q0 -135 -104 -223t-267 -88q-136 0 -216 63.5t-80 169.5zM1481 684q0 -61 41.5 -95t111.5 -34q86 0 141.5 51t55.5 129q0 59 -41.5 93t-110.5 34q-88 0 -143 -50t-55 -128zM1419 248q0 -61 41.5 -94t114.5 -33q85 0 139.5 50t54.5 128q0 60 -41 94.5
t-110 34.5q-86 0 -142.5 -51t-56.5 -129z" />
    <glyph glyph-name="fiveeighths" unicode="&#x215d;" horiz-adv-x="2039" 
d="M608 -94h-147l1067 1667h149zM139 819h156q-12 -74 28.5 -125t114.5 -51q88 0 146.5 66.5t58.5 164.5q0 75 -40 119.5t-111 44.5q-53 0 -99.5 -26t-70.5 -68h-146l78 549h586l-19 -137h-436l-20 -150l-19 -98l2 -4q66 63 191 63q120 0 192 -74t72 -194q0 -164 -111 -278
q-110 -113 -274 -113q-142 0 -220.5 86t-58.5 225zM1284 219q0 85 48.5 158t127.5 108l2 11q-114 58 -114 190q0 137 106 221q107 88 268 88q136 0 215.5 -63t79.5 -168q0 -85 -48 -159t-126 -109l-2 -11q111 -59 111 -188q0 -135 -105 -223q-104 -88 -266 -88
q-136 0 -216.5 63.5t-80.5 169.5zM1505 684q0 -61 42 -95t112 -34q86 0 141 51t55 129q0 59 -41.5 93t-109.5 34q-88 0 -143.5 -50t-55.5 -128zM1444 248q0 -61 41 -94t114 -33q85 0 140 50t55 128q0 60 -41.5 94.5t-110.5 34.5q-86 0 -142 -51t-56 -129z" />
    <glyph glyph-name="seveneighths" unicode="&#x215e;" horiz-adv-x="1837" 
d="M240 -94l1067 1667h149l-1069 -1667h-147zM309 524h-151q153 484 473 832h-336l-19 -129h-114l37 266h632l-14 -111q-193 -203 -313 -408t-195 -450zM1620 496l-2 -11q111 -59 111 -188q0 -135 -105 -223q-104 -88 -266 -88q-136 0 -216.5 63.5t-80.5 169.5
q0 85 48.5 158t127.5 108l2 11q-115 59 -115 190q0 136 107 221q107 88 268 88q136 0 215.5 -63t79.5 -168q0 -85 -48 -159t-126 -109zM1436 555q86 0 141 51t55 129q0 59 -41.5 93t-109.5 34q-88 0 -143.5 -50t-55.5 -128q0 -61 42 -95t112 -34zM1376 121q85 0 140 50
t55 128q0 60 -41.5 94.5t-110.5 34.5q-86 0 -142 -51t-56 -129q0 -61 41 -94t114 -33z" />
    <glyph glyph-name="arrowleft" unicode="&#x2190;" horiz-adv-x="1738" 
d="M1542 596v-121h-1263l346 -475h-146l-401 537l401 534h146l-346 -475h1263z" />
    <glyph glyph-name="arrowup" unicode="&#x2191;" horiz-adv-x="1374" 
d="M1196 764v-152l-418 367v-856h418v-119h-952v119h415v856l-415 -367v152l475 416z" />
    <glyph glyph-name="arrowright" unicode="&#x2192;" horiz-adv-x="1804" 
d="M1470 475h-1263v121h1263l-346 475h146l401 -534l-401 -537h-146z" />
    <glyph glyph-name="arrowdown" unicode="&#x2193;" horiz-adv-x="1374" 
d="M1239 1075v-119h-418v-856l418 367v-152l-477 -415l-475 415v152l415 -367v856h-415v119h952z" />
    <glyph glyph-name="arrowboth" unicode="&#x2194;" horiz-adv-x="2193" 
d="M608 231l-407 488l407 489h142l-351 -430h1446l-346 430h139l410 -489l-410 -488h-139l346 428h-1446l351 -428h-142z" />
    <glyph glyph-name="arrowupdn" unicode="&#x2195;" horiz-adv-x="1566" 
d="M856 -289l-588 514v158l531 -465v1432l-531 -463v155l588 514l584 -514v-155l-529 463v-1432l529 465v-158z" />
    <glyph glyph-name="uni2196" unicode="&#x2196;" horiz-adv-x="1400" 
d="M1356 86l-84 -86l-846 879v-721h-119v923h895v-125h-696z" />
    <glyph glyph-name="uni2197" unicode="&#x2197;" horiz-adv-x="1447" 
d="M1069 872l-846 -872l-82 86l848 870h-698v119h895v-921h-117v718z" />
    <glyph glyph-name="uni2198" unicode="&#x2198;" horiz-adv-x="1402" 
d="M1235 0l-897 -4v129h694l-842 868l82 82l846 -870l2 723h117z" />
    <glyph glyph-name="uni2199" unicode="&#x2199;" horiz-adv-x="1398" 
d="M1184 0h-899v928h118v-723l842 870l84 -84l-842 -866h697v-125z" />
    <glyph glyph-name="uni21A9" unicode="&#x21a9;" horiz-adv-x="1964" 
d="M1765 1020q0 -208 -128.5 -328.5t-368.5 -120.5h-738v-254l-346 316l346 317v-254h738q173 0 273.5 84t100.5 240q0 146 -96.5 233.5t-257.5 87.5h-26v121h26q213 0 344 -125q133 -124 133 -317z" />
    <glyph glyph-name="uni21AA" unicode="&#x21aa;" horiz-adv-x="1964" 
d="M285 1020q0 193 133 317q134 125 348 125h27v-121h-27q-163 0 -257.5 -87t-94.5 -234q0 -157 98.5 -240.5t273.5 -83.5h736v254l346 -317l-346 -316v254h-736q-242 0 -371.5 120.5t-129.5 328.5z" />
    <glyph glyph-name="uni21B2" unicode="&#x21b2;" horiz-adv-x="1646" 
d="M1325 696v813h119v-938h-864v-254l-347 316l347 317v-254h745z" />
    <glyph glyph-name="uni21B3" unicode="&#x21b3;" horiz-adv-x="1646" 
d="M1217 950l350 -317l-350 -316v254h-861v938h117v-813h744v254z" />
    <glyph glyph-name="uni21BA" unicode="&#x21ba;" horiz-adv-x="1685" 
d="M188 645q0 189 93.5 355t257.5 266l65 -95q-299 -185 -299 -526q0 -237 162 -395q165 -160 401 -160q238 0 396 158q157 157 157 385q0 173 -80 291q-79 119 -376 379l-7 -5l11 -143v-305h-113v643h625v-119h-299l-135 10l-3 -6q310 -260 406 -401q94 -137 94 -344
q0 -271 -194 -465q-193 -193 -482 -193t-485 193q-195 195 -195 477z" />
    <glyph glyph-name="uni21BB" unicode="&#x21bb;" horiz-adv-x="1685" 
d="M915 -25q-286 0 -479 193q-192 192 -192 465q0 144 43 248q45 110 143 213q113 120 311 284l-2 6l-139 -10h-301v119h631v-643h-117v305l10 143l-6 5q-294 -257 -377 -379q-78 -119 -78 -291q0 -227 158 -385t395 -158q241 0 402 158q162 155 162 397q0 168 -78.5 303.5
t-218.5 222.5l65 95q161 -93 258 -267t97 -354q0 -283 -197 -477q-196 -193 -490 -193z" />
    <glyph glyph-name="emptyset" unicode="&#x2205;" horiz-adv-x="1591" 
d="M930 1511q288 0 446 -156.5t158 -441.5q0 -420 -227 -677q-226 -256 -592 -256q-290 0 -447 155.5t-157 442.5q0 420 225 675q228 258 594 258zM336 852l-31 -209q-21 -133 14 -242l914 834q-120 108 -328 108q-236 0 -386 -131.5t-183 -359.5zM1309 643l30 209
q21 151 -22 258l-922 -838q119 -125 342 -125q234 0 387 134t185 362z" />
    <glyph glyph-name="product" unicode="&#x220f;" horiz-adv-x="1497" 
d="M340 1493h1087l-20 -152h-215l-188 -1341h-173l187 1341h-307l-187 -1341h-174l187 1341h-218z" />
    <glyph glyph-name="summation" unicode="&#x2211;" horiz-adv-x="1191" 
d="M975 -332h-989l18 133l612 770l5 15l-398 772l19 135h989l-21 -160l-497 -2l-289 12v-12l389 -753l-604 -746v-14l293 14h495z" />
    <glyph glyph-name="minus" unicode="&#x2212;" horiz-adv-x="1304" 
d="M178 520l25 174h948l-25 -174h-948z" />
    <glyph glyph-name="radical" unicode="&#x221a;" horiz-adv-x="1464" 
d="M825 537l486 956h186l-835 -1636h-244l-185 805h-137l21 139h264l61 -256l111 -539h14z" />
    <glyph glyph-name="infinity" unicode="&#x221e;" horiz-adv-x="1835" 
d="M489 141q-171 0 -278 119q-105 120 -105 297q0 179 105 299q108 123 278 123q102 0 185 -51q88 -49 137 -107q42 -50 113 -147q54 72 86 110q31 39 90 95q109 100 262 100q169 0 274 -123t105 -299q0 -172 -105 -295q-106 -121 -274 -121q-70 0 -129 19.5t-112 61.5
t-98 93.5t-99 128.5q-69 -100 -130.5 -163.5t-139 -101.5t-165.5 -38zM492 285q86 0 162.5 60t185.5 212q-110 155 -185 213q-73 61 -163 61q-104 0 -171 -76t-67 -198q0 -121 67 -196.5t171 -75.5zM1358 285q104 0 170.5 75t66.5 197t-66.5 198t-170.5 76q-90 0 -166 -61
q-69 -53 -182 -213q114 -157 184 -213q74 -59 164 -59z" />
    <glyph glyph-name="integral" unicode="&#x222b;" horiz-adv-x="1153" 
d="M784 1542h293l-20 -151h-275l-39 -271l-137 -975l-37 -266q-21 -155 -182 -155h-293l21 149h274l39 272l137 975l35 262q21 160 184 160z" />
    <glyph glyph-name="approxequal" unicode="&#x2248;" horiz-adv-x="1085" 
d="M324 715h-101q10 129 68.5 192.5t140.5 63.5q64 0 156 -51q95 -50 143 -50q99 0 111 123h100q-7 -132 -70.5 -194t-154.5 -62q-72 0 -172 47q-95 50 -131 50q-87 0 -90 -119zM268 311h-102q10 131 68.5 193.5t140.5 62.5q61 0 155 -49t146 -49q96 0 108 123h101
q-7 -132 -70 -197t-153 -65q-74 0 -173 51q-96 51 -133 51q-38 0 -63 -35t-25 -86z" />
    <glyph glyph-name="notequal" unicode="&#x2260;" horiz-adv-x="1232" 
d="M1106 897l-23 -162h-288l-170 -260h422l-23 -158h-504l-160 -241h-167l159 241h-200l20 158h285l172 260h-418l20 162h504l168 254h166l-168 -254h205z" />
    <glyph glyph-name="lessequal" unicode="&#x2264;" horiz-adv-x="1153" 
d="M965 481l-27 -205l-750 392l21 153l860 389l-29 -200l-389 -160l-284 -102l-2 -13l249 -96zM918 154l-21 -154h-803l21 154h803z" />
    <glyph glyph-name="greaterequal" unicode="&#x2265;" horiz-adv-x="1153" 
d="M1004 668l-859 -392l29 205l393 158l279 96l2 13l-258 102l-342 160l28 200l748 -389zM909 0h-803l21 154h803z" />
    <glyph glyph-name="filledbox" unicode="&#x25a0;" horiz-adv-x="1867" 
d="M365 2v1491h1409v-1491h-1409z" />
    <glyph glyph-name="uni25A1" unicode="&#x25a1;" horiz-adv-x="1853" 
d="M358 0v1493h1409v-1493h-1409zM1651 1378h-1178v-1263h1178v1263z" />
    <glyph glyph-name="triagup" unicode="&#x25b2;" horiz-adv-x="2074" 
d="M80 0l881 1509l884 -1509h-1765z" />
    <glyph glyph-name="uni25B3" unicode="&#x25b3;" horiz-adv-x="2074" 
d="M1843 0h-1759l877 1511zM961 1284l-678 -1165h1357z" />
    <glyph glyph-name="lozenge" unicode="&#x25ca;" horiz-adv-x="4405" 
d="M2148 -20q-276 0 -438 204t-162 549q0 158 37.5 288.5t103 220.5t156 152t194 90.5t218.5 28.5q246 0 414 -127q166 -123 204 -335h-319q-74 176 -301 176q-184 0 -280.5 -127.5t-96.5 -358.5q0 -234 95 -357.5t265 -123.5q136 0 223 67t107 189h-332v293h664v-809h-227
l-33 244h-72q-35 -127 -147 -195.5t-273 -68.5zM3176 1180q-69 0 -115 47.5t-46 120.5q0 72 46 118.5t115 46.5q71 0 113.5 -46t42.5 -119q0 -76 -42.5 -122t-113.5 -46zM3582 1180q-69 0 -112.5 47t-43.5 121q0 72 44 118.5t112 46.5q73 0 119.5 -46.5t46.5 -118.5
q0 -74 -46 -121t-120 -47zM768 0h-555v1493h555q329 0 508.5 -189t179.5 -554q0 -364 -181.5 -557t-506.5 -193zM3996 1171h-74v259h-78v63h242v-63h-90v-259zM4196 1171h-69v322h129l35 -260l47 260h125v-322h-82v277l-35 -277h-107l-43 277v-277zM430 223l53 -53
q58 58 108.5 82t123.5 24h53q25 0 35.5 0.5t39 8t66.5 22.5q62 23 107 68q49 49 84 147.5t35 220.5q0 121 -32.5 217t-80.5 144q-46 49 -100 74q-35 18 -66 27t-46.5 10.5t-41.5 1.5h-53q-60 0 -107 20q-50 23 -65 35l-60 55l-53 -61q1 -3 14.5 -17.5t14.5 -17.5
q6 -3 12 -10.5t10.5 -13.5t10.5 -17t8 -14q30 -47 30 -146v-565q-3 -62 -9 -92t-23 -60l-21 -30q-20 -32 -47 -60zM3373 0h-305v1006h289l14 -119h55q24 74 100.5 114.5t184.5 40.5v-301q-338 35 -338 -303v-438z" />
    <glyph glyph-name="circle" unicode="&#x25cb;" horiz-adv-x="1718" 
d="M143 748q0 334 217 548q218 215 537 215q317 0 535 -215q219 -216 219 -548q0 -337 -219 -553q-218 -215 -535 -215q-319 0 -537 215q-217 214 -217 553zM897 74q269 0 459 190t190 484q0 292 -190 479q-190 190 -459 190q-267 0 -457 -190q-190 -187 -190 -479
q0 -294 190 -484t457 -190z" />
    <glyph glyph-name="uni25CF" unicode="&#x25cf;" horiz-adv-x="1845" 
d="M965 -20q-321 0 -537 219q-215 221 -215 551q0 324 215 542q216 219 537 219q317 0 530 -219t213 -542q0 -329 -213 -551q-213 -219 -530 -219z" />
    <glyph glyph-name="uni262E" unicode="&#x262e;" horiz-adv-x="1818" 
d="M948 1509q327 0 539 -215q215 -212 215 -553q0 -343 -213 -559q-213 -213 -541 -213q-327 0 -540 213q-213 216 -213 559q0 340 213 553q212 215 540 215zM1604 741q0 290 -174 476q-174 189 -437 204v-637l551 -342q60 138 60 299zM901 784v637q-261 -15 -438 -204
q-172 -187 -172 -476q0 -163 57 -297zM901 670l-508 -312q79 -133 212.5 -210.5t295.5 -88.5v611zM993 670v-611q161 7 294.5 86t213.5 213z" />
    <glyph glyph-name="uni2639" unicode="&#x2639;" horiz-adv-x="1826" 
d="M193 748q0 327 219 546q220 217 538 217q319 0 539 -217q221 -218 221 -546q0 -333 -221 -551q-217 -217 -539 -217q-318 0 -538 217q-219 219 -219 551zM289 748q0 -270 172 -463q72 109 204 173t285 64q157 0 290.5 -65t203.5 -172q172 202 172 463q0 288 -195 483
q-192 192 -469 192t-469 -192q-194 -194 -194 -483zM686 895q0 104 28.5 160.5t78.5 56.5t76 -58t26 -159q0 -217 -102 -217q-50 0 -78.5 58.5t-28.5 158.5zM1014 895q0 104 28 160.5t76 56.5q105 0 105 -217t-105 -217q-50 0 -77 59t-27 158zM530 221q188 -153 422 -153
q233 0 422 151q-55 96 -170.5 153.5t-251.5 57.5t-251 -57.5t-171 -151.5z" />
    <glyph glyph-name="smileface" unicode="&#x263a;" horiz-adv-x="1826" 
d="M1710 748q0 -333 -221 -551q-217 -217 -539 -217q-318 0 -538 217q-219 219 -219 551q0 327 219 546q220 217 538 217q319 0 539 -217q221 -218 221 -546zM952 68q278 0 471 196t193 484t-195 483q-192 192 -469 192t-469 -192q-194 -194 -194 -483q0 -292 194 -486
t469 -194zM793 678q-50 0 -78.5 58.5t-28.5 158.5q0 104 28.5 160.5t78.5 56.5t76 -58t26 -159q0 -217 -102 -217zM1118 678q-50 0 -77 59t-27 158q0 104 28 160.5t76 56.5q105 0 105 -217t-105 -217zM1280 637v35h223v-35h-61q-27 -174 -166 -283q-135 -106 -326 -106
q-192 0 -325 106q-137 110 -164 283h-53v35h223v-35h-72q25 -134 134 -216.5t259 -82.5q154 0 261.5 82t132.5 217h-66z" />
    <glyph glyph-name="uni2708" unicode="&#x2708;" horiz-adv-x="1929" 
d="M395 424h-102l72 326l-72 325h102l142 -221l430 25l-203 565h184l295 -488q19 -29 39.5 -40.5t58.5 -12.5l121 8q123 9 224 -43q100 -51 100 -118q0 -72 -100 -123q-100 -50 -224 -41l-121 8q-41 0 -61 -10t-37 -39l-295 -492h-184l203 565l-430 29z" />
    <glyph glyph-name="uni2713" unicode="&#x2713;" horiz-adv-x="1935" 
d="M768 377l766 764l104 -117l-874 -868l-434 495l110 103z" />
    <glyph glyph-name="uni2714" unicode="&#x2714;" horiz-adv-x="2637" 
d="M2300 1462l211 -340q-988 -537 -1655 -1251q-302 413 -706 741l231 258q301 -240 506 -561q262 330 607 607.5t806 545.5z" />
    <glyph glyph-name="uni2776" unicode="&#x2776;" horiz-adv-x="1824" 
d="M956 -18q-335 0 -565 227q-227 227 -227 561q0 332 227 559q230 227 565 227q334 0 560 -229q227 -227 227 -557q0 -334 -227 -561t-560 -227zM938 905v-583h139v852h-133v-9q0 -153 -151 -153h-80v-107h225z" />
    <glyph glyph-name="uni2777" unicode="&#x2777;" horiz-adv-x="1826" 
d="M958 -18q-338 0 -565 227q-227 230 -227 563t227 557q227 227 565 227q335 0 562 -227q227 -224 227 -557t-227 -563q-227 -227 -562 -227zM696 350v-28h533v124h-242l-133 -6q31 89 211 211q69 49 117.5 125t48.5 158q0 111 -73 180.5t-195 69.5q-125 0 -205 -73
t-80 -191l137 -11q-1 69 38.5 112.5t102.5 43.5q58 0 96 -39t37.5 -93.5t-40.5 -111.5q-24 -30 -58.5 -60t-82 -67t-72.5 -59q-62 -51 -101 -124.5t-39 -160.5z" />
    <glyph glyph-name="uni2778" unicode="&#x2778;" horiz-adv-x="1826" 
d="M956 -18q-335 0 -565 227q-227 227 -227 561q0 332 227 559q230 227 565 227t562 -227t227 -559q0 -334 -227 -561t-562 -227zM954 309q127 0 206 69.5t79 180.5q0 153 -141 205v6q125 52 125 182q0 105 -76 169.5t-195 64.5q-127 0 -203.5 -74.5t-70.5 -193.5h139
q0 67 35 107t100 40q57 0 92 -32.5t35 -88.5q0 -55 -39.5 -90t-107.5 -35h-53v-121h65q68 0 109 -36t41 -97q0 -60 -39.5 -96.5t-102.5 -36.5t-99.5 40.5t-35.5 107.5h-141q-1 -123 75.5 -197t202.5 -74z" />
    <glyph glyph-name="uni2779" unicode="&#x2779;" horiz-adv-x="1828" 
d="M958 -18q-335 0 -565 227q-227 230 -227 563t227 557q230 227 565 227t562 -227t227 -557q0 -333 -227 -563q-227 -227 -562 -227zM1006 508v-186h137v186h96v121h-96v545h-217l-305 -551v-115h385zM1006 629h-234l234 418v-418z" />
    <glyph glyph-name="uni277A" unicode="&#x277a;" horiz-adv-x="1828" 
d="M958 -18q-335 0 -565 227q-229 226 -229 561q0 333 229 559q230 227 565 227t562 -227q229 -226 229 -559q0 -335 -229 -561q-227 -227 -562 -227zM971 309q131 0 213 82.5t82 212.5q0 127 -76 207t-195 80q-107 0 -155 -57l-6 4l4 86v129h381v121h-517v-482h132
q13 35 52.5 56.5t84.5 21.5q67 0 109 -48.5t42 -123.5q0 -74 -41.5 -120t-107.5 -46q-67 0 -107.5 43.5t-40.5 108.5h-141q-1 -122 79 -198.5t208 -76.5z" />
    <glyph glyph-name="uni277B" unicode="&#x277b;" horiz-adv-x="1837" 
d="M956 -18q-335 0 -565 227q-227 227 -227 561q0 332 227 559q230 227 565 227q334 0 560 -229q227 -227 227 -557q0 -334 -227 -561t-560 -227zM969 309q129 0 211 82t82 211q0 125 -72.5 204t-188.5 79q-140 0 -192 -107h-6q0 287 172 287q52 0 89 -28t44 -76h139
q-11 101 -83.5 163t-184.5 62q-155 0 -236 -120t-81 -329q0 -204 78.5 -316t228.5 -112zM973 432q-68 0 -110 47.5t-42 120.5q0 70 41 118t111 48q66 0 106.5 -45.5t40.5 -120.5q0 -74 -40.5 -121t-106.5 -47z" />
    <glyph glyph-name="uni277C" unicode="&#x277c;" horiz-adv-x="1828" 
d="M958 -18q-337 0 -567 227q-227 230 -227 561q0 332 227 559q230 227 567 227q335 0 562 -227t227 -559q0 -335 -229 -561q-227 -227 -560 -227zM786 322h146q73 419 330 753v99h-560v-265h101v144h284q-112 -154 -191.5 -345.5t-109.5 -385.5z" />
    <glyph glyph-name="uni277D" unicode="&#x277d;" horiz-adv-x="1826" 
d="M956 -18q-335 0 -565 227q-227 230 -227 561q0 332 227 559q230 227 565 227t562 -227t227 -559q0 -334 -227 -561t-562 -227zM954 309q132 0 213.5 65t81.5 173q0 64 -33.5 118t-89.5 80v9q123 58 123 196q0 105 -80.5 170.5t-214.5 65.5q-129 0 -209.5 -65t-80.5 -171
q0 -141 122 -196v-9q-56 -26 -89 -80t-33 -118q0 -107 79 -172.5t211 -65.5zM954 805q-66 0 -107.5 36t-41.5 93q0 58 40.5 94.5t108.5 36.5t110 -35.5t42 -95.5q0 -57 -41.5 -93t-110.5 -36zM954 432q-67 0 -108 35t-41 96q0 58 40.5 94.5t108.5 36.5t110 -35.5t42 -95.5
q0 -58 -40.5 -94.5t-111.5 -36.5z" />
    <glyph glyph-name="uni277E" unicode="&#x277e;" horiz-adv-x="1828" 
d="M958 -18q-335 0 -565 227q-227 227 -227 561q0 332 227 559q230 227 565 227t562 -227t227 -559q0 -335 -229 -561q-227 -227 -560 -227zM954 309q155 0 236.5 120t81.5 329q0 202 -77.5 315t-227.5 113q-130 0 -213.5 -81.5t-83.5 -209.5q0 -127 73 -207t189 -80
q63 0 116 30t78 79h7q0 -287 -172 -287q-52 0 -90.5 28.5t-45.5 76.5h-141q12 -103 85 -164.5t185 -61.5zM963 729q-68 0 -109 45.5t-41 120.5t42 121.5t108 46.5t108.5 -48t42.5 -118q0 -71 -42 -119.5t-109 -48.5z" />
    <glyph glyph-name="uni2780" unicode="&#x2780;" horiz-adv-x="1824" 
d="M956 -18q-335 0 -565 227q-227 227 -227 561q0 332 227 559q230 227 565 227q334 0 560 -229q227 -227 227 -557q0 -334 -227 -561t-560 -227zM956 57q299 0 506 207t207 506q0 297 -207 504t-506 207q-303 0 -510 -207q-206 -206 -206 -504q0 -302 206 -508
q205 -205 510 -205zM938 322v583h-225v107h80q77 0 114 42.5t37 110.5v9h133v-852h-139z" />
    <glyph glyph-name="uni2781" unicode="&#x2781;" horiz-adv-x="1824" 
d="M956 1556q334 0 560 -229q227 -227 227 -557q0 -334 -227 -561t-560 -227q-335 0 -565 227q-227 227 -227 561q0 332 227 559q230 227 565 227zM956 57q299 0 506 207t207 506q0 297 -207 504t-506 207q-303 0 -510 -207q-206 -206 -206 -504q0 -302 206 -508
q205 -205 510 -205zM1231 934q0 -60 -24 -114t-61 -91.5t-82.5 -76t-87 -68.5t-76 -68t-48.5 -76l135 6h242v-124h-533v28q0 47 10 88.5t32.5 78t41.5 62.5t56 58t55 46t59 44q140 105 140 205q0 60 -37.5 96.5t-98.5 36.5q-63 0 -102 -43.5t-37 -112.5l-137 11
q0 118 80 191t205 73q122 0 195 -69.5t73 -180.5z" />
    <glyph glyph-name="uni2782" unicode="&#x2782;" horiz-adv-x="1824" 
d="M956 -18q-335 0 -565 227q-227 227 -227 561q0 332 227 559q230 227 565 227q334 0 560 -229q227 -227 227 -557q0 -334 -227 -561t-560 -227zM956 57q299 0 506 207t207 506q0 297 -207 504t-506 207q-303 0 -510 -207q-206 -206 -206 -504q0 -302 206 -508
q205 -205 510 -205zM954 309q-126 0 -202.5 74t-75.5 197h141q-1 -67 35.5 -107.5t99.5 -40.5t102.5 36.5t39.5 96.5q0 61 -41 97t-109 36h-65v121h53q68 0 107.5 35t39.5 90q0 56 -35 88.5t-92 32.5q-65 0 -100 -40t-35 -107h-139q-6 119 70.5 193.5t203.5 74.5
q119 0 195 -64.5t76 -169.5q0 -130 -125 -182v-6q141 -52 141 -205q0 -111 -79 -180.5t-206 -69.5z" />
    <glyph glyph-name="uni2783" unicode="&#x2783;" horiz-adv-x="1824" 
d="M956 -18q-335 0 -565 227q-227 227 -227 561q0 332 227 559q230 227 565 227q334 0 560 -229q227 -227 227 -557q0 -334 -227 -561t-560 -227zM956 57q299 0 506 207t207 506q0 297 -207 504t-506 207q-303 0 -510 -207q-206 -206 -206 -504q0 -302 206 -508
q205 -205 510 -205zM1141 322h-135v186h-385v115l305 551h215v-545h98v-121h-98v-186zM1006 1047l-234 -418h234v418z" />
    <glyph glyph-name="uni2784" unicode="&#x2784;" horiz-adv-x="1824" 
d="M956 -18q-335 0 -565 227q-227 227 -227 561q0 332 227 559q230 227 565 227q334 0 560 -229q227 -227 227 -557q0 -334 -227 -561t-560 -227zM956 57q299 0 506 207t207 506q0 297 -207 504t-506 207q-303 0 -510 -207q-206 -206 -206 -504q0 -302 206 -508
q205 -205 510 -205zM971 309q-128 0 -208 76.5t-79 198.5h141q0 -65 40.5 -108.5t107.5 -43.5q66 0 107.5 46t41.5 120q0 75 -42 123.5t-109 48.5q-45 0 -84.5 -21.5t-52.5 -56.5h-132v482h517v-121h-381v-129l-4 -86l6 -4q48 57 155 57q119 0 195 -80t76 -207
q0 -130 -82 -212.5t-213 -82.5z" />
    <glyph glyph-name="uni2785" unicode="&#x2785;" horiz-adv-x="1824" 
d="M956 -18q-335 0 -565 227q-227 227 -227 561q0 332 227 559q230 227 565 227q334 0 560 -229q227 -227 227 -557q0 -334 -227 -561t-560 -227zM956 57q299 0 506 207t207 506q0 297 -207 504t-506 207q-303 0 -510 -207q-206 -206 -206 -504q0 -302 206 -508
q205 -205 510 -205zM969 309q-150 0 -228.5 112t-78.5 316q0 209 81 329t236 120q112 0 184.5 -62t83.5 -163h-139q-7 48 -44 76t-89 28q-172 0 -172 -287h6q52 107 192 107q116 0 188.5 -79t72.5 -204q0 -129 -82 -211t-211 -82zM973 432q66 0 106.5 47t40.5 121
q0 75 -40.5 120.5t-106.5 45.5q-70 0 -111 -48t-41 -118q0 -73 42 -120.5t110 -47.5z" />
    <glyph glyph-name="uni2786" unicode="&#x2786;" horiz-adv-x="1824" 
d="M164 770q0 332 227 559q230 227 565 227q334 0 560 -229q227 -227 227 -557q0 -334 -227 -561t-560 -227q-335 0 -565 227q-227 227 -227 561zM240 770q0 -302 206 -508q205 -205 510 -205q299 0 506 207t207 506q0 297 -207 504t-506 207q-303 0 -510 -207
q-206 -206 -206 -504zM803 909h-101v265h560v-99q-257 -334 -330 -753h-146q30 194 109.5 385.5t191.5 345.5h-284v-144z" />
    <glyph glyph-name="uni2787" unicode="&#x2787;" horiz-adv-x="1824" 
d="M956 -18q-335 0 -565 227q-227 227 -227 561q0 332 227 559q230 227 565 227q334 0 560 -229q227 -227 227 -557q0 -334 -227 -561t-560 -227zM956 57q299 0 506 207t207 506q0 297 -207 504t-506 207q-303 0 -510 -207q-206 -206 -206 -504q0 -302 206 -508
q205 -205 510 -205zM954 309q-132 0 -211 65.5t-79 172.5q0 64 33 118t89 80v9q-122 55 -122 196q0 106 80.5 171t209.5 65q134 0 214.5 -65.5t80.5 -170.5q0 -138 -123 -196v-9q56 -26 89.5 -80t33.5 -118q0 -108 -81.5 -173t-213.5 -65zM954 805q69 0 110.5 36t41.5 93
q0 60 -42 95.5t-110 35.5t-108.5 -36.5t-40.5 -94.5q0 -57 41.5 -93t107.5 -36zM954 432q71 0 111.5 36.5t40.5 94.5q0 60 -42 95.5t-110 35.5t-108.5 -36.5t-40.5 -94.5q0 -61 41 -96t108 -35z" />
    <glyph glyph-name="uni2788" unicode="&#x2788;" horiz-adv-x="1824" 
d="M164 770q0 332 227 559q230 227 565 227q334 0 560 -229q227 -227 227 -557q0 -334 -227 -561t-560 -227q-335 0 -565 227q-227 227 -227 561zM240 770q0 -302 206 -508q205 -205 510 -205q299 0 506 207t207 506q0 297 -207 504t-506 207q-303 0 -510 -207
q-206 -206 -206 -504zM967 1186q150 0 227.5 -113t77.5 -315q0 -209 -81.5 -329t-236.5 -120q-112 0 -185 61.5t-85 164.5h141q7 -48 44.5 -76.5t88.5 -28.5q175 0 175 287h-7q-25 -49 -78 -79t-116 -30q-116 0 -189 80t-73 207q0 128 83.5 209.5t213.5 81.5zM963 729
q67 0 109 48.5t42 119.5q0 70 -42.5 118t-108.5 48t-108 -46.5t-42 -121.5t41 -120.5t109 -45.5z" />
    <glyph glyph-name="uniECE0" unicode="&#xece0;" horiz-adv-x="2142" 
d="M416 662v-543l-160 -119v1493h702l-133 -172h-409v-492h332q30 291 241 484q211 196 504 196q181 0 339 -85t265 -236l-139 -103q-77 114 -203 185q-127 71 -266 71q-232 0 -404 -172q-172 -169 -172 -421q0 -254 172 -426q173 -170 404 -170q140 0 266.5 69.5
t202.5 184.5l139 -103q-109 -154 -266.5 -237.5t-337.5 -83.5q-290 0 -500 192t-245 488h-332zM1227 748q0 -115 76 -197q77 -80 184 -80q65 0 123.5 34.5t95.5 92.5l137 -100q-59 -91 -153 -142t-199 -51q-181 0 -307 129q-127 133 -127 314q0 179 127 309q126 129 307 129
q106 0 199 -50.5t153 -140.5l-137 -102q-36 57 -94.5 91t-124.5 34q-107 0 -184 -80q-76 -76 -76 -190z" />
    <glyph glyph-name="uniEFCC" unicode="&#xefcc;" horiz-adv-x="2461" 
d="M1022 1503q42 0 78 -4v-203q-44 7 -76 7q-247 0 -397 -156t-150 -408q0 -251 150 -407t397 -156q30 0 76 6v-202q-62 -5 -78 -5q-332 0 -537 211q-204 210 -204 553t204 553q205 211 537 211zM1561 750q0 341 196 546q201 207 533 207q40 0 90 -4v-203q-44 7 -82 7
q-212 0 -363 -115t-166 -344h455v-189h-455q15 -231 166 -346q150 -114 363 -114q44 0 82 6v-203q-54 -4 -90 -4q-334 0 -533 205q-196 205 -196 551z" />
    <glyph glyph-name="uniF8FF" unicode="&#xf8ff;" horiz-adv-x="1312" 
d="M907 1294q-34 -43 -88.5 -74t-97.5 -40l-37 -6l-2 20q-12 119 63 213q44 59 104.5 96t100.5 39l35 2q-2 -5 2 -39q5 -32 -17.5 -96t-62.5 -115zM461 0q-90 0 -182 109q-94 118 -150 274q-57 162 -57 319q0 214 108 340q112 127 254 127q63 0 144 -34q84 -35 114 -35
q34 0 115 37q84 37 164 37q55 0 105.5 -15.5t84.5 -39.5t55.5 -45.5t32.5 -39.5l11 -16l-9 -6q-9 -6 -23.5 -17t-32 -27.5t-35 -41t-32 -52.5t-23.5 -66.5t-9 -80.5q0 -63 20 -118.5t51 -92.5t58.5 -59.5t52.5 -34.5l20 -10q-10 -40 -57 -144q-30 -70 -67 -125
q-40 -59 -97.5 -100t-113.5 -41q-36 0 -121 29q-76 30 -127 30q-53 0 -135 -30q-85 -31 -119 -31z" />
    <glyph glyph-name="NULL" 
 />
    <glyph glyph-name="CR" horiz-adv-x="681" 
 />
    <glyph glyph-name="uni00A40301" horiz-adv-x="804" 
d="M1014 1997l59 -117l-405 -229l-45 88zM375 168l59 428l127 897h180l-125 -897l-61 -438q-21 -158 -182 -158h-416l25 168h393z" />
    <glyph glyph-name="G.ss01" horiz-adv-x="1576" 
d="M113 580q0 409 227 669q232 262 590 262q261 0 426 -139q162 -137 162 -364h-197q-10 158 -121.5 246.5t-290.5 88.5q-233 0 -389 -135t-186 -360l-29 -207q-31 -231 88.5 -365.5t351.5 -134.5q230 0 379 126t185 343h-443l23 170h637l-15 -100q-50 -336 -262 -518
t-530 -182q-292 0 -449 157t-157 443z" />
    <glyph glyph-name="Gbreve.ss01" horiz-adv-x="1576" 
d="M1176 1939h122q-19 -129 -112 -209.5t-223 -80.5q-133 0 -202 79.5t-50 210.5h120q-12 -81 29 -131.5t117 -50.5q78 0 132.5 50t66.5 132zM113 580q0 409 227 669q232 262 590 262q261 0 426 -139q162 -137 162 -364h-197q-10 158 -121.5 246.5t-290.5 88.5
q-233 0 -389 -135t-186 -360l-29 -207q-31 -231 88.5 -365.5t351.5 -134.5q230 0 379 126t185 343h-443l23 170h637l-15 -100q-50 -336 -262 -518t-530 -182q-292 0 -449 157t-157 443z" />
    <glyph glyph-name="uni0122.ss01" horiz-adv-x="1576" 
d="M113 580q0 409 227 669q232 262 590 262q261 0 426 -139q162 -137 162 -364h-197q-10 158 -121.5 246.5t-290.5 88.5q-233 0 -389 -135t-186 -360l-29 -207q-31 -231 88.5 -365.5t351.5 -134.5q230 0 379 126t185 343h-443l23 170h637l-15 -100q-50 -336 -262 -518
t-530 -182q-292 0 -449 157t-157 443zM647 -457v56q38 0 61 26t23 70v8h-84v182h166v-164q0 -86 -44.5 -132t-121.5 -46z" />
    <glyph glyph-name="Gdotaccent.ss01" horiz-adv-x="1576" 
d="M1044 1677h-157l33 232h157zM113 580q0 409 227 669q232 262 590 262q261 0 426 -139q162 -137 162 -364h-197q-10 158 -121.5 246.5t-290.5 88.5q-233 0 -389 -135t-186 -360l-29 -207q-31 -231 88.5 -365.5t351.5 -134.5q230 0 379 126t185 343h-443l23 170h637
l-15 -100q-50 -336 -262 -518t-530 -182q-292 0 -449 157t-157 443z" />
    <glyph glyph-name="R.ss02" horiz-adv-x="1464" 
d="M317 0h-184l209 1493h666q199 0 298 -91.5t99 -262.5q0 -195 -94.5 -331t-257.5 -181l-2 -17q41 -17 65.5 -59.5t48.5 -132.5l111 -418h-207l-104 422q-25 100 -69 131t-146 31h-351zM504 1323l-82 -582h473q118 0 198 63t97 167l20 141q13 96 -44.5 153.5t-166.5 57.5
h-495z" />
    <glyph glyph-name="Racute.ss02" horiz-adv-x="1464" 
d="M1325 1880l-405 -229l-46 88l392 258zM317 0h-184l209 1493h666q199 0 298 -91.5t99 -262.5q0 -195 -94.5 -331t-257.5 -181l-2 -17q41 -17 65.5 -59.5t48.5 -132.5l111 -418h-207l-104 422q-25 100 -69 131t-146 31h-351zM504 1323l-82 -582h473q118 0 198 63t97 167
l20 141q13 96 -44.5 153.5t-166.5 57.5h-495z" />
    <glyph glyph-name="Rcaron.ss02" horiz-adv-x="1464" 
d="M854 1597l-205 256l103 82l178 -225l244 225l79 -82l-278 -256h-121zM317 0h-184l209 1493h666q199 0 298 -91.5t99 -262.5q0 -195 -94.5 -331t-257.5 -181l-2 -17q41 -17 65.5 -59.5t48.5 -132.5l111 -418h-207l-104 422q-25 100 -69 131t-146 31h-351zM504 1323
l-82 -582h473q118 0 198 63t97 167l20 141q13 96 -44.5 153.5t-166.5 57.5h-495z" />
    <glyph glyph-name="uni0156.ss02" horiz-adv-x="1464" 
d="M317 0h-184l209 1493h666q199 0 298 -91.5t99 -262.5q0 -195 -94.5 -331t-257.5 -181l-2 -17q41 -17 65.5 -59.5t48.5 -132.5l111 -418h-207l-104 422q-25 100 -69 131t-146 31h-351zM504 1323l-82 -582h473q118 0 198 63t97 167l20 141q13 96 -44.5 153.5t-166.5 57.5
h-495zM610 -457v56q38 0 61 26t23 70v8h-84v182h166v-164q0 -86 -44.5 -132t-121.5 -46z" />
    <glyph glyph-name="O.ss03" horiz-adv-x="1581" 
d="M113 578q0 420 225 675q225 258 594 258q288 0 445 -156.5t157 -441.5q0 -419 -225 -677q-226 -256 -592 -256q-290 0 -447 155.5t-157 442.5zM336 852l-31 -209q-35 -231 83 -363.5t349 -132.5q237 0 389 134q151 136 185 362l30 209q32 227 -84.5 359t-349.5 132
q-236 0 -387 -131.5t-184 -359.5zM897 647h-207l29 199h205z" />
    <glyph glyph-name="Oacute.ss03" horiz-adv-x="1581" 
d="M1210 1880l-405 -229l-45 88l391 258zM113 578q0 420 225 675q225 258 594 258q288 0 445 -156.5t157 -441.5q0 -419 -225 -677q-226 -256 -592 -256q-290 0 -447 155.5t-157 442.5zM336 852l-31 -209q-35 -231 83 -363.5t349 -132.5q237 0 389 134q151 136 185 362
l30 209q32 227 -84.5 359t-349.5 132q-236 0 -387 -131.5t-184 -359.5zM897 647h-207l29 199h205z" />
    <glyph glyph-name="Ocircumflex.ss03" horiz-adv-x="1581" 
d="M592 1628l-76 84l279 254h118l205 -252l-100 -86l-182 225zM113 578q0 420 225 675q225 258 594 258q288 0 445 -156.5t157 -441.5q0 -419 -225 -677q-226 -256 -592 -256q-290 0 -447 155.5t-157 442.5zM336 852l-31 -209q-35 -231 83 -363.5t349 -132.5q237 0 389 134
q151 136 185 362l30 209q32 227 -84.5 359t-349.5 132q-236 0 -387 -131.5t-184 -359.5zM897 647h-207l29 199h205z" />
    <glyph glyph-name="Odieresis.ss03" horiz-adv-x="1581" 
d="M694 1677h-155l30 232h158zM1085 1677h-157l33 232h157zM113 578q0 420 225 675q225 258 594 258q288 0 445 -156.5t157 -441.5q0 -419 -225 -677q-226 -256 -592 -256q-290 0 -447 155.5t-157 442.5zM336 852l-31 -209q-35 -231 83 -363.5t349 -132.5q237 0 389 134
q151 136 185 362l30 209q32 227 -84.5 359t-349.5 132q-236 0 -387 -131.5t-184 -359.5zM897 647h-207l29 199h205z" />
    <glyph glyph-name="Ograve.ss03" horiz-adv-x="1581" 
d="M881 1739l-72 -88l-340 229l92 117zM113 578q0 420 225 675q225 258 594 258q288 0 445 -156.5t157 -441.5q0 -419 -225 -677q-226 -256 -592 -256q-290 0 -447 155.5t-157 442.5zM336 852l-31 -209q-35 -231 83 -363.5t349 -132.5q237 0 389 134q151 136 185 362l30 209
q32 227 -84.5 359t-349.5 132q-236 0 -387 -131.5t-184 -359.5zM897 647h-207l29 199h205z" />
    <glyph glyph-name="Ohungarumlaut.ss03" horiz-adv-x="1581" 
d="M1001 1835l-387 -252l-53 84l375 279zM1389 1810l-404 -227l-45 86l387 258zM113 578q0 420 225 675q225 258 594 258q288 0 445 -156.5t157 -441.5q0 -419 -225 -677q-226 -256 -592 -256q-290 0 -447 155.5t-157 442.5zM336 852l-31 -209q-35 -231 83 -363.5
t349 -132.5q237 0 389 134q151 136 185 362l30 209q32 227 -84.5 359t-349.5 132q-236 0 -387 -131.5t-184 -359.5zM897 647h-207l29 199h205z" />
    <glyph glyph-name="Omacron.ss03" horiz-adv-x="1581" 
d="M1126 1667h-634l18 129h633zM113 578q0 420 225 675q225 258 594 258q288 0 445 -156.5t157 -441.5q0 -419 -225 -677q-226 -256 -592 -256q-290 0 -447 155.5t-157 442.5zM336 852l-31 -209q-35 -231 83 -363.5t349 -132.5q237 0 389 134q151 136 185 362l30 209
q32 227 -84.5 359t-349.5 132q-236 0 -387 -131.5t-184 -359.5zM897 647h-207l29 199h205z" />
    <glyph glyph-name="Otilde.ss03" horiz-adv-x="1581" 
d="M930 1640q-57 0 -135 35t-117 35q-60 0 -115 -70l-69 56q88 143 208 143q51 0 132 -37q84 -35 122 -35q66 0 121 70l70 -57q-84 -140 -217 -140zM113 578q0 420 225 675q225 258 594 258q288 0 445 -156.5t157 -441.5q0 -419 -225 -677q-226 -256 -592 -256
q-290 0 -447 155.5t-157 442.5zM336 852l-31 -209q-35 -231 83 -363.5t349 -132.5q237 0 389 134q151 136 185 362l30 209q32 227 -84.5 359t-349.5 132q-236 0 -387 -131.5t-184 -359.5zM897 647h-207l29 199h205z" />
    <glyph glyph-name="A.ss04" horiz-adv-x="1533" 
d="M817 1493h168l406 -575l-129 -918h-185l49 356h-768l-51 -356h-184l129 918zM430 868l-49 -352h768l49 352l-309 457h-19z" />
    <glyph glyph-name="Aacute.ss04" horiz-adv-x="1533" 
d="M1268 1989l59 -117l-405 -230l-45 89zM817 1493h168l406 -575l-129 -918h-185l49 356h-768l-51 -356h-184l129 918zM430 868l-49 -352h768l49 352l-309 457h-19z" />
    <glyph glyph-name="Abreve.ss04" horiz-adv-x="1533" 
d="M922 1640q-133 0 -202 80t-50 211h121q-12 -81 28.5 -131.5t116.5 -50.5q78 0 132.5 50t66.5 132h122q-19 -129 -112 -210t-223 -81zM817 1493h168l406 -575l-129 -918h-185l49 356h-768l-51 -356h-184l129 918zM430 868l-49 -352h768l49 352l-309 457h-19z" />
    <glyph glyph-name="Acircumflex.ss04" horiz-adv-x="1533" 
d="M1135 1620l-183 225l-243 -225l-76 84l278 254h119l205 -252zM817 1493h168l406 -575l-129 -918h-185l49 356h-768l-51 -356h-184l129 918zM430 868l-49 -352h768l49 352l-309 457h-19z" />
    <glyph glyph-name="Adieresis.ss04" horiz-adv-x="1533" 
d="M684 1901h158l-33 -232h-156zM1075 1901h158l-33 -232h-158zM817 1493h168l406 -575l-129 -918h-185l49 356h-768l-51 -356h-184l129 918zM430 868l-49 -352h768l49 352l-309 457h-19z" />
    <glyph glyph-name="Agrave.ss04" horiz-adv-x="1533" 
d="M678 1989l319 -258l-71 -89l-340 230zM817 1493h168l406 -575l-129 -918h-185l49 356h-768l-51 -356h-184l129 918zM430 868l-49 -352h768l49 352l-309 457h-19z" />
    <glyph glyph-name="Amacron.ss04" horiz-adv-x="1533" 
d="M627 1788h633l-17 -129h-635zM817 1493h168l406 -575l-129 -918h-185l49 356h-768l-51 -356h-184l129 918zM430 868l-49 -352h768l49 352l-309 457h-19z" />
    <glyph glyph-name="Aogonek.ss04" horiz-adv-x="1533" 
d="M1075 -190q0 -82 105 -82q50 0 108 24l-12 -100q-64 -27 -143 -27q-81 5 -128 45.5t-47 108.5q0 131 134 221h-15l49 356h-768l-51 -356h-184l129 918l565 575h168l406 -575l-129 -918q-88 -26 -137.5 -76.5t-49.5 -113.5zM430 868l-49 -352h768l49 352l-309 457h-19z
" />
    <glyph glyph-name="Aring.ss04" horiz-adv-x="1533" 
d="M1006 1464l385 -546l-129 -918h-185l49 356h-768l-51 -356h-184l129 918l539 548q-93 47 -93 160q0 110 75 184t185 74q90 0 144.5 -50t54.5 -132q0 -81 -40.5 -144t-110.5 -94zM946 1788q-57 0 -96 -43t-39 -103q0 -47 27.5 -75.5t72.5 -28.5q55 0 94 43t39 105
q0 45 -27 73.5t-71 28.5zM430 868l-49 -352h768l49 352l-309 457h-19z" />
    <glyph glyph-name="Atilde.ss04" horiz-adv-x="1533" 
d="M793 1702q-60 0 -115 -70l-70 56q88 143 209 143q50 0 131 -37q84 -35 123 -35q66 0 121 70l70 -57q-84 -140 -218 -140q-57 0 -135 35t-116 35zM817 1493h168l406 -575l-129 -918h-185l49 356h-768l-51 -356h-184l129 918zM430 868l-49 -352h768l49 352l-309 457h-19z
" />
    <glyph glyph-name="V.ss04" horiz-adv-x="1552" 
d="M213 573l129 920h178l-123 -870l310 -455h20l438 455l121 870h193l-129 -920l-564 -573h-170z" />
    <glyph glyph-name="W.ss04" horiz-adv-x="1945" 
d="M444 0l-235 547l135 946h184l-129 -911l164 -404h23l303 420l63 461h172l-63 -461l196 -420h23l279 404l131 911h184l-135 -946l-391 -547h-189l-209 438l-315 -438h-191z" />
    <glyph glyph-name="Wacute.ss04" horiz-adv-x="1945" 
d="M1534 1880l-406 -229l-45 88l392 258zM444 0l-235 547l135 946h184l-129 -911l164 -404h23l303 420l63 461h172l-63 -461l196 -420h23l279 404l131 911h184l-135 -946l-391 -547h-189l-209 438l-315 -438h-191z" />
    <glyph glyph-name="Wcircumflex.ss04" horiz-adv-x="1945" 
d="M915 1628l-75 84l278 254h119l205 -252l-101 -86l-182 225zM444 0l-235 547l135 946h184l-129 -911l164 -404h23l303 420l63 461h172l-63 -461l196 -420h23l279 404l131 911h184l-135 -946l-391 -547h-189l-209 438l-315 -438h-191z" />
    <glyph glyph-name="Wdieresis.ss04" horiz-adv-x="1945" 
d="M1016 1677h-156l31 232h158zM1407 1677h-158l33 232h158zM444 0l-235 547l135 946h184l-129 -911l164 -404h23l303 420l63 461h172l-63 -461l196 -420h23l279 404l131 911h184l-135 -946l-391 -547h-189l-209 438l-315 -438h-191z" />
    <glyph glyph-name="Wgrave.ss04" horiz-adv-x="1945" 
d="M1204 1739l-71 -88l-340 229l92 117zM444 0l-235 547l135 946h184l-129 -911l164 -404h23l303 420l63 461h172l-63 -461l196 -420h23l279 404l131 911h184l-135 -946l-391 -547h-189l-209 438l-315 -438h-191z" />
    <glyph glyph-name="Y.ss04" horiz-adv-x="1404" 
d="M1212 1493h193l-66 -477l-555 -559l-63 -457h-186l65 459l-397 557l65 477h178l-59 -428l309 -449h23l436 449z" />
    <glyph glyph-name="Yacute.ss04" horiz-adv-x="1404" 
d="M1204 1997l60 -117l-406 -229l-45 88zM1212 1493h193l-66 -477l-555 -559l-63 -457h-186l65 459l-397 557l65 477h178l-59 -428l309 -449h23l436 449z" />
    <glyph glyph-name="Ycircumflex.ss04" horiz-adv-x="1404" 
d="M1069 1628l-182 225l-244 -225l-76 84l279 254h119l204 -252zM1212 1493h193l-66 -477l-555 -559l-63 -457h-186l65 459l-397 557l65 477h178l-59 -428l309 -449h23l436 449z" />
    <glyph glyph-name="Ydieresis.ss04" horiz-adv-x="1404" 
d="M621 1909h157l-33 -232h-155zM1012 1909h157l-32 -232h-158zM1212 1493h193l-66 -477l-555 -559l-63 -457h-186l65 459l-397 557l65 477h178l-59 -428l309 -449h23l436 449z" />
    <glyph glyph-name="Ygrave.ss04" horiz-adv-x="1404" 
d="M614 1997l320 -258l-72 -88l-340 229zM1212 1493h193l-66 -477l-555 -559l-63 -457h-186l65 459l-397 557l65 477h178l-59 -428l309 -449h23l436 449z" />
    <glyph glyph-name="i.loclTRK" horiz-adv-x="532" 
d="M455 1270h-166l33 231h165zM279 0h-175l150 1069h176z" />
    <glyph glyph-name="uni006A0301" horiz-adv-x="552" 
d="M729 1573l59 -117l-405 -229l-45 88zM98 -199l33 240l145 1028h175l-144 -1028l-33 -225q-9 -55 -32 -92q-37 -66 -150 -66h-250l21 143h235z" />
    <glyph glyph-name="s.001" horiz-adv-x="1040" 
d="M74 324h172q-17 -99 44 -152t191 -53q128 0 204.5 53.5t76.5 144.5q0 98 -131 125l-203 39q-272 55 -272 250q0 157 125 258t327 101q187 0 283.5 -88.5t77.5 -237.5h-170q9 94 -44.5 141t-170.5 47q-113 0 -179.5 -50t-66.5 -136q0 -45 31 -76q30 -27 54.5 -35.5
t78.5 -17.5l209 -41q237 -50 237 -244q0 -165 -135 -270q-135 -102 -352 -102q-203 0 -306.5 92t-80.5 252z" />
    <glyph glyph-name="germandbls.alt01" horiz-adv-x="1376" 
d="M1255 1200l-297 -336q150 -20 227 -107t77 -229q0 -242 -160 -387q-156 -141 -428 -141h-225l22 158h248q135 0 224 62.5t101 160.5l23 158q12 97 -61.5 154t-208.5 57h-125l387 450q-12 69 -84.5 110.5t-177.5 41.5q-139 0 -226 -74t-106 -205l-150 -1073h-182l150 1069
q31 209 175 325.5t365 116.5q188 0 301.5 -82t130.5 -229z" />
    <glyph glyph-name="a.ss01" horiz-adv-x="1286" 
d="M1022 1069h162l-150 -1069h-178l31 205h-15q-60 -103 -169.5 -164t-233.5 -61q-190 0 -288.5 109t-98.5 312q0 314 149 500q151 189 402 189q119 0 210.5 -56.5t123.5 -152.5h14zM924 469l18 139q18 143 -65 238q-84 96 -234 96q-145 0 -239 -79t-113 -214l-31 -221
q-20 -139 52.5 -219t215.5 -80q150 0 263 96q111 92 133 244z" />
    <glyph glyph-name="aacute.ss01" horiz-adv-x="1286" 
d="M1067 1483l-405 -230l-46 88l392 258zM1022 1069h162l-150 -1069h-178l31 205h-15q-60 -103 -169.5 -164t-233.5 -61q-190 0 -288.5 109t-98.5 312q0 314 149 500q151 189 402 189q119 0 210.5 -56.5t123.5 -152.5h14zM924 469l18 139q18 143 -65 238q-84 96 -234 96
q-145 0 -239 -79t-113 -214l-31 -221q-20 -139 52.5 -219t215.5 -80q150 0 263 96q111 92 133 244z" />
    <glyph glyph-name="abreve.ss01" horiz-adv-x="1286" 
d="M874 1542h123q-19 -129 -112 -210t-223 -81q-133 0 -202 80t-50 211h120q-12 -81 29 -131.5t117 -50.5q78 0 132 50t66 132zM1022 1069h162l-150 -1069h-178l31 205h-15q-60 -103 -169.5 -164t-233.5 -61q-190 0 -288.5 109t-98.5 312q0 314 149 500q151 189 402 189
q119 0 210.5 -56.5t123.5 -152.5h14zM924 469l18 139q18 143 -65 238q-84 96 -234 96q-145 0 -239 -79t-113 -214l-31 -221q-20 -139 52.5 -219t215.5 -80q150 0 263 96q111 92 133 244z" />
    <glyph glyph-name="acircumflex.ss01" horiz-adv-x="1286" 
d="M446 1231l-75 84l278 254h119l205 -252l-101 -86l-182 225zM1022 1069h162l-150 -1069h-178l31 205h-15q-60 -103 -169.5 -164t-233.5 -61q-190 0 -288.5 109t-98.5 312q0 314 149 500q151 189 402 189q119 0 210.5 -56.5t123.5 -152.5h14zM924 469l18 139
q18 143 -65 238q-84 96 -234 96q-145 0 -239 -79t-113 -214l-31 -221q-20 -139 52.5 -219t215.5 -80q150 0 263 96q111 92 133 244z" />
    <glyph glyph-name="adieresis.ss01" horiz-adv-x="1286" 
d="M625 1237h-158l33 231h157zM1016 1237h-158l33 231h158zM1022 1069h162l-150 -1069h-178l31 205h-15q-60 -103 -169.5 -164t-233.5 -61q-190 0 -288.5 109t-98.5 312q0 314 149 500q151 189 402 189q119 0 210.5 -56.5t123.5 -152.5h14zM924 469l18 139q18 143 -65 238
q-84 96 -234 96q-145 0 -239 -79t-113 -214l-31 -221q-20 -139 52.5 -219t215.5 -80q150 0 263 96q111 92 133 244z" />
    <glyph glyph-name="agrave.ss01" horiz-adv-x="1286" 
d="M737 1341l-71 -88l-340 230l92 116zM1022 1069h162l-150 -1069h-178l31 205h-15q-60 -103 -169.5 -164t-233.5 -61q-190 0 -288.5 109t-98.5 312q0 314 149 500q151 189 402 189q119 0 210.5 -56.5t123.5 -152.5h14zM924 469l18 139q18 143 -65 238q-84 96 -234 96
q-145 0 -239 -79t-113 -214l-31 -221q-20 -139 52.5 -219t215.5 -80q150 0 263 96q111 92 133 244z" />
    <glyph glyph-name="amacron.ss01" horiz-adv-x="1286" 
d="M983 1270h-635l19 129h632zM1022 1069h162l-150 -1069h-178l31 205h-15q-60 -103 -169.5 -164t-233.5 -61q-190 0 -288.5 109t-98.5 312q0 314 149 500q151 189 402 189q119 0 210.5 -56.5t123.5 -152.5h14zM924 469l18 139q18 143 -65 238q-84 96 -234 96
q-145 0 -239 -79t-113 -214l-31 -221q-20 -139 52.5 -219t215.5 -80q150 0 263 96q111 92 133 244z" />
    <glyph glyph-name="aogonek.ss01" horiz-adv-x="1286" 
d="M842 -190q0 -82 104 -82q50 0 109 24l-13 -100q-65 -27 -143 -27q-80 5 -127 45.5t-47 108.5q0 132 133 221h-2l31 205h-15q-60 -103 -169.5 -164t-233.5 -61q-190 0 -288.5 109t-98.5 312q0 314 149 500q151 189 402 189q119 0 210.5 -56.5t123.5 -152.5h14l41 188h162
l-150 -1069h-6q-88 -26 -137 -76.5t-49 -113.5zM528 129q150 0 263 96q111 92 133 244l18 139q18 143 -65 238q-84 96 -234 96q-145 0 -239 -79t-113 -214l-31 -221q-20 -139 52.5 -219t215.5 -80z" />
    <glyph glyph-name="aring.ss01" horiz-adv-x="1286" 
d="M981 881l41 188h162l-150 -1069h-178l31 205h-15q-60 -103 -169.5 -164t-233.5 -61q-190 0 -288.5 109t-98.5 312q0 275 119 455q121 183 323 223q-88 49 -88 158q0 110 75 184t185 74q90 0 144.5 -50t54.5 -132q0 -79 -41 -144t-109 -94q172 -46 222 -194h14zM684 1399
q-57 0 -96 -43t-39 -103q0 -47 27.5 -75.5t72.5 -28.5q56 0 94.5 43t38.5 104q0 45 -27 74t-71 29zM924 469l18 139q18 143 -65 238q-84 96 -234 96q-145 0 -239 -79t-113 -214l-31 -221q-20 -139 52.5 -219t215.5 -80q150 0 263 96q111 92 133 244z" />
    <glyph glyph-name="atilde.ss01" horiz-adv-x="1286" 
d="M784 1243q-57 0 -135 35t-117 35q-59 0 -114 -70l-70 55q88 144 209 144q50 0 131 -37q84 -35 123 -35q66 0 121 70l69 -58q-83 -139 -217 -139zM1022 1069h162l-150 -1069h-178l31 205h-15q-60 -103 -169.5 -164t-233.5 -61q-190 0 -288.5 109t-98.5 312q0 314 149 500
q151 189 402 189q119 0 210.5 -56.5t123.5 -152.5h14zM924 469l18 139q18 143 -65 238q-84 96 -234 96q-145 0 -239 -79t-113 -214l-31 -221q-20 -139 52.5 -219t215.5 -80q150 0 263 96q111 92 133 244z" />
    <glyph glyph-name="g.ss01" horiz-adv-x="1286" 
d="M96 440q0 292 150 471t395 179q119 0 210.5 -56.5t123.5 -152.5h12l43 188h162l-139 -993q-29 -208 -177 -323t-378 -115q-197 0 -308.5 85.5t-103.5 225.5h170q-2 -82 68.5 -130t193.5 -48q153 0 244 76.5t110 213.5l27 193h-12q-60 -103 -170 -164t-234 -61
q-189 0 -288 108t-99 303zM301 670l-31 -213q-17 -125 57.5 -202t215.5 -77q150 0 262 92q111 91 129 228l20 131q18 131 -69 221q-86 92 -234 92q-141 0 -236 -74.5t-114 -197.5z" />
    <glyph glyph-name="gbreve.ss01" horiz-adv-x="1286" 
d="M903 1518h123q-19 -129 -112.5 -210t-223.5 -81q-133 0 -202 80t-50 211h121q-12 -81 29 -132t117 -51q78 0 132 50.5t66 132.5zM96 440q0 292 150 471t395 179q119 0 210.5 -56.5t123.5 -152.5h12l43 188h162l-139 -993q-29 -208 -177 -323t-378 -115
q-197 0 -308.5 85.5t-103.5 225.5h170q-2 -82 68.5 -130t193.5 -48q153 0 244 76.5t110 213.5l27 193h-12q-60 -103 -170 -164t-234 -61q-189 0 -288 108t-99 303zM301 670l-31 -213q-17 -125 57.5 -202t215.5 -77q150 0 262 92q111 91 129 228l20 131q18 131 -69 221
q-86 92 -234 92q-141 0 -236 -74.5t-114 -197.5z" />
    <glyph glyph-name="uni0123.ss01" horiz-adv-x="1286" 
d="M750 1595v-55q-37 0 -59.5 -26.5t-22.5 -69.5v-10h82v-181h-164v152q0 90 44 140t120 50zM96 440q0 292 150 471t395 179q119 0 210.5 -56.5t123.5 -152.5h12l43 188h162l-139 -993q-29 -208 -177 -323t-378 -115q-197 0 -308.5 85.5t-103.5 225.5h170q-2 -82 68.5 -130
t193.5 -48q153 0 244 76.5t110 213.5l27 193h-12q-60 -103 -170 -164t-234 -61q-189 0 -288 108t-99 303zM301 670l-31 -213q-17 -125 57.5 -202t215.5 -77q150 0 262 92q111 91 129 228l20 131q18 131 -69 221q-86 92 -234 92q-141 0 -236 -74.5t-114 -197.5z" />
    <glyph glyph-name="gdotaccent.ss01" horiz-adv-x="1286" 
d="M774 1255h-158l33 232h158zM96 440q0 292 150 471t395 179q119 0 210.5 -56.5t123.5 -152.5h12l43 188h162l-139 -993q-29 -208 -177 -323t-378 -115q-197 0 -308.5 85.5t-103.5 225.5h170q-2 -82 68.5 -130t193.5 -48q153 0 244 76.5t110 213.5l27 193h-12
q-60 -103 -170 -164t-234 -61q-189 0 -288 108t-99 303zM301 670l-31 -213q-17 -125 57.5 -202t215.5 -77q150 0 262 92q111 91 129 228l20 131q18 131 -69 221q-86 92 -234 92q-141 0 -236 -74.5t-114 -197.5z" />
    <glyph glyph-name="a.ss02" horiz-adv-x="1136" 
d="M61 246q0 175 119 282q121 109 320 109h317l12 84q34 227 -215 227q-238 0 -282 -188h-170q36 160 162.5 245t318.5 85q206 0 296 -97.5t65 -279.5l-101 -713h-160l11 180h-13q-51 -94 -153 -147t-232 -53q-140 0 -217.5 71t-77.5 195zM252 348l-8 -57q-10 -83 36 -125.5
t140 -42.5q148 0 252 90q103 92 121 238l8 55h-305q-102 0 -167.5 -43t-76.5 -115z" />
    <glyph glyph-name="aacute.ss02" horiz-adv-x="1136" 
d="M1067 1473l-405 -230l-46 88l392 258zM61 246q0 175 119 282q121 109 320 109h317l12 84q34 227 -215 227q-238 0 -282 -188h-170q36 160 162.5 245t318.5 85q206 0 296 -97.5t65 -279.5l-101 -713h-160l11 180h-13q-51 -94 -153 -147t-232 -53q-140 0 -217.5 71
t-77.5 195zM252 348l-8 -57q-10 -83 36 -125.5t140 -42.5q148 0 252 90q103 92 121 238l8 55h-305q-102 0 -167.5 -43t-76.5 -115z" />
    <glyph glyph-name="abreve.ss02" horiz-adv-x="1136" 
d="M874 1532h123q-19 -129 -112 -210t-223 -81q-133 0 -202 80t-50 211h120q-12 -81 29 -131.5t117 -50.5q78 0 132 50t66 132zM61 246q0 175 119 282q121 109 320 109h317l12 84q34 227 -215 227q-238 0 -282 -188h-170q36 160 162.5 245t318.5 85q206 0 296 -97.5
t65 -279.5l-101 -713h-160l11 180h-13q-51 -94 -153 -147t-232 -53q-140 0 -217.5 71t-77.5 195zM252 348l-8 -57q-10 -83 36 -125.5t140 -42.5q148 0 252 90q103 92 121 238l8 55h-305q-102 0 -167.5 -43t-76.5 -115z" />
    <glyph glyph-name="acircumflex.ss02" horiz-adv-x="1136" 
d="M449 1221l-76 84l278 254h119l205 -252l-101 -86l-182 225zM61 246q0 175 119 282q121 109 320 109h317l12 84q34 227 -215 227q-238 0 -282 -188h-170q36 160 162.5 245t318.5 85q206 0 296 -97.5t65 -279.5l-101 -713h-160l11 180h-13q-51 -94 -153 -147t-232 -53
q-140 0 -217.5 71t-77.5 195zM252 348l-8 -57q-10 -83 36 -125.5t140 -42.5q148 0 252 90q103 92 121 238l8 55h-305q-102 0 -167.5 -43t-76.5 -115z" />
    <glyph glyph-name="adieresis.ss02" horiz-adv-x="1136" 
d="M551 1270h-156l31 231h158zM942 1270h-158l33 231h158zM61 246q0 175 119 282q121 109 320 109h317l12 84q34 227 -215 227q-238 0 -282 -188h-170q36 160 162.5 245t318.5 85q206 0 296 -97.5t65 -279.5l-101 -713h-160l11 180h-13q-51 -94 -153 -147t-232 -53
q-140 0 -217.5 71t-77.5 195zM252 348l-8 -57q-10 -83 36 -125.5t140 -42.5q148 0 252 90q103 92 121 238l8 55h-305q-102 0 -167.5 -43t-76.5 -115z" />
    <glyph glyph-name="agrave.ss02" horiz-adv-x="1136" 
d="M737 1331l-71 -88l-340 230l92 116zM61 246q0 175 119 282q121 109 320 109h317l12 84q34 227 -215 227q-238 0 -282 -188h-170q36 160 162.5 245t318.5 85q206 0 296 -97.5t65 -279.5l-101 -713h-160l11 180h-13q-51 -94 -153 -147t-232 -53q-140 0 -217.5 71t-77.5 195
zM252 348l-8 -57q-10 -83 36 -125.5t140 -42.5q148 0 252 90q103 92 121 238l8 55h-305q-102 0 -167.5 -43t-76.5 -115z" />
    <glyph glyph-name="amacron.ss02" horiz-adv-x="1136" 
d="M983 1260h-635l19 129h632zM61 246q0 175 119 282q121 109 320 109h317l12 84q34 227 -215 227q-238 0 -282 -188h-170q36 160 162.5 245t318.5 85q206 0 296 -97.5t65 -279.5l-101 -713h-160l11 180h-13q-51 -94 -153 -147t-232 -53q-140 0 -217.5 71t-77.5 195z
M252 348l-8 -57q-10 -83 36 -125.5t140 -42.5q148 0 252 90q103 92 121 238l8 55h-305q-102 0 -167.5 -43t-76.5 -115z" />
    <glyph glyph-name="aogonek.ss02" horiz-adv-x="1136" 
d="M903 0h-2q-88 -26 -137 -76.5t-49 -113.5q0 -82 104 -82q51 0 109 24l-13 -100q-65 -27 -143 -27q-80 5 -127 45.5t-47 108.5q0 140 145 229l11 172h-13q-51 -94 -153 -147t-232 -53q-140 0 -217.5 71t-77.5 195q0 175 119 282q121 109 320 109h317l12 84
q34 227 -215 227q-238 0 -282 -188h-170q36 160 162.5 245t318.5 85q206 0 296 -97.5t65 -279.5zM420 123q148 0 252 90q103 92 121 238l8 55h-305q-102 0 -167.5 -43t-76.5 -115l-8 -57q-10 -83 36 -125.5t140 -42.5z" />
    <glyph glyph-name="aring.ss02" horiz-adv-x="1136" 
d="M772 1077q275 -56 232 -364l-101 -713h-160l11 180h-13q-51 -94 -153 -147t-232 -53q-140 0 -217.5 71t-77.5 195q0 175 119 282q121 109 320 109h317l12 84q34 227 -215 227q-238 0 -282 -188h-170q62 265 350 317q-74 53 -74 150q0 110 75 184t185 74q90 0 144.5 -50
t54.5 -132q0 -153 -125 -226zM686 1389q-57 0 -96 -43t-39 -103q0 -47 27.5 -75.5t72.5 -28.5q56 0 94.5 43t38.5 104q0 45 -27 74t-71 29zM793 451l8 55h-305q-102 0 -167.5 -43t-76.5 -115l-8 -57q-10 -83 36 -125.5t140 -42.5q148 0 252 90q103 92 121 238z" />
    <glyph glyph-name="atilde.ss02" horiz-adv-x="1136" 
d="M786 1233q-57 0 -135 35t-116 35q-60 0 -115 -70l-70 55q88 144 209 144q50 0 131 -37q84 -35 123 -35q66 0 121 70l70 -58q-83 -139 -218 -139zM61 246q0 175 119 282q121 109 320 109h317l12 84q34 227 -215 227q-238 0 -282 -188h-170q36 160 162.5 245t318.5 85
q206 0 296 -97.5t65 -279.5l-101 -713h-160l11 180h-13q-51 -94 -153 -147t-232 -53q-140 0 -217.5 71t-77.5 195zM252 348l-8 -57q-10 -83 36 -125.5t140 -42.5q148 0 252 90q103 92 121 238l8 55h-305q-102 0 -167.5 -43t-76.5 -115z" />
    <glyph glyph-name="o.ss03" horiz-adv-x="1208" 
d="M84 422q0 293 168 479q171 189 430 189q206 0 325 -118t119 -327q0 -293 -168 -479t-432 -186q-210 0 -326 117t-116 325zM285 612l-25 -166q-18 -149 62 -234t225 -85q146 0 251.5 86.5t125.5 232.5l22 166q20 146 -58 237t-226 91q-143 0 -252 -92q-106 -87 -125 -236z
M672 457h-162l22 157h160z" />
    <glyph glyph-name="oacute.ss03" horiz-adv-x="1208" 
d="M1026 1454l-405 -229l-46 88l392 258zM84 422q0 293 168 479q171 189 430 189q206 0 325 -118t119 -327q0 -293 -168 -479t-432 -186q-210 0 -326 117t-116 325zM285 612l-25 -166q-18 -149 62 -234t225 -85q146 0 251.5 86.5t125.5 232.5l22 166q20 146 -58 237t-226 91
q-143 0 -252 -92q-106 -87 -125 -236zM672 457h-162l22 157h160z" />
    <glyph glyph-name="ocircumflex.ss03" horiz-adv-x="1208" 
d="M408 1202l-76 84l278 254h119l205 -252l-100 -86l-183 225zM84 422q0 293 168 479q171 189 430 189q206 0 325 -118t119 -327q0 -293 -168 -479t-432 -186q-210 0 -326 117t-116 325zM285 612l-25 -166q-18 -149 62 -234t225 -85q146 0 251.5 86.5t125.5 232.5l22 166
q20 146 -58 237t-226 91q-143 0 -252 -92q-106 -87 -125 -236zM672 457h-162l22 157h160z" />
    <glyph glyph-name="odieresis.ss03" horiz-adv-x="1208" 
d="M508 1251h-156l31 232h158zM899 1251h-158l33 232h158zM84 422q0 293 168 479q171 189 430 189q206 0 325 -118t119 -327q0 -293 -168 -479t-432 -186q-210 0 -326 117t-116 325zM285 612l-25 -166q-18 -149 62 -234t225 -85q146 0 251.5 86.5t125.5 232.5l22 166
q20 146 -58 237t-226 91q-143 0 -252 -92q-106 -87 -125 -236zM672 457h-162l22 157h160z" />
    <glyph glyph-name="ograve.ss03" horiz-adv-x="1208" 
d="M696 1313l-71 -88l-340 229l92 117zM84 422q0 293 168 479q171 189 430 189q206 0 325 -118t119 -327q0 -293 -168 -479t-432 -186q-210 0 -326 117t-116 325zM285 612l-25 -166q-18 -149 62 -234t225 -85q146 0 251.5 86.5t125.5 232.5l22 166q20 146 -58 237t-226 91
q-143 0 -252 -92q-106 -87 -125 -236zM672 457h-162l22 157h160z" />
    <glyph glyph-name="ohungarumlaut.ss03" horiz-adv-x="1208" 
d="M815 1409l-387 -252l-53 84l375 279zM1202 1384l-403 -227l-45 86l387 258zM84 422q0 293 168 479q171 189 430 189q206 0 325 -118t119 -327q0 -293 -168 -479t-432 -186q-210 0 -326 117t-116 325zM285 612l-25 -166q-18 -149 62 -234t225 -85q146 0 251.5 86.5
t125.5 232.5l22 166q20 146 -58 237t-226 91q-143 0 -252 -92q-106 -87 -125 -236zM672 457h-162l22 157h160z" />
    <glyph glyph-name="omacron.ss03" horiz-adv-x="1208" 
d="M942 1241h-635l19 129h632zM84 422q0 293 168 479q171 189 430 189q206 0 325 -118t119 -327q0 -293 -168 -479t-432 -186q-210 0 -326 117t-116 325zM285 612l-25 -166q-18 -149 62 -234t225 -85q146 0 251.5 86.5t125.5 232.5l22 166q20 146 -58 237t-226 91
q-143 0 -252 -92q-106 -87 -125 -236zM672 457h-162l22 157h160z" />
    <glyph glyph-name="otilde.ss03" horiz-adv-x="1208" 
d="M743 1214q-57 0 -135 35t-116 35q-60 0 -115 -70l-70 56q88 143 209 143q50 0 131 -37q84 -35 123 -35q66 0 121 70l70 -57q-84 -140 -218 -140zM84 422q0 293 168 479q171 189 430 189q206 0 325 -118t119 -327q0 -293 -168 -479t-432 -186q-210 0 -326 117t-116 325z
M285 612l-25 -166q-18 -149 62 -234t225 -85q146 0 251.5 86.5t125.5 232.5l22 166q20 146 -58 237t-226 91q-143 0 -252 -92q-106 -87 -125 -236zM672 457h-162l22 157h160z" />
    <glyph glyph-name="h_t_t_p" horiz-adv-x="4268" 
d="M432 1544h3687l-267 -1894h-1308l163 1171h-417l-95 -669h240l-20 -144h-258q-150 0 -129 154l92 659h-437l-94 -669h240l-19 -144h-258q-152 0 -131 154l92 659h-206l20 137h207l39 287h170l-39 -287h436l39 287h170l-41 -287h574l-15 -184h15q51 93 156 149t231 56
q177 0 281 -108.5t104 -288.5q0 -246 -154 -420q-153 -172 -375 -172q-124 0 -211 57t-112 154h-15l-59 -424h1008l229 1638h-3416l-90 -647h14q61 99 162 155t217 56q167 0 248.5 -112t52.5 -304l-78 -555h-166l78 541q18 137 -38 209.5t-171 72.5q-137 0 -239 -102
q-103 -103 -123 -262l-97 -690h2065l-19 -127h-2197zM2836 553l-18 -135q-15 -118 66 -199q82 -82 221 -82q161 0 268 119q109 121 109 301q0 127 -73.5 200.5t-201.5 73.5q-136 0 -248 -86q-108 -86 -123 -192z" />
    <glyph glyph-name="w_w_w" horiz-adv-x="4098" 
d="M479 0h-229l-156 1069h193l69 -567l31 -332h12l336 899h197l92 -895h10l348 895h193l100 -899h13l335 899h197l92 -895h10l349 895h192l100 -899h13l336 899h196l92 -895h11l120 322l228 573h188l-454 -1069h-222l-84 868h-12l-319 -868h-230l-96 819l-326 -819h-221
l-84 868h-12l-320 -868h-229l-96 817l-326 -817h-221l-84 868h-12z" />
    <glyph glyph-name="zero.ss01" horiz-adv-x="1282" 
d="M145 492q0 462 172 731q175 272 465 272q420 0 420 -510q0 -461 -172 -733q-169 -272 -461 -272q-424 0 -424 512zM395 958l-61 -442q-26 -182 42.5 -279.5t213.5 -97.5q141 0 238.5 96t125.5 281l62 442q24 182 -44.5 279.5t-213.5 97.5t-241 -97.5t-122 -279.5z
M743 659h-178l23 164h178z" />
    <glyph glyph-name="zero.tf" horiz-adv-x="1232" 
d="M766 1495q420 0 420 -510q0 -461 -172 -733q-169 -272 -461 -272q-424 0 -424 512q0 462 172 731q175 272 465 272zM741 1335q-145 0 -240.5 -97.5t-121.5 -279.5l-39 -284l666 391q-4 131 -74.5 200.5t-190.5 69.5zM571 139q144 0 241.5 96t123.5 281l51 352l-674 -395
q-13 -163 54.5 -248.5t203.5 -85.5z" />
    <glyph glyph-name="one.tf" horiz-adv-x="1204" 
d="M762 1477l-184 -1315h462v-162h-999v162h358l131 923h-370l18 140h58q142 0 241.5 69.5t118.5 182.5h166z" />
    <glyph glyph-name="two.tf" horiz-adv-x="1243" 
d="M852 608l-485 -454l227 8h453l-23 -162h-924l19 131l610 571q219 207 234 324l10 74q13 106 -53 169.5t-189 63.5q-126 0 -216 -71t-103 -187l-6 -47h-179l6 39q21 190 173 309q149 119 362 119q183 0 289 -95t106 -257q0 -177 -106 -314q-51 -68 -90 -110
q-29 -31 -115 -111z" />
    <glyph glyph-name="three.tf" horiz-adv-x="1241" 
d="M575 -20q-222 0 -333 126q-112 127 -74 340h188q-26 -150 39 -229.5t199 -79.5t225.5 65t104.5 169l10 80q17 113 -56.5 173t-218.5 60h-108l20 156h105q134 0 219.5 59t97.5 158l11 73q12 99 -56 152t-184 53q-134 0 -217 -78.5t-103 -224.5h-186q27 210 174 336
q151 127 365 127q180 0 288.5 -90.5t108.5 -239.5q0 -130 -71 -232t-203 -157v-12q100 -37 151 -115.5t51 -181.5q0 -213 -155 -350q-152 -137 -392 -137z" />
    <glyph glyph-name="four.tf" horiz-adv-x="1236" 
d="M1098 1477l-144 -1004h187l-23 -154h-184l-45 -319h-178l45 319h-725l22 156l762 1002h283zM240 473h536l123 870z" />
    <glyph glyph-name="five.tf" horiz-adv-x="1243" 
d="M164 451h182q-23 -135 49 -223.5t207 -88.5q127 0 227 68q100 69 115 180l27 180q15 114 -66 183q-78 69 -209 69q-94 0 -180 -42.5t-123 -108.5h-170l146 809h845l-22 -160h-686l-86 -453l6 -2q54 50 143.5 81.5t175.5 31.5q189 0 298.5 -108t109.5 -294
q0 -258 -164 -428q-162 -165 -416 -165q-213 0 -327 129q-116 134 -82 342z" />
    <glyph glyph-name="six.tf" horiz-adv-x="1241" 
d="M156 496q0 459 174 727q175 272 473 272q192 0 299 -100t100 -273h-186q0 105 -65 160t-173 55q-358 0 -411 -587h8q126 208 379 208q181 0 284 -101.5t103 -283.5q0 -261 -156 -428q-155 -165 -399 -165q-430 0 -430 516zM379 555l-23 -158q-18 -120 58 -190
q77 -68 194 -68t211 70q95 71 113 188l22 158q15 120 -61 184q-78 66 -191 66q-118 0 -213 -68q-95 -65 -110 -182z" />
    <glyph glyph-name="seven.tf" horiz-adv-x="1241" 
d="M358 1047h-153l59 430h971l-18 -127q-249 -292 -459 -656q-208 -365 -316 -694h-194q99 313 299 668q200 350 446 649h-598z" />
    <glyph glyph-name="eight.tf" horiz-adv-x="1249" 
d="M532 -20q-211 0 -324.5 91t-113.5 251q0 138 71 247.5t197 159.5l3 16q-172 76 -172 273q0 210 153 342q154 133 397 133q208 0 323.5 -93t115.5 -253q0 -137 -71 -244t-198 -158l-2 -16q172 -82 172 -278q0 -210 -153 -342q-150 -129 -398 -129zM983 1030l10 82
q13 109 -58 165t-214 56q-142 0 -228.5 -56.5t-103.5 -164.5l-12 -82q-13 -102 60 -160.5t210 -58.5q139 0 231 58t105 161zM555 139q139 0 231 61.5t105 174.5l10 84q13 97 -60.5 151t-211.5 54q-142 0 -231.5 -54t-102.5 -151l-10 -84q-13 -115 59 -175.5t211 -60.5z" />
    <glyph glyph-name="nine.tf" horiz-adv-x="1241" 
d="M1153 979q0 -453 -176 -727q-175 -272 -469 -272q-195 0 -302.5 100t-99.5 272h187q0 -106 64 -160.5t173 -54.5q356 0 412 588h-10q-126 -209 -377 -209q-181 0 -283 102t-102 285q0 261 154 426q156 166 399 166q430 0 430 -516zM928 922l22 155q18 118 -54.5 188
t-195.5 70q-121 0 -213 -69q-95 -71 -110 -189l-23 -155q-15 -122 60 -185q77 -65 194 -65q114 0 209 65q96 66 111 185z" />
    <glyph glyph-name="zero.tf.ss01" horiz-adv-x="1232" 
d="M766 1495q420 0 420 -510q0 -461 -172 -733q-169 -272 -461 -272q-424 0 -424 512q0 462 172 731q175 272 465 272zM379 958l-21 -143h621l20 143q24 182 -44.5 279.5t-213.5 97.5t-240.5 -97.5t-121.5 -279.5zM571 139q144 0 241.5 96t123.5 281l22 152h-620l-21 -152
q-24 -183 43 -280t211 -97z" />
    <glyph glyph-name="zero.dnom" horiz-adv-x="858" 
d="M354 -8q-137 0 -211.5 94t-74.5 270q0 278 120 459q119 180 308 180q137 0 211.5 -94t74.5 -270q0 -277 -120 -459q-119 -180 -308 -180zM371 129q109 0 180 141q72 147 72 365q0 225 -146 225q-111 0 -182 -141q-70 -140 -70 -363q0 -227 146 -227z" />
    <glyph glyph-name="one.dnom" horiz-adv-x="636" 
d="M338 690h-254l16 123h93q88 0 137 45.5t49 116.5v8h149l-137 -983h-149z" />
    <glyph glyph-name="two.dnom" horiz-adv-x="776" 
d="M209 133l156 6h276l-20 -139h-605l4 33q13 103 72.5 190.5t143.5 147.5q22 16 66 45.5t68 47t60 45t56 50t41 51.5t30.5 60t9.5 65q0 60 -36 93.5t-99 33.5q-77 0 -128.5 -50.5t-59.5 -129.5l-150 12q21 135 123 217q104 84 242 84q124 0 196 -65t72 -174
q0 -93 -42.5 -173t-113.5 -139q-34 -26 -101 -72t-110.5 -77.5t-88 -76t-62.5 -85.5z" />
    <glyph glyph-name="three.dnom" horiz-adv-x="784" 
d="M334 -14q-143 0 -220.5 86.5t-52.5 222.5h154q-12 -82 27 -128t110 -46q78 0 133.5 53.5t55.5 128.5q0 62 -43.5 96.5t-114.5 34.5h-72l21 141h61q84 0 137.5 49t53.5 124q0 54 -35.5 84t-93.5 30q-74 0 -123 -47.5t-60 -126.5h-153q15 133 110 219q98 88 244 88
q122 0 196 -60.5t74 -162.5q0 -86 -45 -152t-125 -102l-2 -10q127 -50 127 -193q0 -142 -106 -235q-104 -94 -258 -94z" />
    <glyph glyph-name="four.dnom" horiz-adv-x="804" 
d="M694 983l-92 -655h111l-19 -138h-110l-27 -190h-151l26 190h-440l18 129l441 664h243zM522 844l-346 -516h275z" />
    <glyph glyph-name="five.dnom" horiz-adv-x="811" 
d="M66 301h155q-12 -78 28.5 -127t115.5 -49q86 0 145 66.5t59 164.5q0 75 -40 119.5t-111 44.5q-54 0 -100.5 -25.5t-69.5 -66.5h-146l80 555h586l-18 -137h-437l-22 -152l-17 -100l2 -4q29 29 83 47t106 18q121 0 192.5 -74t71.5 -198q0 -170 -113 -283
q-111 -114 -274 -114q-142 0 -219 87.5t-57 227.5z" />
    <glyph glyph-name="six.dnom" horiz-adv-x="831" 
d="M63 340q0 286 123 471q126 184 320 184q125 0 196.5 -70t67.5 -188h-152q-2 57 -39 90t-100 33q-196 0 -246 -338h7q35 56 102 90.5t137 34.5q116 0 185 -73.5t69 -192.5q0 -168 -110 -281q-109 -112 -275 -112q-141 0 -213 91.5t-72 260.5zM223 285q0 -71 40 -115.5
t110 -44.5q86 0 145.5 68.5t59.5 168.5q0 72 -40.5 113t-109.5 41q-86 0 -145.5 -67t-59.5 -164z" />
    <glyph glyph-name="seven.dnom" horiz-adv-x="745" 
d="M127 983h633l-15 -111q-193 -208 -313 -415.5t-196 -456.5h-152q146 490 477 846h-338l-20 -154h-115l21 154z" />
    <glyph glyph-name="eight.dnom" horiz-adv-x="806" 
d="M31 219q0 85 48.5 158t127.5 108l2 11q-115 59 -115 190q0 136 107 221q107 88 268 88q136 0 215.5 -63t79.5 -168q0 -85 -48 -159t-126 -109l-2 -11q110 -58 110 -188q0 -135 -104 -223t-266 -88q-136 0 -216.5 63.5t-80.5 169.5zM252 684q0 -61 42 -95t112 -34
q86 0 141 51t55 129q0 59 -41.5 93t-109.5 34q-88 0 -143.5 -50t-55.5 -128zM190 248q0 -61 41.5 -94t114.5 -33q85 0 140 50t55 128q0 60 -41.5 94.5t-110.5 34.5q-86 0 -142.5 -51t-56.5 -129z" />
    <glyph glyph-name="nine.dnom" horiz-adv-x="831" 
d="M764 643q0 -288 -125 -471q-123 -184 -315 -184q-128 0 -201.5 70.5t-67.5 187.5h152q3 -121 139 -121q201 0 248 336h-8q-36 -59 -102.5 -94t-139.5 -35q-115 0 -183.5 75t-68.5 197q0 163 111 277q114 114 274 114q141 0 214 -91.5t73 -260.5zM602 698
q0 71 -39.5 116.5t-109.5 45.5q-86 0 -146 -69q-59 -71 -59 -170q0 -71 40.5 -111.5t110.5 -40.5q85 0 144 66.5t59 162.5z" />
    <glyph glyph-name="zero.numr" horiz-adv-x="858" 
d="M428 514q-137 0 -212 93.5t-75 266.5q0 276 119 453q120 178 307 178q137 0 213 -94t76 -266q0 -273 -121 -453q-120 -178 -307 -178zM444 649q110 0 181 139q71 142 71 357q0 225 -147 225q-109 0 -180 -139q-70 -137 -70 -357q0 -225 145 -225z" />
    <glyph glyph-name="one.numr" horiz-adv-x="636" 
d="M410 1204h-254l16 121h92q88 0 137.5 44.5t49.5 115.5v8h149l-137 -969h-150z" />
    <glyph glyph-name="two.numr" horiz-adv-x="776" 
d="M281 653l155 6h277l-19 -137h-604l4 35q11 103 69.5 188t143.5 144q26 19 76 52.5t78.5 53.5t67 52.5t59.5 60t36 64.5t15 77q0 57 -36 90t-99 33q-75 0 -127 -50t-60 -128l-151 12q23 134 123 216.5t241 82.5q126 0 197.5 -64.5t71.5 -170.5q0 -93 -42.5 -171.5
t-115.5 -135.5q-33 -26 -129.5 -91.5t-152 -115.5t-78.5 -103z" />
    <glyph glyph-name="three.numr" horiz-adv-x="784" 
d="M406 508q-147 0 -221.5 85t-51.5 220h154q-13 -80 25 -126t112 -46q78 0 133 52.5t55 127.5q0 60 -43.5 94.5t-113.5 34.5h-74l20 140h62q84 0 137 48.5t53 123.5q0 52 -36 81t-93 29q-74 0 -123.5 -47t-56.5 -125h-154q12 135 108.5 220t244.5 85q124 0 198 -59.5
t74 -161.5q0 -177 -172 -250v-10q127 -53 127 -188q0 -141 -106 -234q-104 -94 -258 -94z" />
    <glyph glyph-name="four.numr" horiz-adv-x="804" 
d="M766 1493l-90 -647h110l-18 -135h-111l-26 -187h-152l27 187h-440l18 127l438 655h244zM596 1356l-346 -510h274z" />
    <glyph glyph-name="five.numr" horiz-adv-x="811" 
d="M139 819h156q-12 -74 28.5 -125t114.5 -51q88 0 146.5 66.5t58.5 164.5q0 75 -40 119.5t-111 44.5q-53 0 -99.5 -26t-70.5 -68h-146l78 549h586l-19 -137h-436l-20 -150l-19 -98l2 -4q66 63 191 63q120 0 192 -74t72 -194q0 -164 -111 -278q-110 -113 -274 -113
q-142 0 -220.5 86t-58.5 225z" />
    <glyph glyph-name="six.numr" horiz-adv-x="831" 
d="M137 860q0 282 123 463q126 182 318 182q124 0 197 -69t69 -185h-152q-1 56 -39 87.5t-100 31.5q-199 0 -246 -332h6q35 56 102 90.5t136 34.5q116 0 186 -73.5t70 -192.5q0 -162 -111 -276q-111 -111 -274 -111q-141 0 -213 91t-72 259zM297 805q0 -71 39.5 -116.5
t109.5 -45.5q86 0 145.5 69t59.5 169q0 72 -40 112.5t-109 40.5q-86 0 -145.5 -66t-59.5 -163z" />
    <glyph glyph-name="seven.numr" horiz-adv-x="745" 
d="M199 1493h632l-14 -111q-193 -203 -313 -408t-195 -450h-151q153 484 473 832h-336l-19 -129h-114z" />
    <glyph glyph-name="eight.numr" horiz-adv-x="806" 
d="M102 739q0 85 48.5 156.5t130.5 108.5l2 10q-115 59 -115 188q0 133 106 217q109 86 267 86q136 0 216.5 -62t80.5 -165q0 -85 -47.5 -156t-128.5 -108l-3 -10q113 -58 113 -189q0 -132 -106 -219q-106 -86 -267 -86q-135 0 -216 63t-81 166zM326 1200q0 -60 40.5 -94.5
t112.5 -34.5q85 0 140 50t55 128q0 59 -41.5 92t-110.5 33q-86 0 -141 -49.5t-55 -124.5zM262 770q0 -61 42.5 -95t115.5 -34q84 0 139 50.5t55 125.5q0 59 -41.5 94t-109.5 35q-87 0 -144 -50.5t-57 -125.5z" />
    <glyph glyph-name="nine.numr" horiz-adv-x="831" 
d="M836 1155q0 -284 -123 -465q-122 -180 -318 -180q-124 0 -198 70t-68 186h152q1 -60 39 -91.5t100 -31.5q200 0 246 334h-9q-36 -59 -99.5 -91t-137.5 -32q-116 0 -185 72t-69 190q0 164 110 277q109 112 273 112q141 0 214 -91t73 -259zM676 1210q0 69 -41 114.5
t-109 45.5q-87 0 -145.5 -67.5t-58.5 -167.5q0 -72 40 -113t109 -41q84 0 143 68q62 68 62 161z" />
    <glyph glyph-name="numbersign.ss03" horiz-adv-x="1216" 
d="M1257 1094l-49 -117h-194l-152 -408h242l-47 -116h-238l-168 -453h-139l168 453h-322l-168 -453h-137l168 453h-196l49 116h190l150 408h-236l49 117h230l164 440h137l-164 -440h324l163 440h140l-164 -440h200zM401 569h322l151 408h-323z" />
    <glyph glyph-name="parenleft.case" horiz-adv-x="610" 
d="M147 573q0 276 125 541q128 272 328 420h123q-203 -154 -324 -416q-120 -261 -120 -561q0 -381 225 -598h-125q-109 103 -170.5 264.5t-61.5 349.5z" />
    <glyph glyph-name="parenright.case" horiz-adv-x="610" 
d="M520 909q0 -277 -123 -538q-124 -263 -325 -412h-125q207 164 325 422q119 259 119 557q0 380 -223 596h125q106 -100 166.5 -265.5t60.5 -359.5z" />
    <glyph glyph-name="braceleft.case" horiz-adv-x="673" 
d="M117 627l16 129q137 0 158 151l61 447q21 141 158 141h219l-14 -113h-230l-65 -471q-13 -91 -64 -149t-116 -64v-6q62 -11 96 -71t22 -148l-71 -493h229l-16 -115h-219q-64 0 -95.5 36t-21.5 107l65 471q11 72 -21 110t-91 38z" />
    <glyph glyph-name="braceright.case" horiz-adv-x="673" 
d="M602 756l-16 -129q-137 0 -158 -148l-66 -471q-21 -143 -157 -143h-217l16 115h225l70 493q13 90 63.5 149t118.5 70v6q-65 8 -99 63.5t-22 149.5l68 471h-227l16 113h217q65 0 95 -36.5t22 -104.5l-62 -447q-11 -69 18 -110t95 -41z" />
    <glyph glyph-name="bracketleft.case" horiz-adv-x="659" 
d="M483 -135h-360l231 1638h359l-15 -114h-235l-199 -1409h236z" />
    <glyph glyph-name="bracketright.case" horiz-adv-x="659" 
d="M348 -135h-360l16 115h236l198 1409h-235l14 114h363z" />
    <glyph glyph-name="hyphen.case" horiz-adv-x="931" 
d="M834 696h-693l17 119h692z" />
    <glyph glyph-name="endash.case" horiz-adv-x="1292" 
d="M1194 696h-1053l17 119h1052z" />
    <glyph glyph-name="emdash.case" horiz-adv-x="1693" 
d="M1595 696h-1454l17 119h1454z" />
    <glyph glyph-name="hyphen_hyphen_greater" horiz-adv-x="1738" 
d="M1477 475h-1264v121h1264l-347 475h148l401 -534l-401 -537h-148z" />
    <glyph glyph-name="greater.case" horiz-adv-x="1112" 
d="M1022 672l-848 -455l27 195l309 159l354 166l2 13l-307 151l-270 146l28 190l725 -426z" />
    <glyph glyph-name="less.case" horiz-adv-x="1112" 
d="M877 412l-27 -195l-721 455l18 139l846 426l-26 -190l-314 -146l-346 -151l-2 -13l305 -166z" />
    <glyph glyph-name="percent.tf" horiz-adv-x="1269" 
d="M485 1511q143 0 231.5 -90.5t88.5 -236.5t-88.5 -237t-231.5 -91q-141 0 -230 91t-89 237q0 147 87 237t232 90zM309 1186q0 -93 48.5 -150t127.5 -57q78 0 128.5 57.5t50.5 149.5q0 86 -50.5 142t-128.5 56q-79 0 -127.5 -55.5t-48.5 -142.5zM1292 920l-1122 -445v121
l1122 446v-122zM631 309q0 146 88 234q90 90 233 90q142 0 232 -90q88 -88 88 -234t-88 -237q-89 -92 -232 -92q-142 0 -231.5 91t-89.5 238zM952 104q78 0 128 57t50 148t-49.5 149t-128.5 58t-128.5 -58t-49.5 -149t49.5 -148t128.5 -57z" />
    <glyph glyph-name="perthousand.tf" horiz-adv-x="1386" 
d="M733 981q-89 -86 -231 -86q-143 0 -232 86q-88 85 -88 223t88 223q89 86 232 86q142 0 231 -86q90 -87 90 -223t-90 -223zM502 1391q-78 0 -127 -52.5t-49 -134.5t49 -133t127 -51q79 0 129.5 52t50.5 134t-50 133.5t-130 51.5zM236 680l1122 444v-120l-1122 -445v121z
M1100 598q137 0 223 -85.5t86 -221.5q0 -139 -86 -225t-223 -86q-172 0 -262 124q-84 -124 -256 -124q-137 0 -224.5 86t-87.5 225q0 136 86.5 221.5t223.5 85.5q170 0 258 -123q88 123 262 123zM590 102q80 0 129 52t49 137q0 82 -49 134t-127 52q-82 0 -131 -50.5
t-49 -135.5q0 -82 50 -135.5t128 -53.5zM1090 104q78 0 128 52.5t50 136.5q0 81 -50 132.5t-128 51.5q-80 0 -129.5 -51t-49.5 -135t49.5 -135.5t129.5 -51.5z" />
    <glyph glyph-name="at.ss03" horiz-adv-x="1871" 
d="M1239 1032h113l-111 -526q-35 -170 96 -170q127 0 219 156q95 157 95 372q0 239 -152 379q-150 141 -412 141q-356 0 -587 -249q-232 -250 -232 -635q0 -269 160.5 -425.5t456.5 -156.5h471l-19 -127h-471q-350 0 -551 189q-198 186 -198 507q-3 168 45.5 326t139.5 285
t213 221.5t274.5 145t314.5 46.5q319 0 506 -172q188 -170 188 -456q0 -273 -141 -473q-138 -197 -334 -197q-90 0 -142.5 45.5t-58.5 122.5h-12q-99 -164 -279 -164q-116 0 -189 80.5t-73 222.5q0 221 123 377q124 160 293 160q159 0 209 -133h8zM870 342q116 0 195 113
q82 113 82 276q0 97 -42 150t-120 53q-115 0 -194 -117q-78 -116 -78 -282q0 -93 41 -143t116 -50z" />
    <glyph glyph-name="less_hyphen_hyphen" horiz-adv-x="1738" 
d="M1542 596v-121h-1263l346 -475h-146l-401 537l401 534h146l-346 -475h1263z" />
    <glyph glyph-name="uni1F310" horiz-adv-x="2207" 
d="M1143 1511q400 0 657 -213q254 -211 254 -550q0 -338 -256 -553t-655 -215q-402 0 -658 215t-256 553q0 339 254 550q257 213 660 213zM928 1171h428q-36 135 -91 209t-122 74t-123.5 -74.5t-91.5 -208.5zM1413 1171h223q-121 207 -346 265q79 -88 123 -265zM647 1171
h225q48 183 121 265q-222 -55 -346 -265zM1700 1171h147q-127 154 -342 228q116 -83 195 -228zM778 1397q-211 -70 -342 -226h148q75 141 194 226zM285 774h198q6 191 70 334h-164q-98 -148 -104 -334zM858 1108h-244q-65 -148 -71 -334h282q3 176 33 334zM881 774h522
q-3 180 -33 334h-457q-29 -150 -32 -334zM1458 774h283q-6 183 -72 334h-242q28 -153 31 -334zM1798 774h199q-6 180 -103 334h-163q61 -146 67 -334zM483 715h-198q9 -183 104 -328h162q-62 151 -68 328zM825 715h-282q6 -183 71 -328h242q-28 150 -31 328zM1403 715h-522
q3 -184 32 -328h457q30 150 33 328zM1427 387h242q66 148 72 328h-283q-3 -178 -31 -328zM1997 715h-199q-6 -185 -67 -328h161q96 146 105 328zM580 328h-146q123 -150 338 -230q-114 84 -192 230zM870 328h-225q127 -213 346 -271q-78 93 -121 271zM1356 328h-428
q35 -137 91.5 -213t123.5 -76t122 76t91 213zM1638 328h-225q-43 -178 -121 -271q219 58 346 271zM1511 98q206 74 338 230h-147q-71 -138 -191 -230z" />
    <glyph glyph-name="uni1F441" horiz-adv-x="1816" 
d="M195 743q0 340 213 553t540 213q326 0 539 -213t213 -553q0 -343 -213 -559q-213 -213 -539 -213q-327 0 -540 213q-213 216 -213 559zM299 743q0 -301 184 -491q186 -189 465 -189q277 0 463 189q184 190 184 491q0 299 -184 486q-185 188 -463 188q-280 0 -465 -188
q-184 -187 -184 -486zM606 745q0 151 99 246q104 96 243 96q141 0 242 -96q98 -94 98 -246q0 -155 -98 -253q-97 -97 -242 -97q-141 0 -243 97q-99 99 -99 253zM643 764v-41l287 12l-185 -168l31 -35l166 191l-14 -295h41l-13 295l164 -191l31 35l-182 168l284 -12v41
l-284 -12l182 166l-31 34l-164 -188l13 291h-41l14 -291l-166 188l-31 -34l185 -166z" />
    </font>
</defs>
</svg>
