<?xml version="1.0" standalone="no"?>
<!DOCTYPE svg PUBLIC "-//W3C//DTD SVG 1.1//EN" "http://www.w3.org/Graphics/SVG/1.1/DTD/svg11.dtd" >
<svg xmlns="http://www.w3.org/2000/svg" xmlns:xlink="http://www.w3.org/1999/xlink" version="1.1">
<metadata>
Created by FontForge 20170731 at Fri Apr  9 11:14:24 2021
 By Aleksey,,,
Copyright (c) 2017 by Deni Anggara. All rights reserved.
</metadata>
<defs>
<font id="AllianceNo.2-Light" horiz-adv-x="1271" >
  <font-face 
    font-family="Alliance No.2 Light"
    font-weight="300"
    font-stretch="normal"
    units-per-em="2048"
    panose-1="0 0 4 0 0 0 0 0 0 0"
    ascent="1649"
    descent="-399"
    x-height="1059"
    cap-height="1493"
    bbox="-799 -434 4327 1968"
    underline-thickness="102"
    underline-position="-307"
    unicode-range="U+000D-FB02"
  />
<missing-glyph horiz-adv-x="1318" 
d="M1319 0h-1319v1493h1319v-1493zM129 1364v-1237h1061v1237h-1061zM1061 256h-803v979h803v-979zM387 1106v-719h545v719h-545zM516 516v461h287v-461h-287z" />
    <glyph glyph-name="fi" unicode="fi" horiz-adv-x="1183" 
d="M369 1059h618v-1059h-127v948h-491v-948h-127v948h-209v111h209v313q0 121 120 121h285v-111h-278v-323zM860 1284v209h127v-209h-127z" />
    <glyph glyph-name="fl" unicode="fl" horiz-adv-x="1206" 
d="M362 1493h648v-1493h-127v1382h-514v-323h237v-111h-237v-948h-127v948h-209v111h209v313q0 121 120 121z" />
    <glyph glyph-name="f_f" unicode="ff" horiz-adv-x="1316" 
d="M1284 1382h-278v-323h237v-111h-237v-948h-127v948h-510v-948h-127v948h-209v111h209v313q0 121 120 121h285v-111h-278v-323h510v313q0 121 120 121h285v-111z" />
    <glyph glyph-name="f_f_i" unicode="ffi" horiz-adv-x="1820" 
d="M1006 1059h618v-1059h-127v948h-491v-948h-127v948h-510v-948h-127v948h-209v111h209v313q0 121 120 121h285v-111h-278v-323h510v313q0 121 120 121h285v-111h-278v-323zM1497 1262v208h127v-208h-127z" />
    <glyph glyph-name="f_t" unicode="ft" horiz-adv-x="1353" 
d="M1032 948v-835h230v-113h-232q-125 0 -125 117v831h-534v-948h-127v948h-211v111h211v319q0 115 135 115h268v-111h-276v-323h534v358h127v-358h228v-111h-228z" />
    <glyph glyph-name="t_i" unicode="ti" horiz-adv-x="1187" 
d="M864 1262v208h127v-208h-127zM354 1059h637v-1059h-127v948h-510v-835h228v-113h-230q-63 0 -93.5 27t-31.5 94v827h-196v111h196v358h127v-358z" />
    <glyph glyph-name="t_t" unicode="tt" horiz-adv-x="1304" 
d="M987 948v-835h225v-113h-229q-63 0 -93.5 27t-31.5 94v827h-502v-835h226v-113h-230q-63 0 -93.5 27t-31.5 94v827h-196v111h196v358h129v-358h502v358h129v-358h223v-111h-223z" />
    <glyph glyph-name="t_t_i" unicode="tti" horiz-adv-x="1812" 
d="M1489 1262v208h127v-208h-127zM987 1059h629v-1059h-127v948h-502v-835h225v-113h-229q-63 0 -93.5 27t-31.5 94v827h-502v-835h226v-113h-230q-63 0 -93.5 27t-31.5 94v827h-196v111h196v358h129v-358h502v358h129v-358z" />
    <glyph glyph-name=".notdef" horiz-adv-x="1318" 
d="M1319 0h-1319v1493h1319v-1493zM129 1364v-1237h1061v1237h-1061zM1061 256h-803v979h803v-979zM387 1106v-719h545v719h-545zM516 516v461h287v-461h-287z" />
    <glyph glyph-name=".null" horiz-adv-x="0" 
 />
    <glyph glyph-name="nonmarkingreturn" horiz-adv-x="682" 
 />
    <glyph glyph-name="CR.001" unicode="&#xd;" horiz-adv-x="526" 
 />
    <glyph glyph-name="space" unicode=" " horiz-adv-x="491" 
 />
    <glyph glyph-name="exclam" unicode="!" horiz-adv-x="557" 
d="M309 440h-59l-35 633v420h129v-420zM356 0h-155v145h155v-145z" />
    <glyph glyph-name="quotedbl" unicode="&#x22;" horiz-adv-x="616" 
d="M227 1245l-37 -311h-53l-37 311v248h127v-248zM518 1245l-37 -311h-53l-37 311v248h127v-248z" />
    <glyph glyph-name="numbersign" unicode="#" horiz-adv-x="1484" 
d="M1350 1100v-107h-240v-442h240v-107h-240v-444h-113v444h-505v-444h-115v444h-240v107h240v442h-240v107h240v436h115v-436h505v436h113v-436h240zM492 551h505v442h-505v-442z" />
    <glyph glyph-name="dollar" unicode="$" horiz-adv-x="1120" 
d="M993 461q0 -150 -104 -245t-283 -107v-201h-114v201q-184 17 -286 121t-102 270h129q0 -140 84 -215.5t238 -75.5q146 0 226.5 65t80.5 181q0 166 -219 225l-188 47q-312 77 -312 324q0 137 94.5 228.5t254.5 104.5v201h114v-201q164 -19 260 -112t97 -248h-127
q-5 119 -83.5 189.5t-213.5 70.5q-124 0 -195.5 -62t-71.5 -165q0 -88 57 -139.5t179 -81.5l186 -50q299 -77 299 -325z" />
    <glyph glyph-name="percent" unicode="%" horiz-adv-x="1839" 
d="M127 1141q0 166 98 267t258 101q161 0 260 -101t99 -267q0 -167 -99 -270t-260 -103q-160 0 -258 103t-98 270zM537 0h-146l944 1493h146zM252 1141q0 -119 64 -193t167 -74q104 0 169 74t65 193q0 117 -65 190.5t-169 73.5q-103 0 -167 -73.5t-64 -190.5zM995 352
q0 166 99.5 268.5t259.5 102.5q159 0 256.5 -102.5t97.5 -268.5q0 -167 -97 -269.5t-257 -102.5q-161 0 -260 102.5t-99 269.5zM1120 352q0 -118 65.5 -192t168.5 -74t167 74t64 192q0 117 -64.5 191.5t-166.5 74.5q-104 0 -169 -74.5t-65 -191.5z" />
    <glyph glyph-name="ampersand" unicode="&#x26;" horiz-adv-x="1298" 
d="M1268 0h-693q-481 0 -481 397q0 140 67 240t183 137v14q-105 37 -164 124.5t-59 203.5q0 186 121 289.5t327 103.5q89 0 172 -18v-109q-77 23 -166 23q-159 0 -242 -66.5t-83 -185.5v-80q0 -121 90 -180q86 -57 217 -57h352v245h125v-245h234v-109h-234v-614h234v-113z
M561 113h348v614h-374q-152 0 -232 -72t-80 -202v-86q0 -254 338 -254z" />
    <glyph glyph-name="quotesingle" unicode="'" horiz-adv-x="325" 
d="M227 1245l-37 -311h-53l-37 311v248h127v-248z" />
    <glyph glyph-name="parenleft" unicode="(" horiz-adv-x="843" 
d="M184 651q0 272 127 529q129 255 340 393h111q-210 -138 -334 -389q-127 -257 -127 -533q0 -273 127 -530q123 -249 334 -391h-111q-212 138 -340 391q-127 257 -127 530z" />
    <glyph glyph-name="parenright" unicode=")" horiz-adv-x="843" 
d="M662 651q0 -275 -130 -532q-126 -251 -337 -389h-111q208 139 332 391q127 257 127 530q0 279 -127 533q-125 253 -332 389h111q211 -138 337 -393q130 -257 130 -529z" />
    <glyph glyph-name="asterisk" unicode="*" horiz-adv-x="704" 
d="M131 1018l-47 76l221 106l-221 107l47 79l199 -143l-23 250h88l-20 -252l200 145l46 -79l-222 -107l222 -106l-46 -76l-200 143l20 -252h-88l23 252z" />
    <glyph glyph-name="plus" unicode="+" horiz-adv-x="1341" 
d="M1145 600h-414v-455h-123v455h-413v115h413v428h123v-428h414v-115z" />
    <glyph glyph-name="comma" unicode="," horiz-adv-x="395" 
d="M88 -274v77q74 0 101.5 35.5t27.5 102.5v59h-115v223h203v-293q0 -93 -59 -148.5t-158 -55.5z" />
    <glyph glyph-name="hyphen" unicode="-" horiz-adv-x="935" 
d="M807 565h-678v101h678v-101z" />
    <glyph glyph-name="period" unicode="." horiz-adv-x="483" 
d="M344 0h-205v229h205v-229z" />
    <glyph glyph-name="slash" unicode="/" horiz-adv-x="874" 
d="M193 0h-117l608 1493h115z" />
    <glyph glyph-name="zero" unicode="0" horiz-adv-x="1275" 
d="M268 164q-121 189 -121 573q0 386 121 572q119 186 371 186q249 0 369 -184q120 -185 120 -574t-120 -573t-369 -184q-251 0 -371 184zM295 956v-438q0 -203 92.5 -311.5t249.5 -108.5t250.5 110t93.5 310v438q0 200 -93.5 310t-250.5 110t-249.5 -108.5t-92.5 -311.5z
" />
    <glyph glyph-name="one" unicode="1" horiz-adv-x="937" 
d="M483 1124h-366v103h55q143 0 231.5 69t88.5 181h118v-1477h-127v1124z" />
    <glyph glyph-name="two" unicode="2" horiz-adv-x="1212" 
d="M549 119h522v-119h-936v100l594 629q166 175 166 293v92q0 117 -96 189q-95 71 -230 71q-149 0 -240 -88t-91 -231v-33h-129q-3 217 124 344q129 129 342 129q206 0 332 -117q129 -114 129 -305q0 -61 -14 -119q-23 -84 -64 -145q-9 -12 -17.5 -26t-16 -24t-21.5 -26
l-29 -31q-1 -1 -28 -32l-25 -27l-497 -528q192 4 225 4z" />
    <glyph glyph-name="three" unicode="3" horiz-adv-x="1202" 
d="M135 414v32h141v-24q0 -156 82.5 -240t235.5 -84q146 0 236 71.5t90 188.5v86q0 127 -92.5 194t-256.5 67h-82v120h86q148 0 233 69.5t85 188.5v47q0 111 -79.5 177.5t-205.5 66.5q-146 0 -229.5 -86t-83.5 -233v-23h-129v23q0 196 121 317q120 123 323 123
q190 0 306 -105.5t116 -277.5q0 -236 -225 -338v-12q127 -46 190.5 -142t63.5 -223q0 -189 -129 -303q-126 -114 -336 -114q-212 0 -336 118q-125 119 -125 316z" />
    <glyph glyph-name="four" unicode="4" horiz-adv-x="1234" 
d="M948 1477v-1031h189v-114h-189v-332h-129v332h-741v125l657 1020h213zM819 1393l-602 -947h602v947z" />
    <glyph glyph-name="five" unicode="5" horiz-adv-x="1230" 
d="M119 446h133q-5 -155 91 -251.5t265 -96.5q157 0 260 92q101 91 101 234v133q0 148 -101 240t-262 92q-120 0 -211.5 -55t-124.5 -142h-129l33 785h875v-117h-756l-25 -516l6 -2q109 157 357 157q219 0 348 -135q131 -134 131 -364q0 -237 -139 -379q-138 -141 -369 -141
q-224 0 -356 126q-130 127 -127 340z" />
    <glyph glyph-name="six" unicode="6" horiz-adv-x="1243" 
d="M125 721q0 774 545 774q197 0 316 -97t138 -270h-137q-13 124 -97.5 186t-223.5 62q-223 0 -319 -166.5t-85 -494.5h8q114 252 422 252q208 0 330.5 -129t122.5 -355q0 -229 -131 -366t-361 -137q-150 0 -257 56.5t-165 162.5q-106 197 -106 522zM309 530v-122
q0 -136 101 -224q103 -86 245 -86q146 0 246 86q100 84 100 224v122q0 158 -98 240q-101 84 -239 84q-148 0 -252 -90q-103 -89 -103 -234z" />
    <glyph glyph-name="seven" unicode="7" horiz-adv-x="1110" 
d="M186 1079h-116v398h977v-91q-215 -296 -383 -671q-170 -378 -234 -715h-141q63 327 223 688q165 373 373 672h-699v-281z" />
    <glyph glyph-name="eight" unicode="8" horiz-adv-x="1202" 
d="M100 377q0 124 67.5 222t172.5 130v16q-109 37 -174.5 133t-65.5 218q0 180 138 288q138 111 364 111q223 0 361 -111q137 -107 137 -284q0 -122 -67.5 -220t-172.5 -135v-16q108 -32 174 -129.5t66 -222.5q0 -177 -139 -289q-138 -108 -363 -108q-222 0 -360 108
q-138 111 -138 289zM963 1047v61q0 126 -98 197t-265 71t-264.5 -71t-97.5 -197v-61q0 -123 96 -188.5t266 -65.5t266.5 65.5t96.5 188.5zM963 367v61q0 123 -96.5 188.5t-266.5 65.5t-266 -65.5t-96 -188.5v-61q0 -126 97.5 -197.5t264.5 -71.5t265 71.5t98 197.5z" />
    <glyph glyph-name="nine" unicode="9" horiz-adv-x="1243" 
d="M1145 754q0 -774 -545 -774q-197 0 -316.5 97t-138.5 269h138q13 -124 97.5 -186t223.5 -62q223 0 319 167t85 495h-9q-114 -252 -421 -252q-208 0 -330.5 128.5t-122.5 354.5q0 228 131 365q133 139 360 139q150 0 257 -57t165 -164q107 -196 107 -520zM961 944v123
q0 136 -101 221q-101 88 -246 88q-144 0 -247 -86q-99 -86 -99 -223v-123q0 -160 99 -242q97 -81 239 -81q151 0 252 88q103 89 103 235z" />
    <glyph glyph-name="colon" unicode=":" horiz-adv-x="552" 
d="M389 856h-205v203h205v-203zM389 0h-205v201h205v-201z" />
    <glyph glyph-name="semicolon" unicode=";" horiz-adv-x="483" 
d="M309 856h-203v203h203v-203zM92 -246v70q73 0 101 31.5t28 91.5v53h-115v201h203v-264q0 -84 -59 -133.5t-158 -49.5z" />
    <glyph glyph-name="less" unicode="&#x3c;" horiz-adv-x="1157" 
d="M963 242v-156l-777 461v106l777 424v-162l-299 -145l-334 -166v-14l334 -180z" />
    <glyph glyph-name="equal" unicode="=" horiz-adv-x="1130" 
d="M942 748h-752v133h752v-133zM942 336h-752v131h752v-131z" />
    <glyph glyph-name="greater" unicode="&#x3e;" horiz-adv-x="1157" 
d="M971 547l-776 -461v156l299 168l335 180v14l-634 311v162l776 -424v-106z" />
    <glyph glyph-name="question" unicode="?" horiz-adv-x="1177" 
d="M532 391h-124v408q93 -13 137 -13q167 0 263.5 82t96.5 224q0 140 -90 219.5t-244 79.5q-151 0 -237 -75.5t-92 -207.5h-129q6 184 131.5 292.5t330.5 108.5q210 0 336 -114q127 -115 127 -303q0 -201 -139 -316t-367 -106v-279zM569 0h-202v197h202v-197z" />
    <glyph glyph-name="at" unicode="@" horiz-adv-x="1849" 
d="M1563 -86h-1276v1315h1276v-971h-342q-65 0 -100.5 31.5t-35.5 83.5v16h-12q-20 -55 -80 -88t-141 -33q-123 0 -190.5 83t-67.5 227q0 152 69 229.5t203 77.5q77 0 136.5 -34.5t84.5 -92.5h7v112h98v-497h248v733h-1030v-1069h1153v-123zM1051 532v89q0 72 -44.5 113.5
t-119.5 41.5q-74 0 -116 -40.5t-42 -110.5v-95q0 -72 43.5 -113.5t118.5 -41.5t117.5 42.5t42.5 114.5z" />
    <glyph glyph-name="A" unicode="A" horiz-adv-x="1329" 
d="M1315 0h-144l-147 385h-723l-147 -385h-142l576 1493h151zM455 788l-109 -286h633l-109 286l-202 574h-9z" />
    <glyph glyph-name="B" unicode="B" horiz-adv-x="1460" 
d="M889 0h-664v1493h682q195 0 295.5 -99t100.5 -280q0 -119 -57 -209.5t-159 -128.5v-16q252 -64 252 -369q0 -181 -119 -286t-331 -105zM358 1368v-547h560q113 0 180 59.5t67 161.5v111q0 100 -65 157.5t-185 57.5h-557zM358 696v-571h539q135 0 218 60.5t83 160.5v121
q0 108 -71 168.5t-193 60.5h-576z" />
    <glyph glyph-name="C" unicode="C" horiz-adv-x="1536" 
d="M768 -20q-315 0 -491.5 200t-176.5 565t177.5 566.5t506.5 201.5q266 0 437 -139q165 -135 200 -370h-137q-33 179 -163.5 280.5t-338.5 101.5q-247 0 -393 -143q-147 -141 -147 -385v-240q0 -226 147 -370q150 -144 385 -144q196 0 332.5 103t177.5 280h137
q-40 -233 -215 -370q-174 -137 -438 -137z" />
    <glyph glyph-name="D" unicode="D" horiz-adv-x="1525" 
d="M817 0h-592v1493h592q323 0 465.5 -184t142.5 -564q0 -379 -142.5 -562t-465.5 -183zM358 1364v-1235h459q236 0 351.5 119.5t115.5 376.5v241q0 257 -115.5 377.5t-351.5 120.5h-459z" />
    <glyph glyph-name="E" unicode="E" horiz-adv-x="1323" 
d="M1194 0h-969v1493h969v-129h-836v-535h740v-122h-740v-578h836v-129z" />
    <glyph glyph-name="F" unicode="F" horiz-adv-x="1247" 
d="M358 0h-133v1493h946v-129h-813v-629h732v-125h-732v-610z" />
    <glyph glyph-name="G" unicode="G" horiz-adv-x="1640" 
d="M100 735q0 366 191 572q189 204 502 204q241 0 409 -125q171 -124 211 -323h-139q-27 144 -160 233q-134 90 -317 90q-244 0 -400 -147q-155 -146 -155 -387v-234q0 -228 147 -372q149 -146 383 -146q237 0 383 152q148 154 148 403h-576v125h731v-780h-110l-21 283h-14
q-80 -150 -224 -226.5t-331 -76.5q-310 0 -484 204t-174 551z" />
    <glyph glyph-name="H" unicode="H" horiz-adv-x="1638" 
d="M358 0h-133v1493h133v-666h922v666h133v-1493h-133v705h-922v-705z" />
    <glyph glyph-name="I" unicode="I" horiz-adv-x="583" 
d="M358 1493v-1493h-133v1493h133z" />
    <glyph glyph-name="J" unicode="J" horiz-adv-x="786" 
d="M442 125v1368h129v-1372q0 -121 -122 -121h-416v125h409z" />
    <glyph glyph-name="K" unicode="K" horiz-adv-x="1335" 
d="M1327 0h-156l-495 737l-318 -381v-356h-133v1493h133v-958l795 958h154l-545 -651z" />
    <glyph glyph-name="L" unicode="L" horiz-adv-x="1169" 
d="M1098 0h-873v1493h133v-1368h740v-125z" />
    <glyph glyph-name="M" unicode="M" horiz-adv-x="1859" 
d="M358 0h-133v1493h191l508 -1167h10l512 1167h188v-1493h-133v872l17 449h-13l-575 -1292l-576 1292h-12l16 -449v-872z" />
    <glyph glyph-name="N" unicode="N" horiz-adv-x="1617" 
d="M358 0h-133v1493h176l863 -1341h8l-12 460v881h133v-1493h-179l-858 1346h-8l10 -445v-901z" />
    <glyph glyph-name="O" unicode="O" horiz-adv-x="1576" 
d="M279 178q-179 200 -179 567q0 366 179 566q182 200 509 200q329 0 508 -200q181 -199 181 -566q0 -368 -181 -567q-177 -198 -508 -198q-329 0 -509 198zM242 852v-209q0 -253 147 -397q151 -142 399 -142q256 0 401.5 145.5t145.5 393.5v209q0 253 -149 393
q-147 141 -398 141q-256 0 -401 -143t-145 -391z" />
    <glyph glyph-name="P" unicode="P" horiz-adv-x="1374" 
d="M358 0h-133v1493h629q225 0 340 -120t115 -339q0 -226 -116.5 -346.5t-338.5 -120.5h-496v-567zM358 1364v-674h502q145 0 226 71.5t81 194.5v164q0 115 -75 179.5t-203 64.5h-531z" />
    <glyph glyph-name="Q" unicode="Q" horiz-adv-x="1576" 
d="M1477 745q0 -355 -166 -552t-475 -211v-265h297v-106h-306q-66 0 -94 28.5t-28 90.5v254q-291 25 -448 222t-157 539q0 367 179 566.5t509 199.5t509.5 -199.5t179.5 -566.5zM242 852v-209q0 -253 147 -397q151 -142 399 -142q256 0 401.5 145.5t145.5 393.5v209
q0 253 -149 393q-147 141 -398 141q-256 0 -401 -143t-145 -391z" />
    <glyph glyph-name="R" unicode="R" horiz-adv-x="1527" 
d="M358 0h-133v1493h695q213 0 319.5 -114.5t106.5 -331.5q0 -130 -56 -225t-153 -130v-12h90q70 0 97.5 -32t27.5 -101v-547h-133v594h-861v-594zM358 1370v-653h547q140 0 219.5 68.5t79.5 185.5v147q0 123 -78.5 187.5t-220.5 64.5h-547z" />
    <glyph glyph-name="S" unicode="S" horiz-adv-x="1370" 
d="M115 459h137q4 -180 119.5 -273.5t316.5 -93.5q186 0 295 82.5t109 228.5q0 57 -20 105.5t-48 75.5q-22 25 -68 47q-52 26 -118 41l-275 63l-94 23q-24 6 -102 41q-67 30 -107 67q-43 41 -72.5 107.5t-29.5 142.5q0 184 137 291q135 106 367 106q237 0 376 -112
q145 -115 148 -316h-135q-7 152 -109.5 234t-277.5 82q-170 0 -268.5 -74.5t-98.5 -200.5q0 -131 106 -192q47 -27 84 -40t97 -26l293 -65q356 -79 356 -389q0 -204 -152 -320q-150 -114 -399 -114q-283 0 -426 137q-144 138 -141 342z" />
    <glyph glyph-name="T" unicode="T" horiz-adv-x="1122" 
d="M10 1493h1102v-125h-481v-1368h-133v1368h-488v125z" />
    <glyph glyph-name="U" unicode="U" horiz-adv-x="1589" 
d="M213 547v946h131v-932q0 -212 121 -332t330 -120q208 0 329 120t121 332v932h131v-946q0 -259 -155 -414q-156 -153 -426 -153t-426 153q-156 156 -156 414z" />
    <glyph glyph-name="V" unicode="V" horiz-adv-x="1292" 
d="M735 0h-178l-541 1493h144l268 -748l211 -630h12l213 628l273 750h139z" />
    <glyph glyph-name="W" unicode="W" horiz-adv-x="1853" 
d="M332 0l-305 1493h139l190 -938l72 -405h12l389 1343h195l389 -1343h12l72 405l191 938h139l-305 -1493h-191l-399 1374h-10l-400 -1374h-190z" />
    <glyph glyph-name="X" unicode="X" horiz-adv-x="1202" 
d="M174 0h-147l493 760l-465 733h146l207 -324l196 -325h12l218 344l196 305h146l-484 -743l477 -750h-145l-195 299l-219 350h-12l-238 -370z" />
    <glyph glyph-name="Y" unicode="Y" horiz-adv-x="1282" 
d="M575 616l-561 877h164l258 -414l199 -329h14l201 333l252 410h166l-559 -877v-616h-134v616z" />
    <glyph glyph-name="Z" unicode="Z" horiz-adv-x="1284" 
d="M94 1493h1096v-107l-918 -1257h910v-129h-1088v106l920 1258h-920v129z" />
    <glyph glyph-name="bracketleft" unicode="[" horiz-adv-x="649" 
d="M598 -428h-350v2021h350v-104h-236v-1817h236v-100z" />
    <glyph glyph-name="backslash" unicode="\" horiz-adv-x="882" 
d="M190 1493l609 -1493h-117l-606 1493h114z" />
    <glyph glyph-name="bracketright" unicode="]" horiz-adv-x="649" 
d="M401 -428h-350v100h236v1817h-236v104h350v-2021z" />
    <glyph glyph-name="asciicircum" unicode="^" horiz-adv-x="698" 
d="M672 973h-125l-199 391l-196 -391h-125l270 520h106z" />
    <glyph glyph-name="underscore" unicode="_" horiz-adv-x="686" 
d="M690 -133h-694v133h694v-133z" />
    <glyph glyph-name="grave" unicode="`" horiz-adv-x="903" 
d="M653 1554l-45 -67l-342 215l58 86z" />
    <glyph glyph-name="a" unicode="a" horiz-adv-x="1159" 
d="M102 303q0 155 102 240.5t283 85.5h332v88q0 256 -268 256q-129 0 -201 -58t-78 -163h-127q8 152 118 239.5t294 87.5q104 0 184.5 -31.5t120.5 -78.5q37 -43 58 -105q8 -19 13 -36.5t7.5 -27.5t4 -25t1.5 -19.5v-20.5v-20v-615h168v-100h-166q-66 0 -93.5 28.5
t-27.5 90.5v61h-12q-37 -92 -137.5 -146t-235.5 -54q-159 0 -249.5 87t-90.5 236zM236 348v-74q0 -89 59 -136.5t164 -47.5q164 0 262 102t98 265v63h-332q-117 0 -184 -46.5t-67 -125.5z" />
    <glyph glyph-name="b" unicode="b" 
d="M319 0h-122v1493h129v-641h12q44 102 148 164.5t229 62.5q223 0 338.5 -146t115.5 -409q0 -264 -121 -404t-348 -140q-118 0 -216.5 55.5t-145.5 148.5h-12zM326 602v-156q0 -150 106 -253q109 -103 268 -103q153 0 244.5 86.5t91.5 229.5v237q0 148 -91 236t-245 88
q-160 0 -268 -105q-106 -100 -106 -260z" />
    <glyph glyph-name="c" unicode="c" horiz-adv-x="1150" 
d="M928 350h129q-29 -171 -152.5 -270.5t-308.5 -99.5q-232 0 -363 149t-131 399q0 260 138 404q138 147 362 147q177 0 298.5 -95.5t150.5 -256.5h-129q-32 119 -117 179.5t-209 60.5q-158 0 -260 -105q-100 -103 -100 -266v-154q0 -158 98 -256q104 -96 262 -96
q131 0 220 69.5t112 190.5z" />
    <glyph glyph-name="d" unicode="d" 
d="M547 -20q-211 0 -328 141.5t-117 398.5q0 258 117 399.5t328 141.5q276 0 387 -205h12v637h129v-1493h-119l-10 184h-12q-110 -204 -387 -204zM571 90q166 0 270.5 98.5t104.5 257.5v148q0 159 -104.5 257.5t-270.5 98.5q-153 0 -244 -86t-91 -229v-229q0 -143 91 -229.5
t244 -86.5z" />
    <glyph glyph-name="e" unicode="e" horiz-adv-x="1157" 
d="M590 1079q209 0 336 -127q125 -125 125 -346q0 -48 -7 -102h-808v-62q0 -160 98 -256t262 -96q123 0 211.5 61t118.5 162h129q-35 -151 -162 -241q-127 -92 -303 -92q-226 0 -357 149t-131 406q0 256 130 400t358 144zM236 643v-33h686v47q0 140 -91.5 226t-240.5 86
q-158 0 -256 -90t-98 -236z" />
    <glyph glyph-name="f" unicode="f" horiz-adv-x="679" 
d="M647 1382h-276v-323h235v-111h-235v-948h-127v948h-211v111h211v319q0 115 135 115h268v-111z" />
    <glyph glyph-name="g" unicode="g" horiz-adv-x="1069" 
d="M416 188h297q143 0 225 -67t82 -184q0 -146 -128 -222.5t-362 -76.5q-217 0 -330.5 67.5t-113.5 188.5q0 162 164 215v12q-45 18 -72.5 55t-27.5 84q0 60 37.5 107.5t97.5 60.5v12q-152 96 -152 287q0 160 107 254q107 98 278 98q116 0 195 -39v33q0 111 123 111h178
v-111h-203v-104q92 -95 92 -246q0 -159 -106 -252q-107 -96 -269 -96q-72 0 -149 18q-51 -6 -81 -35t-30 -71q0 -99 148 -99zM262 766v-82q0 -94 70.5 -152.5t185.5 -58.5t185.5 58.5t70.5 152.5v82q0 97 -70 155t-186 58t-186 -58t-70 -155zM537 -260q356 0 356 188
q0 146 -182 146h-310q-95 0 -144.5 -42t-49.5 -116q0 -91 80.5 -133.5t249.5 -42.5z" />
    <glyph glyph-name="h" unicode="h" horiz-adv-x="1247" 
d="M326 0h-129v1493h129v-629h12q50 100 146 157.5t214 57.5q168 0 268.5 -113t100.5 -307v-659h-129v647q0 320 -270 320q-154 0 -248 -112t-94 -296v-559z" />
    <glyph glyph-name="i" unicode="i" horiz-adv-x="520" 
d="M324 1284h-127v209h127v-209zM324 0h-127v1059h127v-1059z" />
    <glyph glyph-name="j" unicode="j" horiz-adv-x="544" 
d="M221 1284v209h127v-209h-127zM221 -233v1292h127v-1280q0 -121 -123 -121h-243v109h239z" />
    <glyph glyph-name="k" unicode="k" horiz-adv-x="1105" 
d="M1051 0h-150l-375 555l-200 -201v-354h-129v1493h129v-977l534 543h170l-414 -414z" />
    <glyph glyph-name="l" unicode="l" horiz-adv-x="520" 
d="M324 0h-127v1493h127v-1493z" />
    <glyph glyph-name="m" unicode="m" horiz-adv-x="1890" 
d="M326 0h-129v1059h110l19 -199h14q95 219 336 219q116 0 200 -65t111 -170h14q94 235 355 235q166 0 260 -107t94 -302v-670h-129v651q0 316 -258 316q-142 0 -222.5 -112t-80.5 -304v-551h-129v643q0 324 -252 324q-141 0 -227 -113.5t-86 -302.5v-551z" />
    <glyph glyph-name="n" unicode="n" horiz-adv-x="1249" 
d="M326 0h-129v1059h112l19 -199h12q49 103 145 161t215 58q170 0 269.5 -113.5t99.5 -308.5v-657h-129v645q0 311 -270 311q-157 0 -250 -112q-94 -110 -94 -291v-553z" />
    <glyph glyph-name="o" unicode="o" horiz-adv-x="1204" 
d="M102 528q0 260 138 404q138 147 362 147q225 0 363 -147q137 -143 137 -404q0 -248 -133 -399q-131 -149 -367 -149q-238 0 -369 149t-131 399zM236 606v-164q0 -166 104 -260q109 -92 262 -92q154 0 260 92q107 94 107 260v164q0 158 -105 260q-104 101 -262 101
t-262 -101t-104 -260z" />
    <glyph glyph-name="p" unicode="p" 
d="M326 -342h-129v1401h118l11 -185h12q111 205 387 205q211 0 327.5 -141t116.5 -399t-116.5 -399.5t-327.5 -141.5q-276 0 -387 205h-12v-545zM700 109q153 0 244.5 86t91.5 229v229q0 143 -91.5 229.5t-244.5 86.5q-166 0 -270 -99t-104 -258v-147q0 -159 104 -257.5
t270 -98.5z" />
    <glyph glyph-name="q" unicode="q" 
d="M952 1059h123v-1401h-129v549h-12q-44 -102 -148 -164.5t-229 -62.5q-223 0 -339 146t-116 409q0 264 121 404t348 140q117 0 216.5 -56t146.5 -149h12zM946 457v155q0 150 -108 252q-108 105 -267 105q-153 0 -244 -86.5t-91 -229.5v-237q0 -148 90.5 -236t244.5 -88
q160 0 269 103q106 103 106 262z" />
    <glyph glyph-name="r" unicode="r" horiz-adv-x="722" 
d="M322 1059h370v-111h-366v-948h-129v940q0 119 125 119z" />
    <glyph glyph-name="s" unicode="s" horiz-adv-x="1013" 
d="M94 317h129q0 -105 78 -167t211 -62q125 0 197.5 54.5t72.5 148.5q0 137 -153 164l-240 47q-272 52 -272 270q0 142 104 224.5t281 82.5q182 0 285.5 -86t105.5 -233h-129q-9 213 -260 213q-122 0 -189 -50t-67 -137q0 -135 182 -170l219 -41q271 -53 271 -280
q0 -146 -110.5 -230.5t-295.5 -84.5q-194 0 -307 91.5t-113 245.5z" />
    <glyph glyph-name="t" unicode="t" horiz-adv-x="673" 
d="M352 948v-835h230v-113h-232q-125 0 -125 117v831h-194v111h194v358h127v-358h228v-111h-228z" />
    <glyph glyph-name="u" unicode="u" horiz-adv-x="1234" 
d="M909 1059h129v-1059h-106l-21 197h-14q-43 -97 -143 -157t-224 -60q-162 0 -256 104.5t-94 294.5v680h129v-666q0 -301 254 -301q158 0 252 113t94 301v553z" />
    <glyph glyph-name="v" unicode="v" horiz-adv-x="937" 
d="M399 0l-395 1059h146l210 -608l107 -299h12l101 299l211 608h143l-387 -1059h-148z" />
    <glyph glyph-name="w" unicode="w" horiz-adv-x="1486" 
d="M1157 444l162 615h145l-305 -1059h-178l-154 580l-77 325h-13l-73 -325l-146 -580h-184l-311 1059h151l168 -608l74 -324h10l236 932h167l248 -926h8z" />
    <glyph glyph-name="x" unicode="x" horiz-adv-x="899" 
d="M152 0h-144l359 537l-355 522h150l280 -428h13l274 428h148l-347 -520l361 -539h-150l-286 442h-13z" />
    <glyph glyph-name="y" unicode="y" horiz-adv-x="1024" 
d="M449 121l-445 938h148l161 -357l191 -432h12l358 789h146l-445 -942v-338q0 -121 -116 -121h-266v111h256v352z" />
    <glyph glyph-name="z" unicode="z" horiz-adv-x="868" 
d="M819 952l-624 -841h630v-111h-782v100l625 848h-625v111h776v-107z" />
    <glyph glyph-name="braceleft" unicode="{" horiz-adv-x="575" 
d="M47 535v118q131 0 131 150v661q0 129 125 129h223v-104h-231v-682q0 -91 -41.5 -147.5t-103.5 -61.5v-6q62 -6 103.5 -64t41.5 -147v-709h231v-100h-223q-125 0 -125 127v686q0 75 -35.5 112.5t-95.5 37.5z" />
    <glyph glyph-name="bar" unicode="|" horiz-adv-x="630" 
d="M379 -55h-127v1597h127v-1597z" />
    <glyph glyph-name="braceright" unicode="}" horiz-adv-x="575" 
d="M530 653v-118q-60 0 -96.5 -37.5t-36.5 -112.5v-686q0 -127 -125 -127h-221v100h230v709q0 89 42 147t105 64v6q-62 5 -104.5 61.5t-42.5 147.5v682h-230v104h221q125 0 125 -129v-661q0 -150 133 -150z" />
    <glyph glyph-name="asciitilde" unicode="~" horiz-adv-x="712" 
d="M135 592h-88q-10 119 34.5 173t119.5 54q56 0 159 -47q99 -45 146 -45q88 0 88 123h88q10 -123 -40.5 -181.5t-135.5 -58.5q-67 0 -166 45q-103 47 -137 47q-74 0 -68 -110z" />
    <glyph glyph-name="uni00A0" unicode="&#xa0;" horiz-adv-x="491" 
 />
    <glyph glyph-name="exclamdown" unicode="&#xa1;" horiz-adv-x="557" 
d="M201 1346v147h155v-147h-155zM215 420l35 633h59l35 -633v-420h-129v420z" />
    <glyph glyph-name="cent" unicode="&#xa2;" horiz-adv-x="1122" 
d="M901 573h129q-26 -150 -132.5 -245.5t-266.5 -108.5v-158h-115v158q-192 20 -299.5 157.5t-107.5 364.5q0 229 109 367t298 162v162h115v-160q157 -12 261 -102t130 -234h-127q-30 109 -113 166t-202 57q-154 0 -245 -91t-91 -249v-155q0 -153 89.5 -242.5t244.5 -89.5
q129 0 214.5 64t108.5 177z" />
    <glyph glyph-name="sterling" unicode="&#xa3;" horiz-adv-x="1304" 
d="M1051 125v367h123v-492h-1049v125h151v555h-151v115h151v292q0 193 112.5 308.5t303.5 115.5q171 0 282 -88t130 -235h-125q-13 91 -96 149t-193 58q-131 0 -210 -83.5t-79 -224.5v-292h482v-115h-482v-555h650z" />
    <glyph glyph-name="currency" unicode="&#xa4;" horiz-adv-x="1404" 
d="M319 203l-100 90l148 129q-91 123 -91 268q3 150 91 266l-146 125l94 95l121 -144q112 87 266 84t261 -88l122 150l95 -97l-142 -125q90 -119 90 -268q3 -147 -88 -264l144 -129l-99 -92l-120 145q-113 -91 -260 -94q-146 -3 -267 92zM702 369q130 3 216 92q88 88 88 229
q0 138 -88 223q-85 88 -220 88q-131 0 -216.5 -83t-86.5 -226q-3 -146 86 -235q91 -91 221 -88z" />
    <glyph glyph-name="yen" unicode="&#xa5;" horiz-adv-x="1183" 
d="M1026 1493h143l-444 -793h246v-116h-312v-144h312v-116h-312v-324h-133v324h-313v116h313v144h-313v116h248l-447 793h146l243 -438l185 -348h12l184 348z" />
    <glyph glyph-name="brokenbar" unicode="&#xa6;" horiz-adv-x="630" 
d="M379 956h-127v586h127v-586zM379 -53h-127v585h127v-585z" />
    <glyph glyph-name="section" unicode="&#xa7;" horiz-adv-x="997" 
d="M104 776q0 136 115 207v21q-90 78 -90 198q0 129 102 209t269 80q171 0 279 -83.5t116 -217.5h-131q-10 84 -86.5 132t-196.5 48q-217 0 -217 -166q0 -92 72 -143q46 -30 125 -66l233 -96q209 -83 209 -260q0 -140 -115 -205v-20q91 -76 91 -189q0 -138 -98.5 -214.5
t-270.5 -76.5q-174 0 -282.5 81t-118.5 221h131q11 -85 86 -135t196 -50q217 0 217 168q0 74 -41 115t-141 82l-219 90q-77 34 -143 82q-91 69 -91 188zM229 815q0 -119 158 -190l250 -105q75 -36 86 -43q49 46 49 123q0 92 -53 133q-24 21 -40 30t-50 23l-248 111l-27 11
q-26 11 -67 32q-58 -46 -58 -125z" />
    <glyph glyph-name="dieresis" unicode="&#xa8;" horiz-adv-x="776" 
d="M262 1520h-127v209h127v-209zM639 1520h-127v209h127v-209z" />
    <glyph glyph-name="copyright" unicode="&#xa9;" horiz-adv-x="1908" 
d="M954 -100q-351 0 -594 231q-241 232 -241 600q0 366 241 598q243 234 596 234q349 0 592 -234q242 -230 242 -594q2 -179 -65 -337.5t-180.5 -268t-268 -171.5t-322.5 -58zM1729 735q0 339 -226 557q-224 217 -547 217t-553 -219q-225 -218 -225 -559q0 -342 225 -559
q224 -217 549 -217q322 0 549 219q228 218 228 561zM963 291q-191 0 -316 119q-123 120 -123 321q0 199 123 322q126 123 320 123q164 0 282 -95q116 -91 137 -245h-131q-13 104 -94.5 167.5t-197.5 63.5q-141 0 -223.5 -90.5t-82.5 -241.5q0 -156 83.5 -245t222.5 -89
q115 0 194.5 64.5t97.5 165.5h131q-18 -146 -137 -244q-119 -96 -286 -96z" />
    <glyph glyph-name="ordfeminine" unicode="&#xaa;" horiz-adv-x="864" 
d="M705 1208v-381h75v-90h-71q-109 0 -109 103v34h-10q-62 -147 -246 -147q-111 0 -180.5 63.5t-69.5 167.5q0 109 77.5 169.5t209.5 60.5h215v37q0 172 -190 172q-161 0 -191 -117h-106q13 98 97.5 155.5t207.5 57.5q142 0 216.5 -74t74.5 -211zM596 1057v45h-205
q-184 0 -184 -144q0 -65 42.5 -100t115.5 -35q103 0 167 66.5t64 167.5z" />
    <glyph glyph-name="guillemotleft" unicode="&#xab;" horiz-adv-x="1048" 
d="M444 139l-249 422l249 418h119l-225 -418l225 -422h-119zM799 139l-250 422l250 418h121l-228 -418l228 -422h-121z" />
    <glyph glyph-name="logicalnot" unicode="&#xac;" horiz-adv-x="1349" 
d="M1167 319h-137v367h-835v131h972v-498z" />
    <glyph glyph-name="registered" unicode="&#xae;" horiz-adv-x="1263" 
d="M631 436q-230 0 -385 152q-152 152 -152 387q0 233 152 385q154 151 385 151q233 0 387 -151q153 -150 153 -385q0 -237 -153 -387q-155 -152 -387 -152zM1112 973q0 211 -137 348q-139 139 -342 139t-342 -139q-135 -138 -135 -350q0 -210 137 -344q138 -135 342 -135
q205 0 340 135q137 137 137 346zM510 705h-76v542h256q77 0 117.5 -40.5t40.5 -114.5q0 -107 -80 -134v-6h27q55 0 55 -57v-190h-76v206h-264v-206zM510 1182v-207h166q41 0 66.5 23.5t25.5 60.5v45q0 36 -23.5 57t-62.5 21h-172z" />
    <glyph glyph-name="overscore" unicode="&#xaf;" horiz-adv-x="720" 
d="M655 1511h-598v93h598v-93z" />
    <glyph glyph-name="degree" unicode="&#xb0;" horiz-adv-x="843" 
d="M713 1214q0 -124 -86 -204q-83 -80 -211 -80q-120 0 -203 80q-80 80 -80 204q0 127 80.5 208t202.5 81q128 0 211 -80q86 -80 86 -209zM608 1214q0 84 -54.5 139.5t-133.5 55.5q-76 0 -130 -55.5t-54 -139.5q0 -79 54.5 -134.5t129.5 -55.5q78 0 133 55.5t55 134.5z" />
    <glyph glyph-name="plusminus" unicode="&#xb1;" horiz-adv-x="1406" 
d="M1210 702h-432v-370h-153v370h-430v138h430v370h153v-370h432v-138zM1210 0h-1015v147h1015v-147z" />
    <glyph glyph-name="uni00B2" unicode="&#xb2;" horiz-adv-x="917" 
d="M258 723l207 8h352v-117h-700v39q0 76 22 141.5t66 121t83.5 92t100.5 84.5q123 93 161 130q113 110 114 232q0 98 -57 153.5t-156 55.5q-110 0 -170.5 -61.5t-59.5 -171.5h-129q-3 157 98 251q102 99 265 99q154 0 250 -90t96 -232q0 -76 -28 -144t-73.5 -119
t-101 -97.5t-112.5 -89.5t-105 -85.5t-82 -93.5t-41 -106z" />
    <glyph glyph-name="uni00B3" unicode="&#xb3;" horiz-adv-x="942" 
d="M471 598q-170 0 -268 100t-92 265h137q-6 -120 55 -184t168 -64q106 0 172 60.5t66 158.5q0 102 -67.5 160.5t-184.5 58.5h-76v113h74q113 0 174 57t61 150q0 90 -60 140t-155 50q-106 0 -165 -64t-58 -180h-133q-6 159 92 260q101 101 264 101q149 0 250 -82
q102 -80 102 -219q0 -180 -176 -260v-9q96 -36 145.5 -109.5t49.5 -168.5q0 -148 -105 -242q-106 -92 -270 -92z" />
    <glyph glyph-name="acute" unicode="&#xb4;" horiz-adv-x="907" 
d="M653 1702l-342 -215l-45 67l330 234z" />
    <glyph glyph-name="paragraph" unicode="&#xb6;" horiz-adv-x="1380" 
d="M528 1493h605v-113h-154v-1380q0 -270 -258 -270h-514v102h321v944q-183 0 -287 97t-104 264q0 166 105.5 261t285.5 95zM657 -168h62q74 0 105.5 40.5t31.5 129.5v1378h-199v-1548z" />
    <glyph glyph-name="middot" unicode="&#xb7;" horiz-adv-x="538" 
d="M137 598q0 57 38 96t93 39q59 0 97 -38.5t38 -96.5q0 -55 -39 -93t-96 -38q-56 0 -93.5 37.5t-37.5 93.5z" />
    <glyph glyph-name="cedilla" unicode="&#xb8;" horiz-adv-x="1095" 
d="M616 0l-57 -88q59 0 100 -34.5t41 -92.5q0 -72 -57 -111q-95 -64 -244 -8v88q22 -30 74.5 -40t96 8.5t40.5 60.5q0 89 -149 57v41l108 180h47v-61z" />
    <glyph glyph-name="uni00B9" unicode="&#xb9;" horiz-adv-x="731" 
d="M381 1468h-289v101h45q111 0 181 54t71 142h119v-1151h-127v854z" />
    <glyph glyph-name="ordmasculine" unicode="&#xba;" horiz-adv-x="888" 
d="M444 1493q154 0 254 -109q101 -107 101 -276q0 -167 -101 -274q-98 -107 -254 -107q-157 0 -258 104q-98 107 -98 277q0 169 98 276q103 109 258 109zM201 1110q0 -129 64.5 -207t178.5 -78q109 0 175.5 78.5t66.5 208.5q0 127 -64.5 205t-177.5 78q-109 0 -176 -77.5
t-67 -207.5z" />
    <glyph glyph-name="guillemotright" unicode="&#xbb;" horiz-adv-x="1046" 
d="M256 979l246 -418l-246 -422h-121l227 422l-227 418h121zM610 979l248 -418l-248 -422h-121l228 422l-228 418h121z" />
    <glyph glyph-name="onequarter" unicode="&#xbc;" horiz-adv-x="1802" 
d="M354 -94l832 1667h117l-832 -1667h-117zM449 1493v-969h-132v697h-251v106h92q166 0 166 158v8h125zM1608 983v-666h114v-120h-114v-197h-133v197h-445v114l359 672h219zM1475 872l-299 -555h299v555z" />
    <glyph glyph-name="onehalf" unicode="&#xbd;" horiz-adv-x="1800" 
d="M354 -94l832 1667h117l-832 -1667h-117zM449 1493v-969h-132v697h-251v106h92q166 0 166 158v8h125zM1274 117l164 8h280v-125h-592v33q0 61 18.5 116.5t44.5 96t67.5 81.5t74.5 67.5t78 59.5q7 5 10 7q162 122 162 252q0 74 -45.5 120t-122.5 46q-81 0 -129.5 -54
t-46.5 -137l-131 10q1 133 88 215t227 82q134 0 215.5 -78t81.5 -202q0 -159 -143 -285q-24 -20 -88 -71t-97 -80t-69 -74.5t-47 -87.5z" />
    <glyph glyph-name="threequarters" unicode="&#xbe;" horiz-adv-x="1957" 
d="M514 -94l832 1667h116l-831 -1667h-117zM711 791q0 -124 -90 -205q-90 -78 -228 -78q-141 0 -227 84.5t-82 220.5h135q-1 -89 46.5 -138.5t127.5 -49.5q78 0 129 47t51 119q0 80 -53 125t-141 45h-68v122h62q84 0 132 43.5t48 114.5q0 70 -44 109t-114 39
q-81 0 -127.5 -51t-44.5 -138h-135q-5 133 77.5 219t225.5 86q133 0 218 -71.5t85 -190.5q0 -147 -141 -211v-10q158 -59 158 -231zM1767 983v-666h115v-120h-115v-197h-133v197h-444v114l358 672h219zM1634 872l-299 -555h299v555z" />
    <glyph glyph-name="questiondown" unicode="&#xbf;" horiz-adv-x="1177" 
d="M608 1493h203v-197h-203v197zM645 1102h125v-408q-93 13 -137 13q-167 0 -264 -82t-97 -224q0 -140 90 -219.5t244 -79.5q151 0 237.5 75.5t92.5 207.5h129q-6 -184 -132 -292.5t-331 -108.5q-212 0 -338 114q-125 113 -125 303q0 203 137 316q139 115 369 106v279z" />
    <glyph glyph-name="Agrave" unicode="&#xc0;" horiz-adv-x="1329" 
d="M381 1968l330 -233l-45 -68l-342 215zM1315 0h-144l-147 385h-723l-147 -385h-142l576 1493h151zM455 788l-109 -286h633l-109 286l-202 574h-9z" />
    <glyph glyph-name="Aacute" unicode="&#xc1;" horiz-adv-x="1329" 
d="M946 1968l58 -86l-342 -215l-46 68zM1315 0h-144l-147 385h-723l-147 -385h-142l576 1493h151zM455 788l-109 -286h633l-109 286l-202 574h-9z" />
    <glyph glyph-name="Acircumflex" unicode="&#xc2;" horiz-adv-x="1329" 
d="M870 1640l-206 218l-209 -218l-66 62l227 244h99l225 -242zM1315 0h-144l-147 385h-723l-147 -385h-142l576 1493h151zM455 788l-109 -286h633l-109 286l-202 574h-9z" />
    <glyph glyph-name="Atilde" unicode="&#xc3;" horiz-adv-x="1329" 
d="M522 1726q-64 0 -98 -67l-62 45q71 121 168 121q48 0 138 -35t127 -35q67 0 108 68l62 -49q-31 -61 -72.5 -88t-106.5 -27q-64 0 -143 33q-81 34 -121 34zM1315 0h-144l-147 385h-723l-147 -385h-142l576 1493h151zM455 788l-109 -286h633l-109 286l-202 574h-9z" />
    <glyph glyph-name="Adieresis" unicode="&#xc4;" horiz-adv-x="1329" 
d="M412 1907h127v-209h-127v209zM788 1907h127v-209h-127v209zM1315 0h-144l-147 385h-723l-147 -385h-142l576 1493h151zM455 788l-109 -286h633l-109 286l-202 574h-9z" />
    <glyph glyph-name="Aring" unicode="&#xc5;" horiz-adv-x="1329" 
d="M1315 0h-144l-147 385h-723l-147 -385h-142l553 1436q-114 50 -114 190q0 94 58.5 152.5t154.5 58.5t154.5 -58.5t58.5 -152.5q0 -140 -115 -190zM666 1759q-56 0 -90.5 -36.5t-34.5 -96.5t34.5 -96.5t90.5 -36.5q54 0 87 36.5t33 96.5t-33 96.5t-87 36.5zM455 788
l-109 -286h633l-109 286l-202 574h-9z" />
    <glyph glyph-name="AE" unicode="&#xc6;" horiz-adv-x="1931" 
d="M1802 1493v-129h-860v-555h739v-121h-739v-559h860v-129h-993v440h-508l-147 -440h-142l523 1493h1267zM340 557h469v807h-197z" />
    <glyph glyph-name="Ccedilla" unicode="&#xc7;" horiz-adv-x="1536" 
d="M774 104q196 0 332.5 103t177.5 280h137q-41 -224 -201 -358.5t-403 -146.5l-37 -58q59 0 100.5 -34.5t41.5 -92.5q0 -70 -58 -110q-96 -64 -243 -9v89q22 -30 74.5 -40.5t95.5 8t40 60.5q0 90 -149 58v41l51 86q-300 11 -466.5 210.5t-166.5 554.5q0 365 177.5 566.5
t506.5 201.5q266 0 437 -139q165 -135 200 -370h-137q-33 179 -163.5 280.5t-338.5 101.5q-247 0 -393 -143q-147 -141 -147 -385v-240q0 -226 147 -370q150 -144 385 -144z" />
    <glyph glyph-name="Egrave" unicode="&#xc8;" horiz-adv-x="1323" 
d="M721 1735l-45 -68l-342 215l57 86zM1194 0h-969v1493h969v-129h-836v-535h740v-122h-740v-578h836v-129z" />
    <glyph glyph-name="Eacute" unicode="&#xc9;" horiz-adv-x="1323" 
d="M1014 1882l-342 -215l-45 68l329 233zM1194 0h-969v1493h969v-129h-836v-535h740v-122h-740v-578h836v-129z" />
    <glyph glyph-name="Ecircumflex" unicode="&#xca;" horiz-adv-x="1323" 
d="M465 1640l-66 62l228 244h98l225 -242l-69 -64l-207 218zM1194 0h-969v1493h969v-129h-836v-535h740v-122h-740v-578h836v-129z" />
    <glyph glyph-name="Edieresis" unicode="&#xcb;" horiz-adv-x="1323" 
d="M549 1698h-127v209h127v-209zM926 1698h-127v209h127v-209zM1194 0h-969v1493h969v-129h-836v-535h740v-122h-740v-578h836v-129z" />
    <glyph glyph-name="Igrave" unicode="&#xcc;" horiz-adv-x="583" 
d="M340 1735l-45 -68l-342 215l57 86zM358 1493v-1493h-133v1493h133z" />
    <glyph glyph-name="Iacute" unicode="&#xcd;" horiz-adv-x="583" 
d="M633 1882l-342 -215l-45 68l329 233zM358 1493v-1493h-133v1493h133z" />
    <glyph glyph-name="Icircumflex" unicode="&#xce;" horiz-adv-x="583" 
d="M84 1640l-66 62l228 244h98l225 -242l-69 -64l-207 218zM358 1493v-1493h-133v1493h133z" />
    <glyph glyph-name="Idieresis" unicode="&#xcf;" horiz-adv-x="583" 
d="M168 1698h-127v209h127v-209zM545 1698h-127v209h127v-209zM358 1493v-1493h-133v1493h133z" />
    <glyph glyph-name="Eth" unicode="&#xd0;" horiz-adv-x="1525" 
d="M225 1493h592q323 0 465.5 -184t142.5 -564q0 -379 -142.5 -562t-465.5 -183h-592v709h-172v116h172v668zM358 129h459q236 0 351.5 119.5t115.5 376.5v241q0 257 -115.5 377.5t-351.5 120.5h-459v-539h293v-116h-293v-580z" />
    <glyph glyph-name="Ntilde" unicode="&#xd1;" horiz-adv-x="1617" 
d="M1004 1659q-65 0 -144 33q-81 34 -121 34q-64 0 -98 -67l-61 45q71 121 168 121q47 0 137 -35t127 -35q67 0 108 68l62 -49q-31 -61 -72 -88t-106 -27zM358 0h-133v1493h176l863 -1341h8l-12 460v881h133v-1493h-179l-858 1346h-8l10 -445v-901z" />
    <glyph glyph-name="Ograve" unicode="&#xd2;" horiz-adv-x="1576" 
d="M834 1735l-46 -68l-342 215l58 86zM279 178q-179 200 -179 567q0 366 179 566q182 200 509 200q329 0 508 -200q181 -199 181 -566q0 -368 -181 -567q-177 -198 -508 -198q-329 0 -509 198zM242 852v-209q0 -253 147 -397q151 -142 399 -142q256 0 401.5 145.5
t145.5 393.5v209q0 253 -149 393q-147 141 -398 141q-256 0 -401 -143t-145 -391z" />
    <glyph glyph-name="Oacute" unicode="&#xd3;" horiz-adv-x="1576" 
d="M1126 1882l-342 -215l-45 68l330 233zM279 178q-179 200 -179 567q0 366 179 566q182 200 509 200q329 0 508 -200q181 -199 181 -566q0 -368 -181 -567q-177 -198 -508 -198q-329 0 -509 198zM242 852v-209q0 -253 147 -397q151 -142 399 -142q256 0 401.5 145.5
t145.5 393.5v209q0 253 -149 393q-147 141 -398 141q-256 0 -401 -143t-145 -391z" />
    <glyph glyph-name="Ocircumflex" unicode="&#xd4;" horiz-adv-x="1576" 
d="M578 1640l-66 62l227 244h99l225 -242l-70 -64l-207 218zM279 178q-179 200 -179 567q0 366 179 566q182 200 509 200q329 0 508 -200q181 -199 181 -566q0 -368 -181 -567q-177 -198 -508 -198q-329 0 -509 198zM242 852v-209q0 -253 147 -397q151 -142 399 -142
q256 0 401.5 145.5t145.5 393.5v209q0 253 -149 393q-147 141 -398 141q-256 0 -401 -143t-145 -391z" />
    <glyph glyph-name="Otilde" unicode="&#xd5;" horiz-adv-x="1576" 
d="M909 1659q-64 0 -143 33q-81 34 -121 34q-64 0 -98 -67l-62 45q71 121 168 121q48 0 138 -35t127 -35q67 0 108 68l61 -49q-31 -61 -72 -88t-106 -27zM279 178q-179 200 -179 567q0 366 179 566q182 200 509 200q329 0 508 -200q181 -199 181 -566q0 -368 -181 -567
q-177 -198 -508 -198q-329 0 -509 198zM242 852v-209q0 -253 147 -397q151 -142 399 -142q256 0 401.5 145.5t145.5 393.5v209q0 253 -149 393q-147 141 -398 141q-256 0 -401 -143t-145 -391z" />
    <glyph glyph-name="Odieresis" unicode="&#xd6;" horiz-adv-x="1576" 
d="M662 1698h-127v209h127v-209zM1038 1698h-127v209h127v-209zM279 178q-179 200 -179 567q0 366 179 566q182 200 509 200q329 0 508 -200q181 -199 181 -566q0 -368 -181 -567q-177 -198 -508 -198q-329 0 -509 198zM242 852v-209q0 -253 147 -397q151 -142 399 -142
q256 0 401.5 145.5t145.5 393.5v209q0 253 -149 393q-147 141 -398 141q-256 0 -401 -143t-145 -391z" />
    <glyph glyph-name="multiply" unicode="&#xd7;" horiz-adv-x="1533" 
d="M315 53l-88 94l453 467l-453 469l88 91l445 -461h16l445 461l88 -91l-453 -469l453 -467l-88 -94l-445 463h-16z" />
    <glyph glyph-name="Oslash" unicode="&#xd8;" horiz-adv-x="1576" 
d="M1485 1335l71 -96l-147 -109q68 -160 68 -385q0 -367 -179.5 -566t-509.5 -199q-392 0 -567 276l-135 -98l-68 94l148 110q-66 167 -66 383q0 367 179 566.5t509 199.5q388 0 566 -272zM242 852v-209q0 -113 30 -205l981 725q-140 223 -465 223q-256 0 -401 -143
t-145 -391zM1335 643v209q0 112 -30 203l-983 -723q141 -228 466 -228q256 0 401.5 145.5t145.5 393.5z" />
    <glyph glyph-name="Ugrave" unicode="&#xd9;" horiz-adv-x="1589" 
d="M842 1735l-45 -68l-342 215l57 86zM213 547v946h131v-932q0 -212 121 -332t330 -120q208 0 329 120t121 332v932h131v-946q0 -259 -155 -414q-156 -153 -426 -153t-426 153q-156 156 -156 414z" />
    <glyph glyph-name="Uacute" unicode="&#xda;" horiz-adv-x="1589" 
d="M1135 1882l-342 -215l-45 68l329 233zM213 547v946h131v-932q0 -212 121 -332t330 -120q208 0 329 120t121 332v932h131v-946q0 -259 -155 -414q-156 -153 -426 -153t-426 153q-156 156 -156 414z" />
    <glyph glyph-name="Ucircumflex" unicode="&#xdb;" horiz-adv-x="1589" 
d="M586 1640l-66 62l228 244h98l225 -242l-70 -64l-206 218zM213 547v946h131v-932q0 -212 121 -332t330 -120q208 0 329 120t121 332v932h131v-946q0 -259 -155 -414q-156 -153 -426 -153t-426 153q-156 156 -156 414z" />
    <glyph glyph-name="Udieresis" unicode="&#xdc;" horiz-adv-x="1589" 
d="M670 1698h-127v209h127v-209zM1047 1698h-127v209h127v-209zM213 547v946h131v-932q0 -212 121 -332t330 -120q208 0 329 120t121 332v932h131v-946q0 -259 -155 -414q-156 -153 -426 -153t-426 153q-156 156 -156 414z" />
    <glyph glyph-name="Yacute" unicode="&#xdd;" horiz-adv-x="1282" 
d="M983 1882l-342 -215l-45 68l330 233zM575 616l-561 877h164l258 -414l199 -329h14l201 333l252 410h166l-559 -877v-616h-134v616z" />
    <glyph glyph-name="Thorn" unicode="&#xde;" horiz-adv-x="1374" 
d="M358 1210h496q225 0 340 -119.5t115 -338.5q0 -226 -116.5 -346.5t-338.5 -120.5h-496v-285h-133v1495h133v-285zM1167 674v164q0 115 -74.5 179t-203.5 64h-531v-673h502q145 0 226 71.5t81 194.5z" />
    <glyph glyph-name="germandbls" unicode="&#xdf;" horiz-adv-x="1181" 
d="M188 901h-157v117h157v86q0 190 108.5 299.5t289.5 109.5q175 0 286 -102q113 -101 113 -262q0 -115 -53 -199.5t-154 -122.5v-14q161 -24 234 -137q75 -112 75 -258q0 -190 -119 -304t-337 -114h-154v113h162q137 0 220 67.5t83 179.5v132q0 118 -84.5 185.5
t-226.5 67.5h-62v121h35q99 0 168.5 48.5t69.5 121.5v181q0 75 -78 122q-77 47 -180 47q-129 0 -199 -77.5t-70 -214.5v-1094h-127v901z" />
    <glyph glyph-name="agrave" unicode="&#xe0;" horiz-adv-x="1159" 
d="M592 1300l-45 -67l-342 215l57 86zM102 303q0 155 102 240.5t283 85.5h332v88q0 256 -268 256q-129 0 -201 -58t-78 -163h-127q8 152 118 239.5t294 87.5q104 0 184.5 -31.5t120.5 -78.5q37 -43 58 -105q8 -19 13 -36.5t7.5 -27.5t4 -25t1.5 -19.5v-20.5v-20v-615h168
v-100h-166q-66 0 -93.5 28.5t-27.5 90.5v61h-12q-37 -92 -137.5 -146t-235.5 -54q-159 0 -249.5 87t-90.5 236zM236 348v-74q0 -89 59 -136.5t164 -47.5q164 0 262 102t98 265v63h-332q-117 0 -184 -46.5t-67 -125.5z" />
    <glyph glyph-name="aacute" unicode="&#xe1;" horiz-adv-x="1159" 
d="M885 1448l-342 -215l-45 67l329 234zM102 303q0 155 102 240.5t283 85.5h332v88q0 256 -268 256q-129 0 -201 -58t-78 -163h-127q8 152 118 239.5t294 87.5q104 0 184.5 -31.5t120.5 -78.5q37 -43 58 -105q8 -19 13 -36.5t7.5 -27.5t4 -25t1.5 -19.5v-20.5v-20v-615h168
v-100h-166q-66 0 -93.5 28.5t-27.5 90.5v61h-12q-37 -92 -137.5 -146t-235.5 -54q-159 0 -249.5 87t-90.5 236zM236 348v-74q0 -89 59 -136.5t164 -47.5q164 0 262 102t98 265v63h-332q-117 0 -184 -46.5t-67 -125.5z" />
    <glyph glyph-name="acircumflex" unicode="&#xe2;" horiz-adv-x="1159" 
d="M336 1206l-66 62l228 243h98l225 -241l-69 -64l-207 217zM102 303q0 155 102 240.5t283 85.5h332v88q0 256 -268 256q-129 0 -201 -58t-78 -163h-127q8 152 118 239.5t294 87.5q104 0 184.5 -31.5t120.5 -78.5q37 -43 58 -105q8 -19 13 -36.5t7.5 -27.5t4 -25t1.5 -19.5
v-20.5v-20v-615h168v-100h-166q-66 0 -93.5 28.5t-27.5 90.5v61h-12q-37 -92 -137.5 -146t-235.5 -54q-159 0 -249.5 87t-90.5 236zM236 348v-74q0 -89 59 -136.5t164 -47.5q164 0 262 102t98 265v63h-332q-117 0 -184 -46.5t-67 -125.5z" />
    <glyph glyph-name="atilde" unicode="&#xe3;" horiz-adv-x="1159" 
d="M668 1225q-67 0 -144 32q-84 35 -121 35q-64 0 -98 -67l-61 45q71 121 168 121q47 0 137 -35t127 -35q67 0 108 68l62 -50q-31 -61 -72 -87.5t-106 -26.5zM102 303q0 155 102 240.5t283 85.5h332v88q0 256 -268 256q-129 0 -201 -58t-78 -163h-127q8 152 118 239.5
t294 87.5q104 0 184.5 -31.5t120.5 -78.5q37 -43 58 -105q8 -19 13 -36.5t7.5 -27.5t4 -25t1.5 -19.5v-20.5v-20v-615h168v-100h-166q-66 0 -93.5 28.5t-27.5 90.5v61h-12q-37 -92 -137.5 -146t-235.5 -54q-159 0 -249.5 87t-90.5 236zM236 348v-74q0 -89 59 -136.5
t164 -47.5q164 0 262 102t98 265v63h-332q-117 0 -184 -46.5t-67 -125.5z" />
    <glyph glyph-name="adieresis" unicode="&#xe4;" horiz-adv-x="1159" 
d="M420 1264h-127v209h127v-209zM797 1264h-127v209h127v-209zM102 303q0 155 102 240.5t283 85.5h332v88q0 256 -268 256q-129 0 -201 -58t-78 -163h-127q8 152 118 239.5t294 87.5q104 0 184.5 -31.5t120.5 -78.5q37 -43 58 -105q8 -19 13 -36.5t7.5 -27.5t4 -25
t1.5 -19.5v-20.5v-20v-615h168v-100h-166q-66 0 -93.5 28.5t-27.5 90.5v61h-12q-37 -92 -137.5 -146t-235.5 -54q-159 0 -249.5 87t-90.5 236zM236 348v-74q0 -89 59 -136.5t164 -47.5q164 0 262 102t98 265v63h-332q-117 0 -184 -46.5t-67 -125.5z" />
    <glyph glyph-name="aring" unicode="&#xe5;" horiz-adv-x="1159" 
d="M946 715v-615h168v-100h-166q-66 0 -93.5 28.5t-27.5 90.5v61h-12q-37 -92 -137.5 -146t-235.5 -54q-159 0 -249.5 87t-90.5 236q0 155 102 240.5t283 85.5h332v88q0 256 -268 256q-129 0 -201 -58t-78 -163h-127q6 118 76 199t193 112q-82 58 -82 172q0 94 58.5 152.5
t154.5 58.5t154.5 -58.5t58.5 -152.5q0 -110 -76 -168q70 -17 125.5 -54t81.5 -81q27 -41 39 -92q18 -68 18 -125zM547 1368q-56 0 -90.5 -36.5t-34.5 -96.5t34.5 -96.5t90.5 -36.5q54 0 87.5 36.5t33.5 96.5t-33.5 96.5t-87.5 36.5zM819 457v63h-332q-117 0 -184 -46.5
t-67 -125.5v-74q0 -89 59 -136.5t164 -47.5q164 0 262 102t98 265z" />
    <glyph glyph-name="ae" unicode="&#xe6;" horiz-adv-x="1921" 
d="M461 -20q-171 0 -265 85.5t-94 235.5q0 158 104.5 243t295.5 85h346v59q0 134 -79.5 209.5t-215.5 75.5q-124 0 -199 -56t-86 -153h-131q12 142 129 227q116 88 293 88q140 0 242.5 -58.5t140.5 -158.5q62 100 172 158.5t240 58.5q202 0 327 -131q127 -133 127 -338
q0 -42 -6 -110h-807q-5 -182 91.5 -291t277.5 -109q124 0 210.5 53t115.5 144h129q-35 -148 -158.5 -232.5t-298.5 -84.5q-163 0 -278 74t-169 210q-47 -131 -168.5 -207.5t-285.5 -76.5zM995 621h684q0 152 -92 244.5t-244 92.5t-248 -92.5t-100 -244.5zM469 90
q172 0 275.5 106.5t103.5 288.5v35h-361q-117 0 -184 -46.5t-67 -125.5v-74q0 -87 63 -135.5t170 -48.5z" />
    <glyph glyph-name="ccedilla" unicode="&#xe7;" horiz-adv-x="1150" 
d="M645 -18v-2l-57 -89q59 0 100 -34.5t41 -92.5q0 -71 -57 -110q-95 -64 -244 -8v88q22 -30 74.5 -40.5t96 8t40.5 60.5q0 91 -150 58v41l72 119q-215 12 -337 159t-122 389q0 260 138 404q138 147 362 147q177 0 298.5 -95.5t150.5 -256.5h-129q-32 119 -117 179.5
t-209 60.5q-158 0 -260 -105q-100 -103 -100 -266v-154q0 -158 98 -256q104 -96 262 -96q131 0 220 69.5t112 190.5h129q-26 -159 -135.5 -257t-276.5 -111z" />
    <glyph glyph-name="egrave" unicode="&#xe8;" horiz-adv-x="1157" 
d="M637 1300l-45 -67l-342 215l57 86zM590 1079q209 0 336 -127q125 -125 125 -346q0 -48 -7 -102h-808v-62q0 -160 98 -256t262 -96q123 0 211.5 61t118.5 162h129q-35 -151 -162 -241q-127 -92 -303 -92q-226 0 -357 149t-131 406q0 256 130 400t358 144zM236 643v-33h686
v47q0 140 -91.5 226t-240.5 86q-158 0 -256 -90t-98 -236z" />
    <glyph glyph-name="eacute" unicode="&#xe9;" horiz-adv-x="1157" 
d="M930 1448l-342 -215l-45 67l329 234zM590 1079q209 0 336 -127q125 -125 125 -346q0 -48 -7 -102h-808v-62q0 -160 98 -256t262 -96q123 0 211.5 61t118.5 162h129q-35 -151 -162 -241q-127 -92 -303 -92q-226 0 -357 149t-131 406q0 256 130 400t358 144zM236 643v-33
h686v47q0 140 -91.5 226t-240.5 86q-158 0 -256 -90t-98 -236z" />
    <glyph glyph-name="ecircumflex" unicode="&#xea;" horiz-adv-x="1157" 
d="M381 1206l-66 62l228 243h98l225 -241l-69 -64l-207 217zM590 1079q209 0 336 -127q125 -125 125 -346q0 -48 -7 -102h-808v-62q0 -160 98 -256t262 -96q123 0 211.5 61t118.5 162h129q-35 -151 -162 -241q-127 -92 -303 -92q-226 0 -357 149t-131 406q0 256 130 400
t358 144zM236 643v-33h686v47q0 140 -91.5 226t-240.5 86q-158 0 -256 -90t-98 -236z" />
    <glyph glyph-name="edieresis" unicode="&#xeb;" horiz-adv-x="1157" 
d="M465 1264h-127v209h127v-209zM842 1264h-127v209h127v-209zM590 1079q209 0 336 -127q125 -125 125 -346q0 -48 -7 -102h-808v-62q0 -160 98 -256t262 -96q123 0 211.5 61t118.5 162h129q-35 -151 -162 -241q-127 -92 -303 -92q-226 0 -357 149t-131 406q0 256 130 400
t358 144zM236 643v-33h686v47q0 140 -91.5 226t-240.5 86q-158 0 -256 -90t-98 -236z" />
    <glyph glyph-name="igrave" unicode="&#xec;" horiz-adv-x="520" 
d="M307 1321l-45 -68l-342 215l57 86zM324 0h-127v1059h127v-1059z" />
    <glyph glyph-name="iacute" unicode="&#xed;" horiz-adv-x="520" 
d="M600 1468l-342 -215l-45 68l330 233zM324 0h-127v1059h127v-1059z" />
    <glyph glyph-name="icircumflex" unicode="&#xee;" horiz-adv-x="520" 
d="M51 1227l-65 61l227 244h98l226 -242l-70 -63l-207 217zM324 0h-127v1059h127v-1059z" />
    <glyph glyph-name="idieresis" unicode="&#xef;" horiz-adv-x="520" 
d="M135 1284h-127v209h127v-209zM512 1284h-127v209h127v-209zM324 0h-127v1059h127v-1059z" />
    <glyph glyph-name="eth" unicode="&#xf0;" horiz-adv-x="1224" 
d="M102 492q0 229 136 368q135 141 354 141q99 0 143 -20l4 2l-90 98l-104 131l-242 -90v103l176 67l-196 250h172l157 -201l260 95v-101l-198 -71l231 -297q57 -74 72 -99q30 -43 65 -104q80 -134 80 -299q0 -215 -141 -350t-371 -135q-229 0 -368 139q-140 140 -140 373z
M248 573v-157q0 -145 98.5 -229.5t265.5 -84.5t266 84.5t99 229.5v157q0 145 -99 228.5t-266 83.5t-265.5 -83.5t-98.5 -228.5z" />
    <glyph glyph-name="ntilde" unicode="&#xf1;" horiz-adv-x="1249" 
d="M823 1225q-66 0 -143 32q-84 35 -121 35q-64 0 -98 -67l-62 45q71 121 168 121q48 0 138 -35t126 -35q68 0 109 68l61 -50q-31 -61 -72 -87.5t-106 -26.5zM326 0h-129v1059h112l19 -199h12q49 103 145 161t215 58q170 0 269.5 -113.5t99.5 -308.5v-657h-129v645
q0 311 -270 311q-157 0 -250 -112q-94 -110 -94 -291v-553z" />
    <glyph glyph-name="ograve" unicode="&#xf2;" horiz-adv-x="1204" 
d="M649 1300l-45 -67l-342 215l57 86zM102 528q0 260 138 404q138 147 362 147q225 0 363 -147q137 -143 137 -404q0 -248 -133 -399q-131 -149 -367 -149q-238 0 -369 149t-131 399zM236 606v-164q0 -166 104 -260q109 -92 262 -92q154 0 260 92q107 94 107 260v164
q0 158 -105 260q-104 101 -262 101t-262 -101t-104 -260z" />
    <glyph glyph-name="oacute" unicode="&#xf3;" horiz-adv-x="1204" 
d="M942 1448l-342 -215l-45 67l330 234zM102 528q0 260 138 404q138 147 362 147q225 0 363 -147q137 -143 137 -404q0 -248 -133 -399q-131 -149 -367 -149q-238 0 -369 149t-131 399zM236 606v-164q0 -166 104 -260q109 -92 262 -92q154 0 260 92q107 94 107 260v164
q0 158 -105 260q-104 101 -262 101t-262 -101t-104 -260z" />
    <glyph glyph-name="ocircumflex" unicode="&#xf4;" horiz-adv-x="1204" 
d="M393 1206l-65 62l227 243h98l226 -241l-70 -64l-207 217zM102 528q0 260 138 404q138 147 362 147q225 0 363 -147q137 -143 137 -404q0 -248 -133 -399q-131 -149 -367 -149q-238 0 -369 149t-131 399zM236 606v-164q0 -166 104 -260q109 -92 262 -92q154 0 260 92
q107 94 107 260v164q0 158 -105 260q-104 101 -262 101t-262 -101t-104 -260z" />
    <glyph glyph-name="otilde" unicode="&#xf5;" horiz-adv-x="1204" 
d="M725 1225q-66 0 -143 32q-84 35 -121 35q-65 0 -99 -67l-61 45q71 121 168 121q47 0 137 -35t127 -35q68 0 109 68l61 -50q-31 -61 -72 -87.5t-106 -26.5zM102 528q0 260 138 404q138 147 362 147q225 0 363 -147q137 -143 137 -404q0 -248 -133 -399
q-131 -149 -367 -149q-238 0 -369 149t-131 399zM236 606v-164q0 -166 104 -260q109 -92 262 -92q154 0 260 92q107 94 107 260v164q0 158 -105 260q-104 101 -262 101t-262 -101t-104 -260z" />
    <glyph glyph-name="odieresis" unicode="&#xf6;" horiz-adv-x="1204" 
d="M477 1264h-127v209h127v-209zM854 1264h-127v209h127v-209zM102 528q0 260 138 404q138 147 362 147q225 0 363 -147q137 -143 137 -404q0 -248 -133 -399q-131 -149 -367 -149q-238 0 -369 149t-131 399zM236 606v-164q0 -166 104 -260q109 -92 262 -92q154 0 260 92
q107 94 107 260v164q0 158 -105 260q-104 101 -262 101t-262 -101t-104 -260z" />
    <glyph glyph-name="divide" unicode="&#xf7;" horiz-adv-x="1392" 
d="M793 905h-207v230h207v-230zM1198 539h-1008v133h1008v-133zM793 96h-207v228h207v-228z" />
    <glyph glyph-name="oslash" unicode="&#xf8;" horiz-adv-x="1204" 
d="M1110 971l59 -88l-116 -86q49 -119 49 -269q0 -248 -133 -399q-131 -149 -367 -149q-266 0 -401 190l-111 -82l-57 86l119 88q-50 115 -50 266q0 260 138 404q138 147 362 147q262 0 397 -190zM236 606v-164q0 -65 14 -108l655 485q-106 148 -303 148q-158 0 -262 -101
t-104 -260zM969 442v164q0 51 -17 117l-657 -485q103 -148 307 -148q154 0 260 92q107 94 107 260z" />
    <glyph glyph-name="ugrave" unicode="&#xf9;" horiz-adv-x="1234" 
d="M657 1321l-45 -68l-342 215l58 86zM909 1059h129v-1059h-106l-21 197h-14q-43 -97 -143 -157t-224 -60q-162 0 -256 104.5t-94 294.5v680h129v-666q0 -301 254 -301q158 0 252 113t94 301v553z" />
    <glyph glyph-name="uacute" unicode="&#xfa;" horiz-adv-x="1234" 
d="M950 1468l-342 -215l-45 68l330 233zM909 1059h129v-1059h-106l-21 197h-14q-43 -97 -143 -157t-224 -60q-162 0 -256 104.5t-94 294.5v680h129v-666q0 -301 254 -301q158 0 252 113t94 301v553z" />
    <glyph glyph-name="ucircumflex" unicode="&#xfb;" horiz-adv-x="1234" 
d="M401 1227l-65 61l227 244h99l225 -242l-70 -63l-207 217zM909 1059h129v-1059h-106l-21 197h-14q-43 -97 -143 -157t-224 -60q-162 0 -256 104.5t-94 294.5v680h129v-666q0 -301 254 -301q158 0 252 113t94 301v553z" />
    <glyph glyph-name="udieresis" unicode="&#xfc;" horiz-adv-x="1234" 
d="M485 1284h-127v209h127v-209zM862 1284h-127v209h127v-209zM909 1059h129v-1059h-106l-21 197h-14q-43 -97 -143 -157t-224 -60q-162 0 -256 104.5t-94 294.5v680h129v-666q0 -301 254 -301q158 0 252 113t94 301v553z" />
    <glyph glyph-name="yacute" unicode="&#xfd;" horiz-adv-x="1024" 
d="M854 1468l-342 -215l-45 68l330 233zM449 121l-445 938h148l161 -357l191 -432h12l358 789h146l-445 -942v-338q0 -121 -116 -121h-266v111h256v352z" />
    <glyph glyph-name="thorn" unicode="&#xfe;" 
d="M326 -342h-129v1835h129v-619h12q111 205 387 205q211 0 327.5 -141t116.5 -399t-116.5 -399.5t-327.5 -141.5q-276 0 -387 205h-12v-545zM700 109q153 0 244.5 86t91.5 229v229q0 143 -91.5 229.5t-244.5 86.5q-166 0 -270 -99t-104 -258v-147q0 -159 104 -257.5
t270 -98.5z" />
    <glyph glyph-name="ydieresis" unicode="&#xff;" horiz-adv-x="1024" 
d="M389 1284h-127v209h127v-209zM766 1284h-127v209h127v-209zM449 121l-445 938h148l161 -357l191 -432h12l358 789h146l-445 -942v-338q0 -121 -116 -121h-266v111h256v352z" />
    <glyph glyph-name="Amacron" unicode="&#x100;" horiz-adv-x="1329" 
d="M365 1780h598v-92h-598v92zM1315 0h-144l-147 385h-723l-147 -385h-142l576 1493h151zM455 788l-109 -286h633l-109 286l-202 574h-9z" />
    <glyph glyph-name="amacron" unicode="&#x101;" horiz-adv-x="1159" 
d="M844 1253h-598v93h598v-93zM102 303q0 155 102 240.5t283 85.5h332v88q0 256 -268 256q-129 0 -201 -58t-78 -163h-127q8 152 118 239.5t294 87.5q104 0 184.5 -31.5t120.5 -78.5q37 -43 58 -105q8 -19 13 -36.5t7.5 -27.5t4 -25t1.5 -19.5v-20.5v-20v-615h168v-100h-166
q-66 0 -93.5 28.5t-27.5 90.5v61h-12q-37 -92 -137.5 -146t-235.5 -54q-159 0 -249.5 87t-90.5 236zM236 348v-74q0 -89 59 -136.5t164 -47.5q164 0 262 102t98 265v63h-332q-117 0 -184 -46.5t-67 -125.5z" />
    <glyph glyph-name="Abreve" unicode="&#x102;" horiz-adv-x="1329" 
d="M662 1669q-125 0 -202 76.5t-77 200.5h96q0 -86 50.5 -138.5t132.5 -52.5t132 52.5t50 138.5h98q0 -125 -76.5 -201t-203.5 -76zM1315 0h-144l-147 385h-723l-147 -385h-142l576 1493h151zM455 788l-109 -286h633l-109 286l-202 574h-9z" />
    <glyph glyph-name="abreve" unicode="&#x103;" horiz-adv-x="1159" 
d="M725 1511h98q0 -125 -76.5 -200.5t-203.5 -75.5q-125 0 -202 76t-77 200h96q0 -86 50.5 -138t132.5 -52t132 52t50 138zM102 303q0 155 102 240.5t283 85.5h332v88q0 256 -268 256q-129 0 -201 -58t-78 -163h-127q8 152 118 239.5t294 87.5q104 0 184.5 -31.5
t120.5 -78.5q37 -43 58 -105q8 -19 13 -36.5t7.5 -27.5t4 -25t1.5 -19.5v-20.5v-20v-615h168v-100h-166q-66 0 -93.5 28.5t-27.5 90.5v61h-12q-37 -92 -137.5 -146t-235.5 -54q-159 0 -249.5 87t-90.5 236zM236 348v-74q0 -89 59 -136.5t164 -47.5q164 0 262 102t98 265v63
h-332q-117 0 -184 -46.5t-67 -125.5z" />
    <glyph glyph-name="Aogonek" unicode="&#x104;" horiz-adv-x="1329" 
d="M1276 -281q52 0 104 25v-80q-55 -25 -131 -22q-79 5 -127.5 49.5t-48.5 118.5q0 113 109 190h-11l-147 385h-723l-147 -385h-142l576 1493h151l576 -1493q-152 -56 -152 -178q0 -49 30.5 -76t82.5 -27zM455 788l-109 -286h633l-109 286l-202 574h-9z" />
    <glyph glyph-name="aogonek" unicode="&#x105;" horiz-adv-x="1159" 
d="M1075 -281q53 0 105 25v-80q-55 -25 -131 -22q-79 5 -128 49.5t-49 118.5q0 113 109 190h-33q-66 0 -93.5 28.5t-27.5 90.5v61h-12q-37 -92 -137.5 -146t-235.5 -54q-159 0 -249.5 87t-90.5 236q0 155 102 240.5t283 85.5h332v88q0 256 -268 256q-129 0 -201 -58
t-78 -163h-127q8 152 118 239.5t294 87.5q104 0 184.5 -31.5t120.5 -78.5q37 -43 58 -105q8 -19 13 -36.5t7.5 -27.5t4 -25t1.5 -19.5v-20.5v-20v-615h168v-100q-151 -56 -151 -178q0 -49 30 -76t82 -27zM819 457v63h-332q-117 0 -184 -46.5t-67 -125.5v-74q0 -89 59 -136.5
t164 -47.5q164 0 262 102t98 265z" />
    <glyph glyph-name="Cacute" unicode="&#x106;" horiz-adv-x="1536" 
d="M1116 1882l-342 -215l-45 68l330 233zM768 -20q-315 0 -491.5 200t-176.5 565t177.5 566.5t506.5 201.5q266 0 437 -139q165 -135 200 -370h-137q-33 179 -163.5 280.5t-338.5 101.5q-247 0 -393 -143q-147 -141 -147 -385v-240q0 -226 147 -370q150 -144 385 -144
q196 0 332.5 103t177.5 280h137q-40 -233 -215 -370q-174 -137 -438 -137z" />
    <glyph glyph-name="cacute" unicode="&#x107;" horiz-adv-x="1150" 
d="M942 1448l-342 -215l-45 67l330 234zM928 350h129q-29 -171 -152.5 -270.5t-308.5 -99.5q-232 0 -363 149t-131 399q0 260 138 404q138 147 362 147q177 0 298.5 -95.5t150.5 -256.5h-129q-32 119 -117 179.5t-209 60.5q-158 0 -260 -105q-100 -103 -100 -266v-154
q0 -158 98 -256q104 -96 262 -96q131 0 220 69.5t112 190.5z" />
    <glyph glyph-name="Cdotaccent" unicode="&#x10a;" horiz-adv-x="1536" 
d="M840 1698h-127v209h127v-209zM768 -20q-315 0 -491.5 200t-176.5 565t177.5 566.5t506.5 201.5q266 0 437 -139q165 -135 200 -370h-137q-33 179 -163.5 280.5t-338.5 101.5q-247 0 -393 -143q-147 -141 -147 -385v-240q0 -226 147 -370q150 -144 385 -144
q196 0 332.5 103t177.5 280h137q-40 -233 -215 -370q-174 -137 -438 -137z" />
    <glyph glyph-name="cdotaccent" unicode="&#x10b;" horiz-adv-x="1150" 
d="M666 1264h-127v209h127v-209zM928 350h129q-29 -171 -152.5 -270.5t-308.5 -99.5q-232 0 -363 149t-131 399q0 260 138 404q138 147 362 147q177 0 298.5 -95.5t150.5 -256.5h-129q-32 119 -117 179.5t-209 60.5q-158 0 -260 -105q-100 -103 -100 -266v-154
q0 -158 98 -256q104 -96 262 -96q131 0 220 69.5t112 190.5z" />
    <glyph glyph-name="Ccaron" unicode="&#x10c;" horiz-adv-x="1536" 
d="M725 1599l-225 246l69 62l205 -219l207 219l70 -62l-226 -246h-100zM768 -20q-315 0 -491.5 200t-176.5 565t177.5 566.5t506.5 201.5q266 0 437 -139q165 -135 200 -370h-137q-33 179 -163.5 280.5t-338.5 101.5q-247 0 -393 -143q-147 -141 -147 -385v-240
q0 -226 147 -370q150 -144 385 -144q196 0 332.5 103t177.5 280h137q-40 -233 -215 -370q-174 -137 -438 -137z" />
    <glyph glyph-name="ccaron" unicode="&#x10d;" horiz-adv-x="1150" 
d="M551 1165l-225 246l69 62l205 -220l207 220l70 -62l-226 -246h-100zM928 350h129q-29 -171 -152.5 -270.5t-308.5 -99.5q-232 0 -363 149t-131 399q0 260 138 404q138 147 362 147q177 0 298.5 -95.5t150.5 -256.5h-129q-32 119 -117 179.5t-209 60.5q-158 0 -260 -105
q-100 -103 -100 -266v-154q0 -158 98 -256q104 -96 262 -96q131 0 220 69.5t112 190.5z" />
    <glyph glyph-name="Dcaron" unicode="&#x10e;" horiz-adv-x="1525" 
d="M713 1599l-226 246l70 62l205 -219l207 219l69 -62l-225 -246h-100zM817 0h-592v1493h592q323 0 465.5 -184t142.5 -564q0 -379 -142.5 -562t-465.5 -183zM358 1364v-1235h459q236 0 351.5 119.5t115.5 376.5v241q0 257 -115.5 377.5t-351.5 120.5h-459z" />
    <glyph glyph-name="dcaron" unicode="&#x10f;" 
d="M547 -20q-211 0 -328 141.5t-117 398.5q0 258 117 399.5t328 141.5q276 0 387 -205h12v637h129v-1493h-119l-10 184h-12q-110 -204 -387 -204zM1257 1083v72q93 0 115 49q17 40 17 74v14h-117v201h207v-225q0 -84 -61.5 -134.5t-160.5 -50.5zM571 90q166 0 270.5 98.5
t104.5 257.5v148q0 159 -104.5 257.5t-270.5 98.5q-153 0 -244 -86t-91 -229v-229q0 -143 91 -229.5t244 -86.5z" />
    <glyph glyph-name="Dcroat" unicode="&#x110;" horiz-adv-x="1525" 
d="M225 1493h592q323 0 465.5 -184t142.5 -564q0 -379 -142.5 -562t-465.5 -183h-592v709h-172v116h172v668zM358 129h459q236 0 351.5 119.5t115.5 376.5v241q0 257 -115.5 377.5t-351.5 120.5h-459v-539h293v-116h-293v-580z" />
    <glyph glyph-name="dslash" unicode="&#x111;" 
d="M1075 1294h211v-98h-211v-1196h-119l-10 184h-12q-110 -204 -387 -204q-211 0 -328 141.5t-117 398.5q0 258 117 399.5t328 141.5q276 0 387 -205h12v340h-328v98h328v199h129v-199zM946 446v148q0 159 -104.5 257.5t-270.5 98.5q-153 0 -244 -86t-91 -229v-229
q0 -143 91 -229.5t244 -86.5q166 0 270.5 98.5t104.5 257.5z" />
    <glyph glyph-name="Emacron" unicode="&#x112;" horiz-adv-x="1323" 
d="M973 1688h-598v92h598v-92zM1194 0h-969v1493h969v-129h-836v-535h740v-122h-740v-578h836v-129z" />
    <glyph glyph-name="emacron" unicode="&#x113;" horiz-adv-x="1157" 
d="M889 1253h-598v93h598v-93zM590 1079q209 0 336 -127q125 -125 125 -346q0 -48 -7 -102h-808v-62q0 -160 98 -256t262 -96q123 0 211.5 61t118.5 162h129q-35 -151 -162 -241q-127 -92 -303 -92q-226 0 -357 149t-131 406q0 256 130 400t358 144zM236 643v-33h686v47
q0 140 -91.5 226t-240.5 86q-158 0 -256 -90t-98 -236z" />
    <glyph glyph-name="Edotaccent" unicode="&#x116;" horiz-adv-x="1323" 
d="M737 1698h-127v209h127v-209zM1194 0h-969v1493h969v-129h-836v-535h740v-122h-740v-578h836v-129z" />
    <glyph glyph-name="edotaccent" unicode="&#x117;" horiz-adv-x="1157" 
d="M653 1264h-127v209h127v-209zM590 1079q209 0 336 -127q125 -125 125 -346q0 -48 -7 -102h-808v-62q0 -160 98 -256t262 -96q123 0 211.5 61t118.5 162h129q-35 -151 -162 -241q-127 -92 -303 -92q-226 0 -357 149t-131 406q0 256 130 400t358 144zM236 643v-33h686v47
q0 140 -91.5 226t-240.5 86q-158 0 -256 -90t-98 -236z" />
    <glyph glyph-name="Eogonek" unicode="&#x118;" horiz-adv-x="1323" 
d="M1155 -281q53 0 105 25v-80q-55 -25 -132 -22q-79 5 -127.5 49.5t-48.5 118.5q0 113 109 190h-836v1493h969v-129h-836v-535h740v-122h-740v-578h836v-129q-152 -56 -152 -178q0 -49 30.5 -76t82.5 -27z" />
    <glyph glyph-name="eogonek" unicode="&#x119;" horiz-adv-x="1157" 
d="M926 313h129q-29 -137 -141.5 -227.5t-270.5 -103.5l2 -2q-151 -56 -151 -179q0 -49 30 -75.5t82 -26.5q53 0 105 25v-80q-57 -26 -131 -23q-79 5 -128 49.5t-49 118.5q0 118 115 195q-195 25 -305.5 171.5t-110.5 379.5q0 256 130 400t358 144q209 0 336 -127
q125 -125 125 -346q0 -48 -7 -102h-808v-62q0 -160 98 -256t262 -96q123 0 211.5 61t118.5 162zM236 643v-33h686v47q0 140 -91.5 226t-240.5 86q-158 0 -256 -90t-98 -236z" />
    <glyph glyph-name="Ecaron" unicode="&#x11a;" horiz-adv-x="1323" 
d="M623 1599l-226 246l70 62l205 -219l207 219l69 -62l-225 -246h-100zM1194 0h-969v1493h969v-129h-836v-535h740v-122h-740v-578h836v-129z" />
    <glyph glyph-name="ecaron" unicode="&#x11b;" horiz-adv-x="1157" 
d="M539 1165l-226 246l70 62l205 -220l207 220l69 -62l-225 -246h-100zM590 1079q209 0 336 -127q125 -125 125 -346q0 -48 -7 -102h-808v-62q0 -160 98 -256t262 -96q123 0 211.5 61t118.5 162h129q-35 -151 -162 -241q-127 -92 -303 -92q-226 0 -357 149t-131 406
q0 256 130 400t358 144zM236 643v-33h686v47q0 140 -91.5 226t-240.5 86q-158 0 -256 -90t-98 -236z" />
    <glyph glyph-name="Gbreve" unicode="&#x11e;" horiz-adv-x="1640" 
d="M983 1946h98q0 -125 -76.5 -201t-203.5 -76q-125 0 -202 76.5t-77 200.5h96q0 -86 50.5 -138.5t132.5 -52.5t132 52.5t50 138.5zM100 735q0 366 191 572q189 204 502 204q241 0 409 -125q171 -124 211 -323h-139q-27 144 -160 233q-134 90 -317 90q-244 0 -400 -147
q-155 -146 -155 -387v-234q0 -228 147 -372q149 -146 383 -146q237 0 383 152q148 154 148 403h-576v125h731v-780h-110l-21 283h-14q-80 -150 -224 -226.5t-331 -76.5q-310 0 -484 204t-174 551z" />
    <glyph glyph-name="gbreve" unicode="&#x11f;" horiz-adv-x="1069" 
d="M516 1235q-125 0 -201.5 76t-76.5 200h96q0 -86 50 -138t132 -52t132 52t50 138h99q0 -125 -77 -200.5t-204 -75.5zM416 188h297q143 0 225 -67t82 -184q0 -146 -128 -222.5t-362 -76.5q-217 0 -330.5 67.5t-113.5 188.5q0 162 164 215v12q-45 18 -72.5 55t-27.5 84
q0 60 37.5 107.5t97.5 60.5v12q-152 96 -152 287q0 160 107 254q107 98 278 98q116 0 195 -39v33q0 111 123 111h178v-111h-203v-104q92 -95 92 -246q0 -159 -106 -252q-107 -96 -269 -96q-72 0 -149 18q-51 -6 -81 -35t-30 -71q0 -99 148 -99zM262 766v-82
q0 -94 70.5 -152.5t185.5 -58.5t185.5 58.5t70.5 152.5v82q0 97 -70 155t-186 58t-186 -58t-70 -155zM537 -260q356 0 356 188q0 146 -182 146h-310q-95 0 -144.5 -42t-49.5 -116q0 -91 80.5 -133.5t249.5 -42.5z" />
    <glyph glyph-name="Gdotaccent" unicode="&#x120;" horiz-adv-x="1640" 
d="M866 1698h-127v209h127v-209zM100 735q0 366 191 572q189 204 502 204q241 0 409 -125q171 -124 211 -323h-139q-27 144 -160 233q-134 90 -317 90q-244 0 -400 -147q-155 -146 -155 -387v-234q0 -228 147 -372q149 -146 383 -146q237 0 383 152q148 154 148 403h-576
v125h731v-780h-110l-21 283h-14q-80 -150 -224 -226.5t-331 -76.5q-310 0 -484 204t-174 551z" />
    <glyph glyph-name="gdotaccent" unicode="&#x121;" horiz-adv-x="1069" 
d="M455 1473h127v-209h-127v209zM416 188h297q143 0 225 -67t82 -184q0 -146 -128 -222.5t-362 -76.5q-217 0 -330.5 67.5t-113.5 188.5q0 162 164 215v12q-45 18 -72.5 55t-27.5 84q0 60 37.5 107.5t97.5 60.5v12q-152 96 -152 287q0 160 107 254q107 98 278 98
q116 0 195 -39v33q0 111 123 111h178v-111h-203v-104q92 -95 92 -246q0 -159 -106 -252q-107 -96 -269 -96q-72 0 -149 18q-51 -6 -81 -35t-30 -71q0 -99 148 -99zM262 766v-82q0 -94 70.5 -152.5t185.5 -58.5t185.5 58.5t70.5 152.5v82q0 97 -70 155t-186 58t-186 -58
t-70 -155zM537 -260q356 0 356 188q0 146 -182 146h-310q-95 0 -144.5 -42t-49.5 -116q0 -91 80.5 -133.5t249.5 -42.5z" />
    <glyph glyph-name="uni0122" unicode="&#x122;" horiz-adv-x="1640" 
d="M100 735q0 366 191 572q189 204 502 204q241 0 409 -125q171 -124 211 -323h-139q-27 144 -160 233q-134 90 -317 90q-244 0 -400 -147q-155 -146 -155 -387v-234q0 -228 147 -372q149 -146 383 -146q237 0 383 152q148 154 148 403h-576v125h731v-780h-110l-21 283h-14
q-80 -150 -224 -226.5t-331 -76.5q-310 0 -484 204t-174 551zM733 -414v45q33 0 54.5 24.5t21.5 65.5v7h-76v155h137v-145q0 -72 -37 -112t-100 -40z" />
    <glyph glyph-name="uni0123" unicode="&#x123;" horiz-adv-x="1069" 
d="M510 1417h76v-155h-137v131q0 75 37 120.5t100 45.5v-46q-33 0 -54.5 -24.5t-21.5 -65.5v-6zM416 188h297q143 0 225 -67t82 -184q0 -146 -128 -222.5t-362 -76.5q-217 0 -330.5 67.5t-113.5 188.5q0 162 164 215v12q-45 18 -72.5 55t-27.5 84q0 60 37.5 107.5t97.5 60.5
v12q-152 96 -152 287q0 160 107 254q107 98 278 98q116 0 195 -39v33q0 111 123 111h178v-111h-203v-104q92 -95 92 -246q0 -159 -106 -252q-107 -96 -269 -96q-72 0 -149 18q-51 -6 -81 -35t-30 -71q0 -99 148 -99zM262 766v-82q0 -94 70.5 -152.5t185.5 -58.5t185.5 58.5
t70.5 152.5v82q0 97 -70 155t-186 58t-186 -58t-70 -155zM537 -260q356 0 356 188q0 146 -182 146h-310q-95 0 -144.5 -42t-49.5 -116q0 -91 80.5 -133.5t249.5 -42.5z" />
    <glyph glyph-name="Hbar" unicode="&#x126;" horiz-adv-x="1638" 
d="M1413 1274h168v-113h-168v-1161h-133v705h-922v-705h-133v1161h-157v113h157v219h133v-219h922v219h133v-219zM358 827h922v334h-922v-334z" />
    <glyph glyph-name="hbar" unicode="&#x127;" horiz-adv-x="1247" 
d="M698 1079q168 0 268.5 -113t100.5 -307v-659h-129v647q0 320 -270 320q-154 0 -248 -112t-94 -296v-559h-129v1196h-187v98h187v199h129v-199h352v-98h-352v-332h12q50 100 146 157.5t214 57.5z" />
    <glyph glyph-name="Imacron" unicode="&#x12a;" horiz-adv-x="583" 
d="M592 1688h-598v92h598v-92zM358 1493v-1493h-133v1493h133z" />
    <glyph glyph-name="imacron" unicode="&#x12b;" horiz-adv-x="520" 
d="M559 1274h-598v92h598v-92zM324 0h-127v1059h127v-1059z" />
    <glyph glyph-name="Iogonek" unicode="&#x12e;" horiz-adv-x="583" 
d="M317 -281q53 0 105 25v-80q-55 -25 -131 -22q-79 5 -127.5 49.5t-48.5 118.5q0 116 110 192v1491h133v-1493h-2q-151 -56 -151 -178q0 -49 30 -76t82 -27z" />
    <glyph glyph-name="iogonek" unicode="&#x12f;" horiz-adv-x="520" 
d="M197 1493h127v-209h-127v209zM276 -281q53 0 105 25v-80q-55 -25 -131 -22q-79 5 -127.5 49.5t-48.5 118.5q0 124 123 200v1049h127v-1059h-9q-151 -56 -151 -178q0 -49 30 -76t82 -27z" />
    <glyph glyph-name="Idot" unicode="&#x130;" horiz-adv-x="583" 
d="M356 1698h-127v209h127v-209zM358 1493v-1493h-133v1493h133z" />
    <glyph glyph-name="dotlessi" unicode="&#x131;" horiz-adv-x="520" 
d="M324 0h-127v1059h127v-1059z" />
    <glyph glyph-name="Jcircumflex" unicode="&#x134;" horiz-adv-x="786" 
d="M455 1946h98l225 -242l-69 -64l-207 218l-209 -218l-66 62zM442 125v1368h129v-1372q0 -121 -122 -121h-416v125h409z" />
    <glyph glyph-name="jcircumflex" unicode="&#x135;" horiz-adv-x="544" 
d="M238 1511h98l225 -241l-69 -64l-207 217l-209 -217l-66 62zM221 -233v1292h127v-1280q0 -121 -123 -121h-243v109h239z" />
    <glyph glyph-name="uni0136" unicode="&#x136;" horiz-adv-x="1335" 
d="M1307 1493l-545 -651l565 -842h-156l-495 737l-318 -381v-356h-133v1493h133v-958l795 958h154zM705 -272h-76v155h137v-145q0 -72 -37 -112t-100 -40v45q33 0 54.5 24.5t21.5 65.5v7z" />
    <glyph glyph-name="uni0137" unicode="&#x137;" horiz-adv-x="1105" 
d="M1030 1059l-414 -414l435 -645h-150l-375 555l-200 -201v-354h-129v1493h129v-977l534 543h170zM590 -272h-76v155h137v-145q0 -72 -37 -112t-100 -40v45q33 0 54.5 24.5t21.5 65.5v7z" />
    <glyph glyph-name="Lacute" unicode="&#x139;" horiz-adv-x="1169" 
d="M633 1882l-342 -215l-45 68l329 233zM1098 0h-873v1493h133v-1368h740v-125z" />
    <glyph glyph-name="lacute" unicode="&#x13a;" horiz-adv-x="520" 
d="M602 1882l-342 -215l-45 68l330 233zM324 0h-127v1493h127v-1493z" />
    <glyph glyph-name="uni013B" unicode="&#x13b;" horiz-adv-x="1169" 
d="M1098 0h-873v1493h133v-1368h740v-125zM592 -414v45q33 0 54.5 24.5t21.5 65.5v7h-76v155h137v-145q0 -72 -37 -112t-100 -40z" />
    <glyph glyph-name="uni013C" unicode="&#x13c;" horiz-adv-x="520" 
d="M324 0h-127v1493h127v-1493zM190 -414v45q33 0 54.5 24.5t21.5 65.5v7h-76v155h138v-145q0 -72 -37.5 -112t-100.5 -40z" />
    <glyph glyph-name="Lcaron" unicode="&#x13d;" horiz-adv-x="1169" 
d="M1098 0h-873v1493h133v-1368h740v-125zM659 991v78q132 0 132 139v60h-117v225h205v-295q0 -96 -60.5 -151.5t-159.5 -55.5z" />
    <glyph glyph-name="lcaron" unicode="&#x13e;" horiz-adv-x="520" 
d="M211 1599l-225 246l69 62l205 -219l207 219l70 -62l-226 -246h-100zM324 0h-127v1493h127v-1493z" />
    <glyph glyph-name="Ldot" unicode="&#x13f;" horiz-adv-x="1169" 
d="M1098 0h-873v1493h133v-1368h740v-125zM637 791q0 57 38 96t93 39q59 0 97 -38.5t38 -96.5q0 -56 -39 -94t-96 -38q-55 0 -93 38t-38 94z" />
    <glyph glyph-name="ldot" unicode="&#x140;" horiz-adv-x="808" 
d="M324 0h-127v1493h127v-1493zM506 793q0 57 38 96t93 39q60 0 97.5 -37.5t37.5 -97.5q0 -55 -39 -93t-96 -38q-55 0 -93 38t-38 93z" />
    <glyph glyph-name="Lslash" unicode="&#x141;" horiz-adv-x="1173" 
d="M362 791v-666h740v-125h-873v743l-157 -55v123l157 55v627h133v-580l412 146v-123z" />
    <glyph glyph-name="lslash" unicode="&#x142;" horiz-adv-x="520" 
d="M324 1001l153 58v-121l-153 -57v-881h-127v834l-152 -58v123l152 55v539h127v-492z" />
    <glyph glyph-name="Nacute" unicode="&#x143;" horiz-adv-x="1617" 
d="M1221 1882l-342 -215l-45 68l329 233zM358 0h-133v1493h176l863 -1341h8l-12 460v881h133v-1493h-179l-858 1346h-8l10 -445v-901z" />
    <glyph glyph-name="nacute" unicode="&#x144;" horiz-adv-x="1249" 
d="M1040 1448l-342 -215l-45 67l330 234zM326 0h-129v1059h112l19 -199h12q49 103 145 161t215 58q170 0 269.5 -113.5t99.5 -308.5v-657h-129v645q0 311 -270 311q-157 0 -250 -112q-94 -110 -94 -291v-553z" />
    <glyph glyph-name="uni0145" unicode="&#x145;" horiz-adv-x="1617" 
d="M358 0h-133v1493h176l863 -1341h8l-12 460v881h133v-1493h-179l-858 1346h-8l10 -445v-901zM717 -356v45q33 0 54.5 24.5t21.5 65.5v6h-76v156h137v-146q0 -72 -37 -111.5t-100 -39.5z" />
    <glyph glyph-name="uni0146" unicode="&#x146;" horiz-adv-x="1249" 
d="M326 0h-129v1059h112l19 -199h12q49 103 145 161t215 58q170 0 269.5 -113.5t99.5 -308.5v-657h-129v645q0 311 -270 311q-157 0 -250 -112q-94 -110 -94 -291v-553zM563 -414v45q33 0 54.5 24.5t21.5 65.5v7h-76v155h137v-145q0 -72 -37 -112t-100 -40z" />
    <glyph glyph-name="Ncaron" unicode="&#x147;" horiz-adv-x="1617" 
d="M829 1599l-225 246l70 62l205 -219l206 219l70 -62l-225 -246h-101zM358 0h-133v1493h176l863 -1341h8l-12 460v881h133v-1493h-179l-858 1346h-8l10 -445v-901z" />
    <glyph glyph-name="ncaron" unicode="&#x148;" horiz-adv-x="1249" 
d="M649 1165l-225 246l70 62l204 -220l207 220l70 -62l-225 -246h-101zM326 0h-129v1059h112l19 -199h12q49 103 145 161t215 58q170 0 269.5 -113.5t99.5 -308.5v-657h-129v645q0 311 -270 311q-157 0 -250 -112q-94 -110 -94 -291v-553z" />
    <glyph glyph-name="Eng" unicode="&#x14a;" horiz-adv-x="1617" 
d="M1260 612v881h133v-1714q0 -121 -123 -121h-244v102h236l2 240h-50l-858 1346h-8l10 -445v-901h-133v1493h176l863 -1341h8z" />
    <glyph glyph-name="eng" unicode="&#x14b;" horiz-adv-x="1249" 
d="M700 1079q170 0 269.5 -113.5t99.5 -308.5v-878q0 -121 -123 -121h-244v100h236l2 381v506q0 311 -270 311q-157 0 -250 -112q-94 -110 -94 -291v-553h-129v1059h112l19 -199h12q49 103 145 161t215 58z" />
    <glyph glyph-name="Omacron" unicode="&#x14c;" horiz-adv-x="1576" 
d="M1085 1688h-598v92h598v-92zM279 178q-179 200 -179 567q0 366 179 566q182 200 509 200q329 0 508 -200q181 -199 181 -566q0 -368 -181 -567q-177 -198 -508 -198q-329 0 -509 198zM242 852v-209q0 -253 147 -397q151 -142 399 -142q256 0 401.5 145.5t145.5 393.5v209
q0 253 -149 393q-147 141 -398 141q-256 0 -401 -143t-145 -391z" />
    <glyph glyph-name="omacron" unicode="&#x14d;" horiz-adv-x="1204" 
d="M901 1253h-598v93h598v-93zM102 528q0 260 138 404q138 147 362 147q225 0 363 -147q137 -143 137 -404q0 -248 -133 -399q-131 -149 -367 -149q-238 0 -369 149t-131 399zM236 606v-164q0 -166 104 -260q109 -92 262 -92q154 0 260 92q107 94 107 260v164
q0 158 -105 260q-104 101 -262 101t-262 -101t-104 -260z" />
    <glyph glyph-name="Ohungarumlaut" unicode="&#x150;" horiz-adv-x="1576" 
d="M940 1831l-322 -244l-51 64l307 262zM1294 1802l-342 -215l-45 68l330 233zM279 178q-179 200 -179 567q0 366 179 566q182 200 509 200q329 0 508 -200q181 -199 181 -566q0 -368 -181 -567q-177 -198 -508 -198q-329 0 -509 198zM242 852v-209q0 -253 147 -397
q151 -142 399 -142q256 0 401.5 145.5t145.5 393.5v209q0 253 -149 393q-147 141 -398 141q-256 0 -401 -143t-145 -391z" />
    <glyph glyph-name="ohungarumlaut" unicode="&#x151;" horiz-adv-x="1204" 
d="M756 1397l-322 -244l-51 64l307 262zM1110 1368l-342 -215l-45 68l330 233zM102 528q0 260 138 404q138 147 362 147q225 0 363 -147q137 -143 137 -404q0 -248 -133 -399q-131 -149 -367 -149q-238 0 -369 149t-131 399zM236 606v-164q0 -166 104 -260q109 -92 262 -92
q154 0 260 92q107 94 107 260v164q0 158 -105 260q-104 101 -262 101t-262 -101t-104 -260z" />
    <glyph glyph-name="OE" unicode="&#x152;" horiz-adv-x="1955" 
d="M100 745q0 748 703 748h1024v-129h-836v-535h740v-122h-740v-578h836v-129h-1024q-348 0 -525.5 190.5t-177.5 554.5zM242 856v-221q0 -231 147 -369q146 -137 383 -137h86v1235h-86q-246 0 -388 -131t-142 -377z" />
    <glyph glyph-name="oe" unicode="&#x153;" horiz-adv-x="2031" 
d="M1800 313h129q-35 -151 -162 -241q-127 -92 -303 -92q-300 0 -426 251q-126 -251 -436 -251q-238 0 -369 149t-131 399q0 260 138 404q138 147 362 147q148 0 260.5 -64.5t173.5 -185.5q120 250 428 250q209 0 336 -127q125 -125 125 -346q0 -56 -6 -102h-809v-62
q0 -160 98 -256t262 -96q123 0 211.5 61t118.5 162zM1110 643v-33h686v47q0 140 -91.5 226t-240.5 86q-158 0 -256 -90t-98 -236zM969 442v164q0 158 -105 260q-104 101 -262 101t-262 -101t-104 -260v-164q0 -166 104 -260q109 -92 262 -92q154 0 260 92q107 94 107 260z
" />
    <glyph glyph-name="Racute" unicode="&#x154;" horiz-adv-x="1527" 
d="M1108 1882l-342 -215l-45 68l330 233zM358 0h-133v1493h695q213 0 319.5 -114.5t106.5 -331.5q0 -130 -56 -225t-153 -130v-12h90q70 0 97.5 -32t27.5 -101v-547h-133v594h-861v-594zM358 1370v-653h547q140 0 219.5 68.5t79.5 185.5v147q0 123 -78.5 187.5t-220.5 64.5
h-547z" />
    <glyph glyph-name="racute" unicode="&#x155;" horiz-adv-x="722" 
d="M727 1554l57 -86l-342 -215l-45 68zM197 0v940q0 119 125 119h370v-111h-366v-948h-129z" />
    <glyph glyph-name="uni0156" unicode="&#x156;" horiz-adv-x="1527" 
d="M358 0h-133v1493h695q213 0 319.5 -114.5t106.5 -331.5q0 -130 -56 -225t-153 -130v-12h90q70 0 97.5 -32t27.5 -101v-547h-133v594h-861v-594zM358 1370v-653h547q140 0 219.5 68.5t79.5 185.5v147q0 123 -78.5 187.5t-220.5 64.5h-547zM748 -414v45q33 0 54 24.5
t21 65.5v7h-75v155h137v-145q0 -72 -37 -112t-100 -40z" />
    <glyph glyph-name="uni0157" unicode="&#x157;" horiz-adv-x="722" 
d="M322 1059h370v-111h-366v-948h-129v940q0 119 125 119zM268 -272h-75v155h137v-145q0 -72 -37 -112t-100 -40v45q33 0 54 24.5t21 65.5v7z" />
    <glyph glyph-name="Rcaron" unicode="&#x158;" horiz-adv-x="1527" 
d="M717 1599l-225 246l69 62l205 -219l207 219l69 -62l-225 -246h-100zM358 0h-133v1493h695q213 0 319.5 -114.5t106.5 -331.5q0 -130 -56 -225t-153 -130v-12h90q70 0 97.5 -32t27.5 -101v-547h-133v594h-861v-594zM358 1370v-653h547q140 0 219.5 68.5t79.5 185.5v147
q0 123 -78.5 187.5t-220.5 64.5h-547z" />
    <glyph glyph-name="rcaron" unicode="&#x159;" horiz-adv-x="722" 
d="M719 1432l-225 -246h-101l-225 246l70 61l204 -219l207 219zM197 0v940q0 119 125 119h370v-111h-366v-948h-129z" />
    <glyph glyph-name="Sacute" unicode="&#x15a;" horiz-adv-x="1370" 
d="M1024 1882l-342 -215l-45 68l330 233zM115 459h137q4 -180 119.5 -273.5t316.5 -93.5q186 0 295 82.5t109 228.5q0 57 -20 105.5t-48 75.5q-22 25 -68 47q-52 26 -118 41l-275 63l-94 23q-24 6 -102 41q-67 30 -107 67q-43 41 -72.5 107.5t-29.5 142.5q0 184 137 291
q135 106 367 106q237 0 376 -112q145 -115 148 -316h-135q-7 152 -109.5 234t-277.5 82q-170 0 -268.5 -74.5t-98.5 -200.5q0 -131 106 -192q47 -27 84 -40t97 -26l293 -65q356 -79 356 -389q0 -204 -152 -320q-150 -114 -399 -114q-283 0 -426 137q-144 138 -141 342z" />
    <glyph glyph-name="sacute" unicode="&#x15b;" horiz-adv-x="1013" 
d="M842 1448l-342 -215l-45 67l329 234zM94 317h129q0 -105 78 -167t211 -62q125 0 197.5 54.5t72.5 148.5q0 137 -153 164l-240 47q-272 52 -272 270q0 142 104 224.5t281 82.5q182 0 285.5 -86t105.5 -233h-129q-9 213 -260 213q-122 0 -189 -50t-67 -137q0 -135 182 -170
l219 -41q271 -53 271 -280q0 -146 -110.5 -230.5t-295.5 -84.5q-194 0 -307 91.5t-113 245.5z" />
    <glyph glyph-name="Scedilla" unicode="&#x15e;" horiz-adv-x="1370" 
d="M1233 414q0 -193 -134.5 -307t-365.5 -125l-45 -70q59 0 100 -34.5t41 -92.5q0 -72 -57 -111q-95 -64 -244 -8v88q22 -30 74.5 -40t96 8.5t40.5 60.5q0 89 -149 57v41l59 99q-267 9 -401 143q-136 139 -133 336h137q4 -180 119.5 -273.5t316.5 -93.5q186 0 295 82.5
t109 228.5q0 57 -20 105.5t-48 75.5q-22 25 -68 47q-52 26 -118 41l-275 63l-94 23q-24 6 -102 41q-67 30 -107 67q-43 41 -72.5 107.5t-29.5 142.5q0 184 137 291q135 106 367 106q237 0 376 -112q145 -115 148 -316h-135q-7 152 -109.5 234t-277.5 82q-170 0 -268.5 -74.5
t-98.5 -200.5q0 -131 106 -192q47 -27 84 -40t97 -26l293 -65q356 -79 356 -389z" />
    <glyph glyph-name="scedilla" unicode="&#x15f;" horiz-adv-x="1013" 
d="M563 -18v-2l-57 -89q59 0 100 -34.5t41 -92.5q0 -71 -57 -110q-95 -64 -244 -8v88q22 -30 74.5 -40.5t96 8t40.5 60.5q0 90 -149 58v41l71 119q-178 7 -281.5 98t-103.5 239h129q0 -105 78 -167t211 -62q125 0 197.5 54.5t72.5 148.5q0 137 -153 164l-240 47
q-272 52 -272 270q0 142 104 224.5t281 82.5q182 0 285.5 -86t105.5 -233h-129q-9 213 -260 213q-122 0 -189 -50t-67 -137q0 -135 182 -170l219 -41q271 -53 271 -280q0 -135 -96 -218.5t-261 -94.5z" />
    <glyph glyph-name="Scaron" unicode="&#x160;" horiz-adv-x="1370" 
d="M633 1599l-225 246l69 62l205 -219l207 219l69 -62l-225 -246h-100zM115 459h137q4 -180 119.5 -273.5t316.5 -93.5q186 0 295 82.5t109 228.5q0 57 -20 105.5t-48 75.5q-22 25 -68 47q-52 26 -118 41l-275 63l-94 23q-24 6 -102 41q-67 30 -107 67q-43 41 -72.5 107.5
t-29.5 142.5q0 184 137 291q135 106 367 106q237 0 376 -112q145 -115 148 -316h-135q-7 152 -109.5 234t-277.5 82q-170 0 -268.5 -74.5t-98.5 -200.5q0 -131 106 -192q47 -27 84 -40t97 -26l293 -65q356 -79 356 -389q0 -204 -152 -320q-150 -114 -399 -114
q-283 0 -426 137q-144 138 -141 342z" />
    <glyph glyph-name="scaron" unicode="&#x161;" horiz-adv-x="1013" 
d="M451 1165l-226 246l70 62l205 -220l207 220l69 -62l-225 -246h-100zM94 317h129q0 -105 78 -167t211 -62q125 0 197.5 54.5t72.5 148.5q0 137 -153 164l-240 47q-272 52 -272 270q0 142 104 224.5t281 82.5q182 0 285.5 -86t105.5 -233h-129q-9 213 -260 213
q-122 0 -189 -50t-67 -137q0 -135 182 -170l219 -41q271 -53 271 -280q0 -146 -110.5 -230.5t-295.5 -84.5q-194 0 -307 91.5t-113 245.5z" />
    <glyph glyph-name="uni0162" unicode="&#x162;" horiz-adv-x="1122" 
d="M631 1368v-1368h-19l-57 -88q59 0 100 -34.5t41 -92.5q0 -72 -57 -111q-95 -64 -244 -8v88q22 -30 74.5 -40t96 8.5t40.5 60.5q0 89 -149 57v41l71 119h-30v1368h-488v125h1102v-125h-481z" />
    <glyph glyph-name="uni0163" unicode="&#x163;" horiz-adv-x="673" 
d="M582 113v-113h-119l-57 -88q59 0 100 -34.5t41 -92.5q0 -71 -58 -111q-95 -64 -243 -8v88q22 -30 74.5 -40t96 8.5t40.5 60.5q0 90 -150 57v41l72 119h-29q-125 0 -125 117v831h-194v111h194v358h127v-358h228v-111h-228v-835h230z" />
    <glyph glyph-name="Tcaron" unicode="&#x164;" horiz-adv-x="1122" 
d="M838 1845l-226 -246h-100l-225 246l69 62l205 -219l207 219zM10 1493h1102v-125h-481v-1368h-133v1368h-488v125z" />
    <glyph glyph-name="tcaron" unicode="&#x165;" horiz-adv-x="673" 
d="M563 1772l-225 -246h-100l-226 246l70 61l205 -219l207 219zM352 948v-835h230v-113h-232q-125 0 -125 117v831h-194v111h194v358h127v-358h228v-111h-228z" />
    <glyph glyph-name="Tbar" unicode="&#x166;" horiz-adv-x="1122" 
d="M1112 1493v-125h-481v-500h364v-114h-364v-754h-133v754h-355v114h355v500h-488v125h1102z" />
    <glyph glyph-name="tbar" unicode="&#x167;" horiz-adv-x="673" 
d="M352 543v-430h230v-113h-232q-125 0 -125 117v426h-192v100h192v305h-194v111h194v358h127v-358h228v-111h-228v-305h226v-100h-226z" />
    <glyph glyph-name="Umacron" unicode="&#x16a;" horiz-adv-x="1589" 
d="M1094 1688h-598v92h598v-92zM213 547v946h131v-932q0 -212 121 -332t330 -120q208 0 329 120t121 332v932h131v-946q0 -259 -155 -414q-156 -153 -426 -153t-426 153q-156 156 -156 414z" />
    <glyph glyph-name="umacron" unicode="&#x16b;" horiz-adv-x="1234" 
d="M909 1274h-598v92h598v-92zM909 1059h129v-1059h-106l-21 197h-14q-43 -97 -143 -157t-224 -60q-162 0 -256 104.5t-94 294.5v680h129v-666q0 -301 254 -301q158 0 252 113t94 301v553z" />
    <glyph glyph-name="Uring" unicode="&#x16e;" horiz-adv-x="1589" 
d="M948 1821q60 -60 60 -152q0 -93 -60 -153q-58 -58 -153 -58q-98 0 -156 58q-57 57 -57 153q0 95 57 152q59 59 156 59q94 0 153 -59zM797 1802q-56 0 -90.5 -36.5t-34.5 -96.5t34.5 -96.5t90.5 -36.5q54 0 87.5 36.5t33.5 96.5t-33.5 96.5t-87.5 36.5zM213 547v946h131
v-932q0 -212 121 -332t330 -120q208 0 329 120t121 332v932h131v-946q0 -259 -155 -414q-156 -153 -426 -153t-426 153q-156 156 -156 414z" />
    <glyph glyph-name="uring" unicode="&#x16f;" horiz-adv-x="1234" 
d="M764 1407q59 -59 59 -152q0 -94 -59 -153q-58 -58 -154 -58q-97 0 -155 58t-58 153q0 94 58 152q59 59 155 59q95 0 154 -59zM612 1389q-56 0 -90.5 -37t-34.5 -97t34.5 -96.5t90.5 -36.5q54 0 87.5 36.5t33.5 96.5t-33.5 97t-87.5 37zM909 1059h129v-1059h-106l-21 197
h-14q-43 -97 -143 -157t-224 -60q-162 0 -256 104.5t-94 294.5v680h129v-666q0 -301 254 -301q158 0 252 113t94 301v553z" />
    <glyph glyph-name="Uhungarumlaut" unicode="&#x170;" horiz-adv-x="1589" 
d="M948 1831l-321 -244l-52 64l308 262zM1303 1802l-342 -215l-46 68l330 233zM213 547v946h131v-932q0 -212 121 -332t330 -120q208 0 329 120t121 332v932h131v-946q0 -259 -155 -414q-156 -153 -426 -153t-426 153q-156 156 -156 414z" />
    <glyph glyph-name="uhungarumlaut" unicode="&#x171;" horiz-adv-x="1234" 
d="M764 1417l-322 -243l-51 63l307 262zM1118 1389l-342 -215l-45 67l330 234zM909 1059h129v-1059h-106l-21 197h-14q-43 -97 -143 -157t-224 -60q-162 0 -256 104.5t-94 294.5v680h129v-666q0 -301 254 -301q158 0 252 113t94 301v553z" />
    <glyph glyph-name="Uogonek" unicode="&#x172;" horiz-adv-x="1589" 
d="M1245 561v932h131v-946q0 -229 -122.5 -378t-340.5 -181q-122 -55 -122 -166q0 -49 30 -76t82 -27q53 0 105 25v-80q-55 -25 -131 -22q-79 5 -128 49.5t-49 118.5q0 100 82 170q-263 3 -417 157q-152 158 -152 410v946h131v-932q0 -212 121 -332t330 -120q208 0 329 120
t121 332z" />
    <glyph glyph-name="uogonek" unicode="&#x173;" horiz-adv-x="1234" 
d="M997 -281q53 0 105 25v-80q-55 -25 -131 -22q-79 5 -127.5 49.5t-48.5 118.5q0 132 135 206l-19 181h-14q-43 -97 -143 -157t-224 -60q-162 0 -256 104.5t-94 294.5v680h129v-666q0 -301 254 -301q158 0 252 113t94 301v553h129v-1059h-2q-151 -56 -151 -178
q0 -49 30 -76t82 -27z" />
    <glyph glyph-name="Wcircumflex" unicode="&#x174;" horiz-adv-x="1853" 
d="M711 1640l-66 62l227 244h99l225 -242l-70 -64l-206 218zM332 0l-305 1493h139l190 -938l72 -405h12l389 1343h195l389 -1343h12l72 405l191 938h139l-305 -1493h-191l-399 1374h-10l-400 -1374h-190z" />
    <glyph glyph-name="wcircumflex" unicode="&#x175;" horiz-adv-x="1486" 
d="M950 1227l-207 217l-208 -217l-66 61l227 244h99l225 -242zM1157 444l162 615h145l-305 -1059h-178l-154 580l-77 325h-13l-73 -325l-146 -580h-184l-311 1059h151l168 -608l74 -324h10l236 932h167l248 -926h8z" />
    <glyph glyph-name="Ycircumflex" unicode="&#x176;" horiz-adv-x="1282" 
d="M434 1640l-65 62l227 244h98l226 -242l-70 -64l-207 218zM575 616l-561 877h164l258 -414l199 -329h14l201 333l252 410h166l-559 -877v-616h-134v616z" />
    <glyph glyph-name="ycircumflex" unicode="&#x177;" horiz-adv-x="1024" 
d="M305 1227l-65 61l227 244h98l226 -242l-70 -63l-207 217zM449 121l-445 938h148l161 -357l191 -432h12l358 789h146l-445 -942v-338q0 -121 -116 -121h-266v111h256v352z" />
    <glyph glyph-name="Ydieresis" unicode="&#x178;" horiz-adv-x="1282" 
d="M518 1698h-127v209h127v-209zM895 1698h-127v209h127v-209zM575 616l-561 877h164l258 -414l199 -329h14l201 333l252 410h166l-559 -877v-616h-134v616z" />
    <glyph glyph-name="Zacute" unicode="&#x179;" horiz-adv-x="1284" 
d="M899 1968l57 -86l-342 -215l-45 68zM94 1493h1096v-107l-918 -1257h910v-129h-1088v106l920 1258h-920v129z" />
    <glyph glyph-name="zacute" unicode="&#x17a;" horiz-adv-x="868" 
d="M715 1554l57 -86l-342 -215l-45 68zM819 952l-624 -841h630v-111h-782v100l625 848h-625v111h776v-107z" />
    <glyph glyph-name="Zdotaccent" unicode="&#x17b;" horiz-adv-x="1284" 
d="M553 1907h127v-209h-127v209zM94 1493h1096v-107l-918 -1257h910v-129h-1088v106l920 1258h-920v129z" />
    <glyph glyph-name="zdotaccent" unicode="&#x17c;" horiz-adv-x="868" 
d="M369 1493h127v-209h-127v209zM819 952l-624 -841h630v-111h-782v100l625 848h-625v111h776v-107z" />
    <glyph glyph-name="Zcaron" unicode="&#x17d;" horiz-adv-x="1284" 
d="M891 1845l-225 -246h-101l-225 246l70 62l204 -219l207 219zM94 1493h1096v-107l-918 -1257h910v-129h-1088v106l920 1258h-920v129z" />
    <glyph glyph-name="zcaron" unicode="&#x17e;" horiz-adv-x="868" 
d="M707 1432l-226 -246h-100l-225 246l69 61l205 -219l207 219zM819 952l-624 -841h630v-111h-782v100l625 848h-625v111h776v-107z" />
    <glyph glyph-name="uni018F" unicode="&#x18f;" horiz-adv-x="1433" 
d="M713 1513q294 0 457 -203t163 -567q0 -375 -170 -569t-456 -194q-290 0 -445 186q-153 188 -153 489q0 37 6 111h1083q0 308 -129 466.5t-367 158.5q-171 0 -305 -84q-128 -80 -164 -220h-133q41 192 209 308q170 118 404 118zM707 106q224 0 354.5 143t136.5 400h-950
q0 -271 121.5 -407t337.5 -136z" />
    <glyph glyph-name="florin" unicode="&#x192;" horiz-adv-x="1021" 
d="M317 -248h-282v115h293l125 899h-209v115h225l68 489q2 25 7 42t18 36.5t41.5 30.5t70.5 14h282v-117h-290l-70 -495h238v-115h-252l-125 -893q-21 -121 -140 -121z" />
    <glyph glyph-name="AEacute" unicode="&#x1fc;" horiz-adv-x="1931" 
d="M1452 1968l57 -86l-342 -215l-45 68zM1802 1493v-129h-860v-555h739v-121h-739v-559h860v-129h-993v440h-508l-147 -440h-142l523 1493h1267zM340 557h469v807h-197z" />
    <glyph glyph-name="Oslashacute" unicode="&#x1fe;" horiz-adv-x="1576" 
d="M1071 1968l57 -86l-342 -215l-45 68zM1485 1335l71 -96l-147 -109q68 -160 68 -385q0 -367 -179.5 -566t-509.5 -199q-392 0 -567 276l-135 -98l-68 94l148 110q-66 167 -66 383q0 367 179 566.5t509 199.5q388 0 566 -272zM242 852v-209q0 -113 30 -205l981 725
q-140 223 -465 223q-256 0 -401 -143t-145 -391zM1335 643v209q0 112 -30 203l-983 -723q141 -228 466 -228q256 0 401.5 145.5t145.5 393.5z" />
    <glyph glyph-name="oslashacute" unicode="&#x1ff;" horiz-adv-x="1204" 
d="M885 1534l57 -86l-342 -215l-45 67zM1110 971l59 -88l-116 -86q49 -119 49 -269q0 -248 -133 -399q-131 -149 -367 -149q-266 0 -401 190l-111 -82l-57 86l119 88q-50 115 -50 266q0 260 138 404q138 147 362 147q262 0 397 -190zM236 606v-164q0 -65 14 -108l655 485
q-106 148 -303 148q-158 0 -262 -101t-104 -260zM969 442v164q0 51 -17 117l-657 -485q103 -148 307 -148q154 0 260 92q107 94 107 260z" />
    <glyph glyph-name="uni0218" unicode="&#x218;" horiz-adv-x="1370" 
d="M115 459h137q4 -180 119.5 -273.5t316.5 -93.5q186 0 295 82.5t109 228.5q0 57 -20 105.5t-48 75.5q-22 25 -68 47q-52 26 -118 41l-275 63l-94 23q-24 6 -102 41q-67 30 -107 67q-43 41 -72.5 107.5t-29.5 142.5q0 184 137 291q135 106 367 106q237 0 376 -112
q145 -115 148 -316h-135q-7 152 -109.5 234t-277.5 82q-170 0 -268.5 -74.5t-98.5 -200.5q0 -131 106 -192q47 -27 84 -40t97 -26l293 -65q356 -79 356 -389q0 -204 -152 -320q-150 -114 -399 -114q-283 0 -426 137q-144 138 -141 342zM627 -414v45q33 0 54 24.5t21 65.5v7
h-75v155h137v-145q0 -72 -37 -112t-100 -40z" />
    <glyph glyph-name="uni0219" unicode="&#x219;" horiz-adv-x="1013" 
d="M94 317h129q0 -105 78 -167t211 -62q125 0 197.5 54.5t72.5 148.5q0 137 -153 164l-240 47q-272 52 -272 270q0 142 104 224.5t281 82.5q182 0 285.5 -86t105.5 -233h-129q-9 213 -260 213q-122 0 -189 -50t-67 -137q0 -135 182 -170l219 -41q271 -53 271 -280
q0 -146 -110.5 -230.5t-295.5 -84.5q-194 0 -307 91.5t-113 245.5zM444 -434v45q33 0 54.5 24.5t21.5 65.5v6h-76v156h138v-146q0 -72 -37.5 -111.5t-100.5 -39.5z" />
    <glyph glyph-name="uni021A" unicode="&#x21a;" horiz-adv-x="1122" 
d="M10 1493h1102v-125h-481v-1368h-133v1368h-488v125zM569 -272h-75v155h137v-145q0 -72 -37 -112t-100 -40v45q33 0 54 24.5t21 65.5v7z" />
    <glyph glyph-name="uni021B" unicode="&#x21b;" horiz-adv-x="673" 
d="M352 948v-835h230v-113h-232q-125 0 -125 117v831h-194v111h194v358h127v-358h228v-111h-228zM420 -272h-76v155h137v-145q0 -72 -37 -112t-100 -40v45q33 0 54.5 24.5t21.5 65.5v7z" />
    <glyph glyph-name="uni0237" unicode="&#x237;" horiz-adv-x="544" 
d="M221 -233v1292h127v-1280q0 -121 -123 -121h-243v109h239z" />
    <glyph glyph-name="circumflex" unicode="&#x2c6;" horiz-adv-x="714" 
d="M150 1487l-66 61l227 244h99l225 -242l-70 -63l-207 217z" />
    <glyph glyph-name="caron" unicode="&#x2c7;" horiz-adv-x="714" 
d="M309 1505l-225 246l70 61l204 -219l207 219l70 -61l-225 -246h-101z" />
    <glyph glyph-name="breve" unicode="&#x2d8;" horiz-adv-x="745" 
d="M555 1763h98q0 -125 -76.5 -200.5t-203.5 -75.5q-125 0 -202 76t-77 200h96q0 -86 50.5 -138t132.5 -52t132 52t50 138z" />
    <glyph glyph-name="dotaccent" unicode="&#x2d9;" horiz-adv-x="354" 
d="M240 1520h-127v209h127v-209z" />
    <glyph glyph-name="ring" unicode="&#x2da;" horiz-adv-x="786" 
d="M555 1731q59 -59 59 -152q0 -95 -59 -154q-57 -57 -154 -57q-98 0 -155 57q-58 58 -58 154q0 94 58 152q59 59 155 59q95 0 154 -59zM403 1712q-56 0 -90 -36.5t-34 -96.5t34 -96.5t90 -36.5q54 0 87.5 36.5t33.5 96.5t-33.5 96.5t-87.5 36.5z" />
    <glyph glyph-name="ogonek" unicode="&#x2db;" horiz-adv-x="854" 
d="M309 -190q0 81 58 145.5t155 93.5l29 -49q-152 -56 -152 -178q0 -49 30.5 -76t82.5 -27t104 25v-80q-55 -25 -131 -22q-79 5 -127.5 49.5t-48.5 118.5z" />
    <glyph glyph-name="tilde" unicode="&#x2dc;" horiz-adv-x="667" 
d="M455 1507q-65 0 -144 33q-84 35 -121 35q-63 0 -98 -68l-61 45q71 121 168 121q47 0 137 -35q87 -34 127 -34q68 0 108 67l62 -49q-31 -61 -72 -88t-106 -27z" />
    <glyph glyph-name="hungarumlaut" unicode="&#x2dd;" horiz-adv-x="929" 
d="M627 1739l-322 -244l-51 64l307 262zM981 1710l-342 -215l-45 68l330 233z" />
    <glyph glyph-name="gravecomb" unicode="&#x300;" horiz-adv-x="0" 
d="M-250 1554l-45 -67l-342 215l57 86z" />
    <glyph glyph-name="acutecomb" unicode="&#x301;" horiz-adv-x="0" 
d="M-254 1702l-342 -215l-45 67l330 234z" />
    <glyph glyph-name="uni0302" unicode="&#x302;" horiz-adv-x="0" 
d="M-565 1487l-66 61l228 244h98l225 -242l-70 -63l-206 217z" />
    <glyph glyph-name="tildecomb" unicode="&#x303;" horiz-adv-x="0" 
d="M-213 1507q-64 0 -143 33q-84 35 -121 35q-63 0 -98 -68l-62 45q71 121 168 121q47 0 137 -35q87 -34 127 -34q69 0 109 67l61 -49q-31 -61 -72 -88t-106 -27z" />
    <glyph glyph-name="uni0304" unicode="&#x304;" horiz-adv-x="0" 
d="M-66 1511h-598v93h598v-93z" />
    <glyph glyph-name="uni0306" unicode="&#x306;" horiz-adv-x="0" 
d="M-190 1763h98q0 -125 -77 -200.5t-204 -75.5q-125 0 -201.5 76t-76.5 200h96q0 -86 50 -138t132 -52t132.5 52t50.5 138z" />
    <glyph glyph-name="uni0307" unicode="&#x307;" horiz-adv-x="0" 
d="M-115 1520h-127v209h127v-209z" />
    <glyph glyph-name="uni0308" unicode="&#x308;" horiz-adv-x="0" 
d="M-514 1520h-127v209h127v-209zM-137 1520h-127v209h127v-209z" />
    <glyph glyph-name="uni030A" unicode="&#x30a;" horiz-adv-x="0" 
d="M-229 1731q57 -57 57 -152q0 -97 -57 -154t-156 -57q-97 0 -154 57q-59 59 -59 154q0 93 59 152t154 59q97 0 156 -59zM-383 1712q-56 0 -90.5 -36.5t-34.5 -96.5t34.5 -96.5t90.5 -36.5q54 0 87.5 36.5t33.5 96.5t-33.5 96.5t-87.5 36.5z" />
    <glyph glyph-name="uni030B" unicode="&#x30b;" horiz-adv-x="0" 
d="M-303 1739l-322 -244l-51 64l307 262zM51 1710l-342 -215l-45 68l330 233z" />
    <glyph glyph-name="uni030C" unicode="&#x30c;" horiz-adv-x="0" 
d="M-406 1505l-225 246l70 61l205 -219l206 219l70 -61l-225 -246h-101z" />
    <glyph glyph-name="uni0312" unicode="&#x312;" horiz-adv-x="0" 
d="M-92 1817v-45q-33 0 -54.5 -25t-21.5 -66v-6h76v-155h-137v131q0 75 37 120.5t100 45.5z" />
    <glyph glyph-name="uni0326" unicode="&#x326;" horiz-adv-x="0" 
d="M-219 -430v45q33 0 54.5 24.5t21.5 65.5v6h-76v156h137v-146q0 -72 -37 -111.5t-100 -39.5z" />
    <glyph glyph-name="uni0327" unicode="&#x327;" horiz-adv-x="0" 
d="M-479 0l-58 -88q59 0 100.5 -34.5t41.5 -92.5q0 -71 -58 -111q-95 -64 -243 -8v88q22 -30 74.5 -40t96 8.5t40.5 60.5q0 90 -150 57v41l109 180h47v-61z" />
    <glyph glyph-name="uni0328" unicode="&#x328;" horiz-adv-x="0" 
d="M-545 -190q0 81 58 145.5t155 93.5l29 -49q-152 -56 -152 -178q0 -49 30.5 -76t82.5 -27t104 25v-80q-55 -25 -131 -22q-79 5 -127.5 49.5t-48.5 118.5z" />
    <glyph glyph-name="uni0335" unicode="&#x335;" horiz-adv-x="0" 
d="M-125 627h-594v88h594v-88z" />
    <glyph glyph-name="uni0336" unicode="&#x336;" horiz-adv-x="0" 
 />
    <glyph glyph-name="uni0337" unicode="&#x337;" horiz-adv-x="0" 
d="M-682 0h-117l609 1493h114z" />
    <glyph glyph-name="uni0338" unicode="&#x338;" horiz-adv-x="0" 
d="M-682 0h-117l609 1493h114z" />
    <glyph glyph-name="uni03BC" unicode="&#x3bc;" horiz-adv-x="1169" 
d="M297 -354h-115v1413h129v-676q0 -139 69.5 -215t188.5 -76q135 0 211 97t76 266v604h129v-1059h-121l8 195h-10q-44 -104 -128.5 -159.5t-192.5 -55.5q-70 0 -136 30.5t-96 79.5h-12v-444z" />
    <glyph glyph-name="pi" unicode="&#x3c0;" horiz-adv-x="1163" 
d="M240 948h-189v111h1051v-111h-184v-835h184v-113h-187q-63 0 -93.5 27.5t-30.5 93.5v827h-420v-948h-131v948z" />
    <glyph glyph-name="omega" unicode="&#x3c9;" horiz-adv-x="1650" 
d="M166 883q0 285 180 456q180 174 479 174q298 0 478 -174q182 -173 182 -456q0 -230 -125 -398q-125 -169 -336 -227v-152h336v-106h-461v332q203 38 326 170q125 131 125 315v127q0 207 -154 328q-150 123 -371 123q-222 0 -372 -123q-152 -122 -152 -330v-127
q0 -181 123 -313q123 -129 326 -170v-332h-459v106h336v152q-211 58 -336 227q-125 168 -125 398z" />
    <glyph glyph-name="Wgrave" unicode="&#x1e80;" horiz-adv-x="1853" 
d="M967 1735l-45 -68l-342 215l57 86zM332 0l-305 1493h139l190 -938l72 -405h12l389 1343h195l389 -1343h12l72 405l191 938h139l-305 -1493h-191l-399 1374h-10l-400 -1374h-190z" />
    <glyph glyph-name="wgrave" unicode="&#x1e81;" horiz-adv-x="1486" 
d="M461 1554l330 -233l-46 -68l-342 215zM1157 444l162 615h145l-305 -1059h-178l-154 580l-77 325h-13l-73 -325l-146 -580h-184l-311 1059h151l168 -608l74 -324h10l236 932h167l248 -926h8z" />
    <glyph glyph-name="Wacute" unicode="&#x1e82;" horiz-adv-x="1853" 
d="M1260 1882l-342 -215l-46 68l330 233zM332 0l-305 1493h139l190 -938l72 -405h12l389 1343h195l389 -1343h12l72 405l191 938h139l-305 -1493h-191l-399 1374h-10l-400 -1374h-190z" />
    <glyph glyph-name="wacute" unicode="&#x1e83;" horiz-adv-x="1486" 
d="M1026 1554l57 -86l-342 -215l-45 68zM1157 444l162 615h145l-305 -1059h-178l-154 580l-77 325h-13l-73 -325l-146 -580h-184l-311 1059h151l168 -608l74 -324h10l236 932h167l248 -926h8z" />
    <glyph glyph-name="Wdieresis" unicode="&#x1e84;" horiz-adv-x="1853" 
d="M795 1698h-127v209h127v-209zM1171 1698h-127v209h127v-209zM332 0l-305 1493h139l190 -938l72 -405h12l389 1343h195l389 -1343h12l72 405l191 938h139l-305 -1493h-191l-399 1374h-10l-400 -1374h-190z" />
    <glyph glyph-name="wdieresis" unicode="&#x1e85;" horiz-adv-x="1486" 
d="M492 1493h126v-209h-126v209zM868 1493h127v-209h-127v209zM1157 444l162 615h145l-305 -1059h-178l-154 580l-77 325h-13l-73 -325l-146 -580h-184l-311 1059h151l168 -608l74 -324h10l236 932h167l248 -926h8z" />
    <glyph glyph-name="Ygrave" unicode="&#x1ef2;" horiz-adv-x="1282" 
d="M690 1735l-45 -68l-342 215l57 86zM575 616l-561 877h164l258 -414l199 -329h14l201 333l252 410h166l-559 -877v-616h-134v616z" />
    <glyph glyph-name="ygrave" unicode="&#x1ef3;" horiz-adv-x="1024" 
d="M561 1321l-45 -68l-342 215l57 86zM449 121l-445 938h148l161 -357l191 -432h12l358 789h146l-445 -942v-338q0 -121 -116 -121h-266v111h256v352z" />
    <glyph glyph-name="endash" unicode="&#x2013;" horiz-adv-x="1296" 
d="M1167 565h-1038v101h1038v-101z" />
    <glyph glyph-name="emdash" unicode="&#x2014;" horiz-adv-x="1697" 
d="M1569 565h-1440v101h1440v-101z" />
    <glyph glyph-name="quoteleft" unicode="&#x2018;" horiz-adv-x="395" 
d="M307 1513v-77q-74 0 -101.5 -35.5t-27.5 -102.5v-59h115v-223h-203v293q0 93 59 148.5t158 55.5z" />
    <glyph glyph-name="quoteright" unicode="&#x2019;" horiz-adv-x="387" 
d="M96 995v78q74 0 101.5 35t27.5 102v60h-114v223h202v-293q0 -94 -59.5 -149.5t-157.5 -55.5z" />
    <glyph glyph-name="quotesinglbase" unicode="&#x201a;" horiz-adv-x="395" 
d="M88 -274v77q74 0 101.5 35.5t27.5 102.5v59h-115v223h203v-293q0 -93 -59 -148.5t-158 -55.5z" />
    <glyph glyph-name="quotedblleft" unicode="&#x201c;" horiz-adv-x="790" 
d="M307 1513v-77q-74 0 -101.5 -35.5t-27.5 -102.5v-59h115v-223h-203v293q0 93 59 148.5t158 55.5zM702 1513v-77q-74 0 -101.5 -35.5t-27.5 -102.5v-59h115v-223h-203v293q0 93 59 148.5t158 55.5z" />
    <glyph glyph-name="quotedblright" unicode="&#x201d;" horiz-adv-x="790" 
d="M88 995v78q74 0 101.5 35t27.5 102v60h-115v223h203v-293q0 -94 -59.5 -149.5t-157.5 -55.5zM483 995v78q74 0 101.5 35t27.5 102v60h-114v223h202v-293q0 -94 -59.5 -149.5t-157.5 -55.5z" />
    <glyph glyph-name="quotedblbase" unicode="&#x201e;" horiz-adv-x="790" 
d="M88 -274v77q74 0 101.5 35.5t27.5 102.5v59h-115v223h203v-293q0 -93 -59 -148.5t-158 -55.5zM483 -274v77q74 0 101.5 35.5t27.5 102.5v59h-114v223h202v-293q0 -93 -59 -148.5t-158 -55.5z" />
    <glyph glyph-name="dagger" unicode="&#x2020;" horiz-adv-x="831" 
d="M475 1501v-743h275v-115h-275v-319h-121v319h-274v115h274v743h121z" />
    <glyph glyph-name="daggerdbl" unicode="&#x2021;" horiz-adv-x="833" 
d="M754 1188v-111h-279v-319h275v-115h-275v-319h-121v319h-274v115h274v319h-272v111h272v313h121v-313h279z" />
    <glyph glyph-name="bullet" unicode="&#x2022;" horiz-adv-x="802" 
d="M397 868q111 0 185.5 -72t74.5 -186q0 -110 -77 -184t-181 -74q-108 0 -182 74t-74 186q0 111 73.5 183.5t180.5 72.5z" />
    <glyph glyph-name="ellipsis" unicode="&#x2026;" horiz-adv-x="1273" 
d="M344 0h-205v229h205v-229zM739 0h-204v229h204v-229zM1135 0h-205v229h205v-229z" />
    <glyph glyph-name="perthousand" unicode="&#x2030;" horiz-adv-x="2658" 
d="M127 1141q0 166 98 267t258 101q161 0 260 -101t99 -267q0 -167 -99 -270t-260 -103q-160 0 -258 103t-98 270zM537 0h-146l944 1493h146zM252 1141q0 -119 64 -193t167 -74q104 0 169 74t65 193q0 117 -65 190.5t-169 73.5q-103 0 -167 -73.5t-64 -190.5zM995 352
q0 166 99.5 268.5t259.5 102.5q159 0 256.5 -102.5t97.5 -268.5q0 -167 -97 -269.5t-257 -102.5q-161 0 -260 102.5t-99 269.5zM1810 352q0 166 99.5 268.5t259.5 102.5q159 0 258 -105q98 -101 98 -266q0 -167 -98 -269.5t-258 -102.5q-161 0 -260 102.5t-99 269.5z
M1120 352q0 -118 65.5 -192t168.5 -74t167 74t64 192q0 117 -64.5 191.5t-166.5 74.5q-104 0 -169 -74.5t-65 -191.5zM2169 86q103 0 167 74t64 192q0 117 -64.5 191.5t-166.5 74.5q-104 0 -169 -74.5t-65 -191.5t65 -191.5t169 -74.5z" />
    <glyph glyph-name="guilsinglleft" unicode="&#x2039;" horiz-adv-x="679" 
d="M381 139l-248 422l248 418h129l-227 -418l227 -422h-129z" />
    <glyph glyph-name="guilsinglright" unicode="&#x203a;" horiz-adv-x="681" 
d="M303 979l246 -418l-246 -422h-133l227 422l-227 418h133z" />
    <glyph glyph-name="fraction" unicode="&#x2044;" horiz-adv-x="391" 
d="M-164 -94h-117l832 1667h117z" />
    <glyph glyph-name="uni2070" unicode="&#x2070;" horiz-adv-x="1001" 
d="M504 604q-183 0 -289 151.5t-106 438.5q0 284 106 435t287 151t286 -151t105 -435q0 -286 -105.5 -438t-283.5 -152zM500 721q258 0 258 471q0 473 -256 473q-258 0 -258 -469q0 -475 256 -475z" />
    <glyph glyph-name="uni2074" unicode="&#x2074;" horiz-adv-x="970" 
d="M754 1765v-788h145v-111h-145v-252h-127v252h-570v115l494 784h203zM627 1673l-434 -696h434v696z" />
    <glyph glyph-name="uni2075" unicode="&#x2075;" horiz-adv-x="966" 
d="M494 1374q160 0 262 -108q104 -107 104 -277q0 -172 -110 -282q-109 -109 -279 -109q-163 0 -266 100q-104 104 -101 267h132q-5 -109 62 -179.5t175 -70.5q113 0 181.5 73.5t68.5 196.5t-69 200t-183 77q-74 0 -136 -33.5t-87 -87.5h-121l25 624h653v-114h-539l-18 -367
l6 -2q36 42 103 67t137 25z" />
    <glyph glyph-name="uni2076" unicode="&#x2076;" horiz-adv-x="974" 
d="M506 598q-393 0 -393 592q0 590 403 590q148 0 242 -77.5t106 -211.5h-135q-11 88 -69.5 132t-145.5 44q-285 0 -264 -475h8q76 168 277 168q153 0 247 -105q99 -105 99 -272q0 -169 -103 -278q-101 -107 -272 -107zM512 1247q-109 0 -173.5 -77t-64.5 -191
q0 -118 66 -193q65 -71 172 -71t168 73q63 72 63 197q0 122 -63 192t-168 70z" />
    <glyph glyph-name="uni2077" unicode="&#x2077;" horiz-adv-x="870" 
d="M172 1438h-111v327h750v-90q-164 -225 -289 -516q-122 -284 -170 -545h-141q48 252 166 527q120 282 276 510h-481v-213z" />
    <glyph glyph-name="uni2078" unicode="&#x2078;" horiz-adv-x="937" 
d="M94 909q0 189 170 275v12q-76 36 -123 109.5t-47 162.5q0 138 105 224q104 88 270 88q167 0 271 -87.5t104 -224.5q0 -88 -45 -161.5t-123 -110.5v-12q79 -38 123.5 -111t44.5 -164q0 -139 -105 -225q-106 -86 -272 -86t-269.5 87t-103.5 224zM229 1454q0 -97 66.5 -154
t173.5 -57q109 0 174.5 58t65.5 153q0 96 -65.5 152.5t-174.5 56.5q-111 0 -175.5 -57t-64.5 -152zM229 926q0 -97 66.5 -154t173.5 -57q111 0 175.5 58t64.5 153q0 96 -65.5 153.5t-174.5 57.5q-111 0 -175.5 -58t-64.5 -153z" />
    <glyph glyph-name="uni2079" unicode="&#x2079;" horiz-adv-x="974" 
d="M465 598q-142 0 -237 79.5t-107 209.5h133q7 -81 65.5 -127.5t149.5 -46.5q287 0 260 475h-8q-82 -166 -279 -166q-152 0 -247 102q-97 108 -97 273q0 169 101 276t274 107q393 0 393 -600q0 -304 -99.5 -443t-301.5 -139zM465 1133q110 0 175 77t65 193q0 117 -67 189.5
t-173 72.5q-105 0 -168.5 -73.5t-63.5 -196.5q0 -121 64 -191.5t168 -70.5z" />
    <glyph glyph-name="uni2080" unicode="&#x2080;" horiz-adv-x="1001" 
d="M504 -215q-183 0 -289 151.5t-106 438.5q0 284 106 435t287 151t286 -151t105 -435q0 -286 -105.5 -438t-283.5 -152zM500 -98q258 0 258 471q0 473 -256 473q-258 0 -258 -469q0 -475 256 -475z" />
    <glyph glyph-name="uni2081" unicode="&#x2081;" horiz-adv-x="731" 
d="M381 649h-289v101h45q111 0 181 54t71 142h119v-1151h-127v854z" />
    <glyph glyph-name="uni2082" unicode="&#x2082;" horiz-adv-x="917" 
d="M258 -96l207 8h352v-117h-700v39q0 76 22 141.5t66 120.5t83.5 91.5t100.5 84.5q124 94 163 133q112 108 112 230q0 98 -57 153.5t-156 55.5q-110 0 -171 -62t-59 -172h-129q-3 158 98 252q102 99 265 99q154 0 250 -90t96 -232q0 -76 -28 -144t-73.5 -119t-101 -97.5
t-112.5 -89.5t-105 -85.5t-82 -93.5t-41 -106z" />
    <glyph glyph-name="uni2083" unicode="&#x2083;" horiz-adv-x="942" 
d="M471 -221q-170 0 -268 99.5t-92 264.5h137q-6 -120 55 -183.5t168 -63.5q106 0 172 60.5t66 158.5q0 102 -67.5 160.5t-184.5 58.5h-76v112h74q113 0 174 57t61 150q0 90 -60 140.5t-155 50.5q-106 0 -165 -64t-58 -180h-133q-6 159 92 260q101 101 264 101
q149 0 250 -82q102 -79 102 -220q0 -180 -176 -260v-8q96 -36 145.5 -109.5t49.5 -168.5q0 -149 -105 -240q-104 -94 -270 -94z" />
    <glyph glyph-name="uni2084" unicode="&#x2084;" horiz-adv-x="970" 
d="M754 946v-788h145v-111h-145v-252h-127v252h-570v115l494 784h203zM627 854l-434 -696h434v696z" />
    <glyph glyph-name="uni2085" unicode="&#x2085;" horiz-adv-x="966" 
d="M494 555q159 0 262 -109q104 -107 104 -276q0 -174 -110 -281q-107 -110 -279 -110q-161 0 -266 102q-104 104 -101 264h132q-5 -109 61.5 -179t175.5 -70q113 0 181.5 73.5t68.5 196.5t-69 199.5t-183 76.5q-74 0 -136 -33t-87 -87h-121l25 624h653v-115h-539l-18 -366
l6 -2q36 42 103 67t137 25z" />
    <glyph glyph-name="uni2086" unicode="&#x2086;" horiz-adv-x="974" 
d="M506 -221q-393 0 -393 592q0 590 403 590q148 0 242 -77.5t106 -211.5h-135q-11 88 -69.5 132t-145.5 44q-285 0 -264 -475h8q76 168 277 168q153 0 247 -105q99 -105 99 -272q0 -170 -103 -279q-100 -106 -272 -106zM512 428q-109 0 -173.5 -77t-64.5 -191
q0 -119 66 -191q64 -73 172 -73q107 0 168 73q63 72 63 197q0 122 -63 192t-168 70z" />
    <glyph glyph-name="uni2087" unicode="&#x2087;" horiz-adv-x="870" 
d="M172 618h-111v328h750v-90q-159 -221 -287 -516q-125 -282 -172 -545h-141q48 252 166 527q119 279 276 509h-481v-213z" />
    <glyph glyph-name="uni2088" unicode="&#x2088;" horiz-adv-x="937" 
d="M94 90q0 189 170 275v12q-76 36 -123 109.5t-47 162.5q0 137 105 223q106 89 270 89q167 0 271 -87.5t104 -224.5q0 -88 -45 -161.5t-123 -110.5v-12q79 -38 123.5 -111t44.5 -164q0 -139 -105 -225q-106 -86 -272 -86t-269.5 87t-103.5 224zM229 635q0 -97 66.5 -154
t173.5 -57q109 0 174.5 58t65.5 153q0 96 -65.5 152.5t-174.5 56.5q-111 0 -175.5 -57t-64.5 -152zM229 106q0 -97 66.5 -153.5t173.5 -56.5q111 0 175.5 57.5t64.5 152.5q0 96 -65.5 153.5t-174.5 57.5q-111 0 -175.5 -58t-64.5 -153z" />
    <glyph glyph-name="uni2089" unicode="&#x2089;" horiz-adv-x="974" 
d="M465 -221q-142 0 -237 79.5t-107 209.5h133q7 -81 66.5 -127.5t148.5 -46.5q287 0 260 475h-8q-82 -166 -279 -166q-152 0 -247 102q-97 108 -97 273q0 169 101 276t274 107q393 0 393 -601q0 -304 -99.5 -442.5t-301.5 -138.5zM465 313q110 0 175 77.5t65 193.5
q0 117 -67 189.5t-173 72.5q-105 0 -168.5 -74t-63.5 -197q0 -121 64 -191.5t168 -70.5z" />
    <glyph glyph-name="uni20A6" unicode="&#x20a6;" horiz-adv-x="1415" 
d="M1229 805h172v-119h-172v-686h-150l-403 686h-357v-686h-133v686h-172v119h172v688h152l405 -688h355v688h131v-688zM319 899v-94h287l-287 487h-8zM1098 205h8l-8 409v72h-285z" />
    <glyph glyph-name="uni20A9" unicode="&#x20a9;" horiz-adv-x="1552" 
d="M1356 805h170v-119h-191l-123 -686h-114l-160 686h-305l-160 -686h-115l-131 686h-200v119h178l-131 688h123l120 -688h244l160 688h131l160 -688h235l113 688h119zM690 932l-28 -127h247l-28 125l-90 422h-9zM428 197l76 362l28 127h-194l22 -125l60 -364h8zM1153 197
l53 362l21 127h-187l29 -127l74 -362h10z" />
    <glyph glyph-name="uni20AA" unicode="&#x20aa;" horiz-adv-x="1357" 
d="M776 324v1048h-516v-1372h-129v1493h612q81 0 119.5 -35t38.5 -123v-1011h-125zM1096 123v1370h129v-1493h-613q-82 0 -120.5 35.5t-38.5 122.5v1013h127v-1048h516z" />
    <glyph glyph-name="Euro" unicode="&#x20ac;" horiz-adv-x="1529" 
d="M821 102q174 0 289 92.5t154 254.5h141q-44 -214 -203 -340q-157 -127 -389 -127q-240 0 -397 146t-201 407h-158v118h146q-4 82 -4 95q0 72 6 137h-148v119h168q54 244 209 375.5t389 131.5q229 0 385 -129q156 -126 197 -335h-141q-38 165 -155 254.5t-290 89.5
q-181 0 -296 -99.5t-158 -287.5h610l-14 -119h-615q-8 -52 -8 -142q0 -72 2 -90h608l-14 -118h-580q38 -213 159 -323t308 -110z" />
    <glyph glyph-name="uni20B2" unicode="&#x20b2;" horiz-adv-x="1404" 
d="M723 647v127h500v-78q0 -265 -134 -417.5t-370 -169.5v-195h-115v195q-239 20 -371.5 187t-132.5 449q0 286 134 455.5t370 188.5v194h115v-194q191 -13 319 -127t154 -293h-139q-26 141 -130.5 221t-260.5 80q-192 0 -310 -121q-114 -120 -114 -311v-174
q0 -203 117.5 -323t314.5 -120q195 0 305 114.5t110 311.5h-362z" />
    <glyph glyph-name="uni20B8" unicode="&#x20b8;" horiz-adv-x="1122" 
d="M10 1372v121h1102v-121h-1102zM498 1022h-488v121h1102v-121h-481v-1022h-133v1022z" />
    <glyph glyph-name="uni20B9" unicode="&#x20b9;" horiz-adv-x="1607" 
d="M301 1493h1057v-121h-283q112 -106 127 -285h156v-118h-158q-27 -286 -307 -369v-12q22 -3 44 -18t32 -35q12 -13 30 -46l15 -28q16 -20 35 -64l206 -397h-151l-199 399q-51 108 -100 140q-52 34 -146 34h-358v117h422q308 0 338 279h-760v118h762q-13 139 -102 210
t-238 71h-422v125z" />
    <glyph glyph-name="uni20BA" unicode="&#x20ba;" horiz-adv-x="1173" 
d="M954 653h127q-40 -304 -241 -481q-199 -172 -482 -172h-112v616l-215 -84v123l215 86v201l-215 -86v121l215 90v426h131v-377l418 170v-123l-418 -172v-200l418 172v-123l-418 -170v-547q228 0 383 143q157 145 194 387z" />
    <glyph glyph-name="uni20BC" unicode="&#x20bc;" 
d="M229 0h-125v750q0 230 125.5 357t348.5 138v248h120v-248q228 -7 348.5 -138t120.5 -357v-750h-120v750q0 177 -92.5 273.5t-256.5 102.5v-1126h-120v1126q-169 -7 -259 -106.5t-90 -269.5v-750z" />
    <glyph glyph-name="uni20BD" unicode="&#x20bd;" horiz-adv-x="1333" 
d="M813 567h-455v-176h586v-121h-586v-270h-133v270h-153v121h153v180h-153v119h153v803h588q225 0 340 -120t115 -339q0 -226 -116.5 -346.5t-338.5 -120.5zM848 1364h-490v-674h461q145 0 226 71.5t81 194.5v164q0 115 -75 179.5t-203 64.5z" />
    <glyph glyph-name="uni20BF" unicode="&#x20bf;" horiz-adv-x="1470" 
d="M1225 446q0 -155 -103 -247t-284 -93v-192h-115v192h-184v-192h-113v192h-168v1291h168v186h113v-186h184v186h115v-186h10q169 0 257.5 -86t88.5 -242q0 -105 -49 -182t-139 -109v-14q219 -53 219 -318zM846 1278h-453v-455h457q94 0 149.5 48.5t55.5 134.5v92
q0 83 -55 131.5t-154 48.5zM1083 412v100q0 91 -59.5 140.5t-161.5 49.5h-469v-475h438q113 0 182.5 50.5t69.5 134.5z" />
    <glyph glyph-name="uni2105" unicode="&#x2105;" horiz-adv-x="1945" 
d="M664 1028h127q-17 -129 -110 -206t-228 -77q-156 0 -253.5 103t-97.5 278q0 176 99 281.5t256 105.5q129 0 219.5 -72t107.5 -186h-125q-13 68 -71 109t-133 41q-105 0 -166.5 -75t-61.5 -204q0 -127 60 -199.5t164 -72.5q86 0 144.5 47.5t68.5 126.5zM567 0h-143
l944 1493h141zM1487 754q158 0 258 -109q98 -107 98 -276q0 -170 -98 -277q-97 -106 -258 -106q-163 0 -260 106q-99 108 -99 277q0 168 99 276q100 109 260 109zM1253 371q0 -125 63 -200t171 -75q105 0 168 75t63 202q0 124 -61.5 198t-169.5 74q-107 0 -170.5 -73.5
t-63.5 -200.5z" />
    <glyph glyph-name="uni2116" unicode="&#x2116;" horiz-adv-x="2807" 
d="M1532 1032q0 194 127 336q128 143 340 143q214 0 342 -143q129 -141 129 -336q0 -199 -135 -334q-132 -135 -336 -135q-202 0 -334 135q-133 136 -133 334zM358 0h-133v1493h176l863 -1341h8l-12 460v881h133v-1493h-179l-858 1346h-8l10 -445v-901zM1688 1120v-164
q0 -119 92 -196q91 -76 219 -76q129 0 223 76t94 196v162q0 117 -90 195t-223 78q-131 0 -223 -74t-92 -197zM1661 0v123h680v-123h-680z" />
    <glyph glyph-name="uni2117" unicode="&#x2117;" horiz-adv-x="1943" 
d="M967 -156q-364 0 -613 240q-250 241 -250 616q0 377 250 621q251 242 615 242q363 0 612 -240q250 -241 250 -616q0 -379 -250 -623q-249 -240 -614 -240zM967 -102q337 0 567 227q233 227 233 580t-233 577q-230 227 -567 227q-334 0 -566 -229q-233 -227 -233 -580
q0 -350 233 -577q234 -225 566 -225zM803 283h-131v841h411q139 0 222.5 -79t83.5 -209t-83.5 -210.5t-222.5 -80.5h-280v-262zM799 995v-327h291q78 0 124 46t46 122q0 70 -46.5 114.5t-123.5 44.5h-291z" />
    <glyph glyph-name="trademark" unicode="&#x2122;" horiz-adv-x="1435" 
d="M248 1411h-191v82h478v-82h-199v-553h-88v553zM942 1049l195 444h116v-635h-88v328l9 182h-7l-227 -498l-225 498h-6l6 -182v-328h-84v635h112l195 -444h4z" />
    <glyph glyph-name="estimated" unicode="&#x212e;" horiz-adv-x="1699" 
d="M1462 471h94q-56 -222 -245 -356q-192 -133 -455 -133q-333 0 -532 208t-199 545q0 339 205 547q205 211 544 211q310 0 496 -180q188 -179 203 -504q2 -29 2 -117h-1229v-379q71 -120 208.5 -187t305.5 -67q221 0 383 113q166 114 219 299zM346 1149v-383h1010v420
q-181 227 -510 221q-325 -6 -500 -258z" />
    <glyph glyph-name="oneeighth" unicode="&#x215b;" horiz-adv-x="1837" 
d="M471 -94h-117l832 1667h117zM317 1221h-251v106h92q166 0 166 158v8h125v-969h-132v697zM1106 256q0 74 37.5 135.5t105.5 93.5v11q-68 32 -105.5 93.5t-37.5 137.5q0 119 90 193.5t236 74.5q147 0 235 -74.5t88 -193.5q0 -74 -38 -137.5t-103 -93.5v-11
q141 -71 141 -231q0 -121 -88.5 -194.5t-234.5 -73.5t-236 74.5t-90 195.5zM1243 713q0 -77 51.5 -121.5t137.5 -44.5q85 0 134.5 45.5t49.5 120.5q0 77 -50.5 121.5t-133.5 44.5q-86 0 -137.5 -46t-51.5 -120zM1243 268q0 -77 51.5 -120.5t137.5 -43.5q84 0 134 45.5
t50 118.5q0 77 -50.5 121.5t-133.5 44.5q-86 0 -137.5 -46t-51.5 -120z" />
    <glyph glyph-name="threeeighths" unicode="&#x215c;" horiz-adv-x="1992" 
d="M631 -94h-117l832 1667h116zM393 508q-141 0 -227 84.5t-82 220.5h135q-1 -89 46.5 -138.5t127.5 -49.5q78 0 129 47t51 119q0 80 -53 125t-141 45h-68v122h62q84 0 132 43.5t48 114.5q0 70 -44 109t-114 39q-81 0 -127.5 -51t-44.5 -138h-135q-5 133 77.5 219t225.5 86
q133 0 218 -71.5t85 -190.5q0 -147 -141 -211v-10q158 -59 158 -231q0 -124 -90 -205q-90 -78 -228 -78zM1266 256q0 74 37.5 135.5t105.5 93.5v11q-68 32 -105.5 93.5t-37.5 137.5q0 119 89.5 193.5t235.5 74.5q147 0 235.5 -74.5t88.5 -193.5q0 -74 -38 -137.5t-103 -93.5
v-11q141 -71 141 -231q0 -121 -89 -194.5t-235 -73.5t-235.5 74t-89.5 196zM1403 713q0 -77 51 -121.5t137 -44.5q85 0 135 46t50 120q0 77 -51 121.5t-134 44.5q-86 0 -137 -46t-51 -120zM1403 268q0 -77 51 -120.5t137 -43.5q84 0 134.5 45.5t50.5 118.5q0 77 -51 121.5
t-134 44.5q-86 0 -137 -46t-51 -120z" />
    <glyph glyph-name="fiveeighths" unicode="&#x215d;" horiz-adv-x="2011" 
d="M647 -94h-117l832 1667h117zM88 817h135q-2 -81 47.5 -134.5t130.5 -53.5q85 0 137 56.5t52 150.5q0 95 -52 155t-137 60q-57 0 -102.5 -27.5t-62.5 -71.5h-127v541h573v-123h-442v-166l-4 -104l2 -2q61 67 186 67q133 0 219 -92q86 -89 86 -231q0 -147 -92 -242
q-89 -92 -236 -92q-140 0 -227 85t-86 224zM1282 256q0 74 37.5 135.5t105.5 93.5v11q-68 32 -105.5 93.5t-37.5 137.5q0 119 90 193.5t236 74.5q147 0 235 -74.5t88 -193.5q0 -74 -38 -137.5t-103 -93.5v-11q141 -71 141 -231q0 -121 -88.5 -194.5t-234.5 -73.5t-236 74.5
t-90 195.5zM1419 713q0 -77 51.5 -121.5t137.5 -44.5q85 0 134.5 45.5t49.5 120.5q0 77 -50.5 121.5t-133.5 44.5q-86 0 -137.5 -46t-51.5 -120zM1419 268q0 -77 51.5 -120.5t137.5 -43.5q84 0 134 45.5t50 118.5q0 77 -50.5 121.5t-133.5 44.5q-86 0 -137.5 -46t-51.5 -120
z" />
    <glyph glyph-name="seveneighths" unicode="&#x215e;" horiz-adv-x="1812" 
d="M330 -94l831 1667h117l-832 -1667h-116zM76 1493h620v-96q-173 -215 -262 -422q-92 -213 -131 -451h-131q81 477 363 846h-359v-123h-100v246zM1589 496v-11q142 -71 142 -231q0 -121 -89 -194.5t-235 -73.5t-236 74.5t-90 195.5q0 73 38 135t106 94v11q-68 32 -106 93.5
t-38 137.5q0 119 90 193.5t236 74.5q147 0 235.5 -74.5t88.5 -193.5q0 -74 -38.5 -137.5t-103.5 -93.5zM1219 713q0 -77 51 -121.5t137 -44.5q85 0 134.5 45.5t49.5 120.5q0 77 -50.5 121.5t-133.5 44.5q-86 0 -137 -46t-51 -120zM1591 268q0 77 -50.5 121.5t-133.5 44.5
q-86 0 -137 -46t-51 -120q0 -77 51 -120.5t137 -43.5q84 0 134 45.5t50 118.5z" />
    <glyph glyph-name="arrowleft" unicode="&#x2190;" horiz-adv-x="1734" 
d="M1536 580v-103h-1278l346 -477h-121l-395 528l395 531h121l-346 -479h1278z" />
    <glyph glyph-name="arrowup" unicode="&#x2191;" horiz-adv-x="1415" 
d="M1169 760v-131l-413 362v-882h413v-103h-923v103h411v882l-411 -362v131l459 403z" />
    <glyph glyph-name="arrowright" unicode="&#x2192;" horiz-adv-x="1796" 
d="M1477 477h-1278v103h1278l-347 479h121l396 -531l-396 -528h-121z" />
    <glyph glyph-name="arrowdown" unicode="&#x2193;" horiz-adv-x="1415" 
d="M1169 1059v-103h-413v-882l413 362v-131l-464 -403l-459 403v131l411 -362v882h-411v103h923z" />
    <glyph glyph-name="arrowboth" unicode="&#x2194;" horiz-adv-x="2217" 
d="M604 242l-397 473l397 477h119l-344 -426h1458l-342 426h117l399 -477l-399 -473h-117l342 424h-1458l344 -424h-119z" />
    <glyph glyph-name="arrowupdn" unicode="&#x2195;" horiz-adv-x="1617" 
d="M809 -289l-580 516v140l531 -473v1480l-531 -471v137l580 516l575 -516v-137l-528 471v-1480l528 473v-140z" />
    <glyph glyph-name="uni2196" unicode="&#x2196;" horiz-adv-x="1388" 
d="M1260 70l-68 -70l-854 889v-737h-98v905h872v-107h-709z" />
    <glyph glyph-name="uni2197" unicode="&#x2197;" horiz-adv-x="1458" 
d="M1120 891l-862 -891l-68 70l865 886h-713v103h872v-903h-94v735z" />
    <glyph glyph-name="uni2198" unicode="&#x2198;" horiz-adv-x="1396" 
d="M1155 0l-876 -4v108h706l-856 889l68 66l860 -887l2 735h98z" />
    <glyph glyph-name="uni2199" unicode="&#x2199;" horiz-adv-x="1392" 
d="M1118 0h-878v907h98v-735l854 887l72 -70l-854 -885h708v-104z" />
    <glyph glyph-name="uni21A9" unicode="&#x21a9;" horiz-adv-x="2017" 
d="M1763 1020q0 -204 -126.5 -320t-362.5 -116h-735v-254l-334 303l334 305v-254h735q180 0 283.5 87t103.5 249q0 152 -100 243t-267 91h-26v96h26q205 0 338 -121q131 -119 131 -309z" />
    <glyph glyph-name="uni21AA" unicode="&#x21aa;" horiz-adv-x="2017" 
d="M256 1020q0 189 129 309q133 121 340 121h27v-96h-27q-169 0 -266 -90.5t-97 -243.5q0 -164 101 -250t282 -86h736v254l334 -305l-334 -303v254h-736q-236 0 -362.5 116t-126.5 320z" />
    <glyph glyph-name="uni21B2" unicode="&#x21b2;" horiz-adv-x="1703" 
d="M1350 684v809h100v-909h-856v-254l-336 303l336 305v-254h756z" />
    <glyph glyph-name="uni21B3" unicode="&#x21b3;" horiz-adv-x="1703" 
d="M1112 938l338 -305l-338 -303v254h-854v909h98v-809h756v254z" />
    <glyph glyph-name="uni21BA" unicode="&#x21ba;" horiz-adv-x="1685" 
d="M848 -25q-293 0 -486 193q-194 194 -194 475q0 190 95.5 356t260.5 265l56 -88q-306 -185 -306 -533q0 -239 164 -403q165 -160 408 -160q241 0 401 160t160 391q0 184 -82 297q-78 115 -391 393l-6 -4l10 -146v-315h-102v637h618v-109h-309l-137 11l-2 -6
q321 -272 417 -412q97 -142 97 -346q0 -270 -193 -463t-479 -193z" />
    <glyph glyph-name="uni21BB" unicode="&#x21bb;" horiz-adv-x="1685" 
d="M838 -25q-285 0 -478 193q-192 192 -192 463q0 210 96 350q95 139 414 408v6l-141 -11h-312v109h625v-637h-109v315l11 146l-7 4q-315 -283 -391 -395q-80 -115 -80 -295q0 -229 162 -391q165 -160 402 -160q240 0 405 160q164 164 164 403q0 175 -79.5 310.5
t-223.5 222.5l57 88q157 -90 258 -263q101 -168 101 -358q0 -281 -197 -475q-193 -193 -485 -193z" />
    <glyph glyph-name="emptyset" unicode="&#x2205;" horiz-adv-x="1605" 
d="M276 1311q182 200 510 200q329 0 508 -200q181 -199 181 -566q0 -368 -181 -567q-177 -198 -508 -198q-330 0 -510 198q-178 199 -178 567q0 367 178 566zM240 852v-209q0 -187 84 -315l868 909q-143 149 -406 149q-256 0 -401 -143t-145 -391zM1333 643v209
q0 164 -65 285l-867 -904q147 -129 385 -129q256 0 401.5 145.5t145.5 393.5z" />
    <glyph glyph-name="product" unicode="&#x220f;" horiz-adv-x="1460" 
d="M231 1493h1000v-109h-213v-1384h-123v1384h-320v-1384h-124v1384h-220v109z" />
    <glyph glyph-name="summation" unicode="&#x2211;" horiz-adv-x="1179" 
d="M1083 -330h-974v76l520 834v12l-520 825v76h974v-107l-524 -2l-307 11v-11l514 -796l-514 -809v-12l307 12h524v-109z" />
    <glyph glyph-name="minus" unicode="&#x2212;" horiz-adv-x="1335" 
d="M190 535v143h963v-143h-963z" />
    <glyph glyph-name="radical" unicode="&#x221a;" horiz-adv-x="1404" 
d="M776 494l367 999h137l-594 -1616h-188l-289 776h-119v97h211l96 -246l189 -529h12z" />
    <glyph glyph-name="infinity" unicode="&#x221e;" horiz-adv-x="1855" 
d="M487 160q-165 0 -264 114q-98 113 -98 285q0 169 98 285q98 119 262 119q152 0 267 -109q73 -73 88 -94q24 -30 88 -117q117 160 186 219q119 101 258 101q166 0 260 -119q97 -123 97 -285q0 -157 -97 -280q-94 -119 -260 -119q-59 0 -118 19t-101 46q-39 26 -88 78
l-70 82l-67 94q-62 -86 -86 -117q-34 -43 -92 -98q-110 -104 -263 -104zM483 256q91 0 172 63q84 65 209 240q-125 174 -207 238q-80 65 -174 65q-113 0 -186.5 -84.5t-73.5 -218.5q0 -133 74 -218t186 -85zM1372 256q114 0 188 84t74 219q0 133 -75 218t-187 85
q-96 0 -176 -65q-79 -64 -203 -238q122 -170 205 -240q75 -63 174 -63z" />
    <glyph glyph-name="integral" unicode="&#x222b;" horiz-adv-x="1120" 
d="M610 1542h283v-117h-275v-1581q0 -118 -122 -118h-283v114h274v1579q0 123 123 123z" />
    <glyph glyph-name="approxequal" unicode="&#x2248;" horiz-adv-x="1079" 
d="M313 715h-86q-10 124 34.5 180.5t119.5 56.5q57 0 158 -49q106 -47 149 -47q95 0 86 127h86q10 -126 -39 -183t-133 -57q-68 0 -170 45q-105 48 -135 48q-85 0 -70 -121zM313 315h-86q-10 124 35.5 182t120.5 58q57 0 158 -49q103 -47 147 -47q95 0 86 127h86
q10 -127 -39.5 -186.5t-132.5 -59.5q-66 0 -170 49q-101 49 -135 49q-38 0 -57.5 -34t-12.5 -89z" />
    <glyph glyph-name="notequal" unicode="&#x2260;" horiz-adv-x="1228" 
d="M1040 889v-137h-278l-150 -289h428v-133h-497l-129 -250h-152l129 250h-201v133h271l151 289h-422v137h492l139 266h150l-137 -266h206z" />
    <glyph glyph-name="lessequal" unicode="&#x2264;" horiz-adv-x="1153" 
d="M958 428v-172l-772 412v108l772 414v-170l-378 -180l-269 -115v-12l262 -109zM958 109v-109h-772v109h772z" />
    <glyph glyph-name="greaterequal" unicode="&#x2265;" horiz-adv-x="1153" 
d="M967 668l-772 -412v172l383 176l264 109v12l-271 115l-376 180v170l772 -414v-108zM967 0h-772v109h772v-109z" />
    <glyph glyph-name="filledbox" unicode="&#x25a0;" horiz-adv-x="1859" 
d="M233 2v1491h1393v-1491h-1393z" />
    <glyph glyph-name="uni25A1" unicode="&#x25a1;" horiz-adv-x="1900" 
d="M256 0v1493h1393v-1493h-1393zM1540 1386h-1180v-1280h1180v1280z" />
    <glyph glyph-name="triagup" unicode="&#x25b2;" horiz-adv-x="2138" 
d="M176 0l891 1509l895 -1509h-1786z" />
    <glyph glyph-name="uni25B3" unicode="&#x25b3;" horiz-adv-x="2142" 
d="M1968 0h-1792l893 1511zM1069 1309l-711 -1200h1424z" />
    <glyph glyph-name="lozenge" unicode="&#x25ca;" horiz-adv-x="4403" 
d="M2013 -20q-276 0 -438 204t-162 549q0 158 37.5 288.5t103 220.5t156 152t194 90.5t218.5 28.5q245 0 413 -127q167 -124 205 -335h-319q-74 176 -301 176q-184 0 -280.5 -127.5t-96.5 -358.5q0 -234 95 -357.5t265 -123.5q136 0 223 67t107 189h-332v293h664v-809h-228
l-32 244h-72q-35 -127 -147 -195.5t-273 -68.5zM3041 1180q-69 0 -115.5 47.5t-46.5 120.5q0 72 46.5 118.5t115.5 46.5q71 0 113.5 -46t42.5 -119q0 -76 -42.5 -122t-113.5 -46zM3447 1180q-69 0 -112.5 47t-43.5 121q0 72 44 118.5t112 46.5q73 0 119.5 -46.5t46.5 -118.5
q0 -74 -46 -121t-120 -47zM633 0h-555v1493h555q329 0 508.5 -189t179.5 -554q0 -364 -181.5 -557t-506.5 -193zM3860 1171h-73v259h-78v63h242v-63h-91v-259zM4061 1171h-69v322h129l34 -260l47 260h125v-322h-81v277l-35 -277h-107l-43 277v-277zM295 223l53 -53
q58 58 108.5 82t123.5 24h53q25 0 35.5 0.5t39 8t66.5 22.5q62 23 107 68q49 49 83.5 147.5t34.5 220.5q0 121 -32 217t-80 144q-45 48 -101 74q-36 18 -66 27t-45.5 10.5t-41.5 1.5h-53q-60 0 -107 20q-50 23 -65 35l-60 55l-53 -61q1 -3 14.5 -17.5t14.5 -17.5
q6 -3 12 -10.5t10.5 -13.5t10.5 -17t8 -14q30 -47 30 -146v-565q-3 -61 -9 -91.5t-24 -60.5l-20 -30q-20 -32 -47 -60zM3238 0h-305v1006h289l14 -119h55q24 74 100.5 114.5t184.5 40.5v-301q-338 35 -338 -303v-438z" />
    <glyph glyph-name="circle" unicode="&#x25cb;" horiz-adv-x="1757" 
d="M125 748q0 332 219 548q218 215 535 215q314 0 532 -215q221 -215 221 -548q0 -337 -219 -553q-218 -215 -534 -215q-317 0 -535 215q-219 216 -219 553zM879 61q274 0 467 193q194 194 194 494q0 295 -194 489q-193 193 -467 193q-272 0 -465 -193q-195 -195 -195 -489
q0 -299 195 -494q193 -193 465 -193z" />
    <glyph glyph-name="uni25CF" unicode="&#x25cf;" horiz-adv-x="1851" 
d="M930 -20q-321 0 -537 219q-215 221 -215 551q0 324 215 542q216 219 537 219q317 0 530 -219t213 -542q0 -329 -213 -551q-213 -219 -530 -219z" />
    <glyph glyph-name="uni262E" unicode="&#x262e;" horiz-adv-x="1859" 
d="M1683 741q0 -343 -213 -559q-213 -213 -540 -213q-328 0 -541 213q-213 216 -213 559q0 340 213 553q212 215 541 215q328 0 540 -215q213 -213 213 -553zM1589 741q0 294 -174 480q-177 189 -442 204v-643l557 -344q59 139 59 303zM885 782v643q-266 -15 -443 -204
q-174 -186 -174 -480q0 -163 60 -301zM885 674l-514 -318q82 -136 216.5 -216t297.5 -87v621zM973 674v-621q163 7 298.5 87t217.5 216z" />
    <glyph glyph-name="uni2639" unicode="&#x2639;" horiz-adv-x="1867" 
d="M176 748q0 327 219 546q220 217 537 217q318 0 538 -217q222 -219 222 -546q0 -332 -222 -551q-217 -217 -538 -217q-317 0 -537 217q-219 219 -219 551zM268 748q0 -280 174 -469q72 110 204.5 174.5t285.5 64.5q158 0 292 -65t203 -174q175 202 175 469q0 291 -197 485
t-471 194t-471 -194q-195 -195 -195 -485zM670 895q0 104 28 159.5t76 55.5q103 0 103 -215q0 -217 -103 -217q-50 0 -77 58.5t-27 158.5zM997 895q0 104 28.5 159.5t76.5 55.5q102 0 102 -215q0 -217 -102 -217q-50 0 -77.5 59t-27.5 158zM510 219q190 -156 424 -156
t426 154q-55 96 -172 154.5t-254 58.5q-136 0 -251.5 -57.5t-172.5 -153.5z" />
    <glyph glyph-name="smileface" unicode="&#x263a;" horiz-adv-x="1867" 
d="M932 1511q318 0 538 -217q222 -219 222 -546q0 -332 -222 -551q-217 -217 -538 -217q-317 0 -537 217q-219 219 -219 551q0 327 219 546q220 217 537 217zM934 63q279 0 473 197q195 201 195 488q0 291 -197 485t-471 194t-471 -194q-195 -195 -195 -485q0 -292 195 -490
q198 -195 471 -195zM774 678q-50 0 -77 58.5t-27 158.5q0 104 28 159.5t76 55.5q103 0 103 -215q0 -217 -103 -217zM1102 678q-50 0 -77.5 59t-27.5 158q0 104 28.5 159.5t76.5 55.5q102 0 102 -215q0 -217 -102 -217zM1264 635v35h223v-35h-64q-27 -174 -166 -283
q-133 -106 -325 -106q-191 0 -324 106q-137 110 -164 283h-55v35h223v-35h-73q24 -136 133 -219q113 -84 262 -84q153 0 262.5 84t134.5 219h-67z" />
    <glyph glyph-name="uni2708" unicode="&#x2708;" horiz-adv-x="1972" 
d="M342 424h-102l71 326l-71 325h102l141 -221l430 25l-202 565h184l295 -488q19 -29 39.5 -40.5t58.5 -12.5l121 8q122 9 223 -43t101 -118q0 -71 -101 -123q-100 -50 -223 -41l-121 8q-41 0 -60 -9.5t-38 -39.5l-295 -492h-184l202 565l-430 29z" />
    <glyph glyph-name="uni2713" unicode="&#x2713;" horiz-adv-x="1994" 
d="M784 346l764 772l80 -86l-844 -850l-417 475l82 76z" />
    <glyph glyph-name="uni2714" unicode="&#x2714;" horiz-adv-x="2637" 
d="M2292 1452l207 -324q-550 -309 -922 -598q-389 -305 -731 -657q-293 408 -707 737l223 254q306 -241 517 -569q295 353 628 620q343 275 785 537z" />
    <glyph glyph-name="uni2776" unicode="&#x2776;" horiz-adv-x="1824" 
d="M915 -18q-335 0 -565 227q-227 227 -227 561q0 332 227 559q230 227 565 227q333 0 560 -227t227 -559q0 -334 -227 -561t-560 -227zM901 915v-591h127v847h-125v-10q0 -147 -141 -147h-84v-99h223z" />
    <glyph glyph-name="uni2777" unicode="&#x2777;" horiz-adv-x="1826" 
d="M915 -18q-338 0 -565 227q-227 230 -227 563t227 557q227 227 565 227q335 0 562 -227q227 -224 227 -557t-227 -563q-227 -227 -562 -227zM659 352v-28h523v114h-242l-139 -6q15 54 82 115q59 54 129 104q73 49 122.5 124.5t49.5 160.5q0 110 -71 178t-193 68
q-124 0 -201.5 -72t-77.5 -188l125 -11q-1 72 40 117t107 45q46 3 80.5 -21.5t49 -62.5t7.5 -85t-38 -85q-25 -32 -58 -61.5t-83 -67t-72 -55.5q-62 -51 -101 -124t-39 -159z" />
    <glyph glyph-name="uni2778" unicode="&#x2778;" horiz-adv-x="1826" 
d="M915 -18q-338 0 -565 227q-227 230 -227 563t227 557q227 227 565 227q335 0 562 -227q227 -224 227 -557t-227 -563q-227 -227 -562 -227zM1192 559q0 153 -141 205v6q127 53 127 182q0 105 -74.5 168.5t-192.5 63.5q-123 0 -199.5 -74.5t-70.5 -191.5h129
q-2 70 35.5 112.5t105.5 42.5q61 0 97 -34t36 -93q0 -58 -40.5 -94.5t-112.5 -36.5h-51v-110h61q70 0 114 -38.5t44 -103.5q0 -62 -41 -100.5t-107 -38.5t-105 42t-38 114h-131q-1 -122 74 -195.5t200 -73.5q124 0 202.5 69.5t78.5 178.5z" />
    <glyph glyph-name="uni2779" unicode="&#x2779;" horiz-adv-x="1826" 
d="M915 -18q-335 0 -565 227q-227 230 -227 563t227 557q230 227 565 227t562 -227t227 -557q0 -333 -227 -563q-227 -227 -562 -227zM967 510v-186h125v186h98v111h-98v550h-201l-311 -555v-106h387zM967 621h-248l248 442v-442z" />
    <glyph glyph-name="uni277A" unicode="&#x277a;" horiz-adv-x="1830" 
d="M918 -18q-338 0 -568 227q-227 230 -227 563t227 557q230 227 568 227q334 0 561 -227q229 -223 229 -557t-229 -563q-227 -227 -561 -227zM930 311q129 0 210 81.5t81 209.5q0 127 -75 207t-194 80q-109 0 -159 -62l-5 7l5 88v137h383v112h-508v-475h120q13 34 55 57
t87 23q71 0 114 -49.5t43 -128.5q0 -78 -43 -126t-112 -48q-70 0 -112 46t-40 114h-131q-1 -121 77.5 -197t203.5 -76z" />
    <glyph glyph-name="uni277B" unicode="&#x277b;" horiz-adv-x="1824" 
d="M915 -18q-335 0 -565 227q-227 227 -227 561q0 332 227 559q230 227 565 227q333 0 560 -227t227 -559q0 -334 -227 -561t-560 -227zM924 311q127 0 207.5 80.5t80.5 208.5q0 125 -72 204t-188 79q-59 0 -112.5 -28.5t-81.5 -82.5h-6q0 299 180 299q54 0 92 -29.5
t45 -80.5h127q-11 101 -81 162t-179 61q-152 0 -232.5 -120.5t-80.5 -328.5q0 -200 77 -312t224 -112zM928 424q-70 0 -113 50.5t-43 125.5q0 72 42.5 122t113.5 50q69 0 111 -47t42 -125t-42 -127t-111 -49z" />
    <glyph glyph-name="uni277C" unicode="&#x277c;" horiz-adv-x="1826" 
d="M915 -18q-338 0 -565 227q-227 230 -227 563t227 557q227 227 565 227q335 0 562 -227q227 -224 227 -557t-227 -563q-227 -227 -562 -227zM752 324h133q73 418 332 757v90h-549v-256h90v144h299q-241 -330 -305 -735z" />
    <glyph glyph-name="uni277D" unicode="&#x277d;" horiz-adv-x="1826" 
d="M915 -18q-338 0 -565 227q-227 230 -227 563t227 557q227 227 565 227q335 0 562 -227q227 -224 227 -557t-227 -563q-227 -227 -562 -227zM913 311q129 0 209 65t80 171q0 62 -33.5 115t-89.5 83v9q123 58 123 196q0 104 -78.5 169t-210.5 65q-129 0 -207.5 -64.5
t-78.5 -169.5q0 -140 123 -196v-9q-56 -26 -89.5 -80t-33.5 -118q0 -105 78 -170.5t208 -65.5zM913 801q-70 0 -113.5 37t-43.5 98q0 62 42.5 99.5t114.5 37.5q69 0 113.5 -38t44.5 -99q0 -60 -43 -97.5t-115 -37.5zM913 424q-69 0 -113 37.5t-44 99.5q0 61 43 99t114 38
q69 0 113.5 -38t44.5 -99q0 -62 -43 -99.5t-115 -37.5z" />
    <glyph glyph-name="uni277E" unicode="&#x277e;" horiz-adv-x="1826" 
d="M915 -18q-335 0 -565 227q-227 230 -227 561q0 332 227 559q230 227 565 227t562 -227t227 -559q0 -331 -227 -561q-227 -227 -562 -227zM911 311q152 0 232 120t80 327q0 201 -76 313.5t-223 112.5q-129 0 -210 -80t-81 -207t72 -207t188 -80q63 0 117.5 31.5t79.5 81.5
h6q0 -299 -181 -299q-56 0 -94 29t-45 82h-129q11 -101 82 -162.5t182 -61.5zM920 723q-70 0 -113 47.5t-43 126.5q0 75 44 123.5t112 48.5q71 0 114 -49t43 -123t-42.5 -124t-114.5 -50z" />
    <glyph glyph-name="uni2780" unicode="&#x2780;" horiz-adv-x="1824" 
d="M915 -18q-335 0 -565 227q-227 227 -227 561q0 332 227 559q230 227 565 227q333 0 560 -227t227 -559q0 -334 -227 -561t-560 -227zM915 51q302 0 508 209q209 209 209 510q0 302 -209 508q-206 209 -508 209q-305 0 -514 -209q-208 -205 -208 -508q0 -304 208 -512
q210 -207 514 -207zM901 324v591h-223v99h84q141 0 141 147v10h125v-847h-127z" />
    <glyph glyph-name="uni2781" unicode="&#x2781;" horiz-adv-x="1824" 
d="M915 1556q333 0 560 -227t227 -559q0 -334 -227 -561t-560 -227q-335 0 -565 227q-227 227 -227 561q0 332 227 559q230 227 565 227zM915 51q302 0 508 209q209 209 209 510q0 302 -209 508q-206 209 -508 209q-305 0 -514 -209q-208 -205 -208 -508q0 -304 208 -512
q210 -207 514 -207zM1184 936q0 -85 -49.5 -160.5t-122.5 -124.5q-70 -50 -129 -104q-67 -61 -82 -115l139 6h242v-114h-523v28q0 55 17 105t39 84.5t62 72.5t66 58t70 51q140 105 140 211q0 62 -38.5 100.5t-101.5 38.5q-66 0 -107 -45t-40 -117l-125 11q0 116 77.5 188
t201.5 72q122 0 193 -68t71 -178z" />
    <glyph glyph-name="uni2782" unicode="&#x2782;" horiz-adv-x="1824" 
d="M915 -18q-335 0 -565 227q-227 227 -227 561q0 332 227 559q230 227 565 227q333 0 560 -227t227 -559q0 -334 -227 -561t-560 -227zM915 51q302 0 508 209q209 209 209 510q0 302 -209 508q-206 209 -508 209q-305 0 -514 -209q-208 -205 -208 -508q0 -304 208 -512
q210 -207 514 -207zM637 580h131q-1 -72 38 -114t105 -42t107 38.5t41 100.5q0 65 -44 103.5t-114 38.5h-61v110h51q72 0 112.5 36.5t40.5 94.5q0 59 -36 93t-97 34q-68 0 -105.5 -42.5t-35.5 -112.5h-129q-6 117 70.5 191.5t199.5 74.5q118 0 192.5 -63.5t74.5 -168.5
q0 -129 -127 -182v-6q141 -52 141 -205q0 -109 -78.5 -178.5t-202.5 -69.5q-125 0 -200 73.5t-74 195.5z" />
    <glyph glyph-name="uni2783" unicode="&#x2783;" horiz-adv-x="1824" 
d="M915 -18q-335 0 -565 227q-227 227 -227 561q0 332 227 559q230 227 565 227q333 0 560 -227t227 -559q0 -334 -227 -561t-560 -227zM915 51q302 0 508 209q209 209 209 510q0 302 -209 508q-206 209 -508 209q-305 0 -514 -209q-208 -205 -208 -508q0 -304 208 -512
q210 -207 514 -207zM1092 324h-125v186h-387v106l311 555h201v-550h98v-111h-98v-186zM967 1063l-248 -442h248v442z" />
    <glyph glyph-name="uni2784" unicode="&#x2784;" horiz-adv-x="1824" 
d="M915 -18q-335 0 -565 227q-227 227 -227 561q0 332 227 559q230 227 565 227q333 0 560 -227t227 -559q0 -334 -227 -561t-560 -227zM915 51q302 0 508 209q209 209 209 510q0 302 -209 508q-206 209 -508 209q-305 0 -514 -209q-208 -205 -208 -508q0 -304 208 -512
q210 -207 514 -207zM930 311q-125 0 -203.5 76t-77.5 197h131q-2 -68 40 -114t112 -46q69 0 112 48t43 126q0 79 -43 128.5t-114 49.5q-45 0 -87 -23t-55 -57h-120v475h508v-112h-383v-137l-5 -88l5 -7q50 62 159 62q119 0 194 -80t75 -207q0 -128 -81 -209.5t-210 -81.5z
" />
    <glyph glyph-name="uni2785" unicode="&#x2785;" horiz-adv-x="1824" 
d="M915 -18q-335 0 -565 227q-227 227 -227 561q0 332 227 559q230 227 565 227q333 0 560 -227t227 -559q0 -334 -227 -561t-560 -227zM915 51q302 0 508 209q209 209 209 510q0 302 -209 508q-206 209 -508 209q-305 0 -514 -209q-208 -205 -208 -508q0 -304 208 -512
q210 -207 514 -207zM924 311q-147 0 -224 112t-77 312q0 208 80.5 328.5t232.5 120.5q109 0 179 -61t81 -162h-127q-7 51 -45 80.5t-92 29.5q-180 0 -180 -299h6q28 54 81.5 82.5t112.5 28.5q116 0 188 -79t72 -204q0 -128 -80.5 -208.5t-207.5 -80.5zM928 424q69 0 111 49
t42 127t-42 125t-111 47q-71 0 -113.5 -50t-42.5 -122q0 -75 43 -125.5t113 -50.5z" />
    <glyph glyph-name="uni2786" unicode="&#x2786;" horiz-adv-x="1824" 
d="M123 770q0 332 227 559q230 227 565 227q333 0 560 -227t227 -559q0 -334 -227 -561t-560 -227q-335 0 -565 227q-227 227 -227 561zM193 770q0 -304 208 -512q210 -207 514 -207q302 0 508 209q209 209 209 510q0 302 -209 508q-206 209 -508 209q-305 0 -514 -209
q-208 -205 -208 -508zM758 915h-90v256h549v-90q-259 -339 -332 -757h-133q64 405 305 735h-299v-144z" />
    <glyph glyph-name="uni2787" unicode="&#x2787;" horiz-adv-x="1824" 
d="M915 -18q-335 0 -565 227q-227 227 -227 561q0 332 227 559q230 227 565 227q333 0 560 -227t227 -559q0 -334 -227 -561t-560 -227zM915 51q302 0 508 209q209 209 209 510q0 302 -209 508q-206 209 -508 209q-305 0 -514 -209q-208 -205 -208 -508q0 -304 208 -512
q210 -207 514 -207zM913 311q-130 0 -208 65.5t-78 170.5q0 64 33.5 118t89.5 80v9q-123 56 -123 196q0 105 78.5 169.5t207.5 64.5q132 0 210.5 -65t78.5 -169q0 -138 -123 -196v-9q56 -30 89.5 -83t33.5 -115q0 -106 -80 -171t-209 -65zM913 801q72 0 115 37.5t43 97.5
q0 61 -44.5 99t-113.5 38q-72 0 -114.5 -37.5t-42.5 -99.5q0 -61 43.5 -98t113.5 -37zM913 424q72 0 115 37.5t43 99.5q0 61 -44.5 99t-113.5 38q-71 0 -114 -38t-43 -99q0 -62 44 -99.5t113 -37.5z" />
    <glyph glyph-name="uni2788" unicode="&#x2788;" horiz-adv-x="1824" 
d="M123 770q0 332 227 559q230 227 565 227q333 0 560 -227t227 -559q0 -334 -227 -561t-560 -227q-335 0 -565 227q-227 227 -227 561zM193 770q0 -304 208 -512q210 -207 514 -207q302 0 508 209q209 209 209 510q0 302 -209 508q-206 209 -508 209q-305 0 -514 -209
q-208 -205 -208 -508zM924 1184q147 0 223 -112.5t76 -313.5q0 -207 -80 -327t-232 -120q-111 0 -182 61.5t-82 162.5h129q7 -53 45 -82t94 -29q181 0 181 299h-6q-25 -50 -79.5 -81.5t-117.5 -31.5q-116 0 -188 80t-72 207t81 207t210 80zM764 897q0 -79 43 -126.5
t113 -47.5q72 0 114.5 50t42.5 124t-43 123t-114 49q-68 0 -112 -48.5t-44 -123.5z" />
    <glyph glyph-name="uniECE0" unicode="&#xece0;" horiz-adv-x="2152" 
d="M274 668v-551l-149 -111v1487h690l-125 -160h-416v-510h347q27 289 241 488q210 198 504 198q181 0 337 -83t263 -232l-129 -96q-80 115 -207.5 185.5t-267.5 70.5q-233 0 -410 -174q-176 -173 -176 -432q0 -261 176 -437q175 -172 410 -172q143 0 270.5 70.5
t204.5 183.5l129 -94q-106 -150 -263.5 -233.5t-336.5 -83.5q-287 0 -502 194q-213 198 -243 492h-347zM1092 748q0 -120 77 -203q76 -82 191 -82q66 0 125.5 34t97.5 91l127 -94q-60 -87 -153 -137t-193 -50q-179 0 -305 129q-125 128 -125 312q0 182 125 307
q126 129 305 129q104 0 195 -49t151 -136l-127 -94q-36 55 -96.5 89t-126.5 34q-115 0 -191 -82q-77 -83 -77 -198z" />
    <glyph glyph-name="uniEFCC" unicode="&#xefcc;" horiz-adv-x="2473" 
d="M993 1503q42 0 78 -4v-192q-37 6 -76 6q-250 0 -405 -158q-152 -158 -152 -416q0 -254 152 -415q155 -158 405 -158q23 0 76 6v-192q-62 -5 -78 -5q-333 0 -538 211q-203 212 -203 553q0 342 205 553t536 211zM1532 750q0 340 197 546q201 207 532 207q40 0 90 -4v-192
q-35 6 -82 6q-140 0 -258 -47q-120 -46 -197 -159t-83 -269h464v-176h-464q6 -163 86 -275q151 -203 452 -203q41 0 82 6v-192q-54 -4 -90 -4q-333 0 -532 205q-197 206 -197 551z" />
    <glyph glyph-name="uniF8FF" unicode="&#xf8ff;" horiz-adv-x="1312" 
d="M879 1294q-34 -43 -89 -74t-98 -40l-37 -6l-2 20q-11 118 64 213q44 59 104.5 96t100.5 39l34 2q-2 -5 2 -39q5 -32 -17 -96.5t-62 -114.5zM432 0q-90 0 -182 109q-94 118 -150 274q-57 162 -57 319q0 213 109 340q112 127 254 127q62 0 143 -34q84 -35 115 -35
q33 0 114 37q84 37 164 37q72 0 136 -28t95.5 -57t47.5 -55l10 -16l-9 -6q-9 -6 -23.5 -17t-32 -27.5t-35 -41t-32 -52.5t-23.5 -66.5t-9 -80.5q0 -63 20 -118.5t51 -92.5t58.5 -59.5t52.5 -34.5l21 -10q-9 -35 -58 -144q-30 -70 -67 -125q-40 -59 -97.5 -100t-113.5 -41
q-36 0 -121 29q-77 30 -127 30q-52 0 -135 -30q-85 -31 -119 -31z" />
    <glyph glyph-name="NULL" horiz-adv-x="0" 
 />
    <glyph glyph-name="CR" horiz-adv-x="681" 
 />
    <glyph glyph-name="uni00A40301" horiz-adv-x="786" 
d="M784 1968l58 -86l-342 -215l-45 68zM442 125v1368h129v-1372q0 -121 -122 -121h-416v125h409z" />
    <glyph glyph-name="G.ss01" horiz-adv-x="1579" 
d="M100 739q0 361 183 568q183 204 503 204q265 0 445 -139q179 -138 213 -366h-146q-32 177 -168.5 278.5t-336.5 101.5q-252 0 -402 -147q-149 -143 -149 -387v-209q0 -249 151 -397q152 -146 404 -146q257 0 399.5 143.5t142.5 391.5h-469v137h609v-86q0 -343 -187 -524
q-188 -182 -499 -182q-328 0 -510 200q-183 204 -183 559z" />
    <glyph glyph-name="Gbreve.ss01" horiz-adv-x="1579" 
d="M979 1946h98q0 -125 -76.5 -201t-203.5 -76q-125 0 -202 76.5t-77 200.5h96q0 -86 50.5 -138.5t132.5 -52.5t132 52.5t50 138.5zM100 739q0 361 183 568q183 204 503 204q265 0 445 -139q179 -138 213 -366h-146q-32 177 -168.5 278.5t-336.5 101.5q-252 0 -402 -147
q-149 -143 -149 -387v-209q0 -249 151 -397q152 -146 404 -146q257 0 399.5 143.5t142.5 391.5h-469v137h609v-86q0 -343 -187 -524q-188 -182 -499 -182q-328 0 -510 200q-183 204 -183 559z" />
    <glyph glyph-name="uni0122.ss01" horiz-adv-x="1579" 
d="M100 739q0 361 183 568q183 204 503 204q265 0 445 -139q179 -138 213 -366h-146q-32 177 -168.5 278.5t-336.5 101.5q-252 0 -402 -147q-149 -143 -149 -387v-209q0 -249 151 -397q152 -146 404 -146q257 0 399.5 143.5t142.5 391.5h-469v137h609v-86q0 -343 -187 -524
q-188 -182 -499 -182q-328 0 -510 200q-183 204 -183 559zM729 -414v45q33 0 54.5 24.5t21.5 65.5v7h-76v155h137v-145q0 -72 -37 -112t-100 -40z" />
    <glyph glyph-name="Gdotaccent.ss01" horiz-adv-x="1579" 
d="M862 1698h-127v209h127v-209zM100 739q0 361 183 568q183 204 503 204q265 0 445 -139q179 -138 213 -366h-146q-32 177 -168.5 278.5t-336.5 101.5q-252 0 -402 -147q-149 -143 -149 -387v-209q0 -249 151 -397q152 -146 404 -146q257 0 399.5 143.5t142.5 391.5h-469
v137h609v-86q0 -343 -187 -524q-188 -182 -499 -182q-328 0 -510 200q-183 204 -183 559z" />
    <glyph glyph-name="R.ss02" horiz-adv-x="1505" 
d="M358 0h-133v1493h693q218 0 325 -114t107 -326q0 -162 -77 -267.5t-216 -144.5v-16q40 -13 70.5 -55.5t66.5 -131.5l178 -438h-151l-168 442q-44 113 -97 140q-53 30 -149 30h-449v-612zM358 1368v-639h560q131 0 210.5 69.5t79.5 184.5v154q0 104 -72 167.5t-190 63.5
h-588z" />
    <glyph glyph-name="Racute.ss02" horiz-adv-x="1505" 
d="M1137 1882l-342 -215l-45 68l329 233zM358 0h-133v1493h693q218 0 325 -114t107 -326q0 -162 -77 -267.5t-216 -144.5v-16q40 -13 70.5 -55.5t66.5 -131.5l178 -438h-151l-168 442q-44 113 -97 140q-53 30 -149 30h-449v-612zM358 1368v-639h560q131 0 210.5 69.5
t79.5 184.5v154q0 104 -72 167.5t-190 63.5h-588z" />
    <glyph glyph-name="Rcaron.ss02" horiz-adv-x="1505" 
d="M745 1599l-225 246l70 62l205 -219l206 219l70 -62l-225 -246h-101zM358 0h-133v1493h693q218 0 325 -114t107 -326q0 -162 -77 -267.5t-216 -144.5v-16q40 -13 70.5 -55.5t66.5 -131.5l178 -438h-151l-168 442q-44 113 -97 140q-53 30 -149 30h-449v-612zM358 1368v-639
h560q131 0 210.5 69.5t79.5 184.5v154q0 104 -72 167.5t-190 63.5h-588z" />
    <glyph glyph-name="uni0156.ss02" horiz-adv-x="1505" 
d="M358 0h-133v1493h693q218 0 325 -114t107 -326q0 -162 -77 -267.5t-216 -144.5v-16q40 -13 70.5 -55.5t66.5 -131.5l178 -438h-151l-168 442q-44 113 -97 140q-53 30 -149 30h-449v-612zM358 1368v-639h560q131 0 210.5 69.5t79.5 184.5v154q0 104 -72 167.5t-190 63.5
h-588zM729 -414v45q33 0 54.5 24.5t21.5 65.5v7h-76v155h137v-145q0 -72 -37 -112t-100 -40z" />
    <glyph glyph-name="O.ss03" horiz-adv-x="1576" 
d="M279 178q-179 200 -179 567q0 366 179 566q182 200 509 200q329 0 508 -200q181 -199 181 -566q0 -368 -181 -567q-177 -198 -508 -198q-329 0 -509 198zM242 852v-209q0 -253 147 -397q151 -142 399 -142q256 0 401.5 145.5t145.5 393.5v209q0 253 -149 393
q-147 141 -398 141q-256 0 -401 -143t-145 -391zM877 657h-185v179h185v-179z" />
    <glyph glyph-name="Oacute.ss03" horiz-adv-x="1576" 
d="M1122 1882l-342 -215l-45 68l330 233zM279 178q-179 200 -179 567q0 366 179 566q182 200 509 200q329 0 508 -200q181 -199 181 -566q0 -368 -181 -567q-177 -198 -508 -198q-329 0 -509 198zM242 852v-209q0 -253 147 -397q151 -142 399 -142q256 0 401.5 145.5
t145.5 393.5v209q0 253 -149 393q-147 141 -398 141q-256 0 -401 -143t-145 -391zM877 657h-185v179h185v-179z" />
    <glyph glyph-name="Ocircumflex.ss03" horiz-adv-x="1576" 
d="M573 1640l-65 62l227 244h99l225 -242l-70 -64l-207 218zM279 178q-179 200 -179 567q0 366 179 566q182 200 509 200q329 0 508 -200q181 -199 181 -566q0 -368 -181 -567q-177 -198 -508 -198q-329 0 -509 198zM242 852v-209q0 -253 147 -397q151 -142 399 -142
q256 0 401.5 145.5t145.5 393.5v209q0 253 -149 393q-147 141 -398 141q-256 0 -401 -143t-145 -391zM877 657h-185v179h185v-179z" />
    <glyph glyph-name="Odieresis.ss03" horiz-adv-x="1576" 
d="M657 1698h-127v209h127v-209zM1034 1698h-127v209h127v-209zM279 178q-179 200 -179 567q0 366 179 566q182 200 509 200q329 0 508 -200q181 -199 181 -566q0 -368 -181 -567q-177 -198 -508 -198q-329 0 -509 198zM242 852v-209q0 -253 147 -397q151 -142 399 -142
q256 0 401.5 145.5t145.5 393.5v209q0 253 -149 393q-147 141 -398 141q-256 0 -401 -143t-145 -391zM877 657h-185v179h185v-179z" />
    <glyph glyph-name="Ograve.ss03" horiz-adv-x="1576" 
d="M829 1735l-45 -68l-342 215l58 86zM279 178q-179 200 -179 567q0 366 179 566q182 200 509 200q329 0 508 -200q181 -199 181 -566q0 -368 -181 -567q-177 -198 -508 -198q-329 0 -509 198zM242 852v-209q0 -253 147 -397q151 -142 399 -142q256 0 401.5 145.5
t145.5 393.5v209q0 253 -149 393q-147 141 -398 141q-256 0 -401 -143t-145 -391zM877 657h-185v179h185v-179z" />
    <glyph glyph-name="Ohungarumlaut.ss03" horiz-adv-x="1576" 
d="M936 1831l-322 -244l-51 64l307 262zM1290 1802l-342 -215l-45 68l330 233zM279 178q-179 200 -179 567q0 366 179 566q182 200 509 200q329 0 508 -200q181 -199 181 -566q0 -368 -181 -567q-177 -198 -508 -198q-329 0 -509 198zM242 852v-209q0 -253 147 -397
q151 -142 399 -142q256 0 401.5 145.5t145.5 393.5v209q0 253 -149 393q-147 141 -398 141q-256 0 -401 -143t-145 -391zM877 657h-185v179h185v-179z" />
    <glyph glyph-name="Omacron.ss03" horiz-adv-x="1576" 
d="M1081 1688h-598v92h598v-92zM279 178q-179 200 -179 567q0 366 179 566q182 200 509 200q329 0 508 -200q181 -199 181 -566q0 -368 -181 -567q-177 -198 -508 -198q-329 0 -509 198zM242 852v-209q0 -253 147 -397q151 -142 399 -142q256 0 401.5 145.5t145.5 393.5v209
q0 253 -149 393q-147 141 -398 141q-256 0 -401 -143t-145 -391zM877 657h-185v179h185v-179z" />
    <glyph glyph-name="Otilde.ss03" horiz-adv-x="1576" 
d="M905 1659q-64 0 -143 33q-81 34 -121 34q-64 0 -98 -67l-62 45q71 121 168 121q47 0 137 -35t127 -35q68 0 109 68l61 -49q-31 -61 -72 -88t-106 -27zM279 178q-179 200 -179 567q0 366 179 566q182 200 509 200q329 0 508 -200q181 -199 181 -566q0 -368 -181 -567
q-177 -198 -508 -198q-329 0 -509 198zM242 852v-209q0 -253 147 -397q151 -142 399 -142q256 0 401.5 145.5t145.5 393.5v209q0 253 -149 393q-147 141 -398 141q-256 0 -401 -143t-145 -391zM877 657h-185v179h185v-179z" />
    <glyph glyph-name="A.ss04" horiz-adv-x="1531" 
d="M694 1493h144l481 -575v-918h-133v373h-840v-373h-133v918zM346 881v-383h840v383l-412 499h-16z" />
    <glyph glyph-name="Aacute.ss04" horiz-adv-x="1531" 
d="M1049 1958l57 -86l-342 -215l-45 67zM694 1493h144l481 -575v-918h-133v373h-840v-373h-133v918zM346 881v-383h840v383l-412 499h-16z" />
    <glyph glyph-name="Abreve.ss04" horiz-adv-x="1531" 
d="M764 1659q-125 0 -202 76t-77 200h97q0 -86 50 -138t132 -52t132 52t50 138h98q0 -125 -76.5 -200.5t-203.5 -75.5zM694 1493h144l481 -575v-918h-133v373h-840v-373h-133v918zM346 881v-383h840v383l-412 499h-16z" />
    <glyph glyph-name="Acircumflex.ss04" horiz-adv-x="1531" 
d="M973 1630l-207 217l-209 -217l-65 62l227 243h98l225 -241zM694 1493h144l481 -575v-918h-133v373h-840v-373h-133v918zM346 881v-383h840v383l-412 499h-16z" />
    <glyph glyph-name="Adieresis.ss04" horiz-adv-x="1531" 
d="M514 1896h127v-208h-127v208zM891 1896h127v-208h-127v208zM694 1493h144l481 -575v-918h-133v373h-840v-373h-133v918zM346 881v-383h840v383l-412 499h-16z" />
    <glyph glyph-name="Agrave.ss04" horiz-adv-x="1531" 
d="M483 1958l330 -234l-45 -67l-342 215zM694 1493h144l481 -575v-918h-133v373h-840v-373h-133v918zM346 881v-383h840v383l-412 499h-16z" />
    <glyph glyph-name="Amacron.ss04" horiz-adv-x="1531" 
d="M467 1769h598v-92h-598v92zM694 1493h144l481 -575v-918h-133v373h-840v-373h-133v918zM346 881v-383h840v383l-412 499h-16z" />
    <glyph glyph-name="Aogonek.ss04" horiz-adv-x="1531" 
d="M1280 -281q52 0 104 25v-80q-55 -25 -131 -22q-79 5 -127.5 49.5t-48.5 118.5q0 113 109 190v373h-840v-373h-133v918l481 575h144l481 -575v-918q-152 -56 -152 -178q0 -49 30.5 -76t82.5 -27zM346 881v-383h840v383l-412 499h-16z" />
    <glyph glyph-name="Aring.ss04" horiz-adv-x="1531" 
d="M860 1466l459 -548v-918h-133v373h-840v-373h-133v918l459 548q-119 49 -119 193q0 94 58.5 152.5t154.5 58.5t154.5 -58.5t58.5 -152.5q0 -144 -119 -193zM768 1792q-56 0 -90.5 -36.5t-34.5 -96.5t34.5 -96.5t90.5 -36.5q54 0 87.5 36.5t33.5 96.5t-33.5 96.5
t-87.5 36.5zM346 881v-383h840v383l-412 499h-16z" />
    <glyph glyph-name="Atilde.ss04" horiz-adv-x="1531" 
d="M625 1716q-65 0 -99 -67l-61 45q71 121 168 121q47 0 137 -35t127 -35q69 0 109 67l61 -49q-31 -61 -72 -87.5t-106 -26.5q-67 0 -144 32q-84 35 -120 35zM694 1493h144l481 -575v-918h-133v373h-840v-373h-133v918zM346 881v-383h840v383l-412 499h-16z" />
    <glyph glyph-name="I.ss04" horiz-adv-x="1314" 
d="M1141 1493v-125h-416v-1243h416v-125h-967v125h418v1243h-418v125h967z" />
    <glyph glyph-name="V.ss04" horiz-adv-x="1554" 
d="M225 573v920h133v-883l410 -497h18l410 497v883h133v-920l-479 -573h-145z" />
    <glyph glyph-name="W.ss04" horiz-adv-x="1941" 
d="M526 0l-301 553v940h133v-922l246 -460h21l272 481v457h125v-457l291 -481h20l250 460v922h133v-940l-305 -553h-166l-284 467l-269 -467h-166z" />
    <glyph glyph-name="Wacute.ss04" horiz-adv-x="1941" 
d="M1311 1882l-342 -215l-45 68l329 233zM526 0l-301 553v940h133v-922l246 -460h21l272 481v457h125v-457l291 -481h20l250 460v922h133v-940l-305 -553h-166l-284 467l-269 -467h-166z" />
    <glyph glyph-name="Wcircumflex.ss04" horiz-adv-x="1941" 
d="M762 1640l-66 62l228 244h98l225 -242l-69 -64l-207 218zM526 0l-301 553v940h133v-922l246 -460h21l272 481v457h125v-457l291 -481h20l250 460v922h133v-940l-305 -553h-166l-284 467l-269 -467h-166z" />
    <glyph glyph-name="Wdieresis.ss04" horiz-adv-x="1941" 
d="M846 1698h-127v209h127v-209zM1223 1698h-127v209h127v-209zM526 0l-301 553v940h133v-922l246 -460h21l272 481v457h125v-457l291 -481h20l250 460v922h133v-940l-305 -553h-166l-284 467l-269 -467h-166z" />
    <glyph glyph-name="Wgrave.ss04" horiz-adv-x="1941" 
d="M1018 1735l-45 -68l-342 215l57 86zM526 0l-301 553v940h133v-922l246 -460h21l272 481v457h125v-457l291 -481h20l250 460v922h133v-940l-305 -553h-166l-284 467l-269 -467h-166z" />
    <glyph glyph-name="Y.ss04" horiz-adv-x="1390" 
d="M1114 1071v422h133v-459l-485 -573v-461h-133v461l-486 573v459h133v-422l410 -491h19z" />
    <glyph glyph-name="Yacute.ss04" horiz-adv-x="1390" 
d="M979 1968l57 -86l-342 -215l-45 68zM1114 1071v422h133v-459l-485 -573v-461h-133v461l-486 573v459h133v-422l410 -491h19z" />
    <glyph glyph-name="Ycircumflex.ss04" horiz-adv-x="1390" 
d="M903 1640l-207 218l-209 -218l-65 62l227 244h99l225 -242zM1114 1071v422h133v-459l-485 -573v-461h-133v461l-486 573v459h133v-422l410 -491h19z" />
    <glyph glyph-name="Ydieresis.ss04" horiz-adv-x="1390" 
d="M444 1907h127v-209h-127v209zM821 1907h127v-209h-127v209zM1114 1071v422h133v-459l-485 -573v-461h-133v461l-486 573v459h133v-422l410 -491h19z" />
    <glyph glyph-name="Ygrave.ss04" horiz-adv-x="1390" 
d="M414 1968l329 -233l-45 -68l-342 215zM1114 1071v422h133v-459l-485 -573v-461h-133v461l-486 573v459h133v-422l410 -491h19z" />
    <glyph glyph-name="i.loclTRK" horiz-adv-x="520" 
d="M324 1284h-127v209h127v-209zM324 0h-127v1059h127v-1059z" />
    <glyph glyph-name="uni006A0301" horiz-adv-x="544" 
d="M567 1534l58 -86l-342 -215l-45 67zM221 -233v1292h127v-1280q0 -121 -123 -121h-243v109h239z" />
    <glyph glyph-name="s.001" horiz-adv-x="1024" 
d="M90 317h123q-1 -110 74.5 -169.5t218.5 -59.5q134 0 210.5 54t76.5 147q0 139 -162 166l-217 41q-301 58 -301 282q0 139 104 220t283 81t283 -86t106 -233h-123q-9 213 -270 213q-125 0 -188.5 -49t-63.5 -136q0 -98 73 -135q54 -27 125 -39l222 -41q266 -49 266 -280
q0 -146 -115.5 -229.5t-306.5 -83.5q-197 0 -307.5 89t-110.5 248z" />
    <glyph glyph-name="germandbls.alt01" horiz-adv-x="1359" 
d="M1130 1200l-268 -344q187 -17 282 -125t95 -295q0 -213 -132.5 -324.5t-371.5 -111.5h-246v117h279q144 0 233 68.5t89 174.5v175q0 103 -91.5 166t-240.5 63h-115l342 455q-20 79 -105 125.5t-204 46.5q-155 0 -238.5 -80.5t-83.5 -227.5v-1083h-129v1092q0 199 122 309
t333 110q185 0 303 -82t147 -229z" />
    <glyph glyph-name="a.ss01" 
d="M952 1059h123v-1059h-129v207h-12q-44 -102 -148 -164.5t-229 -62.5q-223 0 -339 146t-116 409q0 264 121 404t348 140q117 0 216.5 -56t146.5 -149h12zM946 457v155q0 150 -108 252q-108 105 -267 105q-153 0 -244 -86.5t-91 -229.5v-237q0 -148 90.5 -236t244.5 -88
q160 0 269 103q106 103 106 262z" />
    <glyph glyph-name="aacute.ss01" 
d="M915 1481l-342 -215l-45 67l330 234zM952 1059h123v-1059h-129v207h-12q-44 -102 -148 -164.5t-229 -62.5q-223 0 -339 146t-116 409q0 264 121 404t348 140q117 0 216.5 -56t146.5 -149h12zM946 457v155q0 150 -108 252q-108 105 -267 105q-153 0 -244 -86.5t-91 -229.5
v-237q0 -148 90.5 -236t244.5 -88q160 0 269 103q106 103 106 262z" />
    <glyph glyph-name="abreve.ss01" 
d="M756 1544h98q0 -125 -77 -200.5t-204 -75.5q-125 0 -201.5 76t-76.5 200h96q0 -86 50 -138t132 -52t132.5 52t50.5 138zM952 1059h123v-1059h-129v207h-12q-44 -102 -148 -164.5t-229 -62.5q-223 0 -339 146t-116 409q0 264 121 404t348 140q117 0 216.5 -56t146.5 -149
h12zM946 457v155q0 150 -108 252q-108 105 -267 105q-153 0 -244 -86.5t-91 -229.5v-237q0 -148 90.5 -236t244.5 -88q160 0 269 103q106 103 106 262z" />
    <glyph glyph-name="acircumflex.ss01" 
d="M367 1239l-66 61l227 244h99l225 -241l-70 -64l-207 217zM952 1059h123v-1059h-129v207h-12q-44 -102 -148 -164.5t-229 -62.5q-223 0 -339 146t-116 409q0 264 121 404t348 140q117 0 216.5 -56t146.5 -149h12zM946 457v155q0 150 -108 252q-108 105 -267 105
q-153 0 -244 -86.5t-91 -229.5v-237q0 -148 90.5 -236t244.5 -88q160 0 269 103q106 103 106 262z" />
    <glyph glyph-name="adieresis.ss01" 
d="M471 1245h-127v209h127v-209zM848 1245h-127v209h127v-209zM952 1059h123v-1059h-129v207h-12q-44 -102 -148 -164.5t-229 -62.5q-223 0 -339 146t-116 409q0 264 121 404t348 140q117 0 216.5 -56t146.5 -149h12zM946 457v155q0 150 -108 252q-108 105 -267 105
q-153 0 -244 -86.5t-91 -229.5v-237q0 -148 90.5 -236t244.5 -88q160 0 269 103q106 103 106 262z" />
    <glyph glyph-name="agrave.ss01" 
d="M623 1333l-45 -67l-342 215l57 86zM952 1059h123v-1059h-129v207h-12q-44 -102 -148 -164.5t-229 -62.5q-223 0 -339 146t-116 409q0 264 121 404t348 140q117 0 216.5 -56t146.5 -149h12zM946 457v155q0 150 -108 252q-108 105 -267 105q-153 0 -244 -86.5t-91 -229.5
v-237q0 -148 90.5 -236t244.5 -88q160 0 269 103q106 103 106 262z" />
    <glyph glyph-name="amacron.ss01" 
d="M874 1286h-598v92h598v-92zM952 1059h123v-1059h-129v207h-12q-44 -102 -148 -164.5t-229 -62.5q-223 0 -339 146t-116 409q0 264 121 404t348 140q117 0 216.5 -56t146.5 -149h12zM946 457v155q0 150 -108 252q-108 105 -267 105q-153 0 -244 -86.5t-91 -229.5v-237
q0 -148 90.5 -236t244.5 -88q160 0 269 103q106 103 106 262z" />
    <glyph glyph-name="aogonek.ss01" 
d="M1038 -281q53 0 105 25v-80q-55 -25 -131 -22q-79 5 -127.5 49.5t-48.5 118.5q0 116 110 192v205h-12q-44 -102 -148 -164.5t-229 -62.5q-223 0 -339 146t-116 409q0 264 121 404t348 140q117 0 216.5 -56t146.5 -149h12l6 185h123v-1055l2 -4q-151 -56 -151 -178
q0 -49 30 -76t82 -27zM571 92q160 0 269 103q106 103 106 262v155q0 150 -108 252q-108 105 -267 105q-153 0 -244 -86.5t-91 -229.5v-237q0 -148 90.5 -236t244.5 -88z" />
    <glyph glyph-name="aring.ss01" 
d="M946 874l6 185h123v-1059h-129v207h-12q-44 -102 -148 -164.5t-229 -62.5q-223 0 -339 146t-116 409q0 237 98 374.5t285 163.5q-123 49 -123 195q0 94 58.5 152.5t154.5 58.5t154.5 -58.5t58.5 -152.5q0 -150 -129 -197q93 -19 165.5 -70.5t109.5 -126.5h12zM578 1401
q-56 0 -90.5 -36.5t-34.5 -96.5t34.5 -96.5t90.5 -36.5q54 0 87 36.5t33 96.5t-33 96.5t-87 36.5zM946 457v155q0 150 -108 252q-108 105 -267 105q-153 0 -244 -86.5t-91 -229.5v-237q0 -148 90.5 -236t244.5 -88q160 0 269 103q106 103 106 262z" />
    <glyph glyph-name="atilde.ss01" 
d="M698 1257q-64 0 -143 33q-84 35 -121 35q-63 0 -98 -68l-62 46q70 120 168 120q51 0 138 -34q90 -35 127 -35q68 0 108 67l62 -49q-31 -61 -72.5 -88t-106.5 -27zM952 1059h123v-1059h-129v207h-12q-44 -102 -148 -164.5t-229 -62.5q-223 0 -339 146t-116 409
q0 264 121 404t348 140q117 0 216.5 -56t146.5 -149h12zM946 457v155q0 150 -108 252q-108 105 -267 105q-153 0 -244 -86.5t-91 -229.5v-237q0 -148 90.5 -236t244.5 -88q160 0 269 103q106 103 106 262z" />
    <glyph glyph-name="g.ss01" 
d="M102 555q0 251 121 387.5t348 136.5q117 0 216.5 -56t146.5 -149h12l6 185h123v-993q0 -201 -125.5 -314.5t-343.5 -113.5q-188 0 -305 82t-129 217h123q6 -92 90 -144.5t221 -52.5q165 0 252.5 84.5t87.5 234.5v189h-12q-44 -103 -148 -165.5t-229 -62.5
q-223 0 -339 142.5t-116 392.5zM236 674v-238q0 -135 91.5 -219t243.5 -84q162 0 269 98q106 100 106 246v156q0 133 -108 235q-107 101 -267 101q-151 0 -243 -82.5t-92 -212.5z" />
    <glyph glyph-name="gbreve.ss01" 
d="M780 1513h99q0 -125 -77 -200.5t-204 -75.5q-125 0 -202 76t-77 200h97q0 -86 50 -138t132 -52t132 52t50 138zM102 555q0 251 121 387.5t348 136.5q117 0 216.5 -56t146.5 -149h12l6 185h123v-993q0 -201 -125.5 -314.5t-343.5 -113.5q-188 0 -305 82t-129 217h123
q6 -92 90 -144.5t221 -52.5q165 0 252.5 84.5t87.5 234.5v189h-12q-44 -103 -148 -165.5t-229 -62.5q-223 0 -339 142.5t-116 392.5zM236 674v-238q0 -135 91.5 -219t243.5 -84q162 0 269 98q106 100 106 246v156q0 133 -108 235q-107 101 -267 101q-151 0 -243 -82.5
t-92 -212.5z" />
    <glyph glyph-name="uni0123.ss01" 
d="M668 1561v-45q-33 0 -54.5 -25t-21.5 -66v-6h76v-155h-138v131q0 75 37.5 120.5t100.5 45.5zM102 555q0 251 121 387.5t348 136.5q117 0 216.5 -56t146.5 -149h12l6 185h123v-993q0 -201 -125.5 -314.5t-343.5 -113.5q-188 0 -305 82t-129 217h123q6 -92 90 -144.5
t221 -52.5q165 0 252.5 84.5t87.5 234.5v189h-12q-44 -103 -148 -165.5t-229 -62.5q-223 0 -339 142.5t-116 392.5zM236 674v-238q0 -135 91.5 -219t243.5 -84q162 0 269 98q106 100 106 246v156q0 133 -108 235q-107 101 -267 101q-151 0 -243 -82.5t-92 -212.5z" />
    <glyph glyph-name="gdotaccent.ss01" 
d="M664 1266h-127v209h127v-209zM102 555q0 251 121 387.5t348 136.5q117 0 216.5 -56t146.5 -149h12l6 185h123v-993q0 -201 -125.5 -314.5t-343.5 -113.5q-188 0 -305 82t-129 217h123q6 -92 90 -144.5t221 -52.5q165 0 252.5 84.5t87.5 234.5v189h-12
q-44 -103 -148 -165.5t-229 -62.5q-223 0 -339 142.5t-116 392.5zM236 674v-238q0 -135 91.5 -219t243.5 -84q162 0 269 98q106 100 106 246v156q0 133 -108 235q-107 101 -267 101q-151 0 -243 -82.5t-92 -212.5z" />
    <glyph glyph-name="a.ss02" horiz-adv-x="1136" 
d="M113 303q0 155 102 240.5t283 85.5h333v88q0 256 -276 256q-264 0 -285 -209h-123q13 152 122 233.5t294 81.5q195 0 294 -94.5t99 -269.5v-715h-118l-11 180h-12q-37 -93 -133 -146.5t-229 -53.5q-159 0 -249.5 87t-90.5 236zM246 342v-61q0 -92 59.5 -141.5
t163.5 -49.5q164 0 263 102t99 265v63h-333q-118 0 -185 -48t-67 -130z" />
    <glyph glyph-name="aacute.ss02" horiz-adv-x="1136" 
d="M903 1468l-342 -215l-45 68l330 233zM113 303q0 155 102 240.5t283 85.5h333v88q0 256 -276 256q-264 0 -285 -209h-123q13 152 122 233.5t294 81.5q195 0 294 -94.5t99 -269.5v-715h-118l-11 180h-12q-37 -93 -133 -146.5t-229 -53.5q-159 0 -249.5 87t-90.5 236z
M246 342v-61q0 -92 59.5 -141.5t163.5 -49.5q164 0 263 102t99 265v63h-333q-118 0 -185 -48t-67 -130z" />
    <glyph glyph-name="abreve.ss02" horiz-adv-x="1136" 
d="M743 1532h99q0 -125 -77 -201t-204 -76q-125 0 -201.5 76.5t-76.5 200.5h96q0 -86 50 -138.5t132 -52.5t132 52.5t50 138.5zM113 303q0 155 102 240.5t283 85.5h333v88q0 256 -276 256q-264 0 -285 -209h-123q13 152 122 233.5t294 81.5q195 0 294 -94.5t99 -269.5v-715
h-118l-11 180h-12q-37 -93 -133 -146.5t-229 -53.5q-159 0 -249.5 87t-90.5 236zM246 342v-61q0 -92 59.5 -141.5t163.5 -49.5q164 0 263 102t99 265v63h-333q-118 0 -185 -48t-67 -130z" />
    <glyph glyph-name="acircumflex.ss02" horiz-adv-x="1136" 
d="M354 1227l-65 61l227 244h98l226 -242l-70 -63l-207 217zM113 303q0 155 102 240.5t283 85.5h333v88q0 256 -276 256q-264 0 -285 -209h-123q13 152 122 233.5t294 81.5q195 0 294 -94.5t99 -269.5v-715h-118l-11 180h-12q-37 -93 -133 -146.5t-229 -53.5
q-159 0 -249.5 87t-90.5 236zM246 342v-61q0 -92 59.5 -141.5t163.5 -49.5q164 0 263 102t99 265v63h-333q-118 0 -185 -48t-67 -130z" />
    <glyph glyph-name="adieresis.ss02" horiz-adv-x="1136" 
d="M438 1284h-127v209h127v-209zM815 1284h-127v209h127v-209zM113 303q0 155 102 240.5t283 85.5h333v88q0 256 -276 256q-264 0 -285 -209h-123q13 152 122 233.5t294 81.5q195 0 294 -94.5t99 -269.5v-715h-118l-11 180h-12q-37 -93 -133 -146.5t-229 -53.5
q-159 0 -249.5 87t-90.5 236zM246 342v-61q0 -92 59.5 -141.5t163.5 -49.5q164 0 263 102t99 265v63h-333q-118 0 -185 -48t-67 -130z" />
    <glyph glyph-name="agrave.ss02" horiz-adv-x="1136" 
d="M610 1321l-45 -68l-342 215l58 86zM113 303q0 155 102 240.5t283 85.5h333v88q0 256 -276 256q-264 0 -285 -209h-123q13 152 122 233.5t294 81.5q195 0 294 -94.5t99 -269.5v-715h-118l-11 180h-12q-37 -93 -133 -146.5t-229 -53.5q-159 0 -249.5 87t-90.5 236zM246 342
v-61q0 -92 59.5 -141.5t163.5 -49.5q164 0 263 102t99 265v63h-333q-118 0 -185 -48t-67 -130z" />
    <glyph glyph-name="amacron.ss02" horiz-adv-x="1136" 
d="M862 1274h-598v92h598v-92zM113 303q0 155 102 240.5t283 85.5h333v88q0 256 -276 256q-264 0 -285 -209h-123q13 152 122 233.5t294 81.5q195 0 294 -94.5t99 -269.5v-715h-118l-11 180h-12q-37 -93 -133 -146.5t-229 -53.5q-159 0 -249.5 87t-90.5 236zM246 342v-61
q0 -92 59.5 -141.5t163.5 -49.5q164 0 263 102t99 265v63h-333q-118 0 -185 -48t-67 -130z" />
    <glyph glyph-name="aogonek.ss02" horiz-adv-x="1136" 
d="M918 -281q52 0 104 25v-80q-55 -25 -131 -22q-79 5 -127.5 49.5t-48.5 118.5q0 124 123 200l-11 170h-12q-37 -93 -133 -146.5t-229 -53.5q-159 0 -249.5 87t-90.5 236q0 155 102 240.5t283 85.5h333v88q0 256 -276 256q-264 0 -285 -209h-123q13 152 122 233.5t294 81.5
q195 0 294 -94.5t99 -269.5v-715q-151 -56 -151 -178q0 -49 30.5 -76t82.5 -27zM831 457v63h-333q-118 0 -185 -48t-67 -130v-61q0 -92 59.5 -141.5t163.5 -49.5q164 0 263 102t99 265z" />
    <glyph glyph-name="aring.ss02" horiz-adv-x="1136" 
d="M674 1071q141 -24 211.5 -116t70.5 -240v-715h-118l-11 180h-12q-37 -93 -133 -146.5t-229 -53.5q-159 0 -249.5 87t-90.5 236q0 155 102 240.5t283 85.5h333v88q0 256 -276 256q-264 0 -285 -209h-123q12 126 91.5 205t214.5 102q-103 53 -103 184q0 94 58.5 152.5
t154.5 58.5t154.5 -58.5t58.5 -152.5q0 -131 -102 -184zM565 1389q-56 0 -90.5 -37t-34.5 -97t34.5 -96.5t90.5 -36.5q54 0 87.5 36.5t33.5 96.5t-33.5 97t-87.5 37zM831 457v63h-333q-118 0 -185 -48t-67 -130v-61q0 -92 59.5 -141.5t163.5 -49.5q164 0 263 102t99 265z
" />
    <glyph glyph-name="atilde.ss02" horiz-adv-x="1136" 
d="M686 1245q-64 0 -143 33q-84 35 -121 35q-63 0 -98 -68l-62 45q71 121 168 121q47 0 137 -35t127 -35q68 0 109 68l61 -49q-31 -61 -72 -88t-106 -27zM113 303q0 155 102 240.5t283 85.5h333v88q0 256 -276 256q-264 0 -285 -209h-123q13 152 122 233.5t294 81.5
q195 0 294 -94.5t99 -269.5v-715h-118l-11 180h-12q-37 -93 -133 -146.5t-229 -53.5q-159 0 -249.5 87t-90.5 236zM246 342v-61q0 -92 59.5 -141.5t163.5 -49.5q164 0 263 102t99 265v63h-333q-118 0 -185 -48t-67 -130z" />
    <glyph glyph-name="o.ss03" horiz-adv-x="1204" 
d="M102 528q0 260 138 404q138 147 362 147q225 0 363 -147q137 -143 137 -404q0 -248 -133 -399q-131 -149 -367 -149q-238 0 -369 149t-131 399zM236 606v-164q0 -166 104 -260q109 -92 262 -92q154 0 260 92q107 94 107 260v164q0 158 -105 260q-104 101 -262 101
t-262 -101t-104 -260zM678 453h-158v155h158v-155z" />
    <glyph glyph-name="oacute.ss03" horiz-adv-x="1204" 
d="M938 1446l-342 -215l-45 67l330 234zM102 528q0 260 138 404q138 147 362 147q225 0 363 -147q137 -143 137 -404q0 -248 -133 -399q-131 -149 -367 -149q-238 0 -369 149t-131 399zM236 606v-164q0 -166 104 -260q109 -92 262 -92q154 0 260 92q107 94 107 260v164
q0 158 -105 260q-104 101 -262 101t-262 -101t-104 -260zM678 453h-158v155h158v-155z" />
    <glyph glyph-name="ocircumflex.ss03" horiz-adv-x="1204" 
d="M389 1204l-65 62l227 243h98l225 -241l-69 -64l-207 217zM102 528q0 260 138 404q138 147 362 147q225 0 363 -147q137 -143 137 -404q0 -248 -133 -399q-131 -149 -367 -149q-238 0 -369 149t-131 399zM236 606v-164q0 -166 104 -260q109 -92 262 -92q154 0 260 92
q107 94 107 260v164q0 158 -105 260q-104 101 -262 101t-262 -101t-104 -260zM678 453h-158v155h158v-155z" />
    <glyph glyph-name="odieresis.ss03" horiz-adv-x="1204" 
d="M473 1262h-127v208h127v-208zM850 1262h-127v208h127v-208zM102 528q0 260 138 404q138 147 362 147q225 0 363 -147q137 -143 137 -404q0 -248 -133 -399q-131 -149 -367 -149q-238 0 -369 149t-131 399zM236 606v-164q0 -166 104 -260q109 -92 262 -92q154 0 260 92
q107 94 107 260v164q0 158 -105 260q-104 101 -262 101t-262 -101t-104 -260zM678 453h-158v155h158v-155z" />
    <glyph glyph-name="ograve.ss03" horiz-adv-x="1204" 
d="M645 1298l-45 -67l-342 215l57 86zM102 528q0 260 138 404q138 147 362 147q225 0 363 -147q137 -143 137 -404q0 -248 -133 -399q-131 -149 -367 -149q-238 0 -369 149t-131 399zM236 606v-164q0 -166 104 -260q109 -92 262 -92q154 0 260 92q107 94 107 260v164
q0 158 -105 260q-104 101 -262 101t-262 -101t-104 -260zM678 453h-158v155h158v-155z" />
    <glyph glyph-name="ohungarumlaut.ss03" horiz-adv-x="1204" 
d="M752 1395l-322 -244l-51 63l307 263zM1106 1366l-342 -215l-45 68l330 233zM102 528q0 260 138 404q138 147 362 147q225 0 363 -147q137 -143 137 -404q0 -248 -133 -399q-131 -149 -367 -149q-238 0 -369 149t-131 399zM236 606v-164q0 -166 104 -260q109 -92 262 -92
q154 0 260 92q107 94 107 260v164q0 158 -105 260q-104 101 -262 101t-262 -101t-104 -260zM678 453h-158v155h158v-155z" />
    <glyph glyph-name="omacron.ss03" horiz-adv-x="1204" 
d="M897 1251h-598v92h598v-92zM102 528q0 260 138 404q138 147 362 147q225 0 363 -147q137 -143 137 -404q0 -248 -133 -399q-131 -149 -367 -149q-238 0 -369 149t-131 399zM236 606v-164q0 -166 104 -260q109 -92 262 -92q154 0 260 92q107 94 107 260v164
q0 158 -105 260q-104 101 -262 101t-262 -101t-104 -260zM678 453h-158v155h158v-155z" />
    <glyph glyph-name="otilde.ss03" horiz-adv-x="1204" 
d="M721 1223q-66 0 -143 32q-84 35 -121 35q-65 0 -99 -67l-61 45q71 121 168 121q47 0 137 -35t127 -35q69 0 109 67l61 -49q-31 -61 -72 -87.5t-106 -26.5zM102 528q0 260 138 404q138 147 362 147q225 0 363 -147q137 -143 137 -404q0 -248 -133 -399
q-131 -149 -367 -149q-238 0 -369 149t-131 399zM236 606v-164q0 -166 104 -260q109 -92 262 -92q154 0 260 92q107 94 107 260v164q0 158 -105 260q-104 101 -262 101t-262 -101t-104 -260zM678 453h-158v155h158v-155z" />
    <glyph glyph-name="h_t_t_p" horiz-adv-x="4308" 
d="M315 1536h3679v-1878h-1293v1198h-452v-739h256v-117h-264q-123 0 -123 123v733h-461v-739h256v-117h-264q-123 0 -123 123v733h-217v109h217v286h131v-286h461v286h131v-286h575l6 -187h13q39 93 138.5 150t231.5 57q207 0 334 -139t127 -357q0 -223 -131 -366
q-128 -143 -336 -143q-128 0 -227 59t-137 158h-13v-426h1047v1650h-3445v-651h14q47 100 143.5 157.5t215.5 57.5q168 0 267 -112t99 -306v-567h-127v557q0 150 -71.5 229.5t-198.5 79.5q-155 0 -248 -112q-94 -110 -94 -291v-692h2073v-113h-2190v1878zM2830 563v-160
q0 -127 105 -215q104 -88 256 -88q164 0 256 109q94 110 94 280q0 171 -95 274t-251 103q-151 0 -258 -94q-107 -91 -107 -209z" />
    <glyph glyph-name="w_w_w" horiz-adv-x="4085" 
d="M520 0h-188l-309 1059h151l168 -608l80 -322h12l232 930h161l244 -924h10l240 924h152l247 -930h13l231 930h162l244 -924h10l239 924h152l248 -930h12l231 930h162l244 -924h10l80 309l160 615h145l-303 -1059h-178l-234 926h-12l-219 -926h-188l-236 885l-231 -885
h-178l-234 926h-12l-219 -926h-189l-235 885l-232 -885h-178l-233 926h-13z" />
    <glyph glyph-name="zero.ss01" horiz-adv-x="1275" 
d="M268 164q-121 189 -121 573q0 386 121 572q119 186 371 186q249 0 369 -184q120 -185 120 -574t-120 -573t-369 -184q-251 0 -371 184zM295 956v-438q0 -203 92.5 -311.5t249.5 -108.5t250.5 110t93.5 310v438q0 200 -93.5 310t-250.5 110t-249.5 -108.5t-92.5 -311.5z
M715 666h-166v151h166v-151z" />
    <glyph glyph-name="zero.tf" horiz-adv-x="1234" 
d="M248 1309q119 186 370 186q249 0 369 -184q121 -186 121 -574q0 -387 -121 -573q-120 -184 -369 -184q-250 0 -370 184q-121 189 -121 573q0 386 121 572zM616 1376q-157 0 -249.5 -108.5t-92.5 -311.5v-342l684 402q-13 173 -105.5 266.5t-236.5 93.5zM616 98
q157 0 251 110t94 310v359l-687 -400q10 -183 101.5 -281t240.5 -98z" />
    <glyph glyph-name="one.tf" horiz-adv-x="1198" 
d="M662 1477v-1358h419v-119h-966v119h420v1005h-420v103q357 0 428 250h119z" />
    <glyph glyph-name="two.tf" horiz-adv-x="1245" 
d="M600 119h522v-119h-936v100l594 629q166 175 166 293v92q0 117 -96 189q-95 71 -229 71q-149 0 -240.5 -88t-91.5 -231v-33h-129q-3 216 125 344q129 129 342 129q205 0 331 -117q129 -114 129 -305q0 -61 -14 -119q-23 -86 -63 -145q-8 -12 -17.5 -26t-17 -24t-21.5 -26
l-28 -31q-1 -2 -4.5 -5.5t-11 -11.5t-13.5 -15l-25 -27l-497 -528q192 4 225 4z" />
    <glyph glyph-name="three.tf" horiz-adv-x="1243" 
d="M158 414v32h141v-24q0 -156 82 -240t235 -84q146 0 236 71.5t90 188.5v86q0 127 -92 194t-256 67h-82v120h86q148 0 232.5 69.5t84.5 188.5v47q0 111 -79 177.5t-205 66.5q-146 0 -230 -86t-84 -233v-23h-129v23q0 196 121 317q120 123 324 123q190 0 306 -105.5
t116 -277.5q0 -236 -226 -338v-12q127 -46 190.5 -142t63.5 -223q0 -189 -129 -303q-126 -114 -336 -114q-211 0 -335 118q-125 119 -125 316z" />
    <glyph glyph-name="four.tf" horiz-adv-x="1239" 
d="M961 1477v-1031h188v-114h-188v-332h-130v332h-741v125l658 1020h213zM831 1393l-602 -947h602v947z" />
    <glyph glyph-name="five.tf" horiz-adv-x="1245" 
d="M137 446h133q-5 -155 91.5 -251.5t265.5 -96.5q157 0 260 92q100 90 100 234v133q0 148 -100.5 240t-261.5 92q-120 0 -211.5 -55t-124.5 -142h-129l33 785h874v-117h-756l-24 -516l6 -2q109 157 356 157q219 0 348 -135q131 -134 131 -364q0 -237 -139 -379
q-138 -141 -368 -141q-225 0 -357 126q-130 127 -127 340z" />
    <glyph glyph-name="six.tf" horiz-adv-x="1243" 
d="M133 721q0 774 545 774q197 0 316.5 -97t138.5 -270h-138q-13 124 -97.5 186t-223.5 62q-223 0 -319 -166.5t-85 -494.5h9q114 252 421 252q208 0 330.5 -129t122.5 -355q0 -229 -131 -366t-360 -137q-150 0 -257 56.5t-165 162.5q-107 199 -107 522zM317 530v-122
q0 -136 101 -224q103 -86 246 -86q145 0 245 86q101 85 101 224v122q0 158 -99 240q-101 84 -239 84q-148 0 -252 -90q-103 -89 -103 -234z" />
    <glyph glyph-name="seven.tf" horiz-adv-x="1243" 
d="M270 1079h-116v398h976v-91q-212 -292 -382 -671q-170 -378 -234 -715h-141q63 327 223 688q165 373 373 672h-699v-281z" />
    <glyph glyph-name="eight.tf" horiz-adv-x="1253" 
d="M106 377q0 124 67.5 222t172.5 130v16q-109 37 -174.5 133t-65.5 218q0 180 138 288q138 111 364 111q223 0 361 -111q137 -107 137 -284q0 -122 -67.5 -220t-172.5 -135v-16q108 -32 174 -129.5t66 -222.5q0 -177 -139 -289q-138 -108 -363 -108q-222 0 -360 108
q-138 111 -138 289zM969 1047v61q0 126 -98 197t-265 71t-264.5 -71t-97.5 -197v-61q0 -123 96 -188.5t266 -65.5t266.5 65.5t96.5 188.5zM969 367v61q0 123 -96.5 188.5t-266.5 65.5t-266 -65.5t-96 -188.5v-61q0 -126 97.5 -197.5t264.5 -71.5t265 71.5t98 197.5z" />
    <glyph glyph-name="nine.tf" horiz-adv-x="1243" 
d="M1149 754q0 -774 -545 -774q-197 0 -316 96.5t-138 269.5h137q13 -124 97.5 -186t223.5 -62q223 0 319 167t85 495h-8q-114 -252 -422 -252q-208 0 -330.5 128.5t-122.5 354.5q0 228 131 365q133 139 361 139q302 0 421 -221q107 -196 107 -520zM965 944v123
q0 136 -101 221q-101 88 -246 88q-144 0 -247 -86q-99 -86 -99 -223v-123q0 -160 99 -242q97 -81 239 -81q151 0 252 88q103 89 103 235z" />
    <glyph glyph-name="zero.tf.ss01" horiz-adv-x="1234" 
d="M248 1309q119 186 370 186q249 0 369 -184q121 -186 121 -574q0 -387 -121 -573q-120 -184 -369 -184q-250 0 -370 184q-121 189 -121 573q0 386 121 572zM274 956v-161h687v161q0 200 -94 310t-251 110t-249.5 -108.5t-92.5 -311.5zM961 518v170h-687v-170
q0 -203 92.5 -311.5t249.5 -108.5t251 110t94 310z" />
    <glyph glyph-name="zero.dnom" horiz-adv-x="860" 
d="M430 -8q-160 0 -250 131t-90 371q0 243 91.5 372t248.5 129q158 0 249 -130t91 -371q0 -244 -91.5 -373t-248.5 -129zM428 113q203 0 203 381q0 380 -201 380q-203 0 -203 -376q0 -385 201 -385z" />
    <glyph glyph-name="one.dnom" horiz-adv-x="634" 
d="M317 707h-251v108h92q84 0 125 43.5t41 116.5v8h125v-983h-132v707z" />
    <glyph glyph-name="two.dnom" horiz-adv-x="774" 
d="M248 117l164 8h280v-125h-592v33q0 61 18.5 116.5t44.5 96t67.5 81.5t74.5 67.5t78 59.5q7 5 10 7q162 122 162 252q0 74 -45.5 120t-122.5 46q-81 0 -129.5 -54t-46.5 -137l-131 10q1 133 88 215t227 82q134 0 215.5 -78t81.5 -202q0 -159 -143 -285q-24 -20 -88 -71
t-97 -80t-69 -74.5t-47 -87.5z" />
    <glyph glyph-name="three.dnom" horiz-adv-x="790" 
d="M393 -14q-143 0 -228 85t-81 224h135q-1 -90 46.5 -140.5t127.5 -50.5q78 0 129 48t51 120q0 80 -53 126t-141 46h-68v125h62q84 0 132 44t48 114t-44.5 111t-113.5 41q-81 0 -127.5 -52t-44.5 -139h-135q-5 135 78.5 221t224.5 86q133 0 218 -72.5t85 -193.5
q0 -67 -36.5 -124t-104.5 -89v-10q158 -59 158 -234q0 -125 -90 -206q-89 -80 -228 -80z" />
    <glyph glyph-name="four.dnom" horiz-adv-x="817" 
d="M623 983v-666h114v-120h-114v-197h-134v197h-444v114l358 672h220zM489 872l-299 -555h299v555z" />
    <glyph glyph-name="five.dnom" horiz-adv-x="808" 
d="M88 299h135q-2 -82 48.5 -136t129.5 -54q85 0 137 57t52 151q0 95 -52 155t-137 60q-57 0 -102.5 -26.5t-62.5 -69.5h-127v547h573v-123h-442v-168l-4 -106l2 -2q30 30 81.5 49.5t104.5 19.5q133 0 219 -92t86 -237q0 -149 -92.5 -243.5t-235.5 -94.5q-138 0 -227 86
q-89 89 -86 227z" />
    <glyph glyph-name="six.dnom" horiz-adv-x="831" 
d="M88 477q0 242 89 380t263 138q123 0 202 -68.5t91 -185.5h-133q-7 62 -51.5 97.5t-112.5 35.5q-213 0 -213 -364h6q29 60 92 96.5t134 36.5q130 0 213.5 -91.5t83.5 -232.5q0 -148 -91 -239.5t-239 -91.5q-164 0 -249 128.5t-85 360.5zM244 319q0 -90 50 -150t134 -60
q85 0 135.5 58t50.5 155q0 94 -50 149t-136 55q-85 0 -134.5 -59.5t-49.5 -147.5z" />
    <glyph glyph-name="seven.dnom" horiz-adv-x="753" 
d="M76 983h620v-96q-171 -220 -260 -426q-90 -209 -133 -461h-131q75 488 365 860h-361v-151h-100v274z" />
    <glyph glyph-name="eight.dnom" horiz-adv-x="811" 
d="M80 256q0 74 37.5 135.5t105.5 93.5v11q-68 32 -105.5 93.5t-37.5 137.5q0 119 90 193.5t236 74.5q147 0 235 -74.5t88 -193.5q0 -74 -38 -137.5t-103 -93.5v-11q141 -71 141 -231q0 -121 -88.5 -194.5t-234.5 -73.5t-236 74.5t-90 195.5zM217 713q0 -77 51.5 -121.5
t137.5 -44.5q85 0 134.5 45.5t49.5 120.5q0 77 -50.5 121.5t-133.5 44.5q-86 0 -137.5 -46t-51.5 -120zM217 268q0 -77 51.5 -120.5t137.5 -43.5q84 0 134 45.5t50 118.5q0 77 -50.5 121.5t-133.5 44.5q-86 0 -137.5 -46t-51.5 -120z" />
    <glyph glyph-name="nine.dnom" horiz-adv-x="831" 
d="M743 506q0 -240 -89.5 -379t-262.5 -139q-124 0 -204.5 69t-90.5 185h133q7 -64 52 -98.5t114 -34.5q213 0 213 366h-8q-30 -65 -91.5 -102t-135.5 -37q-129 0 -211 94t-82 238q0 140 90 233q91 94 236 94q167 0 252 -128.5t85 -360.5zM588 664q0 89 -51.5 149.5
t-135.5 60.5t-134 -58.5t-50 -151.5q0 -96 49.5 -150.5t134.5 -54.5t136 58.5t51 146.5z" />
    <glyph glyph-name="zero.numr" horiz-adv-x="860" 
d="M430 514q-160 0 -250 129.5t-90 366.5q0 241 91 368t249 127t249 -128.5t91 -366.5q0 -240 -92 -368t-248 -128zM428 633q203 0 203 377q0 374 -201 374q-203 0 -203 -370q0 -381 201 -381z" />
    <glyph glyph-name="one.numr" horiz-adv-x="634" 
d="M317 1221h-251v106h92q166 0 166 158v8h125v-969h-132v697z" />
    <glyph glyph-name="two.numr" horiz-adv-x="774" 
d="M248 637l164 8h280v-123h-592v35q0 73 22.5 135t74 117.5t83.5 82t100 77.5q4 4 7 6l6 4q162 119 162 248q0 74 -45 118t-123 44q-79 0 -128.5 -53.5t-47.5 -135.5l-131 10q2 131 88.5 213t226.5 82q134 0 215.5 -76t81.5 -200q0 -155 -143 -281q-25 -21 -88 -70.5
t-97.5 -78.5t-70.5 -74.5t-45 -87.5z" />
    <glyph glyph-name="three.numr" horiz-adv-x="790" 
d="M393 508q-141 0 -227 84.5t-82 220.5h135q-1 -89 46.5 -138.5t127.5 -49.5q78 0 129 47t51 119q0 80 -53 125t-141 45h-68v122h62q84 0 132 43.5t48 114.5q0 70 -44 109t-114 39q-81 0 -127.5 -51t-44.5 -138h-135q-5 133 77.5 219t225.5 86q133 0 218 -71.5t85 -190.5
q0 -147 -141 -211v-10q158 -59 158 -231q0 -124 -90 -205q-90 -78 -228 -78z" />
    <glyph glyph-name="four.numr" horiz-adv-x="817" 
d="M623 1493v-657h114v-119h-114v-193h-134v193h-444v112l358 664h220zM489 1384l-299 -548h299v548z" />
    <glyph glyph-name="five.numr" horiz-adv-x="808" 
d="M88 817h135q-2 -81 47.5 -134.5t130.5 -53.5q85 0 137 56.5t52 150.5q0 95 -52 155t-137 60q-57 0 -102.5 -27.5t-62.5 -71.5h-127v541h573v-123h-442v-166l-4 -104l2 -2q61 67 186 67q133 0 219 -92q86 -89 86 -231q0 -147 -92 -242q-89 -92 -236 -92q-140 0 -227 85
t-86 224z" />
    <glyph glyph-name="six.numr" horiz-adv-x="831" 
d="M88 993q0 239 89 375.5t263 136.5q122 0 201.5 -67.5t91.5 -182.5h-133q-7 61 -51.5 95t-112.5 34q-213 0 -213 -358h6q29 60 92 96.5t134 36.5q130 0 213 -92q84 -90 84 -229q0 -144 -91.5 -236t-238.5 -92q-165 0 -249.5 126.5t-84.5 356.5zM244 838q0 -90 50 -149.5
t134 -59.5t135 58.5t51 152.5t-50 149t-136 55q-85 0 -134.5 -59t-49.5 -147z" />
    <glyph glyph-name="seven.numr" horiz-adv-x="753" 
d="M76 1493h620v-96q-173 -215 -262 -422q-92 -213 -131 -451h-131q81 477 363 846h-359v-123h-100v246z" />
    <glyph glyph-name="eight.numr" horiz-adv-x="811" 
d="M80 774q0 163 143 230v10q-68 32 -105.5 93t-37.5 134q0 118 89.5 191t236.5 73t235 -73t88 -191q0 -157 -141 -227v-10q141 -70 141 -230q0 -117 -90 -190.5t-233 -73.5q-146 0 -236 73.5t-90 190.5zM217 1229q0 -75 51.5 -119.5t137.5 -44.5q85 0 134.5 45.5
t49.5 118.5q0 74 -50.5 118t-133.5 44q-87 0 -138 -44.5t-51 -117.5zM217 791q0 -77 51 -120.5t138 -43.5q84 0 134 45.5t50 118.5t-51 118t-133 45q-86 0 -137.5 -45t-51.5 -118z" />
    <glyph glyph-name="nine.numr" horiz-adv-x="831" 
d="M743 1022q0 -239 -89.5 -375.5t-262.5 -136.5q-122 0 -203.5 68.5t-91.5 183.5h133q10 -64 55.5 -98.5t110.5 -34.5q213 0 213 360h-8q-30 -62 -91 -96.5t-136 -34.5q-127 0 -211 90q-82 88 -82 230q0 145 90 235q92 92 236 92q167 0 252 -127.5t85 -355.5zM588 1178
q0 87 -51.5 146.5t-135.5 59.5t-134 -57t-50 -149q0 -96 49.5 -151.5t134.5 -55.5t136 61t51 146z" />
    <glyph glyph-name="numbersign.ss03" horiz-adv-x="1196" 
d="M1163 1090l-30 -107h-197l-96 -418h243l-28 -106h-240l-106 -459h-127l106 459h-334l-106 -459h-127l106 459h-196l30 106h189l96 418h-235l30 107h230l102 442h127l-102 -442h336l102 442h127l-102 -442h202zM377 565h336l96 418h-336z" />
    <glyph glyph-name="parenleft.case" horiz-adv-x="614" 
d="M141 739q0 247 88 457q88 213 240 338h113q-322 -264 -322 -789q0 -516 322 -786h-113q-151 121 -240 330q-88 207 -88 450z" />
    <glyph glyph-name="parenright.case" horiz-adv-x="614" 
d="M475 739q0 -236 -90 -448q-89 -210 -238 -332h-112q321 272 321 786q0 526 -321 789h112q150 -122 238 -336q90 -218 90 -459z" />
    <glyph glyph-name="braceleft.case" horiz-adv-x="698" 
d="M121 635v121q131 0 131 149v457q0 131 125 131h223v-104h-231v-480q0 -91 -42 -147.5t-104 -61.5v-6q62 -6 104 -64.5t42 -146.5v-503h231v-105h-223q-125 0 -125 131v481q0 74 -36 111t-95 37z" />
    <glyph glyph-name="braceright.case" horiz-adv-x="698" 
d="M580 756v-121q-60 0 -97 -36.5t-37 -111.5v-481q0 -131 -124 -131h-222v105h230v503q0 89 42 147t105 64v6q-63 5 -105 61.5t-42 147.5v480h-230v104h222q124 0 124 -131v-457q0 -149 134 -149z" />
    <glyph glyph-name="bracketleft.case" horiz-adv-x="694" 
d="M594 -125h-348v1614h348v-103h-234v-1406h234v-105z" />
    <glyph glyph-name="bracketright.case" horiz-adv-x="694" 
d="M451 -125h-351v105h236v1406h-236v103h351v-1614z" />
    <glyph glyph-name="hyphen.case" horiz-adv-x="919" 
d="M797 707h-676v98h676v-98z" />
    <glyph glyph-name="endash.case" horiz-adv-x="1280" 
d="M1157 707h-1036v98h1036v-98z" />
    <glyph glyph-name="emdash.case" horiz-adv-x="1681" 
d="M1559 707h-1438v98h1438v-98z" />
    <glyph glyph-name="hyphen_hyphen_greater" horiz-adv-x="1734" 
d="M1477 477h-1278v103h1278l-347 479h121l396 -531l-396 -528h-121z" />
    <glyph glyph-name="greater.case" horiz-adv-x="1112" 
d="M1004 686l-777 -459v156l299 172l334 180v13l-336 159l-297 152v155l777 -421v-107z" />
    <glyph glyph-name="less.case" horiz-adv-x="1112" 
d="M885 383v-156l-776 459v107l776 421v-155l-299 -152l-334 -159v-13l334 -180z" />
    <glyph glyph-name="percent.tf" horiz-adv-x="1286" 
d="M164 944q-86 89 -86 238q0 148 86 237q90 90 231 90q142 0 232 -90q88 -88 88 -237q0 -150 -88 -238q-90 -90 -232 -90q-141 0 -231 90zM201 1182q0 -100 53.5 -163t140.5 -63q88 0 142.5 63t54.5 163q0 97 -55 159t-142 62q-86 0 -140 -61.5t-54 -159.5zM1208 926
l-1122 -445v111l1122 448v-114zM549 309q0 146 88 236t231 90t231.5 -89.5t88.5 -236.5t-88.5 -238t-231.5 -91t-231 90.5t-88 238.5zM672 309q0 -100 54 -162.5t142 -62.5t142.5 62.5t54.5 162.5q0 99 -55.5 163.5t-141.5 64.5t-141 -64.5t-55 -163.5z" />
    <glyph glyph-name="perthousand.tf" horiz-adv-x="1404" 
d="M643 981q-89 -86 -229 -86q-143 0 -232 86q-88 85 -88 223t88 223q89 86 232 86q140 0 229 -86q90 -87 90 -223t-90 -223zM217 1204q0 -91 54.5 -148t142.5 -57t142 57t54 148q0 92 -54 148.5t-142 56.5t-142.5 -56.5t-54.5 -148.5zM147 678l1123 444v-112l-1123 -445
v113zM1012 600q137 0 224 -86.5t87 -222.5q0 -139 -87 -225t-224 -86q-178 0 -267 126q-89 -126 -264 -126q-137 0 -224 86t-87 225q0 136 87 221.5t224 85.5q176 0 264 -125q89 127 267 127zM346 141q54 -57 143 -57q91 0 142 57q53 59 53 150q0 90 -53 149q-52 58 -142 58
q-88 0 -143 -58q-53 -59 -53 -149q0 -91 53 -150zM860 141q54 -57 144 -57t141 57q55 58 55 150q0 91 -55 149q-52 58 -141 58t-144 -58q-53 -59 -53 -149q0 -91 53 -150z" />
    <glyph glyph-name="at.ss03" horiz-adv-x="1878" 
d="M1157 1032h109l-37 -528q-6 -94 29.5 -139.5t97.5 -45.5q115 0 186 121q72 126 72 320q0 287 -182 463t-476 176q-339 0 -530 -209q-190 -205 -190 -555q0 -119 27 -226t83.5 -199.5t138 -159.5t197.5 -105.5t254 -38.5h496v-113h-496q-375 0 -606 234q-230 233 -230 616
q0 388 236 627q235 241 618 241q356 0 574 -206q217 -205 217 -547q0 -242 -109 -393q-108 -150 -280 -150q-90 0 -146.5 45.5t-74.5 126.5h-13q-36 -83 -104.5 -126.5t-155.5 -43.5q-128 0 -219 98q-90 101 -90 289q0 201 98 326q100 127 246 127q166 0 231 -142h11z
M881 326q113 0 177 93t64 243q0 131 -55 208.5t-152 77.5q-109 0 -171 -93.5t-62 -248.5q0 -134 51.5 -207t147.5 -73z" />
    <glyph glyph-name="less_hyphen_hyphen" horiz-adv-x="1734" 
d="M1536 580v-103h-1278l346 -477h-121l-395 528l395 531h121l-346 -479h1278z" />
    <glyph glyph-name="uni1F310" horiz-adv-x="2056" 
d="M1030 1511q399 0 653 -213q254 -211 254 -550t-254 -553q-256 -215 -653 -215q-401 0 -657 215q-254 214 -254 553q0 338 252 550q257 213 659 213zM811 1169h434q-35 136 -91.5 211.5t-123.5 75.5q-69 0 -126.5 -75.5t-92.5 -211.5zM1296 1169h232q-127 217 -354 271
q78 -87 122 -271zM530 1169h230q44 184 125 271q-228 -55 -355 -271zM1585 1169h154q-134 161 -357 234q123 -82 203 -234zM674 1403q-223 -73 -357 -234h154q80 152 203 234zM168 772h205q6 198 69 338h-170q-98 -148 -104 -338zM748 1110h-248q-68 -145 -74 -338h289
q3 180 33 338zM764 772h528q-3 188 -32 338h-463q-30 -158 -33 -338zM1341 772h289q-6 190 -71 338h-248q27 -147 30 -338zM1681 772h205q-6 190 -104 338h-168q64 -155 67 -338zM373 717h-205q9 -188 106 -332h168q-63 149 -69 332zM715 717h-289q6 -187 74 -332h245
q-27 147 -30 332zM1292 717h-528q3 -176 33 -332h463q29 150 32 332zM1311 385h245q68 145 74 332h-289q-3 -185 -30 -332zM1886 717h-205q-6 -186 -67 -332h168q95 151 104 332zM467 330h-152q130 -160 353 -236q-125 90 -201 236zM758 330h-230q128 -220 355 -275
q-81 86 -125 275zM1245 330h-434q36 -138 93.5 -215.5t125.5 -77.5q67 0 123 77.5t92 215.5zM1528 330h-230q-45 -186 -122 -275q227 55 352 275zM1389 92q223 79 352 238h-154q-77 -151 -198 -238z" />
    <glyph glyph-name="uni1F441" horiz-adv-x="1859" 
d="M176 741q0 340 213 553q212 215 541 215q328 0 540 -215q213 -213 213 -553q0 -343 -213 -559q-213 -213 -540 -213q-328 0 -541 213q-213 216 -213 559zM268 741q0 -304 189 -499q187 -193 473 -193t473 193q188 194 188 499t-188 496q-187 193 -473 193t-473 -193
q-189 -192 -189 -496zM602 743q0 145 94 236q94 94 234 94q137 0 231 -94q96 -93 96 -236q0 -149 -94 -243q-95 -92 -233 -92q-139 0 -234 92q-94 94 -94 243zM629 762v-41l282 12l-182 -166l31 -32l164 186l-13 -291h39l-12 291l164 -186l31 32l-183 166l283 -12v41
l-283 -12l183 165l-31 33l-164 -186l12 289h-39l13 -289l-164 186l-31 -33l182 -165z" />
    </font>
</defs>
</svg>
